<svg width="29" height="29" viewBox="0 0 29 29" fill="none" xmlns="http://www.w3.org/2000/svg">
<rect x="0.5" y="0.5" width="28" height="28" rx="14" fill="white" fill-opacity="0.2"/>
<rect x="0.85" y="0.85" width="27.3" height="27.3" rx="13.65" stroke="white" stroke-opacity="0.4" stroke-width="0.7"/>
<path d="M10.4639 7.92892C10.3326 7.5297 9.86777 7.05939 9.47949 6.92267C9.11855 6.79689 8.40215 6.75861 8.07949 6.85158C7.55449 6.99923 7.17715 7.30548 6.92012 7.78673C6.82168 7.97267 6.7998 8.09845 6.7998 8.55783C6.7998 9.06095 6.81074 9.12658 6.9584 9.39455C7.42324 10.2313 8.4623 10.5485 9.48496 10.1656C10.3545 9.83752 10.7811 8.85861 10.4639 7.92892Z" fill="white"/>
<path d="M20.5018 11.8678C20.2926 11.7629 20.0772 11.6777 19.8701 11.6203C19.4818 11.5164 18.399 11.4672 18.0107 11.5383C17.3107 11.6641 16.5232 12.0961 16.124 12.5664C16.0509 12.657 15.96 12.7653 15.8841 12.8559L15.774 12.9875L15.6373 13.1516L15.6318 12.4242V11.7024H12.2412V21.9836H15.6264L15.6592 15.6672L15.8396 15.3008C16.0584 14.8578 16.3865 14.5188 16.7803 14.3328C17.2232 14.125 17.8357 14.1305 18.2678 14.3438C18.7545 14.5844 19.0225 14.9672 19.1646 15.6344C19.2248 15.9188 19.2412 16.6242 19.2412 18.9867V21.9836H22.6318V18.6531C22.6318 15.0219 22.6154 14.8141 22.3146 13.9555C22.1014 13.3594 21.8498 12.9492 21.4287 12.5227C21.1826 12.2732 20.8511 12.0428 20.5018 11.8678Z" fill="white"/>
<path d="M10.3818 21.9836L10.3709 16.8539L10.3545 11.7297L8.68105 11.7133C7.7623 11.7078 6.99668 11.7188 6.9748 11.7406C6.95293 11.757 6.93652 14.0703 6.93652 16.8813V21.9836H10.3818Z" fill="white"/>
</svg>
