<svg width="22" height="36" viewBox="0 0 22 36" fill="none" xmlns="http://www.w3.org/2000/svg">
<path d="M2.17095 35.5337C4.01088 34.2089 8.95821 31.3959 12.912 22.5397C12.9692 22.4089 13.002 22.2658 13.0428 22.1227C13.0756 22.0245 13.1001 21.9264 13.1246 21.8283C13.1369 21.7874 13.1451 21.7465 13.1533 21.7015C13.1778 21.5993 13.2064 21.4889 13.2309 21.3826C13.2473 21.3172 13.2596 21.2559 13.2718 21.1904C13.3045 21.0187 13.3372 20.847 13.3618 20.6712C13.374 20.569 13.3904 20.4708 13.4027 20.3727C13.4108 20.3482 13.4149 20.3114 13.4149 20.2827C13.4272 20.1519 13.4395 20.0211 13.4517 19.8861C13.4558 19.8412 13.4599 19.8003 13.4599 19.7594C13.4763 19.4977 13.4885 19.236 13.4885 18.9744C13.4885 18.8599 13.4885 18.7413 13.4763 18.6186C13.4763 18.5001 13.464 18.3815 13.4599 18.2629C13.4517 18.1852 13.4476 18.1035 13.4395 18.0299C13.4313 17.9072 13.419 17.7886 13.4027 17.666V17.6578C13.3986 17.6251 13.3945 17.5924 13.3904 17.5638C13.37 17.4206 13.3536 17.2857 13.3291 17.1467C13.3291 17.1344 13.325 17.1222 13.3209 17.1099C13.2963 16.9545 13.2636 16.8032 13.2309 16.652C13.2309 16.6438 13.2309 16.6397 13.2268 16.6315C13.1941 16.4884 13.1573 16.3412 13.1164 16.1981C13.1001 16.1163 13.0756 16.0346 13.051 15.9528C13.0265 15.8669 13.002 15.7892 12.9733 15.7034C12.9365 15.5889 12.8998 15.4703 12.8548 15.3518C12.7975 15.1841 12.728 15.0206 12.6626 14.8529C12.6013 14.7098 12.5399 14.5667 12.4745 14.4236C12.4214 14.3132 12.3641 14.1987 12.3069 14.0842C12.2496 13.9698 12.1883 13.8553 12.1229 13.7449C12.0575 13.6304 11.9921 13.5159 11.9225 13.4014C11.9185 13.3933 11.9103 13.3851 11.9062 13.3769C11.8326 13.2583 11.7549 13.1357 11.6772 13.013C11.6241 12.9353 11.5709 12.8576 11.5178 12.7799C11.4278 12.6491 11.3338 12.5183 11.2315 12.3874C11.1988 12.3425 11.162 12.2975 11.1293 12.2566C10.8636 11.9213 10.5814 11.6024 10.2789 11.308C10.2175 11.2467 10.1562 11.1853 10.0908 11.124C10.0377 11.0709 9.98448 11.0177 9.92315 10.9686C9.68601 10.7519 9.43659 10.5393 9.179 10.3472C9.12585 10.3063 9.07271 10.2695 9.01956 10.2286C8.96641 10.1918 8.91325 10.155 8.8601 10.1182C8.83556 10.0977 8.81512 10.0814 8.7865 10.065C8.76197 10.0487 8.7456 10.0323 8.72107 10.0201C8.60658 9.94237 8.49211 9.86878 8.37763 9.79518C8.27541 9.72976 8.1691 9.66842 8.06279 9.60709C7.98102 9.55803 7.89516 9.50897 7.81338 9.464C7.68254 9.3904 7.5517 9.32498 7.42086 9.25956C7.31455 9.20641 7.20825 9.15734 7.09786 9.10419C7.09786 9.10419 7.09785 9.10419 7.09377 9.10419C7.07741 9.09601 7.06105 9.08783 7.04061 9.07966C6.92204 9.0265 6.80347 8.97744 6.68899 8.92838C6.66445 8.91611 6.63992 8.90793 6.61539 8.89975C6.47229 8.84251 6.32509 8.78936 6.1738 8.73621C6.10021 8.70759 6.01843 8.68305 5.94484 8.65852C5.86715 8.6299 5.78537 8.60945 5.70768 8.58491C5.5932 8.54811 5.48282 8.51541 5.36424 8.48679C5.31927 8.47452 5.27838 8.46635 5.2334 8.44999C5.14754 8.42955 5.06168 8.41319 4.9799 8.38866C4.90222 8.37231 4.82453 8.35595 4.74684 8.3396C4.61192 8.31098 4.47699 8.28644 4.33797 8.26599C3.98634 8.20466 3.63061 8.16787 3.27898 8.14334C3.26672 8.14334 3.25856 8.14334 3.24629 8.14334C3.12363 8.13516 3.00096 8.13107 2.87829 8.12698C2.75563 8.12289 2.63296 8.11881 2.5103 8.1229C2.40808 8.1229 2.30177 8.12698 2.20365 8.13107C2.10143 8.13107 1.99921 8.14334 1.89699 8.14334C1.87246 8.14334 1.84793 8.14333 1.8234 8.15151C1.80295 8.20466 1.77024 8.25374 1.72118 8.29054C1.57807 8.40502 1.36548 8.38049 1.25099 8.23738C1.13651 8.09428 1.16104 7.88165 1.30415 7.76717C1.44725 7.65268 1.65576 7.67314 1.77024 7.81624C2.27724 7.77945 2.78426 7.77944 3.29126 7.80806C3.96999 7.85712 4.64462 7.96344 5.307 8.1229C5.82218 8.24965 6.32509 8.41728 6.81983 8.61763C6.95476 8.67078 7.09377 8.72802 7.22461 8.78935C7.82974 9.06329 8.41442 9.39449 8.97866 9.77882C9.51837 10.155 10.0335 10.5761 10.5119 11.0545C10.8227 11.3652 11.1171 11.6923 11.3951 12.044C11.4319 12.089 11.4646 12.1339 11.5014 12.1789C11.5995 12.3097 11.6936 12.4365 11.7835 12.5673C12.1679 13.1111 12.495 13.6795 12.773 14.2642C13.051 14.8611 13.2718 15.4703 13.4395 16.0918C13.5744 16.5988 13.6766 17.1099 13.7379 17.621C13.7543 17.7436 13.7665 17.8704 13.7788 17.9931C13.832 18.5737 13.8401 19.1584 13.8033 19.739C13.8033 19.7635 13.8034 19.7798 13.8115 19.8044C13.8115 19.8125 13.8197 19.8248 13.8238 19.833C13.8279 19.8412 13.832 19.8493 13.8402 19.8575C13.8688 19.8943 13.9138 19.9188 13.9669 19.9188C14.0569 19.9229 14.1386 19.8534 14.1468 19.7594C14.1468 19.7512 14.1468 19.7471 14.1468 19.743C14.1632 19.5263 14.1672 19.3096 14.1672 19.097C14.1672 19.0439 14.1672 18.9907 14.1672 18.9335C14.1672 18.7658 14.1673 18.6023 14.1509 18.4387C14.1509 18.4346 14.1509 18.4265 14.1509 18.4224C14.1427 18.2629 14.1304 18.1075 14.1141 17.9522C14.1141 17.9522 14.1141 17.9399 14.1141 17.9358C14.1059 17.8132 14.0937 17.6946 14.0773 17.576C14.0732 17.5515 14.0691 17.527 14.065 17.5024C14.0446 17.3471 14.0201 17.1917 13.9955 17.0363C13.9955 17.0118 13.9873 16.9872 13.9833 16.9627C13.9546 16.8032 13.9219 16.6397 13.8892 16.4802C13.8483 16.3167 13.8115 16.1531 13.7625 15.9896C13.742 15.9037 13.7216 15.822 13.6971 15.7443C13.6766 15.6666 13.648 15.5889 13.6234 15.5071C13.4722 15.0287 13.2882 14.5585 13.0715 14.1047C12.9979 13.9452 12.9202 13.7858 12.8384 13.6304C12.7812 13.5159 12.7198 13.4055 12.6585 13.291C12.6381 13.2624 12.6217 13.2297 12.6054 13.2011C12.5399 13.0825 12.4623 12.9598 12.3846 12.8413C12.3641 12.8045 12.3437 12.7759 12.3273 12.7431C12.2823 12.6777 12.2374 12.6082 12.1924 12.5469C12.1515 12.4815 12.1065 12.4201 12.0616 12.3547C11.9675 12.2239 11.8735 12.0971 11.7713 11.9663C11.7386 11.9172 11.7018 11.8723 11.665 11.8273C11.6282 11.7823 11.5954 11.7373 11.5545 11.6923C11.5177 11.6474 11.481 11.5983 11.4401 11.5574C11.3665 11.4675 11.2929 11.3816 11.2193 11.2998C11.1416 11.214 11.0639 11.1281 10.9821 11.0463C10.9004 10.9605 10.8227 10.8787 10.7409 10.7969L10.7327 10.7887C10.6551 10.7111 10.5774 10.6334 10.4956 10.5598C10.4097 10.478 10.3239 10.4044 10.2421 10.3267C10.1644 10.2613 10.0949 10.2041 10.0213 10.1427C9.94768 10.0814 9.87409 10.0201 9.7964 9.96282C9.58788 9.7911 9.37117 9.63572 9.15447 9.48444C8.57796 9.08783 7.96875 8.74847 7.34317 8.46635C7.20824 8.40502 7.07741 8.34777 6.94248 8.29462C6.54588 8.13516 6.14109 7.99615 5.73221 7.88167C5.61364 7.84487 5.49098 7.81624 5.3724 7.78353C5.24974 7.75491 5.11891 7.72629 4.99216 7.69767C4.7591 7.6486 4.52196 7.60363 4.28482 7.57092C4.12944 7.54639 3.97407 7.53003 3.8187 7.51367C3.74101 7.50549 3.66332 7.49732 3.58564 7.48914C3.56928 7.50549 3.55293 7.52186 3.53657 7.53412C3.39347 7.64861 3.18496 7.62407 3.06638 7.48097C2.9519 7.33786 2.97641 7.12525 3.11952 7.01077C3.26262 6.89628 3.47524 6.92082 3.58973 7.06392C3.61017 7.09254 3.63061 7.12116 3.63879 7.14978C4.24801 7.20293 4.84498 7.30514 5.44193 7.44825C5.99391 7.58318 6.5377 7.759 7.06923 7.9757C7.20416 8.02885 7.33909 8.0861 7.47401 8.14743C8.11594 8.43773 8.73742 8.78526 9.33028 9.19005C9.90679 9.58665 10.4547 10.0364 10.9617 10.5434C11.297 10.8787 11.62 11.2344 11.9185 11.6147C11.9552 11.6637 11.9961 11.7087 12.0289 11.7578C12.127 11.8845 12.221 12.0154 12.311 12.1462C12.6994 12.6941 13.0388 13.2665 13.3209 13.8553C13.325 13.8839 13.3372 13.9084 13.3577 13.933C13.3577 13.933 13.3618 13.937 13.3659 13.9411C13.4272 14.0106 13.5294 14.0229 13.603 13.9657C13.6562 13.9248 13.6807 13.8512 13.6643 13.7899C13.6643 13.7899 13.6643 13.7858 13.6643 13.7817C13.6603 13.7612 13.648 13.7408 13.6357 13.7204C13.5867 13.61 13.5376 13.5077 13.4803 13.4014C13.4027 13.2502 13.325 13.103 13.2432 12.9598C13.2064 12.8903 13.1655 12.8249 13.1246 12.7595C13.0551 12.6368 12.9733 12.5142 12.8957 12.3915C12.7975 12.2402 12.6953 12.089 12.5931 11.9418C12.5031 11.8109 12.4091 11.6801 12.311 11.5533C12.2742 11.5043 12.2333 11.4552 12.1965 11.4061C12.1188 11.308 12.037 11.2099 11.9594 11.1158C11.7794 10.9032 11.5954 10.6988 11.4074 10.4984C11.2765 10.5475 11.1171 10.5107 11.0271 10.3921C10.9126 10.249 10.9372 10.0405 11.0803 9.92603C11.2234 9.81154 11.4319 9.83606 11.5505 9.97917C11.6077 10.0528 11.6322 10.1427 11.62 10.2327C11.9185 10.5352 12.1965 10.8542 12.4664 11.1976C12.5072 11.2467 12.5481 11.2998 12.5849 11.3489C12.683 11.4756 12.7771 11.6024 12.8711 11.7373C13.3004 12.3425 13.6766 12.9803 13.9873 13.6386C14.3022 14.305 14.5557 14.9879 14.7438 15.687C14.9032 16.2676 15.0218 16.8564 15.0954 17.4493C15.1118 17.5719 15.124 17.6987 15.1363 17.8254C15.2058 18.5409 15.214 19.2606 15.1567 19.9802C15.1117 20.6385 15.0095 21.2886 14.8582 21.9305C14.8419 21.9959 14.8705 22.0654 14.9196 22.1022C14.94 22.1186 14.9646 22.1308 14.9891 22.1349C15.0381 22.1472 15.0954 22.1349 15.1363 22.1022C15.169 22.0777 15.1894 22.0409 15.1935 22.0041C15.2221 21.8651 15.2508 21.7302 15.2835 21.5911C15.3162 21.4439 15.3407 21.2967 15.3611 21.1496C15.3652 21.1291 15.3693 21.1087 15.3693 21.0882C15.398 20.9083 15.4225 20.7284 15.4429 20.5485C15.4634 20.3645 15.4797 20.1846 15.4961 20.0006C15.5083 19.8166 15.5206 19.6326 15.5247 19.4446C15.5288 19.2565 15.5329 19.0766 15.5329 18.8885C15.5329 18.7127 15.5247 18.5369 15.5165 18.361C15.5165 18.3529 15.5165 18.3447 15.5165 18.3365C15.5043 18.1525 15.4879 17.9726 15.4756 17.7845C15.4756 17.7682 15.4756 17.7518 15.4716 17.7355C15.4593 17.6251 15.447 17.5188 15.4348 17.4125C15.4266 17.3511 15.4225 17.2939 15.4102 17.2366C15.3898 17.114 15.3775 16.9872 15.3571 16.8687C15.2835 16.4434 15.1894 16.0141 15.075 15.5971C15.075 15.593 15.075 15.5889 15.075 15.5848C15.0259 15.4131 14.9768 15.2495 14.9196 15.0819C14.846 14.8447 14.7642 14.6117 14.6742 14.3827C14.6252 14.256 14.5761 14.1374 14.523 14.0107C14.4494 13.8389 14.3717 13.6672 14.294 13.4996C14.294 13.4996 14.294 13.4982 14.294 13.4955C14.2286 13.3524 14.1591 13.2093 14.0814 13.0702C14.0242 12.9598 13.9669 12.8535 13.9056 12.7472C13.8361 12.6246 13.7666 12.5019 13.693 12.3833C13.6194 12.2607 13.5458 12.1421 13.464 12.0235C13.37 11.8722 13.2677 11.7251 13.1696 11.582C13.1614 11.5697 13.1532 11.5615 13.1451 11.5492C13.051 11.4184 12.957 11.2917 12.8589 11.1649C12.8221 11.1118 12.7812 11.0586 12.7362 11.0095C12.6503 10.9032 12.5686 10.801 12.4786 10.6947C12.2374 10.4044 11.9839 10.1305 11.7181 9.87287C11.7018 9.85243 11.6813 9.83607 11.665 9.81562C11.5914 9.74611 11.5219 9.6766 11.4483 9.60709C11.3869 9.54985 11.3256 9.49262 11.2643 9.43947C11.1948 9.37405 11.1211 9.30863 11.0476 9.2473C10.6755 8.9202 10.2912 8.62581 9.89046 8.35187C9.71465 8.23329 9.53474 8.11472 9.34665 8.00432C9.27715 7.95935 9.20763 7.91846 9.13403 7.87757C9.07679 7.84077 9.01137 7.80397 8.95004 7.77126C8.84782 7.71402 8.74152 7.6527 8.62704 7.59954C8.54935 7.55866 8.47165 7.51776 8.38579 7.47687C8.21406 7.39101 8.04235 7.30923 7.86654 7.23155C7.73161 7.17022 7.59669 7.11298 7.46176 7.05983C7.43314 7.04756 7.40451 7.0353 7.37589 7.02303C7.35136 7.01485 7.33092 7.00259 7.30639 6.9985C7.1919 6.95761 7.0774 6.90855 6.95474 6.86766C6.88523 6.83904 6.80755 6.8145 6.73396 6.78997C6.61538 6.75317 6.49682 6.71228 6.38233 6.67139C6.14519 6.60189 5.90395 6.53647 5.66271 6.47514C5.59729 6.45879 5.54005 6.44652 5.47872 6.43016C5.31108 6.39336 5.14345 6.36065 4.9799 6.32794C4.82453 6.29932 4.66915 6.2707 4.51378 6.25026C4.32161 6.22164 4.12536 6.19711 3.93319 6.17666C3.73693 6.15622 3.54068 6.13987 3.34851 6.1276C2.96417 6.10307 2.57164 6.09488 2.19139 6.10715C2.00331 6.11124 1.81932 6.11942 1.63124 6.13577C1.5372 6.14395 1.44316 6.15213 1.34912 6.1603C1.32867 6.20119 1.30004 6.2339 1.26324 6.26252C1.12014 6.37701 0.91163 6.35247 0.793057 6.20937C0.678573 6.06626 0.703082 5.85365 0.846188 5.73917C0.989293 5.62468 1.20192 5.64922 1.3164 5.79232C1.32458 5.8005 1.33275 5.80868 1.33684 5.82095C2.01148 5.75553 2.68612 5.74326 3.36076 5.78415C4.16624 5.83321 4.95536 5.95178 5.73221 6.13987C6.36188 6.29524 6.98338 6.49149 7.58851 6.73682C7.72344 6.78997 7.85836 6.84722 7.9892 6.90855C8.70881 7.22747 9.4039 7.6118 10.0622 8.06565C10.6918 8.49497 11.2929 8.98153 11.8489 9.52942C11.8489 9.52942 11.8571 9.5376 11.8612 9.54168C11.9225 9.6071 12.0207 9.61527 12.0943 9.55803C12.1638 9.50079 12.1801 9.40267 12.1311 9.32498V9.32089C12.1311 9.32089 12.1311 9.31272 12.127 9.31272C12.1147 9.29636 12.1065 9.28818 12.0902 9.28C12.0902 9.28 12.0861 9.28 12.082 9.28C12.0084 9.2064 11.9307 9.1369 11.853 9.0633C11.7835 8.99788 11.7181 8.93246 11.6404 8.87113C11.1988 8.47043 10.7286 8.11063 10.238 7.77945C10.1153 7.69358 9.99266 7.6159 9.87 7.53412C9.77187 7.47279 9.67375 7.41555 9.57562 7.35422C9.46931 7.29289 9.36708 7.23155 9.25669 7.17431C9.14629 7.10889 9.03181 7.04756 8.92141 6.99031C8.82328 6.93716 8.72516 6.88809 8.62294 6.83494C8.53708 6.79405 8.45531 6.75726 8.37354 6.71638C8.349 6.70411 8.32448 6.69184 8.30404 6.68366H8.29994C8.15684 6.80223 7.9483 6.7777 7.82973 6.6346C7.71525 6.49149 7.73978 6.27888 7.88288 6.1644C8.03008 6.04991 8.23861 6.07445 8.3531 6.21755C8.3899 6.26253 8.41033 6.31159 8.41851 6.36474C9.11359 6.68366 9.78413 7.05574 10.4302 7.49323C11.1089 7.95526 11.7467 8.47452 12.3478 9.0633C12.7689 9.46808 13.1614 9.90966 13.5335 10.3758C13.5785 10.433 13.6235 10.4862 13.6643 10.5434C13.7625 10.6702 13.8606 10.801 13.9506 10.9278C14.4249 11.586 14.8296 12.2729 15.169 12.9803C15.169 13.0089 15.1813 13.0375 15.2017 13.0621C15.263 13.1357 15.3734 13.152 15.447 13.0907C15.5124 13.0375 15.5329 12.9476 15.492 12.874C15.4143 12.7104 15.3366 12.5551 15.2508 12.3997C15.1772 12.2566 15.0995 12.1176 15.0177 11.9745C14.985 11.909 14.9482 11.8477 14.9073 11.7864C14.8705 11.7251 14.8378 11.6637 14.7969 11.6065C14.7152 11.4675 14.6293 11.3325 14.5393 11.1976C14.433 11.0382 14.3267 10.8787 14.2122 10.7233C14.1223 10.5966 14.0242 10.4657 13.926 10.339C13.8851 10.2817 13.8361 10.2245 13.7911 10.1673C13.6971 10.0487 13.5989 9.9301 13.5008 9.81153C13.4027 9.69705 13.3004 9.58256 13.1982 9.46808C13.1328 9.39857 13.0715 9.32498 13.002 9.25547C12.9447 9.19414 12.8875 9.12872 12.8262 9.06739C12.7526 8.99379 12.679 8.92019 12.6054 8.8466C12.5931 8.83433 12.5849 8.82616 12.5727 8.81389C11.9553 8.21285 11.3011 7.68131 10.606 7.21111C10.5855 7.19475 10.5651 7.18249 10.5446 7.17022C10.4383 7.10071 10.3361 7.03529 10.2298 6.96578C10.1521 6.91672 10.0704 6.86357 9.98859 6.8186C9.90272 6.76544 9.82095 6.71638 9.73509 6.66322C9.64105 6.60598 9.54291 6.55691 9.44887 6.50376C9.28532 6.4138 9.11767 6.32795 8.95004 6.24618C8.80693 6.17258 8.65974 6.10307 8.51663 6.03765C8.46757 6.01312 8.4226 5.99267 8.37354 5.97223C8.2427 5.9109 8.10777 5.85774 7.96876 5.80459C7.31047 5.53473 6.63174 5.31803 5.94484 5.15039C5.70769 5.09724 5.47054 5.04408 5.22931 4.99502C5.04532 4.96231 4.86133 4.93369 4.67734 4.90506C4.45246 4.87235 4.22348 4.84374 3.99451 4.8192C3.89638 4.80694 3.79417 4.80285 3.69604 4.79467C3.59382 4.7865 3.4957 4.77832 3.39348 4.77423C3.16042 4.75788 2.92735 4.75379 2.6943 4.7497C2.67794 4.7497 2.66159 4.7497 2.64523 4.7497C2.59208 4.7497 2.54301 4.7497 2.48986 4.7497C2.46942 4.78241 2.44488 4.81512 2.41217 4.83966C2.26907 4.95414 2.05647 4.9296 1.94199 4.78241C1.8275 4.6393 1.85201 4.43078 1.99512 4.3163C2.13822 4.20182 2.35085 4.22634 2.46533 4.36944C2.4776 4.38171 2.48578 4.39807 2.49395 4.41033C2.79652 4.41033 3.10317 4.41443 3.40982 4.43078C4.2889 4.47985 5.1598 4.61069 6.01843 4.81512C6.72578 4.98685 7.42494 5.21173 8.10367 5.48976C8.2386 5.54291 8.37354 5.60015 8.50847 5.66148C9.30168 6.00902 10.0663 6.43017 10.7941 6.92081C11.5014 7.39919 12.1801 7.94708 12.8057 8.56447C13.2514 8.99788 13.6684 9.46399 14.0609 9.95464C14.1059 10.0119 14.1509 10.0732 14.1959 10.1305C14.294 10.2572 14.3921 10.388 14.4821 10.5148C14.985 11.218 15.4266 11.954 15.7864 12.7186C16.1626 13.4914 16.461 14.2887 16.6859 15.0983C16.8822 15.7933 17.0212 16.5007 17.1111 17.2121C17.1275 17.3348 17.1397 17.4574 17.152 17.5842C17.2297 18.361 17.2461 19.1461 17.197 19.927C17.197 19.9475 17.197 19.9679 17.2052 19.9843C17.2174 20.0292 17.2461 20.066 17.2869 20.0865C17.2992 20.0947 17.3115 20.0988 17.3238 20.1028C17.3319 20.1028 17.3401 20.1028 17.3483 20.1069C17.3606 20.1069 17.3687 20.1069 17.3769 20.1069C17.3851 20.1069 17.3933 20.1069 17.4014 20.1069C17.4055 20.1069 17.4137 20.1069 17.4219 20.1028C17.4423 20.0988 17.4587 20.0865 17.475 20.0742C17.4914 20.062 17.4995 20.0497 17.5077 20.0374C17.5118 20.0292 17.5159 20.0252 17.52 20.017C17.52 20.0088 17.5282 20.0047 17.5282 19.9965C17.5282 19.9843 17.5364 19.9761 17.5364 19.9638C17.5364 19.9597 17.5364 19.9557 17.5364 19.9516C17.5486 19.7553 17.5527 19.555 17.5568 19.3546C17.5568 19.1706 17.565 18.9948 17.5568 18.8149C17.5568 18.7536 17.5568 18.6922 17.5527 18.635C17.5527 18.4878 17.5404 18.3365 17.5323 18.1852C17.52 17.9685 17.5036 17.7559 17.4832 17.5433C17.4709 17.4206 17.4546 17.298 17.4382 17.1753C17.43 17.1099 17.4219 17.0486 17.4096 16.9831C17.3932 16.8441 17.3728 16.7133 17.3524 16.5784C17.3401 16.4925 17.3278 16.4066 17.3074 16.3289C17.2583 16.0795 17.2093 15.8301 17.1479 15.5807C17.1071 15.4049 17.0621 15.225 17.0171 15.0533C17.013 15.0369 17.0048 15.0206 17.0007 15.0001C16.9394 14.7834 16.874 14.5708 16.8045 14.3541C16.7677 14.2396 16.7023 14.0597 16.6614 13.9452C16.6491 13.9125 16.6368 13.8839 16.6246 13.8553C16.5387 13.6181 16.4447 13.3892 16.3465 13.1602C16.3097 13.0662 16.2689 12.9762 16.228 12.8822C16.1789 12.7718 16.1298 12.6695 16.0767 12.5632C15.9826 12.3629 15.8804 12.1666 15.7741 11.9704C15.7046 11.8436 15.631 11.7169 15.5615 11.5901C15.4879 11.4593 15.4102 11.3285 15.3285 11.1976C15.2998 11.1526 15.2671 11.0995 15.2426 11.0545C15.1608 10.9278 15.079 10.8051 14.9973 10.6783C14.9155 10.5598 14.8296 10.433 14.7438 10.3144C14.6497 10.1836 14.5557 10.0569 14.4576 9.93011C14.4126 9.86877 14.3635 9.80744 14.3185 9.7502C14.2245 9.63163 14.1264 9.51306 14.0323 9.39858C13.8974 9.23912 13.7625 9.08374 13.6194 8.93246C13.5376 8.83842 13.4517 8.74438 13.3618 8.65443C13.2555 8.54403 13.1492 8.43363 13.0388 8.33141C13.0388 8.32733 13.0306 8.32324 13.0265 8.31915C12.3846 7.68949 11.6936 7.13342 10.9658 6.64277C10.9576 6.63868 10.9494 6.63051 10.9412 6.62642C10.8554 6.56918 10.7736 6.51194 10.6877 6.45879C10.3116 6.21346 9.92317 5.99267 9.52656 5.78415C9.42434 5.73508 9.32619 5.68193 9.22807 5.63287C9.02772 5.53474 8.82738 5.4407 8.62294 5.35075C8.54526 5.31395 8.46756 5.28124 8.38579 5.24853C8.33264 5.22808 8.27541 5.20355 8.22226 5.18311C8.1323 5.14631 8.04643 5.11359 7.95239 5.0768C7.78066 5.01138 7.61302 4.95004 7.4413 4.8928C7.40041 4.88053 7.35543 4.8601 7.31045 4.85192C7.12646 4.79059 6.94248 4.72925 6.75439 4.6761C6.52951 4.61068 6.30465 4.55343 6.07977 4.49619C5.60548 4.38171 5.12709 4.29586 4.64053 4.22635C4.45654 4.20182 4.26846 4.17728 4.08038 4.16093C3.96998 4.14866 3.8555 4.14048 3.74919 4.12821C3.63471 4.12003 3.52022 4.10777 3.40982 4.10777C3.29534 4.09959 3.18494 4.0955 3.07045 4.09141C2.96006 4.08732 2.84559 4.08733 2.73111 4.08324C2.61662 4.08324 2.50622 4.08324 2.39174 4.08324C2.21183 4.08324 2.02783 4.09142 1.84384 4.0996C1.69664 4.10778 1.55356 4.11594 1.40227 4.12821C1.3573 4.12821 1.31231 4.1323 1.26734 4.14048C1.21418 4.14048 1.16512 4.14865 1.11606 4.15274C1.09561 4.20181 1.06291 4.2427 1.01793 4.27541C0.874827 4.38989 0.662203 4.36536 0.547719 4.22225C0.433235 4.07915 0.457769 3.86654 0.600874 3.75205C0.743979 3.63757 0.95251 3.6621 1.06699 3.80521H1.07109C1.85612 3.7357 2.64116 3.71934 3.4221 3.76432C4.33798 3.81338 5.25384 3.94831 6.14927 4.16093C6.89751 4.33674 7.63348 4.57797 8.34901 4.86827C8.48393 4.92142 8.61476 4.97866 8.7456 5.03591C9.57561 5.3998 10.377 5.83322 11.1375 6.34839C11.8817 6.85131 12.5931 7.41964 13.2514 8.05748C13.7175 8.51541 14.1632 9.00605 14.5843 9.5335C14.6334 9.59483 14.6783 9.65617 14.7274 9.7175C14.8051 9.8238 14.8828 9.92602 14.9605 10.0323C14.9605 10.0323 14.9727 10.0609 14.9809 10.0691C14.9891 10.0814 14.9973 10.0855 15.0054 10.0977C15.0668 10.1468 15.1608 10.1468 15.2221 10.0977C15.2835 10.0487 15.3039 9.96282 15.2712 9.89331C15.2671 9.87695 15.2589 9.86469 15.2467 9.85242C15.2385 9.84424 15.2303 9.83607 15.2221 9.82789C15.1813 9.76247 15.1322 9.70523 15.0872 9.6439C15.0545 9.59893 15.0177 9.55394 14.985 9.50897C14.9359 9.44764 14.891 9.38222 14.8378 9.32089C14.7519 9.21458 14.6702 9.11236 14.5802 9.01014C14.5189 8.92837 14.4494 8.85069 14.3799 8.773C14.3104 8.69123 14.2449 8.61763 14.1713 8.53994C14.1182 8.4827 14.065 8.42545 14.0119 8.36821C13.9587 8.31097 13.9097 8.25374 13.8524 8.20058C13.7216 8.06566 13.5907 7.93482 13.4599 7.80398C13.2841 7.63225 13.1001 7.46052 12.9161 7.29697C12.7893 7.18657 12.6626 7.08028 12.5359 6.97397C12.4009 6.86766 12.2742 6.76135 12.1433 6.66322C12.0575 6.5978 11.9757 6.53238 11.8857 6.47105C11.7958 6.40972 11.7058 6.3443 11.62 6.27888C11.5137 6.2012 11.4114 6.12759 11.3011 6.05809C11.1784 5.97631 11.0557 5.89454 10.9331 5.81685C10.8677 5.77188 10.8022 5.73508 10.7327 5.6942C10.6223 5.62878 10.516 5.56335 10.4056 5.49793C10.2053 5.38345 10.0049 5.26896 9.7964 5.16266C9.71054 5.11768 9.6206 5.07271 9.53065 5.02773C9.42435 4.97458 9.31393 4.92142 9.20763 4.87236C9.06452 4.98276 8.85599 4.95823 8.74151 4.81512C8.62702 4.67202 8.65156 4.46349 8.79466 4.349C8.94186 4.23452 9.15039 4.25905 9.26487 4.40216C9.30167 4.44714 9.3262 4.50437 9.33438 4.56161C10.0744 4.90507 10.794 5.31395 11.481 5.77188C12.2578 6.29115 12.9979 6.8881 13.6889 7.55456C14.1836 8.03703 14.6538 8.5563 15.0954 9.11236C15.1445 9.17778 15.1935 9.23911 15.2467 9.30453C15.3448 9.43128 15.4389 9.55803 15.5329 9.68478C16.089 10.4535 16.5673 11.2589 16.9721 12.093C17.3851 12.9353 17.7122 13.8062 17.9616 14.6935C18.1783 15.4703 18.3418 16.2554 18.4359 17.0445C18.4441 17.1099 18.4522 17.1753 18.4604 17.2407C18.4686 17.3143 18.5217 17.3757 18.5953 17.3879C18.5994 17.3879 18.6117 17.3879 18.6199 17.3879C18.628 17.3879 18.6403 17.3879 18.6526 17.3879C18.7466 17.3757 18.812 17.2939 18.7998 17.1998C18.7998 17.1876 18.7998 17.1712 18.7957 17.1549C18.7875 17.1017 18.7834 17.0486 18.7752 16.9954C18.7507 16.7828 18.718 16.5702 18.6812 16.3576C18.6689 16.284 18.6567 16.2104 18.6403 16.1409C18.5994 15.9078 18.5585 15.6788 18.5013 15.454C18.4727 15.3231 18.4441 15.1964 18.4113 15.0655C18.3705 14.9061 18.3296 14.7466 18.2805 14.5872C18.2192 14.3623 18.1497 14.1374 18.0761 13.9166C17.9943 13.6672 17.9043 13.4096 17.8062 13.1602C17.6549 12.7759 17.4914 12.3915 17.3115 12.0194C17.2992 11.9867 17.2829 11.9581 17.2706 11.9295C17.2583 11.8927 17.2338 11.8559 17.2174 11.8232C17.1847 11.7537 17.1479 11.6842 17.1111 11.6106C17.0743 11.537 17.0375 11.4634 17.0007 11.3939C16.9639 11.3244 16.9231 11.2548 16.8863 11.1813C16.8495 11.1077 16.8086 11.03 16.7636 10.9605C16.7104 10.8583 16.6491 10.7601 16.5878 10.6579C16.5305 10.5639 16.4733 10.4698 16.416 10.3799C16.3424 10.2613 16.2648 10.1427 16.183 10.0242C16.1298 9.93829 16.0726 9.85651 16.0154 9.77473C15.9458 9.67251 15.8804 9.57439 15.8027 9.47626C15.7087 9.34542 15.6147 9.21867 15.5165 9.09192C15.4675 9.0265 15.4143 8.96108 15.3652 8.89566C15.214 8.70349 15.0545 8.51541 14.8991 8.33141C14.801 8.21693 14.7029 8.10654 14.6007 7.99615C14.5516 7.93891 14.5025 7.88575 14.4494 7.83668C14.4003 7.78353 14.3472 7.72629 14.2981 7.67723C14.1754 7.54639 14.0487 7.42372 13.9219 7.29697C13.9138 7.2847 13.9056 7.27653 13.8933 7.26836C13.8279 7.20703 13.7665 7.14569 13.7011 7.08845C13.6194 7.01077 13.5335 6.93308 13.4517 6.85539C13.3863 6.79406 13.3127 6.73682 13.2473 6.67549C13.0428 6.49967 12.8343 6.32795 12.6217 6.1644C12.5032 6.07036 12.3805 5.97632 12.2578 5.88637C12.1597 5.81277 12.0616 5.74735 11.9634 5.67784C11.8653 5.60833 11.7672 5.53882 11.669 5.4734C11.575 5.40798 11.481 5.34666 11.3869 5.28532C11.1293 5.12178 10.8677 4.96641 10.6019 4.81512C10.4383 4.72108 10.2707 4.63113 10.099 4.54527C9.99266 4.48803 9.88636 4.43077 9.77187 4.38171C9.66557 4.32856 9.55517 4.27541 9.44478 4.22635C9.40798 4.20999 9.37117 4.18954 9.33438 4.17727C9.28531 4.15274 9.22809 4.12821 9.17494 4.10777C9.15858 4.09551 9.13404 4.08324 9.11359 4.07915C9.01138 4.03417 8.90915 3.9892 8.80285 3.94422C8.77014 3.93196 8.74153 3.91969 8.71291 3.90743C8.61069 3.86654 8.50847 3.82565 8.40625 3.78885C8.22635 3.71525 8.04644 3.65392 7.86245 3.59259C7.73978 3.54761 7.61304 3.50673 7.48629 3.46993C7.18373 3.3718 6.87705 3.28593 6.5704 3.20825C6.55813 3.22051 6.54588 3.2287 6.53361 3.24096C6.38642 3.35545 6.17788 3.33091 6.0634 3.18781C5.94892 3.0447 5.97345 2.83618 6.11655 2.71761C6.25966 2.60312 6.46819 2.62766 6.58267 2.77076C6.60721 2.80347 6.62766 2.84026 6.63992 2.87706C7.38816 3.06514 8.12004 3.30229 8.83556 3.59259C8.97049 3.64574 9.10132 3.70299 9.23625 3.76023C10.1399 4.15274 11.0108 4.63112 11.8449 5.18719C12.6544 5.7269 13.4231 6.3443 14.1427 7.04347C14.6661 7.54638 15.1608 8.09427 15.6269 8.67896C15.6801 8.74438 15.7332 8.81388 15.7823 8.8793C15.8804 9.00605 15.9745 9.1328 16.0685 9.26364C16.6532 10.0609 17.1479 10.8991 17.5691 11.7659C17.9984 12.6409 18.3378 13.5404 18.5994 14.4563C18.5994 14.4563 18.5994 14.4645 18.5994 14.4686C18.5994 14.4727 18.5994 14.4768 18.5994 14.4768C18.5994 14.4768 18.6117 14.5054 18.624 14.5176C18.6853 14.5912 18.7916 14.6035 18.8652 14.5463C18.9183 14.5054 18.9388 14.4359 18.9224 14.3745C18.7548 13.7858 18.5545 13.197 18.3214 12.6287C18.2764 12.5142 18.2273 12.3997 18.1783 12.2852C18.1292 12.1666 18.0802 12.0562 18.0229 11.9418C17.9738 11.8273 17.9207 11.7169 17.8635 11.6024C17.7612 11.3816 17.6468 11.1608 17.5282 10.9441C17.4137 10.7233 17.291 10.5107 17.1643 10.3022C17.0989 10.1918 17.0335 10.0896 16.968 9.98326C16.9271 9.91375 16.8862 9.85242 16.8454 9.787C16.7963 9.70931 16.7431 9.63164 16.69 9.55395C16.5755 9.38222 16.461 9.21458 16.3384 9.04694C16.2811 8.96517 16.2239 8.8834 16.1625 8.8098C16.1257 8.76074 16.0889 8.71576 16.0521 8.66669C15.999 8.59718 15.9459 8.52768 15.8927 8.46226C15.6964 8.21284 15.492 7.9757 15.2835 7.73856C15.214 7.65678 15.1445 7.57501 15.0668 7.49732C14.9605 7.37875 14.8542 7.26834 14.7438 7.15386C14.6211 7.02711 14.4984 6.90445 14.3758 6.78588C14.0896 6.50785 13.7952 6.24617 13.4926 5.98858C13.3863 5.89454 13.2759 5.80867 13.1655 5.72281C12.9938 5.58379 12.8221 5.45296 12.6463 5.32212C12.5522 5.25261 12.4582 5.1872 12.3641 5.12178C12.2537 5.04409 12.1433 4.9664 12.0329 4.89689C11.1866 4.32856 10.2952 3.84201 9.37119 3.4454C9.24035 3.38816 9.10543 3.33091 8.9705 3.27776C8.80695 3.21234 8.6393 3.14692 8.47166 3.08559C8.34491 3.03653 8.21407 2.99155 8.08732 2.94658C8.00964 2.91796 7.93604 2.89751 7.85835 2.87298C7.76431 2.84027 7.67028 2.81164 7.58032 2.78711C7.22052 2.67671 6.85253 2.57859 6.48046 2.48864C6.23513 2.42731 5.98571 2.37415 5.73221 2.32508C5.72404 2.32508 5.71586 2.321 5.70768 2.321C5.47054 2.28012 5.23749 2.23923 5.00443 2.20652C4.96764 2.20243 4.93492 2.19834 4.89812 2.19016C4.68551 2.16563 4.47699 2.1411 4.26438 2.11657C4.23984 2.11657 4.21123 2.11247 4.19078 2.10838C4.04359 2.09612 3.90049 2.08385 3.75738 2.07158C3.74102 2.09203 3.72467 2.10838 3.70422 2.12474C3.56112 2.23922 3.35259 2.2147 3.2381 2.0675C3.12362 1.9244 3.14815 1.71178 3.29126 1.59729C3.43436 1.48281 3.64696 1.50735 3.76145 1.65454C3.78189 1.67907 3.79824 1.70769 3.81051 1.73631C4.73456 1.80173 5.65454 1.94075 6.55814 2.15746C7.42495 2.3578 8.27539 2.62765 9.10132 2.96702C9.23624 3.02017 9.37119 3.07741 9.50203 3.13465C10.4138 3.53126 11.2929 4.00555 12.1352 4.56161C12.1352 4.56161 12.1638 4.58206 12.1801 4.59024C12.1801 4.59024 12.1842 4.59024 12.1842 4.59433C12.1924 4.60251 12.2006 4.6066 12.2088 4.61069C12.221 4.61887 12.2333 4.62295 12.2496 4.62703C12.2496 4.62703 12.2537 4.62703 12.2578 4.62703C12.2987 4.62703 12.3396 4.61477 12.3764 4.59024C12.4541 4.52891 12.4663 4.41851 12.405 4.34491C12.4009 4.33673 12.3928 4.33265 12.3887 4.32857C12.3887 4.32857 12.3641 4.31221 12.3559 4.30403C12.3519 4.29995 12.3437 4.29585 12.3396 4.29176C12.3192 4.27949 12.2987 4.26723 12.2824 4.25496C12.2169 4.21407 12.1474 4.1691 12.082 4.12821C12.0616 4.11186 12.0411 4.09959 12.0207 4.08732C11.9266 4.02599 11.8244 3.96467 11.7263 3.90334C11.5546 3.80112 11.3869 3.69889 11.2152 3.60485C11.0435 3.50672 10.8676 3.41678 10.6918 3.32682C10.5733 3.26549 10.4588 3.20825 10.3402 3.15101C10.2216 3.09377 10.1072 3.03653 9.98859 2.98337C9.87001 2.93022 9.75144 2.87706 9.63287 2.82391C9.51021 2.76667 9.38754 2.7176 9.26897 2.67263C9.2567 2.66854 9.24442 2.66445 9.23216 2.65627C9.10541 2.60311 8.97456 2.54996 8.84372 2.50499C8.36126 2.321 7.86652 2.15745 7.36361 2.01843C7.24913 1.98981 7.13056 1.9571 7.01608 1.92848C6.88933 1.89168 6.76258 1.86306 6.63174 1.83444C6.37006 1.77311 6.10429 1.71587 5.83852 1.6668C5.65862 1.63001 5.47871 1.60138 5.29881 1.57276C5.20477 1.5564 5.10256 1.54006 5.00034 1.52779C4.84497 1.50326 4.68552 1.4869 4.52197 1.47054C4.17852 1.42965 3.83505 1.40104 3.48751 1.38468C3.34032 1.3765 3.18495 1.36833 3.02958 1.36424C2.91918 1.36424 2.80469 1.36424 2.6902 1.36015C2.48577 1.36015 2.27724 1.36015 2.0728 1.36424C2.01556 1.36424 1.95833 1.36833 1.90108 1.37242C1.48812 1.38877 1.07108 1.4133 0.658122 1.45828C0.637679 1.49916 0.609049 1.53188 0.57225 1.56459C0.429145 1.67907 0.220635 1.65453 0.102062 1.50734C-0.0124219 1.36423 0.0120874 1.15163 0.155193 1.04123C0.302387 0.926747 0.510921 0.951281 0.625406 1.09439C0.633583 1.10256 0.641751 1.11073 0.641751 1.123C1.59442 1.02078 2.54711 0.996251 3.4916 1.0494C4.56694 1.10665 5.64228 1.25793 6.69308 1.50734C7.59669 1.71995 8.48801 2.00208 9.35481 2.35371C9.48974 2.40686 9.6206 2.4641 9.75553 2.52135C10.7327 2.94248 11.6772 3.45357 12.5727 4.05462C13.4272 4.62295 14.2368 5.26896 14.9973 5.99267C14.9973 5.99675 15.0054 6.00493 15.0095 6.00902C15.0259 6.02947 15.0422 6.04174 15.0627 6.05401C15.124 6.08672 15.1976 6.08262 15.2549 6.03765C15.3244 5.98041 15.3448 5.87818 15.2916 5.80459C15.2916 5.80459 15.263 5.77188 15.2467 5.75962C14.4698 5.01547 13.6357 4.35309 12.7607 3.77249C12.7362 3.75614 12.7117 3.7357 12.6871 3.72343C12.5686 3.64574 12.4459 3.56806 12.3273 3.49446C12.221 3.42904 12.1147 3.35953 12.0084 3.2982C11.4769 2.98337 10.9372 2.69308 10.3811 2.43549C10.3034 2.3946 10.2216 2.3578 10.1358 2.321C10.054 2.2842 9.97224 2.24331 9.89046 2.2106C9.85366 2.19833 9.81277 2.18198 9.78006 2.16563C9.68193 2.12474 9.58788 2.08794 9.48975 2.04705C9.41206 2.01434 9.33438 1.98573 9.25669 1.95302C9.04816 1.87125 8.83146 1.78946 8.61885 1.71587C8.46757 1.66271 8.31629 1.61365 8.16501 1.56459C8.01373 1.51552 7.85835 1.46646 7.70298 1.42557C7.55579 1.38468 7.40859 1.33971 7.26139 1.29882C7.09784 1.26202 6.93838 1.22113 6.77483 1.17615C6.50498 1.11482 6.23513 1.05759 5.96527 1.00443C5.69542 0.955369 5.42557 0.910387 5.15162 0.869499C4.73457 0.812257 4.31343 0.767287 3.89229 0.734577C3.87593 0.750932 3.86367 0.767281 3.84732 0.779547C3.70421 0.894031 3.49159 0.869509 3.37711 0.726404C3.26262 0.583299 3.28716 0.370675 3.43435 0.256191C3.57746 0.141707 3.79008 0.166241 3.90457 0.309347C3.92501 0.333879 3.94136 0.366585 3.95363 0.395206C4.92675 0.468803 5.89987 0.616008 6.84845 0.840888C7.79295 1.06168 8.72107 1.35606 9.62059 1.71996C9.75552 1.77311 9.89044 1.83036 10.0213 1.8876C11.0312 2.32509 12.0166 2.85662 12.9447 3.4781C13.8565 4.08324 14.7192 4.77014 15.5288 5.55109C16.1298 6.1276 16.7023 6.75726 17.2338 7.42781C17.291 7.50141 17.3524 7.575 17.4096 7.65269C17.4873 7.7549 17.565 7.85712 17.6427 7.95934C17.6427 7.95934 17.659 7.99206 17.6672 8.00841C17.6713 8.0125 17.6795 8.02067 17.6836 8.02476L17.6876 8.02885C17.7122 8.0493 17.7408 8.06565 17.7653 8.06974C17.7776 8.06974 17.7858 8.06974 17.7939 8.06974C17.8021 8.06974 17.8144 8.06974 17.8226 8.06974C17.8307 8.06974 17.843 8.06974 17.8512 8.06565C17.8716 8.06156 17.888 8.04929 17.9043 8.03703C17.9698 7.98796 17.9902 7.89802 17.9534 7.82851C17.9493 7.81624 17.9411 7.80398 17.933 7.79171C17.9289 7.78762 17.9248 7.77945 17.9207 7.77945C17.8389 7.66087 17.7572 7.55456 17.6754 7.44417C17.6181 7.36648 17.5568 7.2888 17.4955 7.2152C16.9517 6.5283 16.367 5.89045 15.7496 5.29759C14.9277 4.50438 14.0446 3.80112 13.1164 3.1919C12.1679 2.55815 11.1702 2.01434 10.1399 1.57276C10.009 1.51552 9.87408 1.46236 9.73916 1.40512C8.89279 1.06167 8.0219 0.779556 7.13873 0.558765C7.12647 0.571031 7.11421 0.583296 7.09786 0.595562C6.95475 0.710046 6.74213 0.685512 6.62765 0.542407C6.51316 0.399301 6.5377 0.186691 6.68489 0.0722063C6.828 -0.0422778 7.03653 -0.0177435 7.15511 0.125362C7.17964 0.153983 7.19597 0.182604 7.20824 0.215314C8.11184 0.436105 9.00728 0.726398 9.87409 1.07803C10.009 1.13118 10.1398 1.18842 10.2748 1.24567C11.3215 1.69951 12.3396 2.2474 13.3045 2.88933C14.249 3.5149 15.1445 4.23452 15.9826 5.04C16.6123 5.64513 17.2093 6.29524 17.7653 6.9985C17.8266 7.07619 17.888 7.15386 17.9452 7.23155C18.0434 7.35421 18.1374 7.48097 18.2314 7.61181C18.9102 8.54404 19.503 9.51306 19.9937 10.5189C20.4966 11.5411 20.9014 12.6 21.2121 13.6754C21.4901 14.6444 21.6946 15.6257 21.8132 16.6152C21.8295 16.7378 21.8418 16.8605 21.854 16.9831C21.9808 18.0953 22.0012 19.2197 21.9276 20.3359C21.854 21.448 21.5515 24.9766 20.5988 27.1927C16.1625 37.5208 6.02662 36.2124 2.14642 35.5787" fill="white"/>
</svg>
