<svg width="22" height="36" viewBox="0 0 22 36" fill="none" xmlns="http://www.w3.org/2000/svg">
<path d="M2.14111 35.5337C3.98103 34.2089 8.92837 31.3959 12.8822 22.5397C12.9394 22.4089 12.9721 22.2658 13.013 22.1227C13.0457 22.0245 13.0703 21.9264 13.0948 21.8283C13.107 21.7874 13.1152 21.7465 13.1234 21.7015C13.1479 21.5993 13.1766 21.4889 13.2011 21.3826C13.2174 21.3172 13.2297 21.2559 13.242 21.1904C13.2747 21.0187 13.3074 20.847 13.3319 20.6712C13.3442 20.569 13.3605 20.4708 13.3728 20.3727C13.381 20.3482 13.3851 20.3114 13.3851 20.2827C13.3974 20.1519 13.4096 20.0211 13.4219 19.8861C13.426 19.8412 13.4301 19.8003 13.4301 19.7594C13.4464 19.4977 13.4587 19.236 13.4587 18.9744C13.4587 18.8599 13.4587 18.7413 13.4464 18.6186C13.4464 18.5001 13.4341 18.3815 13.4301 18.2629C13.4219 18.1852 13.4178 18.1035 13.4096 18.0299C13.4014 17.9072 13.3892 17.7886 13.3728 17.666V17.6578C13.3687 17.6251 13.3646 17.5924 13.3606 17.5638C13.3401 17.4206 13.3238 17.2857 13.2992 17.1467C13.2992 17.1344 13.2951 17.1222 13.291 17.1099C13.2665 16.9545 13.2338 16.8032 13.2011 16.652C13.2011 16.6438 13.2011 16.6397 13.197 16.6315C13.1643 16.4884 13.1275 16.3412 13.0866 16.1981C13.0702 16.1163 13.0457 16.0346 13.0212 15.9528C12.9967 15.8669 12.9721 15.7892 12.9435 15.7034C12.9067 15.5889 12.8699 15.4703 12.8249 15.3518C12.7677 15.1841 12.6982 15.0206 12.6328 14.8529C12.5714 14.7098 12.5101 14.5667 12.4447 14.4236C12.3915 14.3132 12.3343 14.1987 12.277 14.0842C12.2198 13.9698 12.1585 13.8553 12.093 13.7449C12.0276 13.6304 11.9622 13.5159 11.8927 13.4014C11.8886 13.3933 11.8804 13.3851 11.8764 13.3769C11.8028 13.2583 11.7251 13.1357 11.6474 13.013C11.5942 12.9353 11.5411 12.8576 11.4879 12.7799C11.398 12.6491 11.3039 12.5183 11.2017 12.3874C11.169 12.3425 11.1322 12.2975 11.0995 12.2566C10.8337 11.9213 10.5516 11.6024 10.249 11.308C10.1877 11.2467 10.1264 11.1853 10.061 11.124C10.0078 11.0709 9.95464 11.0177 9.89331 10.9686C9.65616 10.7519 9.40675 10.5393 9.14916 10.3472C9.096 10.3063 9.04287 10.2695 8.98972 10.2286C8.93656 10.1918 8.8834 10.155 8.83025 10.1182C8.80572 10.0977 8.78528 10.0814 8.75666 10.065C8.73212 10.0487 8.71575 10.0323 8.69122 10.0201C8.57674 9.94237 8.46227 9.86878 8.34778 9.79518C8.24557 9.72976 8.13925 9.66842 8.03294 9.60709C7.95117 9.55803 7.86531 9.50897 7.78354 9.464C7.6527 9.3904 7.52185 9.32498 7.39101 9.25956C7.2847 9.20641 7.17841 9.15734 7.06801 9.10419C7.06801 9.10419 7.06801 9.10419 7.06392 9.10419C7.04756 9.09601 7.03121 9.08783 7.01076 9.07966C6.89219 9.0265 6.77362 8.97744 6.65914 8.92838C6.63461 8.91611 6.61008 8.90793 6.58555 8.89975C6.44244 8.84251 6.29524 8.78936 6.14396 8.73621C6.07036 8.70759 5.98859 8.68305 5.91499 8.65852C5.8373 8.6299 5.75552 8.60945 5.67784 8.58491C5.56335 8.54811 5.45297 8.51541 5.3344 8.48679C5.28942 8.47452 5.24853 8.46635 5.20356 8.44999C5.11769 8.42955 5.03183 8.41319 4.95006 8.38866C4.87237 8.37231 4.79468 8.35595 4.717 8.3396C4.58207 8.31098 4.44714 8.28644 4.30813 8.26599C3.95649 8.20466 3.60077 8.16787 3.24914 8.14334C3.23687 8.14334 3.22871 8.14334 3.21644 8.14334C3.09378 8.13516 2.97111 8.13107 2.84845 8.12698C2.72579 8.12289 2.60312 8.11881 2.48045 8.1229C2.37824 8.1229 2.27193 8.12698 2.1738 8.13107C2.07158 8.13107 1.96936 8.14334 1.86715 8.14334C1.84261 8.14334 1.81808 8.14333 1.79355 8.15151C1.77311 8.20466 1.7404 8.25374 1.69133 8.29054C1.54823 8.40502 1.33563 8.38049 1.22115 8.23738C1.10666 8.09428 1.1312 7.88165 1.2743 7.76717C1.41741 7.65268 1.62591 7.67314 1.7404 7.81624C2.2474 7.77945 2.75441 7.77944 3.26141 7.80806C3.94014 7.85712 4.61478 7.96344 5.27715 8.1229C5.79233 8.24965 6.29525 8.41728 6.78998 8.61763C6.92491 8.67078 7.06392 8.72802 7.19476 8.78935C7.79989 9.06329 8.38457 9.39449 8.94881 9.77882C9.48852 10.155 10.0037 10.5761 10.4821 11.0545C10.7928 11.3652 11.0872 11.6923 11.3653 12.044C11.4021 12.089 11.4347 12.1339 11.4715 12.1789C11.5697 12.3097 11.6637 12.4365 11.7537 12.5673C12.138 13.1111 12.4651 13.6795 12.7432 14.2642C13.0212 14.8611 13.242 15.4703 13.4096 16.0918C13.5445 16.5988 13.6468 17.1099 13.7081 17.621C13.7244 17.7436 13.7367 17.8704 13.749 17.9931C13.8021 18.5737 13.8103 19.1584 13.7735 19.739C13.7735 19.7635 13.7735 19.7798 13.7817 19.8044C13.7817 19.8125 13.7899 19.8248 13.794 19.833C13.7981 19.8412 13.8021 19.8493 13.8103 19.8575C13.8389 19.8943 13.8839 19.9188 13.9371 19.9188C14.027 19.9229 14.1088 19.8534 14.117 19.7594C14.117 19.7512 14.117 19.7471 14.117 19.743C14.1333 19.5263 14.1374 19.3096 14.1374 19.097C14.1374 19.0439 14.1374 18.9907 14.1374 18.9335C14.1374 18.7658 14.1374 18.6023 14.1211 18.4387C14.1211 18.4346 14.1211 18.4265 14.1211 18.4224C14.1129 18.2629 14.1006 18.1075 14.0842 17.9522C14.0842 17.9522 14.0842 17.9399 14.0842 17.9358C14.0761 17.8132 14.0638 17.6946 14.0475 17.576C14.0434 17.5515 14.0393 17.527 14.0352 17.5024C14.0147 17.3471 13.9902 17.1917 13.9657 17.0363C13.9657 17.0118 13.9575 16.9872 13.9534 16.9627C13.9248 16.8032 13.8921 16.6397 13.8594 16.4802C13.8185 16.3167 13.7817 16.1531 13.7326 15.9896C13.7122 15.9037 13.6917 15.822 13.6672 15.7443C13.6468 15.6666 13.6181 15.5889 13.5936 15.5071C13.4423 15.0287 13.2583 14.5585 13.0416 14.1047C12.968 13.9452 12.8903 13.7858 12.8086 13.6304C12.7513 13.5159 12.69 13.4055 12.6287 13.291C12.6082 13.2624 12.5919 13.2297 12.5755 13.2011C12.5101 13.0825 12.4324 12.9598 12.3547 12.8413C12.3343 12.8045 12.3138 12.7759 12.2975 12.7431C12.2525 12.6777 12.2075 12.6082 12.1625 12.5469C12.1217 12.4815 12.0767 12.4201 12.0317 12.3547C11.9377 12.2239 11.8436 12.0971 11.7414 11.9663C11.7087 11.9172 11.6719 11.8723 11.6351 11.8273C11.5983 11.7823 11.5656 11.7373 11.5247 11.6923C11.4879 11.6474 11.4511 11.5983 11.4102 11.5574C11.3366 11.4675 11.263 11.3816 11.1894 11.2998C11.1118 11.214 11.0341 11.1281 10.9523 11.0463C10.8705 10.9605 10.7928 10.8787 10.7111 10.7969L10.7029 10.7887C10.6252 10.7111 10.5475 10.6334 10.4657 10.5598C10.3799 10.478 10.294 10.4044 10.2122 10.3267C10.1346 10.2613 10.065 10.2041 9.99143 10.1427C9.91784 10.0814 9.84424 10.0201 9.76656 9.96282C9.55803 9.7911 9.34133 9.63572 9.12463 9.48444C8.54812 9.08783 7.9389 8.74847 7.31332 8.46635C7.1784 8.40502 7.04757 8.34777 6.91264 8.29462C6.51603 8.13516 6.11124 7.99615 5.70237 7.88167C5.5838 7.84487 5.46113 7.81624 5.34256 7.78353C5.2199 7.75491 5.08906 7.72629 4.96231 7.69767C4.72925 7.6486 4.49212 7.60363 4.25497 7.57092C4.0996 7.54639 3.94422 7.53003 3.78885 7.51367C3.71116 7.50549 3.63348 7.49732 3.55579 7.48914C3.53943 7.50549 3.52308 7.52186 3.50673 7.53412C3.36362 7.64861 3.15511 7.62407 3.03654 7.48097C2.92205 7.33786 2.94656 7.12525 3.08967 7.01077C3.23277 6.89628 3.4454 6.92082 3.55988 7.06392C3.58033 7.09254 3.60077 7.12116 3.60894 7.14978C4.21816 7.20293 4.81513 7.30514 5.41208 7.44825C5.96406 7.58318 6.50785 7.759 7.03939 7.9757C7.17432 8.02885 7.30924 8.0861 7.44417 8.14743C8.0861 8.43773 8.70757 8.78526 9.30044 9.19005C9.87695 9.58665 10.4249 10.0364 10.9319 10.5434C11.2671 10.8787 11.5901 11.2344 11.8886 11.6147C11.9254 11.6637 11.9663 11.7087 11.999 11.7578C12.0971 11.8845 12.1912 12.0154 12.2811 12.1462C12.6696 12.6941 13.0089 13.2665 13.291 13.8553C13.2951 13.8839 13.3074 13.9084 13.3278 13.933C13.3278 13.933 13.3319 13.937 13.336 13.9411C13.3974 14.0106 13.4996 14.0229 13.5732 13.9657C13.6263 13.9248 13.6509 13.8512 13.6345 13.7899C13.6345 13.7899 13.6345 13.7858 13.6345 13.7817C13.6304 13.7612 13.6181 13.7408 13.6059 13.7204C13.5568 13.61 13.5077 13.5077 13.4505 13.4014C13.3728 13.2502 13.2951 13.103 13.2133 12.9598C13.1765 12.8903 13.1357 12.8249 13.0948 12.7595C13.0253 12.6368 12.9435 12.5142 12.8658 12.3915C12.7677 12.2402 12.6655 12.089 12.5633 11.9418C12.4733 11.8109 12.3793 11.6801 12.2811 11.5533C12.2443 11.5043 12.2034 11.4552 12.1666 11.4061C12.0889 11.308 12.0072 11.2099 11.9295 11.1158C11.7496 10.9032 11.5656 10.6988 11.3775 10.4984C11.2467 10.5475 11.0872 10.5107 10.9973 10.3921C10.8828 10.249 10.9073 10.0405 11.0504 9.92603C11.1935 9.81154 11.4021 9.83606 11.5206 9.97917C11.5779 10.0528 11.6024 10.1427 11.5901 10.2327C11.8886 10.5352 12.1666 10.8542 12.4365 11.1976C12.4774 11.2467 12.5183 11.2998 12.5551 11.3489C12.6532 11.4756 12.7472 11.6024 12.8413 11.7373C13.2706 12.3425 13.6468 12.9803 13.9575 13.6386C14.2723 14.305 14.5258 14.9879 14.7139 15.687C14.8734 16.2676 14.992 16.8564 15.0655 17.4493C15.0819 17.5719 15.0942 17.6987 15.1064 17.8254C15.1759 18.5409 15.1841 19.2606 15.1269 19.9802C15.0819 20.6385 14.9797 21.2886 14.8284 21.9305C14.812 21.9959 14.8407 22.0654 14.8897 22.1022C14.9102 22.1186 14.9347 22.1308 14.9592 22.1349C15.0083 22.1472 15.0655 22.1349 15.1064 22.1022C15.1391 22.0777 15.1596 22.0409 15.1637 22.0041C15.1923 21.8651 15.2209 21.7302 15.2536 21.5911C15.2863 21.4439 15.3109 21.2967 15.3313 21.1496C15.3354 21.1291 15.3395 21.1087 15.3395 21.0882C15.3681 20.9083 15.3926 20.7284 15.4131 20.5485C15.4335 20.3645 15.4499 20.1846 15.4662 20.0006C15.4785 19.8166 15.4908 19.6326 15.4949 19.4446C15.4989 19.2565 15.503 19.0766 15.503 18.8885C15.503 18.7127 15.4949 18.5369 15.4867 18.361C15.4867 18.3529 15.4867 18.3447 15.4867 18.3365C15.4744 18.1525 15.4581 17.9726 15.4458 17.7845C15.4458 17.7682 15.4458 17.7518 15.4417 17.7355C15.4294 17.6251 15.4172 17.5188 15.4049 17.4125C15.3967 17.3511 15.3927 17.2939 15.3804 17.2366C15.3599 17.114 15.3477 16.9872 15.3272 16.8687C15.2536 16.4434 15.1596 16.0141 15.0451 15.5971C15.0451 15.593 15.0451 15.5889 15.0451 15.5848C14.996 15.4131 14.947 15.2495 14.8897 15.0819C14.8161 14.8447 14.7344 14.6117 14.6444 14.3827C14.5953 14.256 14.5463 14.1374 14.4931 14.0107C14.4195 13.8389 14.3418 13.6672 14.2642 13.4996C14.2642 13.4996 14.2642 13.4982 14.2642 13.4955C14.1987 13.3524 14.1292 13.2093 14.0516 13.0702C13.9943 12.9598 13.937 12.8535 13.8757 12.7472C13.8062 12.6246 13.7367 12.5019 13.6631 12.3833C13.5895 12.2607 13.5159 12.1421 13.4342 12.0235C13.3401 11.8722 13.2379 11.7251 13.1398 11.582C13.1316 11.5697 13.1234 11.5615 13.1152 11.5492C13.0212 11.4184 12.9271 11.2917 12.829 11.1649C12.7922 11.1118 12.7513 11.0586 12.7063 11.0095C12.6205 10.9032 12.5387 10.801 12.4488 10.6947C12.2075 10.4044 11.954 10.1305 11.6883 9.87287C11.6719 9.85243 11.6515 9.83607 11.6351 9.81562C11.5615 9.74611 11.492 9.6766 11.4184 9.60709C11.3571 9.54985 11.2957 9.49262 11.2344 9.43947C11.1649 9.37405 11.0913 9.30863 11.0177 9.2473C10.6456 8.9202 10.2613 8.62581 9.86061 8.35187C9.6848 8.23329 9.50489 8.11472 9.31681 8.00432C9.2473 7.95935 9.17778 7.91846 9.10419 7.87757C9.04694 7.84077 8.98152 7.80397 8.92019 7.77126C8.81797 7.71402 8.71167 7.6527 8.59719 7.59954C8.5195 7.55866 8.44181 7.51776 8.35594 7.47687C8.18422 7.39101 8.01251 7.30923 7.83669 7.23155C7.70177 7.17022 7.56684 7.11298 7.43191 7.05983C7.40329 7.04756 7.37466 7.0353 7.34604 7.02303C7.32151 7.01485 7.30107 7.00259 7.27654 6.9985C7.16206 6.95761 7.04755 6.90855 6.92489 6.86766C6.85538 6.83904 6.77771 6.8145 6.70411 6.78997C6.58554 6.75317 6.46697 6.71228 6.35249 6.67139C6.11534 6.60189 5.8741 6.53647 5.63287 6.47514C5.56745 6.45879 5.5102 6.44652 5.44887 6.43016C5.28123 6.39336 5.11361 6.36065 4.95006 6.32794C4.79469 6.29932 4.63931 6.2707 4.48394 6.25026C4.29177 6.22164 4.09552 6.19711 3.90335 6.17666C3.70709 6.15622 3.51083 6.13987 3.31866 6.1276C2.93432 6.10307 2.5418 6.09488 2.16155 6.10715C1.97347 6.11124 1.78947 6.11942 1.60139 6.13577C1.50735 6.14395 1.41331 6.15213 1.31927 6.1603C1.29883 6.20119 1.2702 6.2339 1.2334 6.26252C1.09029 6.37701 0.881784 6.35247 0.763211 6.20937C0.648727 6.06626 0.673236 5.85365 0.816341 5.73917C0.959447 5.62468 1.17207 5.64922 1.28655 5.79232C1.29473 5.8005 1.3029 5.80868 1.30699 5.82095C1.98163 5.75553 2.65628 5.74326 3.33091 5.78415C4.13639 5.83321 4.92551 5.95178 5.70237 6.13987C6.33203 6.29524 6.95353 6.49149 7.55866 6.73682C7.69359 6.78997 7.82851 6.84722 7.95935 6.90855C8.67896 7.22747 9.37405 7.6118 10.0323 8.06565C10.662 8.49497 11.263 8.98153 11.8191 9.52942C11.8191 9.52942 11.8273 9.5376 11.8314 9.54168C11.8927 9.6071 11.9908 9.61527 12.0644 9.55803C12.1339 9.50079 12.1503 9.40267 12.1012 9.32498V9.32089C12.1012 9.32089 12.1012 9.31272 12.0971 9.31272C12.0849 9.29636 12.0767 9.28818 12.0603 9.28C12.0603 9.28 12.0563 9.28 12.0522 9.28C11.9786 9.2064 11.9009 9.1369 11.8232 9.0633C11.7537 8.99788 11.6883 8.93246 11.6106 8.87113C11.169 8.47043 10.6988 8.11063 10.2081 7.77945C10.0855 7.69358 9.96281 7.6159 9.84015 7.53412C9.74202 7.47279 9.6439 7.41555 9.54578 7.35422C9.43947 7.29289 9.33724 7.23155 9.22684 7.17431C9.11645 7.10889 9.00196 7.04756 8.89157 6.99031C8.79344 6.93716 8.69531 6.88809 8.5931 6.83494C8.50723 6.79405 8.42546 6.75726 8.34369 6.71638C8.31916 6.70411 8.29463 6.69184 8.27419 6.68366H8.2701C8.12699 6.80223 7.91846 6.7777 7.79988 6.6346C7.6854 6.49149 7.70993 6.27888 7.85304 6.1644C8.00023 6.04991 8.20877 6.07445 8.32325 6.21755C8.36005 6.26253 8.38048 6.31159 8.38866 6.36474C9.08374 6.68366 9.75429 7.05574 10.4003 7.49323C11.079 7.95526 11.7169 8.47452 12.3179 9.0633C12.7391 9.46808 13.1316 9.90966 13.5037 10.3758C13.5486 10.433 13.5936 10.4862 13.6345 10.5434C13.7326 10.6702 13.8308 10.801 13.9207 10.9278C14.395 11.586 14.7998 12.2729 15.1391 12.9803C15.1391 13.0089 15.1514 13.0375 15.1719 13.0621C15.2332 13.1357 15.3436 13.152 15.4172 13.0907C15.4826 13.0375 15.503 12.9476 15.4621 12.874C15.3845 12.7104 15.3068 12.5551 15.2209 12.3997C15.1473 12.2566 15.0696 12.1176 14.9879 11.9745C14.9552 11.909 14.9183 11.8477 14.8775 11.7864C14.8407 11.7251 14.808 11.6637 14.7671 11.6065C14.6853 11.4675 14.5994 11.3325 14.5095 11.1976C14.4032 11.0382 14.2969 10.8787 14.1824 10.7233C14.0924 10.5966 13.9943 10.4657 13.8962 10.339C13.8553 10.2817 13.8062 10.2245 13.7612 10.1673C13.6672 10.0487 13.5691 9.9301 13.4709 9.81153C13.3728 9.69705 13.2706 9.58256 13.1684 9.46808C13.103 9.39857 13.0416 9.32498 12.9721 9.25547C12.9149 9.19414 12.8576 9.12872 12.7963 9.06739C12.7227 8.99379 12.6491 8.92019 12.5755 8.8466C12.5632 8.83433 12.5551 8.82616 12.5428 8.81389C11.9254 8.21285 11.2712 7.68131 10.5761 7.21111C10.5557 7.19475 10.5352 7.18249 10.5148 7.17022C10.4085 7.10071 10.3063 7.03529 10.2 6.96578C10.1223 6.91672 10.0405 6.86357 9.95874 6.8186C9.87288 6.76544 9.7911 6.71638 9.70524 6.66322C9.6112 6.60598 9.51307 6.55691 9.41903 6.50376C9.25548 6.4138 9.08783 6.32795 8.92019 6.24618C8.77708 6.17258 8.62989 6.10307 8.48679 6.03765C8.43772 6.01312 8.39276 5.99267 8.34369 5.97223C8.21285 5.9109 8.07793 5.85774 7.93891 5.80459C7.28063 5.53473 6.60189 5.31803 5.91499 5.15039C5.67784 5.09724 5.4407 5.04408 5.19946 4.99502C5.01547 4.96231 4.83149 4.93369 4.6475 4.90506C4.42262 4.87235 4.19363 4.84374 3.96466 4.8192C3.86653 4.80694 3.76432 4.80285 3.66619 4.79467C3.56397 4.7865 3.46585 4.77832 3.36363 4.77423C3.13057 4.75788 2.89751 4.75379 2.66445 4.7497C2.6481 4.7497 2.63174 4.7497 2.61539 4.7497C2.56224 4.7497 2.51317 4.7497 2.46002 4.7497C2.43957 4.78241 2.41504 4.81512 2.38233 4.83966C2.23922 4.95414 2.02662 4.9296 1.91214 4.78241C1.79766 4.6393 1.82217 4.43078 1.96527 4.3163C2.10838 4.20182 2.321 4.22634 2.43548 4.36944C2.44775 4.38171 2.45593 4.39807 2.46411 4.41033C2.76667 4.41033 3.07332 4.41443 3.37998 4.43078C4.25905 4.47985 5.12995 4.61069 5.98858 4.81512C6.69593 4.98685 7.39509 5.21173 8.07382 5.48976C8.20875 5.54291 8.3437 5.60015 8.47863 5.66148C9.27184 6.00902 10.0364 6.43017 10.7642 6.92081C11.4716 7.39919 12.1503 7.94708 12.7759 8.56447C13.2215 8.99788 13.6386 9.46399 14.0311 9.95464C14.0761 10.0119 14.121 10.0732 14.166 10.1305C14.2642 10.2572 14.3623 10.388 14.4522 10.5148C14.9552 11.218 15.3967 11.954 15.7565 12.7186C16.1327 13.4914 16.4312 14.2887 16.6561 15.0983C16.8523 15.7933 16.9913 16.5007 17.0813 17.2121C17.0976 17.3348 17.1099 17.4574 17.1222 17.5842C17.1998 18.361 17.2162 19.1461 17.1672 19.927C17.1672 19.9475 17.1671 19.9679 17.1753 19.9843C17.1876 20.0292 17.2162 20.066 17.2571 20.0865C17.2694 20.0947 17.2816 20.0988 17.2939 20.1028C17.3021 20.1028 17.3103 20.1028 17.3184 20.1069C17.3307 20.1069 17.3389 20.1069 17.3471 20.1069C17.3552 20.1069 17.3634 20.1069 17.3716 20.1069C17.3757 20.1069 17.3839 20.1069 17.392 20.1028C17.4125 20.0988 17.4288 20.0865 17.4452 20.0742C17.4615 20.062 17.4697 20.0497 17.4779 20.0374C17.482 20.0292 17.4861 20.0252 17.4902 20.017C17.4902 20.0088 17.4983 20.0047 17.4983 19.9965C17.4983 19.9843 17.5065 19.9761 17.5065 19.9638C17.5065 19.9597 17.5065 19.9557 17.5065 19.9516C17.5188 19.7553 17.5229 19.555 17.527 19.3546C17.527 19.1706 17.5351 18.9948 17.527 18.8149C17.527 18.7536 17.527 18.6922 17.5229 18.635C17.5229 18.4878 17.5106 18.3365 17.5024 18.1852C17.4901 17.9685 17.4738 17.7559 17.4533 17.5433C17.4411 17.4206 17.4247 17.298 17.4084 17.1753C17.4002 17.1099 17.392 17.0486 17.3798 16.9831C17.3634 16.8441 17.343 16.7133 17.3225 16.5784C17.3103 16.4925 17.298 16.4066 17.2775 16.3289C17.2285 16.0795 17.1794 15.8301 17.1181 15.5807C17.0772 15.4049 17.0322 15.225 16.9873 15.0533C16.9832 15.0369 16.975 15.0206 16.9709 15.0001C16.9096 14.7834 16.8441 14.5708 16.7746 14.3541C16.7378 14.2396 16.6724 14.0597 16.6315 13.9452C16.6193 13.9125 16.607 13.8839 16.5947 13.8553C16.5089 13.6181 16.4148 13.3892 16.3167 13.1602C16.2799 13.0662 16.239 12.9762 16.1981 12.8822C16.1491 12.7718 16.1 12.6695 16.0468 12.5632C15.9528 12.3629 15.8506 12.1666 15.7443 11.9704C15.6748 11.8436 15.6012 11.7169 15.5317 11.5901C15.4581 11.4593 15.3804 11.3285 15.2986 11.1976C15.27 11.1526 15.2373 11.0995 15.2127 11.0545C15.131 10.9278 15.0492 10.8051 14.9674 10.6783C14.8856 10.5598 14.7998 10.433 14.7139 10.3144C14.6199 10.1836 14.5258 10.0569 14.4277 9.93011C14.3827 9.86877 14.3337 9.80744 14.2887 9.7502C14.1946 9.63163 14.0965 9.51306 14.0025 9.39858C13.8675 9.23912 13.7326 9.08374 13.5895 8.93246C13.5078 8.83842 13.4219 8.74438 13.3319 8.65443C13.2256 8.54403 13.1193 8.43363 13.0089 8.33141C13.0089 8.32733 13.0007 8.32324 12.9967 8.31915C12.3547 7.68949 11.6637 7.13342 10.9359 6.64277C10.9277 6.63868 10.9196 6.63051 10.9114 6.62642C10.8255 6.56918 10.7438 6.51194 10.6579 6.45879C10.2817 6.21346 9.89332 5.99267 9.49671 5.78415C9.3945 5.73508 9.29635 5.68193 9.19822 5.63287C8.99787 5.53474 8.79753 5.4407 8.5931 5.35075C8.51541 5.31395 8.43772 5.28124 8.35594 5.24853C8.30279 5.22808 8.24556 5.20355 8.19241 5.18311C8.10246 5.14631 8.01658 5.11359 7.92254 5.0768C7.75081 5.01138 7.58318 4.95004 7.41145 4.8928C7.37056 4.88053 7.32558 4.8601 7.28061 4.85192C7.09662 4.79059 6.91263 4.72925 6.72455 4.6761C6.49967 4.61068 6.2748 4.55343 6.04992 4.49619C5.57563 4.38171 5.09724 4.29586 4.61069 4.22635C4.42669 4.20182 4.23861 4.17728 4.05053 4.16093C3.94014 4.14866 3.82565 4.14048 3.71935 4.12821C3.60486 4.12003 3.49037 4.10777 3.37998 4.10777C3.26549 4.09959 3.15509 4.0955 3.04061 4.09141C2.93021 4.08732 2.81574 4.08733 2.70126 4.08324C2.58678 4.08324 2.47637 4.08324 2.36189 4.08324C2.18199 4.08324 1.99798 4.09142 1.81399 4.0996C1.6668 4.10778 1.52371 4.11594 1.37243 4.12821C1.32745 4.12821 1.28247 4.1323 1.23749 4.14048C1.18434 4.14048 1.13528 4.14865 1.08621 4.15274C1.06577 4.20181 1.03306 4.2427 0.988086 4.27541C0.84498 4.38989 0.632357 4.36536 0.517873 4.22225C0.403389 4.07915 0.427923 3.86654 0.571028 3.75205C0.714133 3.63757 0.922664 3.6621 1.03715 3.80521H1.04124C1.82628 3.7357 2.61131 3.71934 3.39226 3.76432C4.30813 3.81338 5.224 3.94831 6.11943 4.16093C6.86766 4.33674 7.60363 4.57797 8.31916 4.86827C8.45409 4.92142 8.58491 4.97866 8.71575 5.03591C9.54576 5.3998 10.3472 5.83322 11.1077 6.34839C11.8518 6.85131 12.5632 7.41964 13.2215 8.05748C13.6876 8.51541 14.1333 9.00605 14.5545 9.5335C14.6035 9.59483 14.6485 9.65617 14.6976 9.7175C14.7752 9.8238 14.8529 9.92602 14.9306 10.0323C14.9306 10.0323 14.9429 10.0609 14.9511 10.0691C14.9592 10.0814 14.9674 10.0855 14.9756 10.0977C15.0369 10.1468 15.131 10.1468 15.1923 10.0977C15.2536 10.0487 15.2741 9.96282 15.2414 9.89331C15.2373 9.87695 15.2291 9.86469 15.2168 9.85242C15.2087 9.84424 15.2005 9.83607 15.1923 9.82789C15.1514 9.76247 15.1023 9.70523 15.0574 9.6439C15.0247 9.59893 14.9879 9.55394 14.9551 9.50897C14.9061 9.44764 14.8611 9.38222 14.808 9.32089C14.7221 9.21458 14.6403 9.11236 14.5504 9.01014C14.489 8.92837 14.4195 8.85069 14.35 8.773C14.2805 8.69123 14.2151 8.61763 14.1415 8.53994C14.0883 8.4827 14.0352 8.42545 13.982 8.36821C13.9289 8.31097 13.8798 8.25374 13.8226 8.20058C13.6917 8.06566 13.5609 7.93482 13.4301 7.80398C13.2542 7.63225 13.0702 7.46052 12.8863 7.29697C12.7595 7.18657 12.6328 7.08028 12.506 6.97397C12.3711 6.86766 12.2443 6.76135 12.1135 6.66322C12.0276 6.5978 11.9458 6.53238 11.8559 6.47105C11.7659 6.40972 11.676 6.3443 11.5901 6.27888C11.4838 6.2012 11.3816 6.12759 11.2712 6.05809C11.1485 5.97631 11.0259 5.89454 10.9032 5.81685C10.8378 5.77188 10.7724 5.73508 10.7029 5.6942C10.5925 5.62878 10.4862 5.56335 10.3758 5.49793C10.1754 5.38345 9.97508 5.26896 9.76656 5.16266C9.68069 5.11768 9.59076 5.07271 9.50081 5.02773C9.3945 4.97458 9.28409 4.92142 9.17778 4.87236C9.03468 4.98276 8.82614 4.95823 8.71166 4.81512C8.59718 4.67202 8.62171 4.46349 8.76482 4.349C8.91201 4.23452 9.12054 4.25905 9.23503 4.40216C9.27183 4.44714 9.29635 4.50437 9.30453 4.56161C10.0446 4.90507 10.7642 5.31395 11.4511 5.77188C12.228 6.29115 12.968 6.8881 13.659 7.55456C14.1538 8.03703 14.624 8.5563 15.0655 9.11236C15.1146 9.17778 15.1637 9.23911 15.2168 9.30453C15.315 9.43128 15.409 9.55803 15.503 9.68478C16.0591 10.4535 16.5375 11.2589 16.9423 12.093C17.3552 12.9353 17.6823 13.8062 17.9317 14.6935C18.1484 15.4703 18.312 16.2554 18.406 17.0445C18.4142 17.1099 18.4224 17.1753 18.4306 17.2407C18.4387 17.3143 18.4919 17.3757 18.5655 17.3879C18.5696 17.3879 18.5818 17.3879 18.59 17.3879C18.5982 17.3879 18.6105 17.3879 18.6227 17.3879C18.7168 17.3757 18.7822 17.2939 18.7699 17.1998C18.7699 17.1876 18.7699 17.1712 18.7658 17.1549C18.7577 17.1017 18.7536 17.0486 18.7454 16.9954C18.7209 16.7828 18.6882 16.5702 18.6514 16.3576C18.6391 16.284 18.6268 16.2104 18.6105 16.1409C18.5696 15.9078 18.5287 15.6788 18.4715 15.454C18.4428 15.3231 18.4142 15.1964 18.3815 15.0655C18.3406 14.9061 18.2997 14.7466 18.2507 14.5872C18.1893 14.3623 18.1198 14.1374 18.0462 13.9166C17.9644 13.6672 17.8745 13.4096 17.7764 13.1602C17.6251 12.7759 17.4615 12.3915 17.2816 12.0194C17.2694 11.9867 17.253 11.9581 17.2408 11.9295C17.2285 11.8927 17.204 11.8559 17.1876 11.8232C17.1549 11.7537 17.1181 11.6842 17.0813 11.6106C17.0445 11.537 17.0077 11.4634 16.9709 11.3939C16.9341 11.3244 16.8932 11.2548 16.8564 11.1813C16.8196 11.1077 16.7787 11.03 16.7338 10.9605C16.6806 10.8583 16.6192 10.7601 16.5579 10.6579C16.5007 10.5639 16.4434 10.4698 16.3862 10.3799C16.3126 10.2613 16.2349 10.1427 16.1531 10.0242C16.1 9.93829 16.0428 9.85651 15.9855 9.77473C15.916 9.67251 15.8506 9.57439 15.7729 9.47626C15.6789 9.34542 15.5848 9.21867 15.4867 9.09192C15.4376 9.0265 15.3845 8.96108 15.3354 8.89566C15.1841 8.70349 15.0247 8.51541 14.8693 8.33141C14.7712 8.21693 14.673 8.10654 14.5708 7.99615C14.5217 7.93891 14.4727 7.88575 14.4195 7.83668C14.3705 7.78353 14.3173 7.72629 14.2682 7.67723C14.1456 7.54639 14.0188 7.42372 13.8921 7.29697C13.8839 7.2847 13.8757 7.27653 13.8635 7.26836C13.798 7.20703 13.7367 7.14569 13.6713 7.08845C13.5895 7.01077 13.5036 6.93308 13.4219 6.85539C13.3565 6.79406 13.2829 6.73682 13.2174 6.67549C13.013 6.49967 12.8045 6.32795 12.5919 6.1644C12.4733 6.07036 12.3506 5.97632 12.228 5.88637C12.1298 5.81277 12.0317 5.74735 11.9336 5.67784C11.8354 5.60833 11.7373 5.53882 11.6392 5.4734C11.5452 5.40798 11.4511 5.34666 11.3571 5.28532C11.0995 5.12178 10.8378 4.96641 10.572 4.81512C10.4085 4.72108 10.2408 4.63113 10.0691 4.54527C9.96281 4.48803 9.85651 4.43077 9.74203 4.38171C9.63572 4.32856 9.52533 4.27541 9.41493 4.22635C9.37813 4.20999 9.34133 4.18954 9.30453 4.17727C9.25547 4.15274 9.19824 4.12821 9.14509 4.10777C9.12873 4.09551 9.10419 4.08324 9.08375 4.07915C8.98153 4.03417 8.87931 3.9892 8.773 3.94422C8.74029 3.93196 8.71168 3.91969 8.68306 3.90743C8.58084 3.86654 8.47863 3.82565 8.37641 3.78885C8.1965 3.71525 8.01659 3.65392 7.8326 3.59259C7.70994 3.54761 7.5832 3.50673 7.45645 3.46993C7.15388 3.3718 6.8472 3.28593 6.54055 3.20825C6.52828 3.22051 6.51603 3.2287 6.50377 3.24096C6.35657 3.35545 6.14804 3.33091 6.03355 3.18781C5.91907 3.0447 5.9436 2.83618 6.08671 2.71761C6.22981 2.60312 6.43834 2.62766 6.55283 2.77076C6.57736 2.80347 6.59781 2.84026 6.61008 2.87706C7.35831 3.06514 8.09019 3.30229 8.80572 3.59259C8.94065 3.64574 9.07148 3.70299 9.2064 3.76023C10.11 4.15274 10.9809 4.63112 11.815 5.18719C12.6246 5.7269 13.3933 6.3443 14.1129 7.04347C14.6362 7.54638 15.131 8.09427 15.5971 8.67896C15.6502 8.74438 15.7034 8.81388 15.7525 8.8793C15.8506 9.00605 15.9446 9.1328 16.0387 9.26364C16.6234 10.0609 17.1181 10.8991 17.5392 11.7659C17.9685 12.6409 18.3079 13.5404 18.5696 14.4563C18.5696 14.4563 18.5696 14.4645 18.5696 14.4686C18.5696 14.4727 18.5696 14.4768 18.5696 14.4768C18.5696 14.4768 18.5819 14.5054 18.5941 14.5176C18.6554 14.5912 18.7617 14.6035 18.8353 14.5463C18.8885 14.5054 18.9089 14.4359 18.8926 14.3745C18.7249 13.7858 18.5246 13.197 18.2916 12.6287C18.2466 12.5142 18.1975 12.3997 18.1484 12.2852C18.0994 12.1666 18.0503 12.0562 17.9931 11.9418C17.944 11.8273 17.8909 11.7169 17.8336 11.6024C17.7314 11.3816 17.6169 11.1608 17.4983 10.9441C17.3839 10.7233 17.2612 10.5107 17.1344 10.3022C17.069 10.1918 17.0036 10.0896 16.9382 9.98326C16.8973 9.91375 16.8564 9.85242 16.8155 9.787C16.7664 9.70931 16.7133 9.63164 16.6601 9.55395C16.5457 9.38222 16.4312 9.21458 16.3085 9.04694C16.2513 8.96517 16.194 8.8834 16.1327 8.8098C16.0959 8.76074 16.0591 8.71576 16.0223 8.66669C15.9691 8.59718 15.916 8.52768 15.8629 8.46226C15.6666 8.21284 15.4621 7.9757 15.2536 7.73856C15.1841 7.65678 15.1146 7.57501 15.0369 7.49732C14.9306 7.37875 14.8243 7.26834 14.7139 7.15386C14.5913 7.02711 14.4686 6.90445 14.3459 6.78588C14.0597 6.50785 13.7653 6.24617 13.4628 5.98858C13.3565 5.89454 13.2461 5.80867 13.1357 5.72281C12.9639 5.58379 12.7922 5.45296 12.6164 5.32212C12.5224 5.25261 12.4283 5.1872 12.3343 5.12178C12.2239 5.04409 12.1135 4.9664 12.0031 4.89689C11.1567 4.32856 10.2654 3.84201 9.34134 3.4454C9.2105 3.38816 9.07558 3.33091 8.94065 3.27776C8.7771 3.21234 8.60945 3.14692 8.44182 3.08559C8.31507 3.03653 8.18423 2.99155 8.05748 2.94658C7.97979 2.91796 7.90619 2.89751 7.82851 2.87298C7.73447 2.84027 7.64043 2.81164 7.55048 2.78711C7.19067 2.67671 6.82268 2.57859 6.45061 2.48864C6.20529 2.42731 5.95587 2.37415 5.70237 2.32508C5.69419 2.32508 5.68601 2.321 5.67784 2.321C5.44069 2.28012 5.20765 2.23923 4.97459 2.20652C4.93779 2.20243 4.90508 2.19834 4.86828 2.19016C4.65566 2.16563 4.44714 2.1411 4.23453 2.11657C4.21 2.11657 4.18138 2.11247 4.16094 2.10838C4.01374 2.09612 3.87064 2.08385 3.72753 2.07158C3.71118 2.09203 3.69482 2.10838 3.67438 2.12474C3.53127 2.23922 3.32274 2.2147 3.20826 2.0675C3.09377 1.9244 3.11831 1.71178 3.26141 1.59729C3.40452 1.48281 3.61712 1.50735 3.7316 1.65454C3.75204 1.67907 3.7684 1.70769 3.78066 1.73631C4.70471 1.80173 5.62469 1.94075 6.5283 2.15746C7.39511 2.3578 8.24555 2.62765 9.07147 2.96702C9.2064 3.02017 9.34134 3.07741 9.47218 3.13465C10.384 3.53126 11.263 4.00555 12.1053 4.56161C12.1053 4.56161 12.1339 4.58206 12.1503 4.59024C12.1503 4.59024 12.1544 4.59024 12.1544 4.59433C12.1626 4.60251 12.1707 4.6066 12.1789 4.61069C12.1912 4.61887 12.2034 4.62295 12.2198 4.62703C12.2198 4.62703 12.2239 4.62703 12.228 4.62703C12.2689 4.62703 12.3097 4.61477 12.3465 4.59024C12.4242 4.52891 12.4365 4.41851 12.3752 4.34491C12.3711 4.33673 12.3629 4.33265 12.3588 4.32857C12.3588 4.32857 12.3343 4.31221 12.3261 4.30403C12.322 4.29995 12.3138 4.29585 12.3098 4.29176C12.2893 4.27949 12.2689 4.26723 12.2525 4.25496C12.1871 4.21407 12.1176 4.1691 12.0522 4.12821C12.0317 4.11186 12.0113 4.09959 11.9908 4.08732C11.8968 4.02599 11.7946 3.96467 11.6964 3.90334C11.5247 3.80112 11.3571 3.69889 11.1854 3.60485C11.0136 3.50672 10.8378 3.41678 10.662 3.32682C10.5434 3.26549 10.4289 3.20825 10.3104 3.15101C10.1918 3.09377 10.0773 3.03653 9.95874 2.98337C9.84017 2.93022 9.7216 2.87706 9.60302 2.82391C9.48036 2.76667 9.35769 2.7176 9.23912 2.67263C9.22686 2.66854 9.21458 2.66445 9.20231 2.65627C9.07556 2.60311 8.94472 2.54996 8.81388 2.50499C8.33141 2.321 7.83668 2.15745 7.33376 2.01843C7.21928 1.98981 7.10072 1.9571 6.98623 1.92848C6.85948 1.89168 6.73273 1.86306 6.60189 1.83444C6.34021 1.77311 6.07445 1.71587 5.80868 1.6668C5.62877 1.63001 5.44887 1.60138 5.26896 1.57276C5.17492 1.5564 5.07271 1.54006 4.9705 1.52779C4.81512 1.50326 4.65567 1.4869 4.49212 1.47054C4.14867 1.42965 3.80521 1.40104 3.45766 1.38468C3.31047 1.3765 3.1551 1.36833 2.99973 1.36424C2.88933 1.36424 2.77484 1.36424 2.66036 1.36015C2.45592 1.36015 2.24739 1.36015 2.04296 1.36424C1.98572 1.36424 1.92848 1.36833 1.87124 1.37242C1.45828 1.38877 1.04124 1.4133 0.628276 1.45828C0.607833 1.49916 0.579202 1.53188 0.542404 1.56459C0.399299 1.67907 0.190789 1.65453 0.0722161 1.50734C-0.0422681 1.36423 -0.0177588 1.15163 0.125346 1.04123C0.27254 0.926747 0.481075 0.951281 0.595559 1.09439C0.603737 1.10256 0.611905 1.11073 0.611905 1.123C1.56458 1.02078 2.51726 0.996251 3.46176 1.0494C4.53709 1.10665 5.61243 1.25793 6.66323 1.50734C7.56684 1.71995 8.45816 2.00208 9.32497 2.35371C9.4599 2.40686 9.59075 2.4641 9.72568 2.52135C10.7029 2.94248 11.6474 3.45357 12.5428 4.05462C13.3974 4.62295 14.2069 5.26896 14.9674 5.99267C14.9674 5.99675 14.9756 6.00493 14.9797 6.00902C14.996 6.02947 15.0124 6.04174 15.0328 6.05401C15.0942 6.08672 15.1678 6.08262 15.225 6.03765C15.2945 5.98041 15.315 5.87818 15.2618 5.80459C15.2618 5.80459 15.2332 5.77188 15.2168 5.75962C14.44 5.01547 13.6059 4.35309 12.7309 3.77249C12.7063 3.75614 12.6818 3.7357 12.6573 3.72343C12.5387 3.64574 12.416 3.56806 12.2975 3.49446C12.1912 3.42904 12.0849 3.35953 11.9786 3.2982C11.447 2.98337 10.9073 2.69308 10.3512 2.43549C10.2736 2.3946 10.1918 2.3578 10.1059 2.321C10.0242 2.2842 9.94239 2.24331 9.86061 2.2106C9.82382 2.19833 9.78292 2.18198 9.75021 2.16563C9.65208 2.12474 9.55803 2.08794 9.4599 2.04705C9.38222 2.01434 9.30453 1.98573 9.22684 1.95302C9.01832 1.87125 8.80162 1.78946 8.589 1.71587C8.43772 1.66271 8.28644 1.61365 8.13516 1.56459C7.98388 1.51552 7.82851 1.46646 7.67313 1.42557C7.52594 1.38468 7.37874 1.33971 7.23155 1.29882C7.068 1.26202 6.90854 1.22113 6.74499 1.17615C6.47513 1.11482 6.20528 1.05759 5.93543 1.00443C5.66557 0.955369 5.39572 0.910387 5.12178 0.869499C4.70473 0.812257 4.28358 0.767287 3.86244 0.734577C3.84609 0.750932 3.83383 0.767281 3.81747 0.779547C3.67437 0.894031 3.46174 0.869509 3.34726 0.726404C3.23278 0.583299 3.25731 0.370675 3.40451 0.256191C3.54761 0.141707 3.76024 0.166241 3.87472 0.309347C3.89517 0.333879 3.91152 0.366585 3.92378 0.395206C4.8969 0.468803 5.87002 0.616008 6.81861 0.840888C7.7631 1.06168 8.69123 1.35606 9.59074 1.71996C9.72567 1.77311 9.86059 1.83036 9.99143 1.8876C11.0013 2.32509 11.9867 2.85662 12.9149 3.4781C13.8267 4.08324 14.6894 4.77014 15.499 5.55109C16.1 6.1276 16.6724 6.75726 17.2039 7.42781C17.2612 7.50141 17.3225 7.575 17.3798 7.65269C17.4574 7.7549 17.5351 7.85712 17.6128 7.95934C17.6128 7.95934 17.6292 7.99206 17.6373 8.00841C17.6414 8.0125 17.6496 8.02067 17.6537 8.02476L17.6578 8.02885C17.6823 8.0493 17.7109 8.06565 17.7355 8.06974C17.7477 8.06974 17.7559 8.06974 17.7641 8.06974C17.7723 8.06974 17.7845 8.06974 17.7927 8.06974C17.8009 8.06974 17.8132 8.06974 17.8213 8.06565C17.8418 8.06156 17.8581 8.04929 17.8745 8.03703C17.9399 7.98796 17.9604 7.89802 17.9236 7.82851C17.9195 7.81624 17.9113 7.80398 17.9031 7.79171C17.899 7.78762 17.8949 7.77945 17.8908 7.77945C17.8091 7.66087 17.7273 7.55456 17.6455 7.44417C17.5883 7.36648 17.527 7.2888 17.4656 7.2152C16.9218 6.5283 16.3371 5.89045 15.7197 5.29759C14.8979 4.50438 14.0147 3.80112 13.0866 3.1919C12.138 2.55815 11.1404 2.01434 10.11 1.57276C9.97918 1.51552 9.84424 1.46236 9.70931 1.40512C8.86294 1.06167 7.99205 0.779556 7.10889 0.558765C7.09662 0.571031 7.08437 0.583296 7.06801 0.595562C6.92491 0.710046 6.71228 0.685512 6.5978 0.542407C6.48331 0.399301 6.50785 0.186691 6.65505 0.0722063C6.79815 -0.0422778 7.00669 -0.0177435 7.12526 0.125362C7.14979 0.153983 7.16612 0.182604 7.17839 0.215314C8.082 0.436105 8.97744 0.726398 9.84424 1.07803C9.97917 1.13118 10.11 1.18842 10.2449 1.24567C11.2916 1.69951 12.3097 2.2474 13.2747 2.88933C14.2192 3.5149 15.1146 4.23452 15.9528 5.04C16.5825 5.64513 17.1794 6.29524 17.7355 6.9985C17.7968 7.07619 17.8581 7.15386 17.9154 7.23155C18.0135 7.35421 18.1076 7.48097 18.2016 7.61181C18.8803 8.54404 19.4732 9.51306 19.9638 10.5189C20.4667 11.5411 20.8715 12.6 21.1823 13.6754C21.4603 14.6444 21.6647 15.6257 21.7833 16.6152C21.7997 16.7378 21.8119 16.8605 21.8242 16.9831C21.9509 18.0953 21.9714 19.2197 21.8978 20.3359C21.8242 21.448 21.5216 24.9766 20.569 27.1927C16.1327 37.5208 5.99677 36.2124 2.11658 35.5787" fill="#231E7A"/>
</svg>
