<svg width="23" height="36" viewBox="0 0 23 36" fill="none" xmlns="http://www.w3.org/2000/svg">
<path d="M2.67095 35.5337C4.51088 34.2089 9.45821 31.3959 13.412 22.5397C13.4692 22.4089 13.502 22.2658 13.5428 22.1227C13.5756 22.0245 13.6001 21.9264 13.6246 21.8283C13.6369 21.7874 13.6451 21.7465 13.6533 21.7015C13.6778 21.5993 13.7064 21.4889 13.7309 21.3826C13.7473 21.3172 13.7596 21.2559 13.7718 21.1904C13.8045 21.0187 13.8372 20.847 13.8618 20.6712C13.874 20.569 13.8904 20.4708 13.9027 20.3727C13.9108 20.3482 13.9149 20.3114 13.9149 20.2827C13.9272 20.1519 13.9395 20.0211 13.9517 19.8861C13.9558 19.8412 13.9599 19.8003 13.9599 19.7594C13.9763 19.4977 13.9885 19.236 13.9885 18.9744C13.9885 18.8599 13.9885 18.7413 13.9763 18.6186C13.9763 18.5001 13.964 18.3815 13.9599 18.2629C13.9517 18.1852 13.9476 18.1035 13.9395 18.0299C13.9313 17.9072 13.919 17.7886 13.9027 17.666V17.6578C13.8986 17.6251 13.8945 17.5924 13.8904 17.5638C13.87 17.4206 13.8536 17.2857 13.8291 17.1467C13.8291 17.1344 13.825 17.1222 13.8209 17.1099C13.7963 16.9545 13.7636 16.8032 13.7309 16.652C13.7309 16.6438 13.7309 16.6397 13.7268 16.6315C13.6941 16.4884 13.6573 16.3412 13.6164 16.1981C13.6001 16.1163 13.5756 16.0346 13.551 15.9528C13.5265 15.8669 13.502 15.7892 13.4733 15.7034C13.4365 15.5889 13.3998 15.4703 13.3548 15.3518C13.2975 15.1841 13.228 15.0206 13.1626 14.8529C13.1013 14.7098 13.0399 14.5667 12.9745 14.4236C12.9214 14.3132 12.8641 14.1987 12.8069 14.0842C12.7496 13.9698 12.6883 13.8553 12.6229 13.7449C12.5575 13.6304 12.4921 13.5159 12.4225 13.4014C12.4185 13.3933 12.4103 13.3851 12.4062 13.3769C12.3326 13.2583 12.2549 13.1357 12.1772 13.013C12.1241 12.9353 12.0709 12.8576 12.0178 12.7799C11.9278 12.6491 11.8338 12.5183 11.7315 12.3874C11.6988 12.3425 11.662 12.2975 11.6293 12.2566C11.3636 11.9213 11.0814 11.6024 10.7789 11.308C10.7175 11.2467 10.6562 11.1853 10.5908 11.124C10.5377 11.0709 10.4845 11.0177 10.4232 10.9686C10.186 10.7519 9.93659 10.5393 9.679 10.3472C9.62585 10.3063 9.57271 10.2695 9.51956 10.2286C9.46641 10.1918 9.41325 10.155 9.3601 10.1182C9.33556 10.0977 9.31512 10.0814 9.2865 10.065C9.26197 10.0487 9.2456 10.0323 9.22107 10.0201C9.10658 9.94237 8.99211 9.86878 8.87763 9.79518C8.77541 9.72976 8.6691 9.66842 8.56279 9.60709C8.48102 9.55803 8.39516 9.50897 8.31338 9.464C8.18254 9.3904 8.0517 9.32498 7.92086 9.25956C7.81455 9.20641 7.70825 9.15734 7.59786 9.10419C7.59786 9.10419 7.59785 9.10419 7.59377 9.10419C7.57741 9.09601 7.56105 9.08783 7.54061 9.07966C7.42204 9.0265 7.30347 8.97744 7.18899 8.92838C7.16445 8.91611 7.13992 8.90793 7.11539 8.89975C6.97229 8.84251 6.82509 8.78936 6.6738 8.73621C6.60021 8.70759 6.51843 8.68305 6.44484 8.65852C6.36715 8.6299 6.28537 8.60945 6.20768 8.58491C6.0932 8.54811 5.98282 8.51541 5.86424 8.48679C5.81927 8.47452 5.77838 8.46635 5.7334 8.44999C5.64754 8.42955 5.56168 8.41319 5.4799 8.38866C5.40222 8.37231 5.32453 8.35595 5.24684 8.3396C5.11192 8.31098 4.97699 8.28644 4.83797 8.26599C4.48634 8.20466 4.13061 8.16787 3.77898 8.14334C3.76672 8.14334 3.75856 8.14334 3.74629 8.14334C3.62363 8.13516 3.50096 8.13107 3.37829 8.12698C3.25563 8.12289 3.13296 8.11881 3.0103 8.1229C2.90808 8.1229 2.80177 8.12698 2.70365 8.13107C2.60143 8.13107 2.49921 8.14334 2.39699 8.14334C2.37246 8.14334 2.34793 8.14333 2.3234 8.15151C2.30295 8.20466 2.27024 8.25374 2.22118 8.29054C2.07807 8.40502 1.86548 8.38049 1.75099 8.23738C1.63651 8.09428 1.66104 7.88165 1.80415 7.76717C1.94725 7.65268 2.15576 7.67314 2.27024 7.81624C2.77724 7.77945 3.28426 7.77944 3.79126 7.80806C4.46999 7.85712 5.14462 7.96344 5.807 8.1229C6.32218 8.24965 6.82509 8.41728 7.31983 8.61763C7.45476 8.67078 7.59377 8.72802 7.72461 8.78935C8.32974 9.06329 8.91442 9.39449 9.47866 9.77882C10.0184 10.155 10.5335 10.5761 11.0119 11.0545C11.3227 11.3652 11.6171 11.6923 11.8951 12.044C11.9319 12.089 11.9646 12.1339 12.0014 12.1789C12.0995 12.3097 12.1936 12.4365 12.2835 12.5673C12.6679 13.1111 12.995 13.6795 13.273 14.2642C13.551 14.8611 13.7718 15.4703 13.9395 16.0918C14.0744 16.5988 14.1766 17.1099 14.2379 17.621C14.2543 17.7436 14.2665 17.8704 14.2788 17.9931C14.332 18.5737 14.3401 19.1584 14.3033 19.739C14.3033 19.7635 14.3034 19.7798 14.3115 19.8044C14.3115 19.8125 14.3197 19.8248 14.3238 19.833C14.3279 19.8412 14.332 19.8493 14.3402 19.8575C14.3688 19.8943 14.4138 19.9188 14.4669 19.9188C14.5569 19.9229 14.6386 19.8534 14.6468 19.7594C14.6468 19.7512 14.6468 19.7471 14.6468 19.743C14.6632 19.5263 14.6672 19.3096 14.6672 19.097C14.6672 19.0439 14.6672 18.9907 14.6672 18.9335C14.6672 18.7658 14.6673 18.6023 14.6509 18.4387C14.6509 18.4346 14.6509 18.4265 14.6509 18.4224C14.6427 18.2629 14.6304 18.1075 14.6141 17.9522C14.6141 17.9522 14.6141 17.9399 14.6141 17.9358C14.6059 17.8132 14.5937 17.6946 14.5773 17.576C14.5732 17.5515 14.5691 17.527 14.565 17.5024C14.5446 17.3471 14.5201 17.1917 14.4955 17.0363C14.4955 17.0118 14.4873 16.9872 14.4833 16.9627C14.4546 16.8032 14.4219 16.6397 14.3892 16.4802C14.3483 16.3167 14.3115 16.1531 14.2625 15.9896C14.242 15.9037 14.2216 15.822 14.1971 15.7443C14.1766 15.6666 14.148 15.5889 14.1234 15.5071C13.9722 15.0287 13.7882 14.5585 13.5715 14.1047C13.4979 13.9452 13.4202 13.7858 13.3384 13.6304C13.2812 13.5159 13.2198 13.4055 13.1585 13.291C13.1381 13.2624 13.1217 13.2297 13.1054 13.2011C13.0399 13.0825 12.9623 12.9598 12.8846 12.8413C12.8641 12.8045 12.8437 12.7759 12.8273 12.7431C12.7823 12.6777 12.7374 12.6082 12.6924 12.5469C12.6515 12.4815 12.6065 12.4201 12.5616 12.3547C12.4675 12.2239 12.3735 12.0971 12.2713 11.9663C12.2386 11.9172 12.2018 11.8723 12.165 11.8273C12.1282 11.7823 12.0954 11.7373 12.0545 11.6923C12.0177 11.6474 11.981 11.5983 11.9401 11.5574C11.8665 11.4675 11.7929 11.3816 11.7193 11.2998C11.6416 11.214 11.5639 11.1281 11.4821 11.0463C11.4004 10.9605 11.3227 10.8787 11.2409 10.7969L11.2327 10.7887C11.1551 10.7111 11.0774 10.6334 10.9956 10.5598C10.9097 10.478 10.8239 10.4044 10.7421 10.3267C10.6644 10.2613 10.5949 10.2041 10.5213 10.1427C10.4477 10.0814 10.3741 10.0201 10.2964 9.96282C10.0879 9.7911 9.87117 9.63572 9.65447 9.48444C9.07796 9.08783 8.46875 8.74847 7.84317 8.46635C7.70824 8.40502 7.57741 8.34777 7.44248 8.29462C7.04588 8.13516 6.64109 7.99615 6.23221 7.88167C6.11364 7.84487 5.99098 7.81624 5.8724 7.78353C5.74974 7.75491 5.61891 7.72629 5.49216 7.69767C5.2591 7.6486 5.02196 7.60363 4.78482 7.57092C4.62944 7.54639 4.47407 7.53003 4.3187 7.51367C4.24101 7.50549 4.16332 7.49732 4.08564 7.48914C4.06928 7.50549 4.05293 7.52186 4.03657 7.53412C3.89347 7.64861 3.68496 7.62407 3.56638 7.48097C3.4519 7.33786 3.47641 7.12525 3.61952 7.01077C3.76262 6.89628 3.97524 6.92082 4.08973 7.06392C4.11017 7.09254 4.13061 7.12116 4.13879 7.14978C4.74801 7.20293 5.34498 7.30514 5.94193 7.44825C6.49391 7.58318 7.0377 7.759 7.56923 7.9757C7.70416 8.02885 7.83909 8.0861 7.97401 8.14743C8.61594 8.43773 9.23742 8.78526 9.83028 9.19005C10.4068 9.58665 10.9547 10.0364 11.4617 10.5434C11.797 10.8787 12.12 11.2344 12.4185 11.6147C12.4552 11.6637 12.4961 11.7087 12.5289 11.7578C12.627 11.8845 12.721 12.0154 12.811 12.1462C13.1994 12.6941 13.5388 13.2665 13.8209 13.8553C13.825 13.8839 13.8372 13.9084 13.8577 13.933C13.8577 13.933 13.8618 13.937 13.8659 13.9411C13.9272 14.0106 14.0294 14.0229 14.103 13.9657C14.1562 13.9248 14.1807 13.8512 14.1643 13.7899C14.1643 13.7899 14.1643 13.7858 14.1643 13.7817C14.1603 13.7612 14.148 13.7408 14.1357 13.7204C14.0867 13.61 14.0376 13.5077 13.9803 13.4014C13.9027 13.2502 13.825 13.103 13.7432 12.9598C13.7064 12.8903 13.6655 12.8249 13.6246 12.7595C13.5551 12.6368 13.4733 12.5142 13.3957 12.3915C13.2975 12.2402 13.1953 12.089 13.0931 11.9418C13.0031 11.8109 12.9091 11.6801 12.811 11.5533C12.7742 11.5043 12.7333 11.4552 12.6965 11.4061C12.6188 11.308 12.537 11.2099 12.4594 11.1158C12.2794 10.9032 12.0954 10.6988 11.9074 10.4984C11.7765 10.5475 11.6171 10.5107 11.5271 10.3921C11.4126 10.249 11.4372 10.0405 11.5803 9.92603C11.7234 9.81154 11.9319 9.83606 12.0505 9.97917C12.1077 10.0528 12.1322 10.1427 12.12 10.2327C12.4185 10.5352 12.6965 10.8542 12.9664 11.1976C13.0072 11.2467 13.0481 11.2998 13.0849 11.3489C13.183 11.4756 13.2771 11.6024 13.3711 11.7373C13.8004 12.3425 14.1766 12.9803 14.4873 13.6386C14.8022 14.305 15.0557 14.9879 15.2438 15.687C15.4032 16.2676 15.5218 16.8564 15.5954 17.4493C15.6118 17.5719 15.624 17.6987 15.6363 17.8254C15.7058 18.5409 15.714 19.2606 15.6567 19.9802C15.6117 20.6385 15.5095 21.2886 15.3582 21.9305C15.3419 21.9959 15.3705 22.0654 15.4196 22.1022C15.44 22.1186 15.4646 22.1308 15.4891 22.1349C15.5381 22.1472 15.5954 22.1349 15.6363 22.1022C15.669 22.0777 15.6894 22.0409 15.6935 22.0041C15.7221 21.8651 15.7508 21.7302 15.7835 21.5911C15.8162 21.4439 15.8407 21.2967 15.8611 21.1496C15.8652 21.1291 15.8693 21.1087 15.8693 21.0882C15.898 20.9083 15.9225 20.7284 15.9429 20.5485C15.9634 20.3645 15.9797 20.1846 15.9961 20.0006C16.0083 19.8166 16.0206 19.6326 16.0247 19.4446C16.0288 19.2565 16.0329 19.0766 16.0329 18.8885C16.0329 18.7127 16.0247 18.5369 16.0165 18.361C16.0165 18.3529 16.0165 18.3447 16.0165 18.3365C16.0043 18.1525 15.9879 17.9726 15.9756 17.7845C15.9756 17.7682 15.9756 17.7518 15.9716 17.7355C15.9593 17.6251 15.947 17.5188 15.9348 17.4125C15.9266 17.3511 15.9225 17.2939 15.9102 17.2366C15.8898 17.114 15.8775 16.9872 15.8571 16.8687C15.7835 16.4434 15.6894 16.0141 15.575 15.5971C15.575 15.593 15.575 15.5889 15.575 15.5848C15.5259 15.4131 15.4768 15.2495 15.4196 15.0819C15.346 14.8447 15.2642 14.6117 15.1742 14.3827C15.1252 14.256 15.0761 14.1374 15.023 14.0107C14.9494 13.8389 14.8717 13.6672 14.794 13.4996C14.794 13.4996 14.794 13.4982 14.794 13.4955C14.7286 13.3524 14.6591 13.2093 14.5814 13.0702C14.5242 12.9598 14.4669 12.8535 14.4056 12.7472C14.3361 12.6246 14.2666 12.5019 14.193 12.3833C14.1194 12.2607 14.0458 12.1421 13.964 12.0235C13.87 11.8722 13.7677 11.7251 13.6696 11.582C13.6614 11.5697 13.6532 11.5615 13.6451 11.5492C13.551 11.4184 13.457 11.2917 13.3589 11.1649C13.3221 11.1118 13.2812 11.0586 13.2362 11.0095C13.1503 10.9032 13.0686 10.801 12.9786 10.6947C12.7374 10.4044 12.4839 10.1305 12.2181 9.87287C12.2018 9.85243 12.1813 9.83607 12.165 9.81562C12.0914 9.74611 12.0219 9.6766 11.9483 9.60709C11.8869 9.54985 11.8256 9.49262 11.7643 9.43947C11.6948 9.37405 11.6211 9.30863 11.5476 9.2473C11.1755 8.9202 10.7912 8.62581 10.3905 8.35187C10.2146 8.23329 10.0347 8.11472 9.84665 8.00432C9.77715 7.95935 9.70763 7.91846 9.63403 7.87757C9.57679 7.84077 9.51137 7.80397 9.45004 7.77126C9.34782 7.71402 9.24152 7.6527 9.12704 7.59954C9.04935 7.55866 8.97165 7.51776 8.88579 7.47687C8.71406 7.39101 8.54235 7.30923 8.36654 7.23155C8.23161 7.17022 8.09669 7.11298 7.96176 7.05983C7.93314 7.04756 7.90451 7.0353 7.87589 7.02303C7.85136 7.01485 7.83092 7.00259 7.80639 6.9985C7.6919 6.95761 7.5774 6.90855 7.45474 6.86766C7.38523 6.83904 7.30755 6.8145 7.23396 6.78997C7.11538 6.75317 6.99682 6.71228 6.88233 6.67139C6.64519 6.60189 6.40395 6.53647 6.16271 6.47514C6.09729 6.45879 6.04005 6.44652 5.97872 6.43016C5.81108 6.39336 5.64345 6.36065 5.4799 6.32794C5.32453 6.29932 5.16915 6.2707 5.01378 6.25026C4.82161 6.22164 4.62536 6.19711 4.43319 6.17666C4.23693 6.15622 4.04068 6.13987 3.84851 6.1276C3.46417 6.10307 3.07164 6.09488 2.69139 6.10715C2.50331 6.11124 2.31932 6.11942 2.13124 6.13577C2.0372 6.14395 1.94316 6.15213 1.84912 6.1603C1.82867 6.20119 1.80004 6.2339 1.76324 6.26252C1.62014 6.37701 1.41163 6.35247 1.29306 6.20937C1.17857 6.06626 1.20308 5.85365 1.34619 5.73917C1.48929 5.62468 1.70192 5.64922 1.8164 5.79232C1.82458 5.8005 1.83275 5.80868 1.83684 5.82095C2.51148 5.75553 3.18612 5.74326 3.86076 5.78415C4.66624 5.83321 5.45536 5.95178 6.23221 6.13987C6.86188 6.29524 7.48338 6.49149 8.08851 6.73682C8.22344 6.78997 8.35836 6.84722 8.4892 6.90855C9.20881 7.22747 9.9039 7.6118 10.5622 8.06565C11.1918 8.49497 11.7929 8.98153 12.3489 9.52942C12.3489 9.52942 12.3571 9.5376 12.3612 9.54168C12.4225 9.6071 12.5207 9.61527 12.5943 9.55803C12.6638 9.50079 12.6801 9.40267 12.6311 9.32498V9.32089C12.6311 9.32089 12.6311 9.31272 12.627 9.31272C12.6147 9.29636 12.6065 9.28818 12.5902 9.28C12.5902 9.28 12.5861 9.28 12.582 9.28C12.5084 9.2064 12.4307 9.1369 12.353 9.0633C12.2835 8.99788 12.2181 8.93246 12.1404 8.87113C11.6988 8.47043 11.2286 8.11063 10.738 7.77945C10.6153 7.69358 10.4927 7.6159 10.37 7.53412C10.2719 7.47279 10.1738 7.41555 10.0756 7.35422C9.96931 7.29289 9.86708 7.23155 9.75669 7.17431C9.64629 7.10889 9.53181 7.04756 9.42141 6.99031C9.32328 6.93716 9.22516 6.88809 9.12294 6.83494C9.03708 6.79405 8.95531 6.75726 8.87354 6.71638C8.849 6.70411 8.82448 6.69184 8.80404 6.68366H8.79994C8.65684 6.80223 8.4483 6.7777 8.32973 6.6346C8.21525 6.49149 8.23978 6.27888 8.38288 6.1644C8.53008 6.04991 8.73861 6.07445 8.8531 6.21755C8.8899 6.26253 8.91033 6.31159 8.91851 6.36474C9.61359 6.68366 10.2841 7.05574 10.9302 7.49323C11.6089 7.95526 12.2467 8.47452 12.8478 9.0633C13.2689 9.46808 13.6614 9.90966 14.0335 10.3758C14.0785 10.433 14.1235 10.4862 14.1643 10.5434C14.2625 10.6702 14.3606 10.801 14.4506 10.9278C14.9249 11.586 15.3296 12.2729 15.669 12.9803C15.669 13.0089 15.6813 13.0375 15.7017 13.0621C15.763 13.1357 15.8734 13.152 15.947 13.0907C16.0124 13.0375 16.0329 12.9476 15.992 12.874C15.9143 12.7104 15.8366 12.5551 15.7508 12.3997C15.6772 12.2566 15.5995 12.1176 15.5177 11.9745C15.485 11.909 15.4482 11.8477 15.4073 11.7864C15.3705 11.7251 15.3378 11.6637 15.2969 11.6065C15.2152 11.4675 15.1293 11.3325 15.0393 11.1976C14.933 11.0382 14.8267 10.8787 14.7122 10.7233C14.6223 10.5966 14.5242 10.4657 14.426 10.339C14.3851 10.2817 14.3361 10.2245 14.2911 10.1673C14.1971 10.0487 14.0989 9.9301 14.0008 9.81153C13.9027 9.69705 13.8004 9.58256 13.6982 9.46808C13.6328 9.39857 13.5715 9.32498 13.502 9.25547C13.4447 9.19414 13.3875 9.12872 13.3262 9.06739C13.2526 8.99379 13.179 8.92019 13.1054 8.8466C13.0931 8.83433 13.0849 8.82616 13.0727 8.81389C12.4553 8.21285 11.8011 7.68131 11.106 7.21111C11.0855 7.19475 11.0651 7.18249 11.0446 7.17022C10.9383 7.10071 10.8361 7.03529 10.7298 6.96578C10.6521 6.91672 10.5704 6.86357 10.4886 6.8186C10.4027 6.76544 10.321 6.71638 10.2351 6.66322C10.141 6.60598 10.0429 6.55691 9.94887 6.50376C9.78532 6.4138 9.61767 6.32795 9.45004 6.24618C9.30693 6.17258 9.15974 6.10307 9.01663 6.03765C8.96757 6.01312 8.9226 5.99267 8.87354 5.97223C8.7427 5.9109 8.60777 5.85774 8.46876 5.80459C7.81047 5.53473 7.13174 5.31803 6.44484 5.15039C6.20769 5.09724 5.97054 5.04408 5.72931 4.99502C5.54532 4.96231 5.36133 4.93369 5.17734 4.90506C4.95246 4.87235 4.72348 4.84374 4.49451 4.8192C4.39638 4.80694 4.29417 4.80285 4.19604 4.79467C4.09382 4.7865 3.9957 4.77832 3.89348 4.77423C3.66042 4.75788 3.42735 4.75379 3.1943 4.7497C3.17794 4.7497 3.16159 4.7497 3.14523 4.7497C3.09208 4.7497 3.04301 4.7497 2.98986 4.7497C2.96942 4.78241 2.94488 4.81512 2.91217 4.83966C2.76907 4.95414 2.55647 4.9296 2.44199 4.78241C2.3275 4.6393 2.35201 4.43078 2.49512 4.3163C2.63822 4.20182 2.85085 4.22634 2.96533 4.36944C2.9776 4.38171 2.98578 4.39807 2.99395 4.41033C3.29652 4.41033 3.60317 4.41443 3.90982 4.43078C4.7889 4.47985 5.6598 4.61069 6.51843 4.81512C7.22578 4.98685 7.92494 5.21173 8.60367 5.48976C8.7386 5.54291 8.87354 5.60015 9.00847 5.66148C9.80168 6.00902 10.5663 6.43017 11.2941 6.92081C12.0014 7.39919 12.6801 7.94708 13.3057 8.56447C13.7514 8.99788 14.1684 9.46399 14.5609 9.95464C14.6059 10.0119 14.6509 10.0732 14.6959 10.1305C14.794 10.2572 14.8921 10.388 14.9821 10.5148C15.485 11.218 15.9266 11.954 16.2864 12.7186C16.6626 13.4914 16.961 14.2887 17.1859 15.0983C17.3822 15.7933 17.5212 16.5007 17.6111 17.2121C17.6275 17.3348 17.6397 17.4574 17.652 17.5842C17.7297 18.361 17.7461 19.1461 17.697 19.927C17.697 19.9475 17.697 19.9679 17.7052 19.9843C17.7174 20.0292 17.7461 20.066 17.7869 20.0865C17.7992 20.0947 17.8115 20.0988 17.8238 20.1028C17.8319 20.1028 17.8401 20.1028 17.8483 20.1069C17.8606 20.1069 17.8687 20.1069 17.8769 20.1069C17.8851 20.1069 17.8933 20.1069 17.9014 20.1069C17.9055 20.1069 17.9137 20.1069 17.9219 20.1028C17.9423 20.0988 17.9587 20.0865 17.975 20.0742C17.9914 20.062 17.9995 20.0497 18.0077 20.0374C18.0118 20.0292 18.0159 20.0252 18.02 20.017C18.02 20.0088 18.0282 20.0047 18.0282 19.9965C18.0282 19.9843 18.0364 19.9761 18.0364 19.9638C18.0364 19.9597 18.0364 19.9557 18.0364 19.9516C18.0486 19.7553 18.0527 19.555 18.0568 19.3546C18.0568 19.1706 18.065 18.9948 18.0568 18.8149C18.0568 18.7536 18.0568 18.6922 18.0527 18.635C18.0527 18.4878 18.0404 18.3365 18.0323 18.1852C18.02 17.9685 18.0036 17.7559 17.9832 17.5433C17.9709 17.4206 17.9546 17.298 17.9382 17.1753C17.93 17.1099 17.9219 17.0486 17.9096 16.9831C17.8932 16.8441 17.8728 16.7133 17.8524 16.5784C17.8401 16.4925 17.8278 16.4066 17.8074 16.3289C17.7583 16.0795 17.7093 15.8301 17.6479 15.5807C17.6071 15.4049 17.5621 15.225 17.5171 15.0533C17.513 15.0369 17.5048 15.0206 17.5007 15.0001C17.4394 14.7834 17.374 14.5708 17.3045 14.3541C17.2677 14.2396 17.2023 14.0597 17.1614 13.9452C17.1491 13.9125 17.1368 13.8839 17.1246 13.8553C17.0387 13.6181 16.9447 13.3892 16.8465 13.1602C16.8097 13.0662 16.7689 12.9762 16.728 12.8822C16.6789 12.7718 16.6298 12.6695 16.5767 12.5632C16.4826 12.3629 16.3804 12.1666 16.2741 11.9704C16.2046 11.8436 16.131 11.7169 16.0615 11.5901C15.9879 11.4593 15.9102 11.3285 15.8285 11.1976C15.7998 11.1526 15.7671 11.0995 15.7426 11.0545C15.6608 10.9278 15.579 10.8051 15.4973 10.6783C15.4155 10.5598 15.3296 10.433 15.2438 10.3144C15.1497 10.1836 15.0557 10.0569 14.9576 9.93011C14.9126 9.86877 14.8635 9.80744 14.8185 9.7502C14.7245 9.63163 14.6264 9.51306 14.5323 9.39858C14.3974 9.23912 14.2625 9.08374 14.1194 8.93246C14.0376 8.83842 13.9517 8.74438 13.8618 8.65443C13.7555 8.54403 13.6492 8.43363 13.5388 8.33141C13.5388 8.32733 13.5306 8.32324 13.5265 8.31915C12.8846 7.68949 12.1936 7.13342 11.4658 6.64277C11.4576 6.63868 11.4494 6.63051 11.4412 6.62642C11.3554 6.56918 11.2736 6.51194 11.1877 6.45879C10.8116 6.21346 10.4232 5.99267 10.0266 5.78415C9.92434 5.73508 9.82619 5.68193 9.72807 5.63287C9.52772 5.53474 9.32738 5.4407 9.12294 5.35075C9.04526 5.31395 8.96756 5.28124 8.88579 5.24853C8.83264 5.22808 8.77541 5.20355 8.72226 5.18311C8.6323 5.14631 8.54643 5.11359 8.45239 5.0768C8.28066 5.01138 8.11302 4.95004 7.9413 4.8928C7.90041 4.88053 7.85543 4.8601 7.81045 4.85192C7.62646 4.79059 7.44248 4.72925 7.25439 4.6761C7.02951 4.61068 6.80465 4.55343 6.57977 4.49619C6.10548 4.38171 5.62709 4.29586 5.14053 4.22635C4.95654 4.20182 4.76846 4.17728 4.58038 4.16093C4.46998 4.14866 4.3555 4.14048 4.24919 4.12821C4.13471 4.12003 4.02022 4.10777 3.90982 4.10777C3.79534 4.09959 3.68494 4.0955 3.57045 4.09141C3.46006 4.08732 3.34559 4.08733 3.23111 4.08324C3.11662 4.08324 3.00622 4.08324 2.89174 4.08324C2.71183 4.08324 2.52783 4.09142 2.34384 4.0996C2.19664 4.10778 2.05356 4.11594 1.90227 4.12821C1.8573 4.12821 1.81231 4.1323 1.76734 4.14048C1.71418 4.14048 1.66512 4.14865 1.61606 4.15274C1.59561 4.20181 1.56291 4.2427 1.51793 4.27541C1.37483 4.38989 1.1622 4.36536 1.04772 4.22225C0.933235 4.07915 0.957769 3.86654 1.10087 3.75205C1.24398 3.63757 1.45251 3.6621 1.56699 3.80521H1.57109C2.35612 3.7357 3.14116 3.71934 3.9221 3.76432C4.83798 3.81338 5.75384 3.94831 6.64927 4.16093C7.39751 4.33674 8.13348 4.57797 8.84901 4.86827C8.98393 4.92142 9.11476 4.97866 9.2456 5.03591C10.0756 5.3998 10.877 5.83322 11.6375 6.34839C12.3817 6.85131 13.0931 7.41964 13.7514 8.05748C14.2175 8.51541 14.6632 9.00605 15.0843 9.5335C15.1334 9.59483 15.1783 9.65617 15.2274 9.7175C15.3051 9.8238 15.3828 9.92602 15.4605 10.0323C15.4605 10.0323 15.4727 10.0609 15.4809 10.0691C15.4891 10.0814 15.4973 10.0855 15.5054 10.0977C15.5668 10.1468 15.6608 10.1468 15.7221 10.0977C15.7835 10.0487 15.8039 9.96282 15.7712 9.89331C15.7671 9.87695 15.7589 9.86469 15.7467 9.85242C15.7385 9.84424 15.7303 9.83607 15.7221 9.82789C15.6813 9.76247 15.6322 9.70523 15.5872 9.6439C15.5545 9.59893 15.5177 9.55394 15.485 9.50897C15.4359 9.44764 15.391 9.38222 15.3378 9.32089C15.2519 9.21458 15.1702 9.11236 15.0802 9.01014C15.0189 8.92837 14.9494 8.85069 14.8799 8.773C14.8104 8.69123 14.7449 8.61763 14.6713 8.53994C14.6182 8.4827 14.565 8.42545 14.5119 8.36821C14.4587 8.31097 14.4097 8.25374 14.3524 8.20058C14.2216 8.06566 14.0907 7.93482 13.9599 7.80398C13.7841 7.63225 13.6001 7.46052 13.4161 7.29697C13.2893 7.18657 13.1626 7.08028 13.0359 6.97397C12.9009 6.86766 12.7742 6.76135 12.6433 6.66322C12.5575 6.5978 12.4757 6.53238 12.3857 6.47105C12.2958 6.40972 12.2058 6.3443 12.12 6.27888C12.0137 6.2012 11.9114 6.12759 11.8011 6.05809C11.6784 5.97631 11.5557 5.89454 11.4331 5.81685C11.3677 5.77188 11.3022 5.73508 11.2327 5.6942C11.1223 5.62878 11.016 5.56335 10.9056 5.49793C10.7053 5.38345 10.5049 5.26896 10.2964 5.16266C10.2105 5.11768 10.1206 5.07271 10.0307 5.02773C9.92435 4.97458 9.81393 4.92142 9.70763 4.87236C9.56452 4.98276 9.35599 4.95823 9.24151 4.81512C9.12702 4.67202 9.15156 4.46349 9.29466 4.349C9.44186 4.23452 9.65039 4.25905 9.76487 4.40216C9.80167 4.44714 9.8262 4.50437 9.83438 4.56161C10.5744 4.90507 11.294 5.31395 11.981 5.77188C12.7578 6.29115 13.4979 6.8881 14.1889 7.55456C14.6836 8.03703 15.1538 8.5563 15.5954 9.11236C15.6445 9.17778 15.6935 9.23911 15.7467 9.30453C15.8448 9.43128 15.9389 9.55803 16.0329 9.68478C16.589 10.4535 17.0673 11.2589 17.4721 12.093C17.8851 12.9353 18.2122 13.8062 18.4616 14.6935C18.6783 15.4703 18.8418 16.2554 18.9359 17.0445C18.9441 17.1099 18.9522 17.1753 18.9604 17.2407C18.9686 17.3143 19.0217 17.3757 19.0953 17.3879C19.0994 17.3879 19.1117 17.3879 19.1199 17.3879C19.128 17.3879 19.1403 17.3879 19.1526 17.3879C19.2466 17.3757 19.312 17.2939 19.2998 17.1998C19.2998 17.1876 19.2998 17.1712 19.2957 17.1549C19.2875 17.1017 19.2834 17.0486 19.2752 16.9954C19.2507 16.7828 19.218 16.5702 19.1812 16.3576C19.1689 16.284 19.1567 16.2104 19.1403 16.1409C19.0994 15.9078 19.0585 15.6788 19.0013 15.454C18.9727 15.3231 18.9441 15.1964 18.9113 15.0655C18.8705 14.9061 18.8296 14.7466 18.7805 14.5872C18.7192 14.3623 18.6497 14.1374 18.5761 13.9166C18.4943 13.6672 18.4043 13.4096 18.3062 13.1602C18.1549 12.7759 17.9914 12.3915 17.8115 12.0194C17.7992 11.9867 17.7829 11.9581 17.7706 11.9295C17.7583 11.8927 17.7338 11.8559 17.7174 11.8232C17.6847 11.7537 17.6479 11.6842 17.6111 11.6106C17.5743 11.537 17.5375 11.4634 17.5007 11.3939C17.4639 11.3244 17.4231 11.2548 17.3863 11.1813C17.3495 11.1077 17.3086 11.03 17.2636 10.9605C17.2104 10.8583 17.1491 10.7601 17.0878 10.6579C17.0305 10.5639 16.9733 10.4698 16.916 10.3799C16.8424 10.2613 16.7648 10.1427 16.683 10.0242C16.6298 9.93829 16.5726 9.85651 16.5154 9.77473C16.4458 9.67251 16.3804 9.57439 16.3027 9.47626C16.2087 9.34542 16.1147 9.21867 16.0165 9.09192C15.9675 9.0265 15.9143 8.96108 15.8652 8.89566C15.714 8.70349 15.5545 8.51541 15.3991 8.33141C15.301 8.21693 15.2029 8.10654 15.1007 7.99615C15.0516 7.93891 15.0025 7.88575 14.9494 7.83668C14.9003 7.78353 14.8472 7.72629 14.7981 7.67723C14.6754 7.54639 14.5487 7.42372 14.4219 7.29697C14.4138 7.2847 14.4056 7.27653 14.3933 7.26836C14.3279 7.20703 14.2665 7.14569 14.2011 7.08845C14.1194 7.01077 14.0335 6.93308 13.9517 6.85539C13.8863 6.79406 13.8127 6.73682 13.7473 6.67549C13.5428 6.49967 13.3343 6.32795 13.1217 6.1644C13.0032 6.07036 12.8805 5.97632 12.7578 5.88637C12.6597 5.81277 12.5616 5.74735 12.4634 5.67784C12.3653 5.60833 12.2672 5.53882 12.169 5.4734C12.075 5.40798 11.981 5.34666 11.8869 5.28532C11.6293 5.12178 11.3677 4.96641 11.1019 4.81512C10.9383 4.72108 10.7707 4.63113 10.599 4.54527C10.4927 4.48803 10.3864 4.43077 10.2719 4.38171C10.1656 4.32856 10.0552 4.27541 9.94478 4.22635C9.90798 4.20999 9.87117 4.18954 9.83438 4.17727C9.78531 4.15274 9.72809 4.12821 9.67494 4.10777C9.65858 4.09551 9.63404 4.08324 9.61359 4.07915C9.51138 4.03417 9.40915 3.9892 9.30285 3.94422C9.27014 3.93196 9.24153 3.91969 9.21291 3.90743C9.11069 3.86654 9.00847 3.82565 8.90625 3.78885C8.72635 3.71525 8.54644 3.65392 8.36245 3.59259C8.23978 3.54761 8.11304 3.50673 7.98629 3.46993C7.68373 3.3718 7.37705 3.28593 7.0704 3.20825C7.05813 3.22051 7.04588 3.2287 7.03361 3.24096C6.88642 3.35545 6.67788 3.33091 6.5634 3.18781C6.44892 3.0447 6.47345 2.83618 6.61655 2.71761C6.75966 2.60312 6.96819 2.62766 7.08267 2.77076C7.10721 2.80347 7.12766 2.84026 7.13992 2.87706C7.88816 3.06514 8.62004 3.30229 9.33556 3.59259C9.47049 3.64574 9.60132 3.70299 9.73625 3.76023C10.6399 4.15274 11.5108 4.63112 12.3449 5.18719C13.1544 5.7269 13.9231 6.3443 14.6427 7.04347C15.1661 7.54638 15.6608 8.09427 16.1269 8.67896C16.1801 8.74438 16.2332 8.81388 16.2823 8.8793C16.3804 9.00605 16.4745 9.1328 16.5685 9.26364C17.1532 10.0609 17.6479 10.8991 18.0691 11.7659C18.4984 12.6409 18.8378 13.5404 19.0994 14.4563C19.0994 14.4563 19.0994 14.4645 19.0994 14.4686C19.0994 14.4727 19.0994 14.4768 19.0994 14.4768C19.0994 14.4768 19.1117 14.5054 19.124 14.5176C19.1853 14.5912 19.2916 14.6035 19.3652 14.5463C19.4183 14.5054 19.4388 14.4359 19.4224 14.3745C19.2548 13.7858 19.0545 13.197 18.8214 12.6287C18.7764 12.5142 18.7273 12.3997 18.6783 12.2852C18.6292 12.1666 18.5802 12.0562 18.5229 11.9418C18.4738 11.8273 18.4207 11.7169 18.3635 11.6024C18.2612 11.3816 18.1468 11.1608 18.0282 10.9441C17.9137 10.7233 17.791 10.5107 17.6643 10.3022C17.5989 10.1918 17.5335 10.0896 17.468 9.98326C17.4271 9.91375 17.3862 9.85242 17.3454 9.787C17.2963 9.70931 17.2431 9.63164 17.19 9.55395C17.0755 9.38222 16.961 9.21458 16.8384 9.04694C16.7811 8.96517 16.7239 8.8834 16.6625 8.8098C16.6257 8.76074 16.5889 8.71576 16.5521 8.66669C16.499 8.59718 16.4459 8.52768 16.3927 8.46226C16.1964 8.21284 15.992 7.9757 15.7835 7.73856C15.714 7.65678 15.6445 7.57501 15.5668 7.49732C15.4605 7.37875 15.3542 7.26834 15.2438 7.15386C15.1211 7.02711 14.9984 6.90445 14.8758 6.78588C14.5896 6.50785 14.2952 6.24617 13.9926 5.98858C13.8863 5.89454 13.7759 5.80867 13.6655 5.72281C13.4938 5.58379 13.3221 5.45296 13.1463 5.32212C13.0522 5.25261 12.9582 5.1872 12.8641 5.12178C12.7537 5.04409 12.6433 4.9664 12.5329 4.89689C11.6866 4.32856 10.7952 3.84201 9.87119 3.4454C9.74035 3.38816 9.60543 3.33091 9.4705 3.27776C9.30695 3.21234 9.1393 3.14692 8.97166 3.08559C8.84491 3.03653 8.71407 2.99155 8.58732 2.94658C8.50964 2.91796 8.43604 2.89751 8.35835 2.87298C8.26431 2.84027 8.17028 2.81164 8.08032 2.78711C7.72052 2.67671 7.35253 2.57859 6.98046 2.48864C6.73513 2.42731 6.48571 2.37415 6.23221 2.32508C6.22404 2.32508 6.21586 2.321 6.20768 2.321C5.97054 2.28012 5.73749 2.23923 5.50443 2.20652C5.46764 2.20243 5.43492 2.19834 5.39812 2.19016C5.18551 2.16563 4.97699 2.1411 4.76438 2.11657C4.73984 2.11657 4.71123 2.11247 4.69078 2.10838C4.54359 2.09612 4.40049 2.08385 4.25738 2.07158C4.24102 2.09203 4.22467 2.10838 4.20422 2.12474C4.06112 2.23922 3.85259 2.2147 3.7381 2.0675C3.62362 1.9244 3.64815 1.71178 3.79126 1.59729C3.93436 1.48281 4.14696 1.50735 4.26145 1.65454C4.28189 1.67907 4.29824 1.70769 4.31051 1.73631C5.23456 1.80173 6.15454 1.94075 7.05814 2.15746C7.92495 2.3578 8.77539 2.62765 9.60132 2.96702C9.73624 3.02017 9.87119 3.07741 10.002 3.13465C10.9138 3.53126 11.7929 4.00555 12.6352 4.56161C12.6352 4.56161 12.6638 4.58206 12.6801 4.59024C12.6801 4.59024 12.6842 4.59024 12.6842 4.59433C12.6924 4.60251 12.7006 4.6066 12.7088 4.61069C12.721 4.61887 12.7333 4.62295 12.7496 4.62703C12.7496 4.62703 12.7537 4.62703 12.7578 4.62703C12.7987 4.62703 12.8396 4.61477 12.8764 4.59024C12.9541 4.52891 12.9663 4.41851 12.905 4.34491C12.9009 4.33673 12.8928 4.33265 12.8887 4.32857C12.8887 4.32857 12.8641 4.31221 12.8559 4.30403C12.8519 4.29995 12.8437 4.29585 12.8396 4.29176C12.8192 4.27949 12.7987 4.26723 12.7824 4.25496C12.7169 4.21407 12.6474 4.1691 12.582 4.12821C12.5616 4.11186 12.5411 4.09959 12.5207 4.08732C12.4266 4.02599 12.3244 3.96467 12.2263 3.90334C12.0546 3.80112 11.8869 3.69889 11.7152 3.60485C11.5435 3.50672 11.3676 3.41678 11.1918 3.32682C11.0733 3.26549 10.9588 3.20825 10.8402 3.15101C10.7216 3.09377 10.6072 3.03653 10.4886 2.98337C10.37 2.93022 10.2514 2.87706 10.1329 2.82391C10.0102 2.76667 9.88754 2.7176 9.76897 2.67263C9.7567 2.66854 9.74442 2.66445 9.73216 2.65627C9.60541 2.60311 9.47456 2.54996 9.34372 2.50499C8.86126 2.321 8.36652 2.15745 7.86361 2.01843C7.74913 1.98981 7.63056 1.9571 7.51608 1.92848C7.38933 1.89168 7.26258 1.86306 7.13174 1.83444C6.87006 1.77311 6.60429 1.71587 6.33852 1.6668C6.15862 1.63001 5.97871 1.60138 5.79881 1.57276C5.70477 1.5564 5.60256 1.54006 5.50034 1.52779C5.34497 1.50326 5.18552 1.4869 5.02197 1.47054C4.67852 1.42965 4.33505 1.40104 3.98751 1.38468C3.84032 1.3765 3.68495 1.36833 3.52958 1.36424C3.41918 1.36424 3.30469 1.36424 3.1902 1.36015C2.98577 1.36015 2.77724 1.36015 2.5728 1.36424C2.51556 1.36424 2.45833 1.36833 2.40108 1.37242C1.98812 1.38877 1.57108 1.4133 1.15812 1.45828C1.13768 1.49916 1.10905 1.53188 1.07225 1.56459C0.929145 1.67907 0.720635 1.65453 0.602062 1.50734C0.487578 1.36423 0.512087 1.15163 0.655193 1.04123C0.802387 0.926747 1.01092 0.951281 1.12541 1.09439C1.13358 1.10256 1.14175 1.11073 1.14175 1.123C2.09442 1.02078 3.04711 0.996251 3.9916 1.0494C5.06694 1.10665 6.14228 1.25793 7.19308 1.50734C8.09669 1.71995 8.98801 2.00208 9.85481 2.35371C9.98974 2.40686 10.1206 2.4641 10.2555 2.52135C11.2327 2.94248 12.1772 3.45357 13.0727 4.05462C13.9272 4.62295 14.7368 5.26896 15.4973 5.99267C15.4973 5.99675 15.5054 6.00493 15.5095 6.00902C15.5259 6.02947 15.5422 6.04174 15.5627 6.05401C15.624 6.08672 15.6976 6.08262 15.7549 6.03765C15.8244 5.98041 15.8448 5.87818 15.7916 5.80459C15.7916 5.80459 15.763 5.77188 15.7467 5.75962C14.9698 5.01547 14.1357 4.35309 13.2607 3.77249C13.2362 3.75614 13.2117 3.7357 13.1871 3.72343C13.0686 3.64574 12.9459 3.56806 12.8273 3.49446C12.721 3.42904 12.6147 3.35953 12.5084 3.2982C11.9769 2.98337 11.4372 2.69308 10.8811 2.43549C10.8034 2.3946 10.7216 2.3578 10.6358 2.321C10.554 2.2842 10.4722 2.24331 10.3905 2.2106C10.3537 2.19833 10.3128 2.18198 10.2801 2.16563C10.1819 2.12474 10.0879 2.08794 9.98975 2.04705C9.91206 2.01434 9.83438 1.98573 9.75669 1.95302C9.54816 1.87125 9.33146 1.78946 9.11885 1.71587C8.96757 1.66271 8.81629 1.61365 8.66501 1.56459C8.51373 1.51552 8.35835 1.46646 8.20298 1.42557C8.05579 1.38468 7.90859 1.33971 7.76139 1.29882C7.59784 1.26202 7.43838 1.22113 7.27483 1.17615C7.00498 1.11482 6.73513 1.05759 6.46527 1.00443C6.19542 0.955369 5.92557 0.910387 5.65162 0.869499C5.23457 0.812257 4.81343 0.767287 4.39229 0.734577C4.37593 0.750932 4.36367 0.767281 4.34732 0.779547C4.20421 0.894031 3.99159 0.869509 3.87711 0.726404C3.76262 0.583299 3.78716 0.370675 3.93435 0.256191C4.07746 0.141707 4.29008 0.166241 4.40457 0.309347C4.42501 0.333879 4.44136 0.366585 4.45363 0.395206C5.42675 0.468803 6.39987 0.616008 7.34845 0.840888C8.29295 1.06168 9.22107 1.35606 10.1206 1.71996C10.2555 1.77311 10.3904 1.83036 10.5213 1.8876C11.5312 2.32509 12.5166 2.85662 13.4447 3.4781C14.3565 4.08324 15.2192 4.77014 16.0288 5.55109C16.6298 6.1276 17.2023 6.75726 17.7338 7.42781C17.791 7.50141 17.8524 7.575 17.9096 7.65269C17.9873 7.7549 18.065 7.85712 18.1427 7.95934C18.1427 7.95934 18.159 7.99206 18.1672 8.00841C18.1713 8.0125 18.1795 8.02067 18.1836 8.02476L18.1876 8.02885C18.2122 8.0493 18.2408 8.06565 18.2653 8.06974C18.2776 8.06974 18.2858 8.06974 18.2939 8.06974C18.3021 8.06974 18.3144 8.06974 18.3226 8.06974C18.3307 8.06974 18.343 8.06974 18.3512 8.06565C18.3716 8.06156 18.388 8.04929 18.4043 8.03703C18.4698 7.98796 18.4902 7.89802 18.4534 7.82851C18.4493 7.81624 18.4411 7.80398 18.433 7.79171C18.4289 7.78762 18.4248 7.77945 18.4207 7.77945C18.3389 7.66087 18.2572 7.55456 18.1754 7.44417C18.1181 7.36648 18.0568 7.2888 17.9955 7.2152C17.4517 6.5283 16.867 5.89045 16.2496 5.29759C15.4277 4.50438 14.5446 3.80112 13.6164 3.1919C12.6679 2.55815 11.6702 2.01434 10.6399 1.57276C10.509 1.51552 10.3741 1.46236 10.2392 1.40512C9.39279 1.06167 8.5219 0.779556 7.63873 0.558765C7.62647 0.571031 7.61421 0.583296 7.59786 0.595562C7.45475 0.710046 7.24213 0.685512 7.12765 0.542407C7.01316 0.399301 7.0377 0.186691 7.18489 0.0722063C7.328 -0.0422778 7.53653 -0.0177435 7.65511 0.125362C7.67964 0.153983 7.69597 0.182604 7.70824 0.215314C8.61184 0.436105 9.50728 0.726398 10.3741 1.07803C10.509 1.13118 10.6398 1.18842 10.7748 1.24567C11.8215 1.69951 12.8396 2.2474 13.8045 2.88933C14.749 3.5149 15.6445 4.23452 16.4826 5.04C17.1123 5.64513 17.7093 6.29524 18.2653 6.9985C18.3266 7.07619 18.388 7.15386 18.4452 7.23155C18.5434 7.35421 18.6374 7.48097 18.7314 7.61181C19.4102 8.54404 20.003 9.51306 20.4937 10.5189C20.9966 11.5411 21.4014 12.6 21.7121 13.6754C21.9901 14.6444 22.1946 15.6257 22.3132 16.6152C22.3295 16.7378 22.3418 16.8605 22.354 16.9831C22.4808 18.0953 22.5012 19.2197 22.4276 20.3359C22.354 21.448 22.0515 24.9766 21.0988 27.1927C16.6625 37.5208 6.52662 36.2124 2.64642 35.5787" fill="#64C082"/>
</svg>
