<svg width="80" height="80" viewBox="0 0 80 80" fill="none" xmlns="http://www.w3.org/2000/svg">
<g filter="url(#filter0_b_419_4922)">
<rect width="80" height="80" rx="40" fill="#7F8180" fill-opacity="0.26"/>
<path d="M17 44L13 40L17 36" stroke="white" stroke-width="1.5" stroke-linecap="round" stroke-linejoin="round"/>
<path d="M22.26 44V35.6H25.8C26.696 35.6 27.484 35.776 28.164 36.128C28.852 36.48 29.384 36.972 29.76 37.604C30.144 38.236 30.336 38.968 30.336 39.8C30.336 40.632 30.144 41.364 29.76 41.996C29.384 42.628 28.852 43.12 28.164 43.472C27.484 43.824 26.696 44 25.8 44H22.26ZM23.46 42.956H25.728C26.424 42.956 27.024 42.824 27.528 42.56C28.04 42.296 28.436 41.928 28.716 41.456C28.996 40.976 29.136 40.424 29.136 39.8C29.136 39.168 28.996 38.616 28.716 38.144C28.436 37.672 28.04 37.304 27.528 37.04C27.024 36.776 26.424 36.644 25.728 36.644H23.46V42.956ZM32.1741 44V35.6H35.4501C36.1861 35.6 36.8141 35.716 37.3341 35.948C37.8541 36.18 38.2541 36.516 38.5341 36.956C38.8141 37.396 38.9541 37.92 38.9541 38.528C38.9541 39.136 38.8141 39.66 38.5341 40.1C38.2541 40.532 37.8541 40.864 37.3341 41.096C36.8141 41.328 36.1861 41.444 35.4501 41.444H32.8341L33.3741 40.892V44H32.1741ZM37.7901 44L35.6541 40.952H36.9381L39.0981 44H37.7901ZM33.3741 41.012L32.8341 40.424H35.4141C36.1821 40.424 36.7621 40.26 37.1541 39.932C37.5541 39.596 37.7541 39.128 37.7541 38.528C37.7541 37.928 37.5541 37.464 37.1541 37.136C36.7621 36.808 36.1821 36.644 35.4141 36.644H32.8341L33.3741 36.044V41.012ZM39.6208 44L43.4248 35.6H44.6128L48.4288 44H47.1688L43.7728 36.272H44.2528L40.8568 44H39.6208ZM41.2408 41.9L41.5648 40.94H46.2928L46.6408 41.9H41.2408ZM53.3567 44.096C52.7087 44.096 52.1127 43.992 51.5687 43.784C51.0247 43.568 50.5527 43.268 50.1527 42.884C49.7527 42.492 49.4407 42.036 49.2167 41.516C48.9927 40.996 48.8807 40.424 48.8807 39.8C48.8807 39.176 48.9927 38.604 49.2167 38.084C49.4407 37.564 49.7527 37.112 50.1527 36.728C50.5607 36.336 51.0367 36.036 51.5807 35.828C52.1247 35.612 52.7247 35.504 53.3807 35.504C54.0447 35.504 54.6527 35.612 55.2047 35.828C55.7567 36.044 56.2247 36.368 56.6087 36.8L55.8647 37.544C55.5207 37.208 55.1447 36.964 54.7367 36.812C54.3367 36.652 53.9007 36.572 53.4287 36.572C52.9487 36.572 52.5007 36.652 52.0847 36.812C51.6767 36.972 51.3207 37.196 51.0167 37.484C50.7207 37.772 50.4887 38.116 50.3207 38.516C50.1607 38.908 50.0807 39.336 50.0807 39.8C50.0807 40.256 50.1607 40.684 50.3207 41.084C50.4887 41.476 50.7207 41.82 51.0167 42.116C51.3207 42.404 51.6767 42.628 52.0847 42.788C52.4927 42.948 52.9367 43.028 53.4167 43.028C53.8647 43.028 54.2927 42.96 54.7007 42.824C55.1167 42.68 55.5007 42.444 55.8527 42.116L56.5367 43.028C56.1207 43.38 55.6327 43.648 55.0727 43.832C54.5207 44.008 53.9487 44.096 53.3567 44.096ZM55.3847 42.872V39.752H56.5367V43.028L55.3847 42.872Z" fill="white"/>
<path d="M62 44L66 40L62 36" stroke="white" stroke-width="1.5" stroke-linecap="round" stroke-linejoin="round"/>
</g>
<defs>
<filter id="filter0_b_419_4922" x="-22" y="-22" width="124" height="124" filterUnits="userSpaceOnUse" color-interpolation-filters="sRGB">
<feFlood flood-opacity="0" result="BackgroundImageFix"/>
<feGaussianBlur in="BackgroundImageFix" stdDeviation="11"/>
<feComposite in2="SourceAlpha" operator="in" result="effect1_backgroundBlur_419_4922"/>
<feBlend mode="normal" in="SourceGraphic" in2="effect1_backgroundBlur_419_4922" result="shape"/>
</filter>
</defs>
</svg>
