<svg width="42" height="44" viewBox="0 0 42 44" fill="none" xmlns="http://www.w3.org/2000/svg">
<path d="M0 0H38C40.2091 0 42 1.79086 42 4V40C42 42.2091 40.2091 44 38 44H0V0Z" fill="#90E975"/>
<path d="M25.6667 15.3333H25V14.6667C25 14.2987 24.702 14 24.3333 14C23.9647 14 23.6667 14.2987 23.6667 14.6667V15.3333H18.3333V14.6667C18.3333 14.2987 18.0353 14 17.6667 14C17.298 14 17 14.2987 17 14.6667V15.3333H16.3333C14.4953 15.3333 13 16.8287 13 18.6667V26.6667C13 28.5047 14.4953 30 16.3333 30H25.6667C27.5047 30 29 28.5047 29 26.6667V18.6667C29 16.8287 27.5047 15.3333 25.6667 15.3333ZM16.3333 16.6667H25.6667C26.7693 16.6667 27.6667 17.564 27.6667 18.6667V19.3333H14.3333V18.6667C14.3333 17.564 15.2307 16.6667 16.3333 16.6667ZM25.6667 28.6667H16.3333C15.2307 28.6667 14.3333 27.7693 14.3333 26.6667V20.6667H27.6667V26.6667C27.6667 27.7693 26.7693 28.6667 25.6667 28.6667ZM25.6667 23.3333C25.6667 23.7013 25.3687 24 25 24H17C16.6313 24 16.3333 23.7013 16.3333 23.3333C16.3333 22.9653 16.6313 22.6667 17 22.6667H25C25.3687 22.6667 25.6667 22.9653 25.6667 23.3333ZM21 26C21 26.368 20.702 26.6667 20.3333 26.6667H17C16.6313 26.6667 16.3333 26.368 16.3333 26C16.3333 25.632 16.6313 25.3333 17 25.3333H20.3333C20.702 25.3333 21 25.632 21 26Z" fill="white"/>
</svg>
