<svg width="185" height="185" viewBox="0 0 185 185" fill="none" xmlns="http://www.w3.org/2000/svg">
<path d="M121.596 164.511C69.0451 164.511 26.4625 121.911 26.4625 69.3782C26.4625 44.8237 35.7707 22.4446 51.0348 5.57568C20.7028 21.4817 0 53.2403 0 89.867C0 142.418 42.6003 185 95.1331 185C123.129 185 148.29 172.91 165.694 153.67C152.516 160.588 137.519 164.511 121.596 164.511Z" fill="#64C082"/>
<path d="M98.3234 154.971C106.348 149.193 127.924 136.925 145.168 98.3011C145.417 97.7304 145.56 97.1064 145.738 96.4822C145.881 96.0543 145.988 95.6263 146.095 95.1983C146.148 95.02 146.184 94.8417 146.22 94.6456C146.327 94.1998 146.452 93.7183 146.559 93.2547C146.63 92.9694 146.683 92.7019 146.737 92.4166C146.88 91.6676 147.022 90.9187 147.129 90.1519C147.183 89.7061 147.254 89.2782 147.307 88.8502C147.343 88.7432 147.361 88.5827 147.361 88.4579C147.415 87.8873 147.468 87.3166 147.521 86.7282C147.539 86.532 147.557 86.3537 147.557 86.1754C147.628 85.0342 147.682 83.8929 147.682 82.7517C147.682 82.2524 147.682 81.7353 147.628 81.2003C147.628 80.6832 147.575 80.1661 147.557 79.6489C147.522 79.3101 147.504 78.9535 147.468 78.6325C147.432 78.0975 147.379 77.5805 147.307 77.0455V77.0098C147.29 76.8671 147.272 76.7245 147.254 76.5997C147.165 75.9756 147.094 75.3871 146.987 74.7808C146.987 74.7273 146.969 74.6738 146.951 74.6203C146.844 73.9427 146.701 73.2829 146.559 72.6232C146.559 72.5875 146.559 72.5697 146.541 72.534C146.398 71.9099 146.238 71.268 146.059 70.6439C145.988 70.2872 145.881 69.9306 145.774 69.5739C145.667 69.1995 145.56 68.8606 145.435 68.4862C145.275 67.9869 145.114 67.4698 144.918 66.9526C144.668 66.2215 144.365 65.5083 144.08 64.7772C143.812 64.153 143.545 63.5289 143.26 62.9048C143.028 62.4234 142.778 61.924 142.529 61.4247C142.279 60.9255 142.011 60.4262 141.726 59.9447C141.441 59.4454 141.156 58.9461 140.852 58.4469C140.835 58.4112 140.799 58.3755 140.781 58.3398C140.46 57.8227 140.121 57.2878 139.782 56.7528C139.551 56.414 139.319 56.0752 139.087 55.7364C138.695 55.1658 138.285 54.5951 137.839 54.0245C137.696 53.8284 137.536 53.6322 137.393 53.4539C136.234 51.9917 135.003 50.6008 133.684 49.3169C133.416 49.0494 133.149 48.782 132.864 48.5145C132.632 48.2827 132.4 48.0508 132.133 47.8369C131.098 46.8918 130.011 45.9645 128.887 45.1264C128.655 44.9481 128.424 44.7876 128.192 44.6093C127.96 44.4488 127.728 44.2883 127.496 44.1278C127.389 44.0386 127.3 43.9674 127.175 43.896C127.068 43.8247 126.997 43.7534 126.89 43.6999C126.391 43.361 125.891 43.0401 125.392 42.7191C124.946 42.4338 124.483 42.1663 124.019 41.8988C123.662 41.6848 123.288 41.4709 122.931 41.2747C122.361 40.9538 121.79 40.6685 121.219 40.3832C120.756 40.1513 120.292 39.9373 119.811 39.7055C119.811 39.7055 119.811 39.7055 119.793 39.7055C119.722 39.6699 119.65 39.6342 119.561 39.5985C119.044 39.3667 118.527 39.1528 118.028 38.9388C117.921 38.8853 117.814 38.8496 117.707 38.8139C117.082 38.5643 116.441 38.3325 115.781 38.1007C115.46 37.9758 115.103 37.8689 114.782 37.7619C114.443 37.637 114.087 37.5478 113.748 37.4408C113.249 37.2804 112.767 37.1377 112.25 37.0129C112.054 36.9594 111.876 36.9237 111.679 36.8524C111.305 36.7633 110.93 36.6919 110.574 36.585C110.235 36.5136 109.896 36.4423 109.557 36.371C108.969 36.2462 108.381 36.1391 107.774 36.05C106.241 35.7825 104.689 35.622 103.156 35.515C103.102 35.515 103.067 35.515 103.013 35.515C102.478 35.4794 101.943 35.4615 101.408 35.4437C100.873 35.4259 100.338 35.4081 99.8033 35.4259C99.3575 35.4259 98.8939 35.4437 98.4659 35.4615C98.0201 35.4615 97.5743 35.515 97.1285 35.515C97.0215 35.515 96.9146 35.515 96.8076 35.5507C96.7184 35.7825 96.5758 35.9965 96.3618 36.157C95.7377 36.6563 94.8105 36.5493 94.3112 35.9252C93.8119 35.3011 93.9189 34.3738 94.543 33.8745C95.1671 33.3752 96.0765 33.4644 96.5758 34.0885C98.7869 33.928 100.998 33.928 103.209 34.0528C106.169 34.2668 109.112 34.7304 112 35.4259C114.247 35.9787 116.441 36.7098 118.598 37.5835C119.187 37.8153 119.793 38.065 120.364 38.3324C123.003 39.5272 125.553 40.9716 128.013 42.6478C130.367 44.2883 132.614 46.125 134.7 48.2113C136.056 49.5665 137.34 50.9931 138.552 52.5267C138.713 52.7228 138.855 52.9189 139.016 53.1151C139.444 53.6857 139.854 54.2385 140.246 54.8091C141.922 57.1808 143.349 59.6594 144.561 62.2094C145.774 64.8128 146.737 67.4698 147.468 70.1802C148.056 72.3914 148.502 74.6203 148.77 76.8493C148.841 77.3843 148.895 77.9371 148.948 78.472C149.18 81.0042 149.215 83.5541 149.055 86.0863C149.055 86.1933 149.055 86.2645 149.091 86.3715C149.091 86.4072 149.126 86.4607 149.144 86.4964C149.162 86.532 149.18 86.5677 149.216 86.6034C149.34 86.7638 149.536 86.8708 149.768 86.8708C150.161 86.8887 150.517 86.5855 150.553 86.1754C150.553 86.1397 150.553 86.1219 150.553 86.1041C150.624 85.159 150.642 84.2139 150.642 83.2867C150.642 83.0548 150.642 82.823 150.642 82.5734C150.642 81.8423 150.642 81.129 150.571 80.4157C150.571 80.3979 150.571 80.3622 150.571 80.3444C150.535 79.649 150.482 78.9713 150.41 78.2937C150.41 78.2937 150.41 78.2402 150.41 78.2224C150.375 77.6874 150.321 77.1703 150.25 76.6532C150.232 76.5462 150.214 76.4392 150.196 76.3322C150.107 75.6546 150 74.977 149.893 74.2994C149.893 74.1924 149.857 74.0854 149.84 73.9784C149.715 73.283 149.572 72.5697 149.429 71.8743C149.251 71.161 149.091 70.4477 148.877 69.7344C148.788 69.3599 148.698 69.0033 148.591 68.6645C148.502 68.3257 148.377 67.9869 148.27 67.6303C147.611 65.5439 146.808 63.4932 145.863 61.5139C145.542 60.8184 145.203 60.123 144.847 59.4454C144.597 58.9461 144.33 58.4646 144.062 57.9654C143.973 57.8405 143.902 57.6979 143.83 57.5731C143.545 57.0559 143.206 56.521 142.867 56.0038C142.778 55.8434 142.689 55.7186 142.618 55.5759C142.422 55.2906 142.225 54.9874 142.029 54.7199C141.851 54.4346 141.655 54.1672 141.459 53.8818C141.049 53.3112 140.638 52.7585 140.193 52.1879C140.05 51.9739 139.889 51.7777 139.729 51.5816C139.568 51.3854 139.426 51.1892 139.247 50.9931C139.087 50.7969 138.927 50.583 138.748 50.4047C138.427 50.0124 138.106 49.6379 137.785 49.2812C137.447 48.9068 137.108 48.5323 136.751 48.1757C136.394 47.8012 136.056 47.4445 135.699 47.0879L135.663 47.0523C135.325 46.7135 134.986 46.3747 134.629 46.0537C134.255 45.697 133.88 45.3761 133.523 45.0372C133.185 44.7519 132.881 44.5023 132.56 44.2348C132.24 43.9674 131.919 43.6999 131.58 43.4502C130.67 42.7013 129.725 42.0237 128.78 41.3639C126.266 39.6342 123.609 38.1542 120.881 36.9238C120.292 36.6563 119.722 36.4066 119.133 36.1748C117.403 35.4794 115.638 34.8731 113.855 34.3738C113.338 34.2133 112.803 34.0885 112.286 33.9458C111.751 33.821 111.18 33.6962 110.627 33.5714C109.611 33.3574 108.577 33.1612 107.542 33.0186C106.865 32.9116 106.187 32.8402 105.51 32.7689C105.171 32.7332 104.832 32.6976 104.493 32.6619C104.422 32.7332 104.35 32.8046 104.279 32.8581C103.655 33.3574 102.746 33.2504 102.229 32.6263C101.729 32.0022 101.836 31.0749 102.46 30.5756C103.084 30.0763 104.012 30.1833 104.511 30.8074C104.6 30.9323 104.689 31.0571 104.725 31.1819C107.382 31.4137 109.985 31.8595 112.589 32.4836C114.996 33.072 117.368 33.8388 119.686 34.7839C120.274 35.0157 120.863 35.2654 121.451 35.5329C124.251 36.7989 126.961 38.3146 129.547 40.08C132.061 41.8097 134.451 43.7712 136.662 45.9823C138.124 47.4445 139.533 48.9959 140.835 50.6543C140.995 50.8683 141.173 51.0644 141.316 51.2784C141.744 51.8312 142.154 52.4018 142.546 52.9725C144.24 55.3619 145.72 57.8584 146.951 60.4262C146.969 60.551 147.022 60.658 147.111 60.765C147.111 60.765 147.129 60.7828 147.147 60.8006C147.415 61.1038 147.86 61.1573 148.181 60.9076C148.413 60.7293 148.52 60.4083 148.449 60.1409C148.449 60.1409 148.449 60.123 148.449 60.1052C148.431 60.016 148.377 59.9269 148.324 59.8377C148.11 59.3563 147.896 58.9105 147.646 58.4469C147.307 57.7871 146.969 57.1451 146.612 56.521C146.452 56.2178 146.273 55.9325 146.095 55.6472C145.792 55.1123 145.435 54.5773 145.096 54.0424C144.668 53.3826 144.223 52.7228 143.777 52.0809C143.385 51.5102 142.974 50.9396 142.546 50.3868C142.386 50.1728 142.208 49.9589 142.047 49.7449C141.708 49.3169 141.352 48.8889 141.013 48.4788C140.228 47.5515 139.426 46.66 138.606 45.7862C138.035 46.0002 137.339 45.8397 136.947 45.3226C136.448 44.6984 136.555 43.7891 137.179 43.2898C137.803 42.7905 138.713 42.8974 139.23 43.5215C139.479 43.8425 139.586 44.2348 139.533 44.6271C140.835 45.9467 142.047 47.3376 143.224 48.8354C143.402 49.0494 143.581 49.2812 143.741 49.4952C144.169 50.048 144.579 50.6008 144.989 51.1893C146.862 53.8284 148.502 56.6101 149.857 59.4811C151.23 62.3877 152.336 65.3656 153.156 68.4149C153.852 70.947 154.369 73.5148 154.69 76.1004C154.761 76.6354 154.815 77.1881 154.868 77.7409C155.171 80.8615 155.207 83.9999 154.957 87.1383C154.761 90.0093 154.315 92.8445 153.656 95.6441C153.584 95.9294 153.709 96.2326 153.923 96.3931C154.012 96.4644 154.119 96.5179 154.226 96.5357C154.44 96.5892 154.69 96.5358 154.868 96.3931C155.011 96.2861 155.1 96.1256 155.118 95.9651C155.243 95.3588 155.367 94.7704 155.51 94.1641C155.653 93.5222 155.76 92.8802 155.849 92.2382C155.867 92.1491 155.885 92.0599 155.885 91.9708C156.009 91.1862 156.116 90.4016 156.206 89.617C156.295 88.8145 156.366 88.0299 156.437 87.2275C156.491 86.425 156.544 85.6226 156.562 84.8024C156.58 83.9821 156.598 83.1975 156.598 82.3772C156.598 81.6104 156.562 80.8437 156.527 80.0769C156.527 80.0412 156.527 80.0056 156.527 79.9699C156.473 79.1675 156.402 78.3828 156.348 77.5626C156.348 77.4912 156.348 77.4199 156.33 77.3486C156.277 76.8671 156.223 76.4036 156.17 75.9399C156.134 75.6724 156.117 75.4228 156.063 75.1731C155.974 74.6382 155.92 74.0854 155.831 73.5683C155.51 71.7137 155.1 69.8414 154.601 68.0226C154.601 68.0047 154.601 67.9869 154.601 67.9691C154.387 67.2201 154.173 66.5068 153.923 65.7757C153.602 64.7415 153.245 63.7251 152.853 62.7265C152.639 62.1737 152.425 61.6566 152.193 61.1038C151.872 60.3548 151.534 59.6059 151.195 58.8748C151.195 58.8748 151.195 58.8688 151.195 58.857C150.91 58.2328 150.606 57.6087 150.268 57.0024C150.018 56.521 149.768 56.0574 149.501 55.5937C149.198 55.0588 148.895 54.5238 148.574 54.0067C148.253 53.4717 147.932 52.9546 147.575 52.4375C147.165 51.7777 146.719 51.1358 146.291 50.5116C146.255 50.4582 146.22 50.4225 146.184 50.369C145.774 49.7983 145.364 49.2456 144.936 48.6928C144.775 48.461 144.597 48.2292 144.401 48.0152C144.026 47.5516 143.67 47.1057 143.277 46.6421C142.225 45.376 141.12 44.1813 139.961 43.0579C139.889 42.9688 139.8 42.8974 139.729 42.8083C139.408 42.5051 139.105 42.202 138.784 41.8988C138.516 41.6492 138.249 41.3996 137.981 41.1678C137.678 40.8825 137.357 40.5971 137.036 40.3297C135.414 38.9031 133.737 37.6192 131.99 36.4245C131.223 35.9073 130.439 35.3902 129.618 34.9088C129.315 34.7126 129.012 34.5343 128.691 34.356C128.441 34.1955 128.156 34.035 127.889 33.8923C127.443 33.6427 126.979 33.3752 126.48 33.1434C126.141 32.9651 125.802 32.7867 125.428 32.6084C124.679 32.234 123.93 31.8773 123.163 31.5385C122.575 31.271 121.986 31.0214 121.398 30.7896C121.273 30.7361 121.148 30.6826 121.023 30.6291C120.916 30.5934 120.827 30.54 120.72 30.5221C120.221 30.3438 119.722 30.1298 119.187 29.9515C118.883 29.8267 118.545 29.7197 118.224 29.6127C117.707 29.4522 117.189 29.2739 116.69 29.0955C115.656 28.7924 114.604 28.5071 113.552 28.2396C113.266 28.1683 113.017 28.1148 112.749 28.0435C112.018 27.883 111.287 27.7403 110.574 27.5977C109.896 27.4728 109.219 27.348 108.541 27.2589C107.703 27.134 106.847 27.0271 106.009 26.9379C105.153 26.8487 104.297 26.7774 103.459 26.7239C101.783 26.6169 100.071 26.5812 98.4125 26.6347C97.5922 26.6526 96.7898 26.6882 95.9695 26.7596C95.5594 26.7952 95.1493 26.8309 94.7391 26.8666C94.65 27.0449 94.5251 27.1875 94.3646 27.3123C93.7405 27.8116 92.8311 27.7046 92.314 27.0805C91.8147 26.4564 91.9216 25.5292 92.5457 25.0299C93.1698 24.5306 94.0972 24.6376 94.5964 25.2617C94.6321 25.2974 94.6677 25.333 94.6856 25.3865C97.6278 25.1012 100.57 25.0477 103.512 25.226C107.025 25.44 110.467 25.9571 113.855 26.7774C116.601 27.455 119.311 28.3109 121.951 29.3809C122.539 29.6127 123.127 29.8623 123.698 30.1298C126.837 31.5207 129.868 33.1969 132.739 35.1762C135.485 37.0486 138.106 39.1706 140.531 41.5601C140.531 41.5601 140.567 41.5957 140.585 41.6136C140.852 41.8989 141.28 41.9345 141.601 41.6848C141.904 41.4352 141.976 41.0073 141.762 40.6685V40.6506C141.762 40.6506 141.762 40.615 141.744 40.615C141.69 40.5436 141.655 40.508 141.583 40.4723C141.583 40.4723 141.566 40.4723 141.548 40.4723C141.227 40.1513 140.888 39.8482 140.549 39.5272C140.246 39.2419 139.961 38.9566 139.622 38.6891C137.696 36.9416 135.645 35.3724 133.506 33.928C132.971 33.5536 132.436 33.2147 131.901 32.8581C131.473 32.5906 131.045 32.341 130.617 32.0735C130.153 31.806 129.707 31.5385 129.226 31.2889C128.744 31.0036 128.245 30.7361 127.764 30.4864C127.336 30.2546 126.908 30.0406 126.462 29.8088C126.088 29.6305 125.731 29.47 125.374 29.2917C125.267 29.2382 125.16 29.1847 125.071 29.149H125.053C124.429 29.6662 123.52 29.5592 123.003 28.9351C122.503 28.3109 122.61 27.3837 123.234 26.8844C123.876 26.3851 124.786 26.4921 125.285 27.1162C125.446 27.3124 125.535 27.5263 125.57 27.7581C128.602 29.149 131.526 30.7718 134.344 32.6798C137.304 34.6948 140.086 36.9594 142.707 39.5272C144.544 41.2926 146.255 43.2184 147.878 45.2512C148.074 45.5009 148.27 45.7327 148.449 45.9823C148.877 46.5351 149.305 47.1057 149.697 47.6585C151.766 50.5295 153.531 53.5252 155.011 56.6101C155.011 56.7349 155.064 56.8598 155.154 56.9668C155.421 57.2878 155.902 57.3591 156.223 57.0916C156.509 56.8598 156.598 56.4675 156.42 56.1465C156.081 55.4333 155.742 54.7556 155.368 54.078C155.047 53.4539 154.708 52.8476 154.351 52.2235C154.208 51.9382 154.048 51.6707 153.87 51.4032C153.709 51.1358 153.567 50.8683 153.388 50.6186C153.032 50.0124 152.657 49.4239 152.265 48.8354C151.801 48.14 151.337 47.4446 150.838 46.7669C150.446 46.2142 150.018 45.6435 149.59 45.0907C149.412 44.8411 149.198 44.5915 149.002 44.3418C148.591 43.8247 148.163 43.3075 147.735 42.7904C147.307 42.2911 146.862 41.7918 146.416 41.2925C146.131 40.9894 145.863 40.6684 145.56 40.3653C145.31 40.0978 145.061 39.8125 144.793 39.5451C144.472 39.2241 144.151 38.9031 143.83 38.5821C143.777 38.5286 143.741 38.493 143.688 38.4395C140.995 35.8182 138.142 33.5 135.111 31.4494C135.021 31.378 134.932 31.3245 134.843 31.271C134.379 30.9679 133.934 30.6826 133.47 30.3794C133.131 30.1655 132.775 29.9337 132.418 29.7375C132.043 29.5057 131.687 29.2917 131.312 29.0599C130.902 28.8102 130.474 28.5962 130.064 28.3644C129.351 27.9721 128.62 27.5977 127.889 27.2411C127.264 26.9201 126.622 26.6169 125.998 26.3316C125.784 26.2246 125.588 26.1355 125.374 26.0463C124.804 25.7788 124.215 25.547 123.609 25.3152C120.738 24.1383 117.778 23.1932 114.782 22.4621C113.748 22.2303 112.714 21.9984 111.662 21.7845C110.859 21.6418 110.057 21.517 109.254 21.3922C108.274 21.2495 107.275 21.1247 106.276 21.0177C105.848 20.9642 105.403 20.9464 104.975 20.9107C104.529 20.875 104.101 20.8394 103.655 20.8216C102.639 20.7502 101.622 20.7324 100.606 20.7146C100.534 20.7146 100.463 20.7146 100.392 20.7146C100.16 20.7146 99.946 20.7146 99.7142 20.7146C99.625 20.8572 99.518 20.9999 99.3754 21.1069C98.7513 21.6062 97.8241 21.4992 97.3248 20.8572C96.8255 20.2331 96.9324 19.3237 97.5565 18.8244C98.1806 18.3251 99.1079 18.4321 99.6072 19.0562C99.6607 19.1097 99.6964 19.181 99.732 19.2345C101.052 19.2345 102.389 19.2524 103.726 19.3237C107.56 19.5377 111.358 20.1083 115.103 20.9999C118.188 21.7488 121.237 22.7296 124.197 23.9422C124.786 24.174 125.374 24.4236 125.963 24.6911C129.422 26.2068 132.757 28.0435 135.931 30.1833C139.016 32.2696 141.976 34.6591 144.704 37.3517C146.648 39.2419 148.467 41.2747 150.178 43.4145C150.375 43.6642 150.571 43.9317 150.767 44.1814C151.195 44.7341 151.623 45.3047 152.015 45.8575C154.208 48.9246 156.134 52.1343 157.704 55.4689C159.344 58.8391 160.646 62.3164 161.627 65.8471C162.482 68.8785 163.089 71.9634 163.481 75.0661C163.552 75.6011 163.606 76.136 163.659 76.6888C163.998 80.0769 164.07 83.5006 163.856 86.9065C163.856 86.9957 163.855 87.0848 163.891 87.1561C163.945 87.3523 164.069 87.5128 164.248 87.6019C164.301 87.6376 164.355 87.6554 164.408 87.6733C164.444 87.6733 164.48 87.6733 164.515 87.6911C164.569 87.6911 164.604 87.6911 164.64 87.6911C164.676 87.6911 164.711 87.6911 164.747 87.6911C164.765 87.6911 164.801 87.6911 164.836 87.6733C164.925 87.6554 164.997 87.6019 165.068 87.5484C165.139 87.4949 165.175 87.4415 165.211 87.388C165.229 87.3523 165.246 87.3345 165.264 87.2988C165.264 87.2632 165.3 87.2453 165.3 87.2096C165.3 87.1561 165.336 87.1205 165.336 87.067C165.336 87.0492 165.336 87.0313 165.336 87.0135C165.389 86.1576 165.407 85.2838 165.425 84.4101C165.425 83.6076 165.46 82.8409 165.425 82.0563C165.425 81.7888 165.425 81.5213 165.407 81.2716C165.407 80.6297 165.353 79.9699 165.318 79.3101C165.264 78.365 165.193 77.4378 165.104 76.5105C165.05 75.9755 164.979 75.4406 164.908 74.9056C164.872 74.6203 164.836 74.3529 164.783 74.0675C164.711 73.4613 164.622 72.8907 164.533 72.3022C164.48 71.9277 164.426 71.5532 164.337 71.2144C164.123 70.1267 163.909 69.039 163.642 67.9512C163.463 67.1845 163.267 66.3998 163.071 65.6509C163.053 65.5796 163.017 65.5082 163 65.4191C162.732 64.474 162.447 63.5467 162.144 62.6017C161.983 62.1024 161.698 61.3178 161.52 60.8185C161.466 60.6758 161.413 60.551 161.359 60.4262C160.985 59.3919 160.574 58.3933 160.146 57.3947C159.986 56.9846 159.808 56.5923 159.629 56.1822C159.415 55.7007 159.201 55.2549 158.97 54.7913C158.559 53.9175 158.114 53.0616 157.65 52.2057C157.347 51.6529 157.026 51.1001 156.723 50.5473C156.402 49.9767 156.063 49.4061 155.706 48.8354C155.582 48.6393 155.439 48.4075 155.332 48.2113C154.975 47.6585 154.619 47.1236 154.262 46.5708C153.905 46.0537 153.531 45.5009 153.156 44.9838C152.746 44.4131 152.336 43.8603 151.908 43.3076C151.712 43.0401 151.498 42.7726 151.302 42.5229C150.892 42.0058 150.464 41.4887 150.054 40.9894C149.465 40.294 148.877 39.6163 148.253 38.9566C147.896 38.5464 147.522 38.1363 147.129 37.744C146.666 37.2626 146.202 36.7811 145.72 36.3353C145.72 36.3174 145.685 36.2996 145.667 36.2818C142.867 33.5357 139.854 31.1105 136.68 28.9707C136.644 28.9529 136.608 28.9172 136.573 28.8994C136.198 28.6498 135.842 28.4001 135.467 28.1683C133.827 27.0984 132.133 26.1355 130.403 25.226C129.957 25.0121 129.529 24.7803 129.101 24.5663C128.227 24.1383 127.354 23.7282 126.462 23.3359C126.123 23.1754 125.784 23.0327 125.428 22.8901C125.196 22.8009 124.946 22.6939 124.715 22.6048C124.322 22.4443 123.948 22.3016 123.538 22.1411C122.789 21.8558 122.058 21.5883 121.309 21.3387C121.13 21.2852 120.934 21.196 120.738 21.1604C119.936 20.8929 119.133 20.6254 118.313 20.3936C117.332 20.1083 116.351 19.8586 115.371 19.609C113.302 19.1097 111.216 18.7352 109.094 18.4321C108.291 18.3251 107.471 18.2181 106.651 18.1468C106.169 18.0933 105.67 18.0576 105.206 18.0041C104.707 17.9684 104.208 17.915 103.726 17.915C103.227 17.8793 102.746 17.8615 102.246 17.8436C101.765 17.8258 101.266 17.8258 100.766 17.808C100.267 17.808 99.7855 17.808 99.2862 17.808C98.5016 17.808 97.6992 17.8437 96.8967 17.8793C96.2548 17.915 95.6307 17.9506 94.971 18.0041C94.7748 18.0041 94.5786 18.0219 94.3825 18.0576C94.1507 18.0576 93.9367 18.0933 93.7227 18.1111C93.6335 18.3251 93.4909 18.5034 93.2948 18.6461C92.6706 19.1454 91.7433 19.0384 91.244 18.4143C90.7447 17.7901 90.8517 16.8629 91.4759 16.3636C92.1 15.8643 93.0094 15.9713 93.5087 16.5954H93.5266C96.9503 16.2923 100.374 16.2209 103.78 16.4171C107.774 16.6311 111.769 17.2195 115.674 18.1468C118.937 18.9136 122.147 19.9656 125.267 21.2317C125.856 21.4635 126.426 21.7131 126.997 21.9628C130.617 23.5498 134.112 25.44 137.429 27.6869C140.674 29.8802 143.777 32.3588 146.648 35.1406C148.681 37.1377 150.624 39.2775 152.461 41.5779C152.675 41.8453 152.871 42.1128 153.085 42.3803C153.424 42.8439 153.763 43.2897 154.101 43.7533C154.101 43.7533 154.155 43.8782 154.191 43.9138C154.226 43.9673 154.262 43.9852 154.298 44.0387C154.565 44.2526 154.975 44.2526 155.243 44.0387C155.51 43.8247 155.599 43.4502 155.457 43.1471C155.439 43.0757 155.403 43.0222 155.35 42.9687C155.314 42.9331 155.278 42.8974 155.243 42.8618C155.064 42.5764 154.85 42.3268 154.654 42.0594C154.512 41.8632 154.351 41.667 154.208 41.4709C153.994 41.2034 153.798 40.9181 153.567 40.6506C153.192 40.187 152.835 39.7412 152.443 39.2954C152.176 38.9387 151.872 38.6 151.569 38.2612C151.266 37.9045 150.981 37.5835 150.66 37.2447C150.428 36.9951 150.196 36.7454 149.964 36.4958C149.733 36.2461 149.519 35.9965 149.269 35.7647C148.698 35.1763 148.128 34.6056 147.557 34.035C146.79 33.2861 145.988 32.5371 145.185 31.8238C144.633 31.3424 144.08 30.8788 143.527 30.4151C142.939 29.9515 142.386 29.4879 141.815 29.0599C141.441 28.7746 141.084 28.4893 140.692 28.2218C140.3 27.9543 139.907 27.669 139.533 27.3837C139.069 27.0449 138.623 26.7239 138.142 26.4208C137.607 26.0641 137.072 25.7075 136.537 25.3687C136.252 25.1725 135.966 25.0121 135.663 24.8337C135.182 24.5484 134.718 24.2631 134.237 23.9778C133.363 23.4785 132.489 22.9792 131.58 22.5156C131.205 22.3194 130.813 22.1233 130.421 21.9271C129.957 21.6953 129.476 21.4635 129.012 21.2495C128.388 21.731 127.478 21.624 126.979 20.9999C126.48 20.3758 126.587 19.4663 127.211 18.967C127.853 18.4677 128.762 18.5747 129.262 19.1989C129.422 19.395 129.529 19.6446 129.565 19.8943C132.792 21.3922 135.931 23.1754 138.926 25.1726C142.315 27.4372 145.542 30.0406 148.556 32.9472C150.713 35.0514 152.764 37.316 154.69 39.7412C154.904 40.0265 155.118 40.294 155.35 40.5793C155.778 41.1321 156.188 41.6848 156.598 42.2376C159.023 45.59 161.109 49.1029 162.875 52.7406C164.676 56.414 166.102 60.2122 167.19 64.0817C168.135 67.4697 168.848 70.8935 169.259 74.335C169.294 74.6203 169.33 74.9057 169.366 75.191C169.401 75.5119 169.633 75.7794 169.954 75.8329C169.972 75.8329 170.025 75.8329 170.061 75.8329C170.097 75.8329 170.15 75.8329 170.204 75.8329C170.614 75.7794 170.899 75.4228 170.846 75.0126C170.846 74.9591 170.846 74.8878 170.828 74.8165C170.792 74.5847 170.774 74.3529 170.739 74.121C170.632 73.1938 170.489 72.2665 170.329 71.3393C170.275 71.0183 170.221 70.6973 170.15 70.3942C169.972 69.3778 169.794 68.3792 169.544 67.3984C169.419 66.8278 169.294 66.275 169.152 65.7044C168.973 65.0089 168.795 64.3135 168.581 63.6181C168.313 62.6373 168.01 61.6566 167.689 60.6936C167.333 59.6059 166.94 58.4825 166.512 57.3947C165.853 55.7185 165.139 54.0424 164.355 52.4197C164.301 52.277 164.23 52.1522 164.176 52.0274C164.123 51.8669 164.016 51.7064 163.945 51.5637C163.802 51.2606 163.642 50.9575 163.481 50.6365C163.321 50.3155 163.16 49.9945 163 49.6914C162.839 49.3883 162.661 49.0851 162.5 48.7641C162.34 48.4431 162.162 48.1044 161.965 47.8012C161.734 47.3554 161.466 46.9274 161.198 46.4816C160.949 46.0715 160.699 45.6614 160.45 45.2691C160.129 44.7519 159.79 44.2348 159.433 43.7177C159.201 43.3432 158.952 42.9866 158.702 42.6299C158.399 42.1841 158.114 41.7562 157.775 41.3282C157.365 40.7576 156.955 40.2048 156.527 39.652C156.313 39.3667 156.081 39.0814 155.867 38.7961C155.207 37.958 154.512 37.1377 153.834 36.3353C153.406 35.836 152.978 35.3546 152.532 34.8731C152.318 34.6235 152.104 34.3916 151.872 34.1776C151.658 33.9458 151.427 33.6962 151.213 33.4822C150.678 32.9116 150.125 32.3766 149.572 31.8238C149.537 31.7703 149.501 31.7347 149.447 31.699C149.162 31.4316 148.895 31.1641 148.609 30.9144C148.253 30.5756 147.878 30.2368 147.521 29.898C147.236 29.6305 146.915 29.3809 146.63 29.1134C145.738 28.3466 144.829 27.5977 143.902 26.8844C143.385 26.4743 142.85 26.0641 142.315 25.6718C141.887 25.3509 141.459 25.0655 141.031 24.7624C140.603 24.4593 140.175 24.1561 139.747 23.8708C139.337 23.5855 138.927 23.318 138.516 23.0506C137.393 22.3373 136.252 21.6597 135.093 20.9999C134.379 20.5898 133.648 20.1975 132.899 19.823C132.436 19.5733 131.972 19.3237 131.473 19.1097C131.009 18.8779 130.528 18.6461 130.046 18.4321C129.886 18.3608 129.725 18.2716 129.565 18.2181C129.351 18.1111 129.101 18.0041 128.869 17.915C128.798 17.8615 128.691 17.808 128.602 17.7901C128.156 17.594 127.71 17.3979 127.247 17.2017C127.104 17.1482 126.979 17.0947 126.854 17.0412C126.409 16.8629 125.963 16.6846 125.517 16.5241C124.732 16.2031 123.948 15.9356 123.145 15.6681C122.61 15.472 122.058 15.2937 121.505 15.1332C120.185 14.7052 118.848 14.3307 117.51 13.9919C117.457 14.0454 117.403 14.0811 117.35 14.1346C116.708 14.6339 115.799 14.5269 115.299 13.9028C114.8 13.2787 114.907 12.3693 115.531 11.8521C116.155 11.3528 117.065 11.4598 117.564 12.084C117.671 12.2266 117.76 12.3871 117.814 12.5476C121.077 13.3678 124.269 14.4021 127.389 15.6681C127.978 15.8999 128.548 16.1496 129.137 16.3992C133.078 18.1111 136.876 20.1974 140.514 22.6226C144.044 24.9764 147.397 27.669 150.535 30.7182C152.818 32.9116 154.975 35.301 157.008 37.851C157.24 38.1363 157.472 38.4394 157.686 38.7247C158.114 39.2775 158.524 39.8303 158.934 40.4009C161.484 43.8782 163.642 47.5337 165.478 51.3141C167.351 55.1301 168.831 59.0531 169.972 63.0475C169.972 63.0475 169.972 63.0831 169.972 63.1009C169.972 63.1188 169.972 63.1366 169.972 63.1366C169.972 63.1366 170.025 63.2614 170.079 63.3149C170.346 63.6359 170.81 63.6894 171.131 63.4398C171.363 63.2614 171.452 62.9583 171.381 62.6908C170.649 60.123 169.776 57.5552 168.759 55.0766C168.563 54.5773 168.349 54.078 168.135 53.5787C167.921 53.0616 167.707 52.5802 167.458 52.0809C167.244 51.5816 167.012 51.1001 166.762 50.6008C166.316 49.6379 165.817 48.675 165.3 47.7299C164.801 46.767 164.266 45.8397 163.713 44.9303C163.428 44.4488 163.142 44.003 162.857 43.5394C162.679 43.2362 162.5 42.9687 162.322 42.6834C162.108 42.3446 161.876 42.0059 161.644 41.667C161.145 40.9181 160.646 40.187 160.111 39.4559C159.861 39.0992 159.611 38.7426 159.344 38.4216C159.184 38.2077 159.023 38.0115 158.863 37.7975C158.631 37.4944 158.399 37.1912 158.167 36.9059C157.311 35.8182 156.42 34.7839 155.51 33.7497C155.207 33.3931 154.904 33.0364 154.565 32.6976C154.101 32.1805 153.638 31.699 153.156 31.1997C152.621 30.6469 152.086 30.112 151.551 29.5948C150.303 28.3823 149.019 27.2411 147.7 26.1176C147.236 25.7075 146.755 25.333 146.273 24.9585C145.524 24.3522 144.775 23.7817 144.009 23.211C143.599 22.9079 143.188 22.6226 142.778 22.3373C142.297 21.9985 141.815 21.6596 141.334 21.3565C137.643 18.8779 133.755 16.7559 129.725 15.0262C129.155 14.7766 128.566 14.5269 127.978 14.2951C127.265 14.0098 126.533 13.7245 125.802 13.457C125.249 13.243 124.679 13.0469 124.126 12.8507C123.787 12.7259 123.466 12.6368 123.127 12.5298C122.717 12.3871 122.307 12.2622 121.915 12.1553C120.346 11.6738 118.741 11.2459 117.118 10.8536C116.048 10.5861 114.96 10.3542 113.855 10.1402C113.819 10.1402 113.784 10.1224 113.748 10.1224C112.714 9.94413 111.697 9.76581 110.681 9.62315C110.52 9.60532 110.378 9.58747 110.217 9.55181C109.29 9.44482 108.381 9.33784 107.453 9.23085C107.346 9.23085 107.221 9.21298 107.132 9.19515C106.49 9.14166 105.866 9.08817 105.242 9.03467C105.171 9.12383 105.099 9.19517 105.01 9.26649C104.386 9.76579 103.477 9.65882 102.977 9.01688C102.478 8.39276 102.585 7.46546 103.209 6.96617C103.833 6.46687 104.761 6.57389 105.26 7.21584C105.349 7.32283 105.42 7.44762 105.474 7.57244C109.504 7.85775 113.516 8.46409 117.457 9.40918C121.237 10.2829 124.946 11.4598 128.548 12.9399C129.137 13.1717 129.725 13.4213 130.296 13.671C134.272 15.4007 138.106 17.4691 141.78 19.8943C141.78 19.8943 141.904 19.9835 141.976 20.0191C141.976 20.0191 141.994 20.0191 141.994 20.037C142.029 20.0726 142.065 20.0905 142.101 20.1083C142.154 20.144 142.208 20.1618 142.279 20.1796C142.279 20.1796 142.297 20.1796 142.315 20.1796C142.493 20.1796 142.671 20.1261 142.832 20.0191C143.17 19.7516 143.224 19.2702 142.957 18.9492C142.939 18.9135 142.903 18.8957 142.885 18.8779C142.885 18.8779 142.778 18.8066 142.743 18.7709C142.725 18.7531 142.689 18.7352 142.671 18.7174C142.582 18.6639 142.493 18.6104 142.422 18.5569C142.136 18.3786 141.833 18.1824 141.548 18.0041C141.459 17.9328 141.369 17.8793 141.28 17.8258C140.87 17.5583 140.424 17.2909 139.996 17.0234C139.248 16.5776 138.516 16.1318 137.767 15.7216C137.019 15.2937 136.252 14.9014 135.485 14.5091C134.968 14.2416 134.469 13.992 133.951 13.7423C133.434 13.4927 132.935 13.243 132.418 13.0112C131.901 12.7794 131.384 12.5475 130.867 12.3157C130.332 12.0661 129.797 11.8521 129.279 11.656C129.226 11.6381 129.172 11.6203 129.119 11.5846C128.566 11.3528 127.996 11.121 127.425 10.9248C125.321 10.1224 123.163 9.40913 120.97 8.80285C120.47 8.67803 119.953 8.53537 119.454 8.41054C118.901 8.25006 118.349 8.12527 117.778 8.00045C116.637 7.73297 115.478 7.48331 114.319 7.26933C113.534 7.10885 112.749 6.984 111.965 6.85918C111.555 6.78785 111.109 6.71655 110.663 6.66305C109.985 6.55606 109.29 6.48471 108.577 6.41338C107.079 6.23506 105.581 6.11026 104.065 6.03893C103.423 6.00326 102.746 5.96762 102.068 5.94979C101.587 5.94979 101.087 5.94977 100.588 5.93194C99.6963 5.93194 98.7869 5.93196 97.8953 5.94979C97.6457 5.94979 97.396 5.9676 97.1464 5.98543C95.3454 6.05676 93.5266 6.16374 91.7255 6.35989C91.6364 6.53821 91.5115 6.68088 91.351 6.82353C90.7269 7.32283 89.8175 7.21581 89.3004 6.57386C88.8011 5.94975 88.908 5.02252 89.5321 4.54106C90.1741 4.04176 91.0836 4.14876 91.5828 4.77288C91.6185 4.80854 91.6541 4.84417 91.6541 4.89766C95.809 4.45186 99.9639 4.34489 104.083 4.5767C108.773 4.82635 113.463 5.48612 118.045 6.57386C121.986 7.50112 125.874 8.73153 129.654 10.2651C130.242 10.4969 130.813 10.7465 131.401 10.9962C135.663 12.8329 139.782 15.0619 143.688 17.6831C147.415 20.1618 150.945 22.9792 154.262 26.1354C154.262 26.1533 154.298 26.1889 154.315 26.2068C154.387 26.2959 154.458 26.3495 154.547 26.403C154.815 26.5456 155.136 26.5278 155.385 26.3316C155.689 26.082 155.778 25.6362 155.546 25.3152C155.546 25.3152 155.421 25.1726 155.35 25.1191C151.962 21.8737 148.324 18.9849 144.508 16.4527C144.401 16.3814 144.294 16.2923 144.187 16.2388C143.67 15.9 143.135 15.5612 142.618 15.2402C142.154 14.9549 141.69 14.6517 141.227 14.3842C138.909 13.0112 136.555 11.7451 134.13 10.6217C133.791 10.4434 133.434 10.2829 133.06 10.1224C132.703 9.96196 132.347 9.7836 131.99 9.64095C131.829 9.58745 131.651 9.51615 131.508 9.44482C131.081 9.26651 130.67 9.106 130.242 8.92768C129.904 8.78503 129.565 8.66024 129.226 8.51759C128.317 8.16095 127.371 7.80428 126.444 7.48331C125.784 7.25149 125.125 7.03752 124.465 6.82353C123.805 6.60955 123.127 6.39558 122.45 6.21726C121.808 6.03894 121.166 5.84279 120.524 5.66447C119.811 5.50399 119.115 5.32563 118.402 5.12948C117.225 4.86201 116.048 4.61239 114.871 4.38058C113.694 4.16659 112.517 3.97041 111.323 3.79209C109.504 3.54245 107.667 3.34632 105.831 3.20367C105.759 3.27499 105.706 3.34629 105.634 3.39979C105.01 3.89908 104.083 3.79214 103.584 3.16802C103.084 2.54391 103.191 1.6166 103.833 1.11731C104.457 0.618018 105.385 0.725018 105.884 1.34913C105.973 1.45613 106.045 1.59877 106.098 1.72359C110.342 2.04456 114.586 2.68656 118.723 3.66731C122.842 4.63023 126.89 5.91412 130.813 7.50116C131.401 7.73297 131.99 7.98262 132.56 8.23227C136.965 10.1403 141.262 12.4584 145.31 15.1688C149.287 17.808 153.049 20.8037 156.58 24.2096C159.201 26.7239 161.698 29.47 164.016 32.3944C164.266 32.7154 164.533 33.0364 164.783 33.3752C165.122 33.821 165.46 34.2668 165.799 34.7126C165.799 34.7126 165.87 34.8553 165.906 34.9266C165.924 34.9444 165.96 34.9801 165.978 34.9979L165.995 35.0157C166.102 35.1049 166.227 35.1762 166.334 35.1941C166.388 35.1941 166.423 35.1941 166.459 35.1941C166.495 35.1941 166.548 35.1941 166.584 35.1941C166.619 35.1941 166.673 35.194 166.709 35.1762C166.798 35.1584 166.869 35.1049 166.94 35.0514C167.226 34.8374 167.315 34.4451 167.154 34.142C167.137 34.0885 167.101 34.035 167.065 33.9815C167.047 33.9637 167.03 33.928 167.012 33.928C166.655 33.4109 166.298 32.9473 165.942 32.4658C165.692 32.127 165.425 31.7882 165.157 31.4672C162.786 28.4715 160.236 25.6897 157.543 23.1041C153.959 19.6447 150.107 16.5776 146.059 13.9206C141.922 11.1567 137.571 8.78502 133.078 6.85918C132.507 6.60953 131.919 6.37771 131.33 6.12807C127.639 4.63019 123.841 3.39983 119.989 2.43691C119.936 2.4904 119.882 2.54389 119.811 2.59739C119.187 3.09668 118.259 2.98968 117.76 2.36556C117.261 1.74145 117.368 0.814202 118.01 0.314909C118.634 -0.184384 119.543 -0.0773837 120.06 0.546732C120.167 0.671555 120.239 0.796381 120.292 0.939036C124.233 1.90196 128.138 3.16799 131.919 4.70154C132.507 4.93335 133.078 5.183 133.666 5.43265C138.231 7.41199 142.671 9.80144 146.88 12.601C150.999 15.3293 154.904 18.4678 158.559 21.9806C161.306 24.6198 163.909 27.455 166.334 30.5221C166.602 30.8609 166.869 31.1997 167.119 31.5385C167.547 32.0735 167.957 32.6263 168.367 33.1969C171.327 37.2626 173.913 41.4887 176.052 45.8753C178.246 50.3333 180.011 54.9518 181.366 59.6416C182.579 63.8677 183.471 68.1474 183.988 72.4627C184.059 72.9976 184.112 73.5326 184.166 74.0675C184.719 78.9178 184.808 83.8216 184.487 88.6897C184.166 93.54 182.846 108.929 178.692 118.594C159.344 163.637 115.139 157.931 98.2164 155.167" fill="#64C082"/>
</svg>
