<svg width="185" height="30" viewBox="0 0 185 30" fill="none" xmlns="http://www.w3.org/2000/svg">
<g clip-path="url(#clip0_279_1158)">
<path d="M85.1258 25.676C82.3038 22.8396 80.7197 19.0014 80.7197 15.0002C80.7197 10.9991 82.3038 7.16094 85.1258 4.32446C88.0364 1.54878 91.9039 0.000244141 95.9258 0.000244141C99.9477 0.000244141 103.815 1.54878 106.726 4.32446C109.547 7.16132 111.131 10.9993 111.131 15.0002C111.131 19.0011 109.547 22.8392 106.726 25.676C103.815 28.4517 99.9477 30.0002 95.9258 30.0002C91.9039 30.0002 88.0364 28.4517 85.1258 25.676ZM90.9058 10.0212C89.662 11.1895 88.8645 12.755 88.6508 14.448C88.4372 16.141 88.8206 17.8555 89.7352 19.2961C90.6497 20.7368 92.0381 21.8135 93.661 22.3406C95.284 22.8677 97.0401 22.8123 98.6266 22.1838C100.213 21.5554 101.531 20.3937 102.353 18.8982C103.174 17.4027 103.449 15.6671 103.129 13.991C102.809 12.3148 101.914 10.8026 100.599 9.71509C99.2844 8.62759 97.6312 8.03313 95.9248 8.03345C94.9963 8.0015 94.0712 8.16158 93.2074 8.50366C92.3436 8.84574 91.5607 9.36224 90.9058 10.0212ZM124.164 29.3455L115.025 0.655029H124.041L128.754 18.8933L133.468 0.655029H142.484L133.343 29.3455H124.164ZM66.5818 29.3455L57.5658 16.2302V29.3455H49.3658V0.655029H55.9228L64.9388 13.7703V0.655029H73.1388V29.3455H66.5818ZM34.2038 29.3455L25.1888 16.2302V29.3455H16.9888V0.655029H23.5488L32.5648 13.7703V0.655029H40.7648V29.3455H34.2038ZM0.189789 29.3455V0.655029H8.38979V29.3455H0.189789ZM171.984 29.0325L167.284 23.0994L162.623 29.0325H151.733L161.86 16.1941L149.699 0.77124H160.631L172.749 16.1941L182.875 29.0325H171.984Z" fill="black"/>
<path d="M173.974 0.77124H184.906L178.212 9.24524H167.322L173.974 0.77124Z" fill="#ADB1B2"/>
</g>
<defs>
<clipPath id="clip0_279_1158">
<rect width="184.717" height="30" fill="white" transform="translate(0.188782 0.000244141)"/>
</clipPath>
</defs>
</svg>
