<svg width="149" height="33" viewBox="0 0 149 33" fill="none" xmlns="http://www.w3.org/2000/svg">
<g clip-path="url(#clip0_863_3792)">
<path d="M12.9654 0C12.0211 0 11.2519 0.82306 11.2519 1.83502V11.2648L2.87524 0.519472C2.39918 0.0101196 1.68037 -0.126495 1.04669 0.166973C0.411424 0.450322 0 1.10472 0 1.83502V16.1694C0 17.1814 0.769252 18.0044 1.71505 18.0044C2.66085 18.0044 3.40646 17.1982 3.40646 16.1694V6.73965L11.791 17.517C12.1063 17.8257 12.535 18.0044 12.9669 18.0044C13.1687 18.0044 13.4036 17.9555 13.6385 17.8594C14.258 17.571 14.6583 16.9082 14.6583 16.1694V1.83502C14.6568 0.82306 13.8986 0 12.9654 0Z" fill="#3E8D95"/>
<path d="M44.716 3.05176e-05H33.4641C32.5183 3.05176e-05 31.749 0.823091 31.749 1.83505C31.749 2.84701 32.5183 3.64477 33.4641 3.64477H37.375V16.1695C37.375 17.1814 38.1442 18.0045 39.09 18.0045C40.0358 18.0045 40.7814 17.1983 40.7814 16.1695V3.64477H44.716C45.6492 3.64477 46.4074 2.83183 46.4074 1.83505C46.4074 0.83827 45.6492 3.05176e-05 44.716 3.05176e-05Z" fill="#3E8D95"/>
<path d="M61.0091 14.3597H59.428L57.4482 12.0542C58.2994 11.7624 59.0797 11.253 59.7244 10.5615C60.8184 9.39101 61.4205 7.83766 61.4205 6.18816C61.4205 4.53867 60.8184 2.987 59.7212 1.81312C58.6052 0.644311 57.1534 3.05176e-05 55.6369 3.05176e-05H48.958C48.0248 3.05176e-05 47.2666 0.823091 47.2666 1.83505C47.2666 2.84701 48.0264 3.64477 48.958 3.64477H55.6369C56.9485 3.64477 58.0141 4.7866 58.0141 6.18816C58.0141 7.58973 56.9469 8.70794 55.6369 8.70794H48.958C48.0248 8.70794 47.2666 9.531 47.2666 10.543V16.1695C47.2666 17.1983 48.0091 18.0045 48.958 18.0045C49.907 18.0045 50.6731 17.1814 50.6731 16.1695V12.378H53.0596L57.4198 17.4293C57.7351 17.7953 58.1938 18.0045 58.6793 18.0045H61.0107C61.9565 18.0045 62.7257 17.1814 62.7257 16.1695C62.7257 15.1575 61.9565 14.3597 61.0107 14.3597" fill="#3E8D95"/>
<path d="M65.5693 3.05176e-05C64.6361 3.05176e-05 63.8779 0.823091 63.8779 1.83505V16.1695C63.8779 17.1983 64.6204 18.0045 65.5693 18.0045C66.5183 18.0045 67.2844 17.1814 67.2844 16.1695V1.83505C67.2844 0.823091 66.5151 3.05176e-05 65.5693 3.05176e-05Z" fill="#3E8D95"/>
<path d="M77.5067 3.05176e-05H70.0947C69.1615 3.05176e-05 68.4033 0.823091 68.4033 1.83505C68.4033 2.84701 69.1615 3.64477 70.0947 3.64477H77.5067C78.3863 3.64477 79.1303 4.45096 79.1303 5.40558C79.1303 6.3602 78.402 7.16639 77.5067 7.16639H70.0947C69.1458 7.16639 68.4033 7.97258 68.4033 9.00141C68.4033 10.0302 69.1615 10.8111 70.0947 10.8111H77.5067C78.402 10.8111 79.1303 11.6005 79.1303 12.5972C79.1303 13.594 78.402 14.358 77.5067 14.358H70.0947C69.1615 14.358 68.4033 15.1693 68.4033 16.1678C68.4033 17.1662 69.1458 18.0028 70.0947 18.0028H77.5067C80.292 18.0028 82.5588 15.5775 82.5588 12.5719C82.5588 11.253 82.0954 9.96446 81.2804 8.99804C82.1064 8.00294 82.5588 6.73631 82.5588 5.40389C82.5588 2.42536 80.292 3.05176e-05 77.5067 3.05176e-05Z" fill="#3E8D95"/>
<path d="M85.2656 3.05176e-05C84.3324 3.05176e-05 83.5742 0.823091 83.5742 1.83505V16.1695C83.5742 17.1983 84.3167 18.0045 85.2656 18.0045C86.2146 18.0045 86.9807 17.1814 86.9807 16.1695V1.83505C86.9807 0.823091 86.2114 3.05176e-05 85.2656 3.05176e-05Z" fill="#3E8D95"/>
<path d="M116.956 3.05176e-05H105.704C104.759 3.05176e-05 103.989 0.823091 103.989 1.83505C103.989 2.84701 104.759 3.64477 105.704 3.64477H109.615V16.1695C109.615 17.1814 110.384 18.0045 111.33 18.0045C112.276 18.0045 113.022 17.1983 113.022 16.1695V3.64477H116.956C117.889 3.64477 118.648 2.83183 118.648 1.83505C118.648 0.83827 117.889 3.05176e-05 116.956 3.05176e-05Z" fill="#3E8D95"/>
<path d="M131.622 14.3596H121.376C120.443 14.3596 119.685 15.1709 119.685 16.1693C119.685 17.1678 120.427 18.0044 121.376 18.0044H131.622C132.568 18.0044 133.337 17.1813 133.337 16.1693C133.337 15.1574 132.568 14.3596 131.622 14.3596Z" fill="#3E8D95"/>
<path d="M131.622 6.10352e-05H121.376C120.443 6.10352e-05 119.685 0.823121 119.685 1.83508C119.685 2.84704 120.443 3.6448 121.376 3.6448H131.622C132.568 3.6448 133.337 2.83186 133.337 1.83508C133.337 0.838301 132.568 6.10352e-05 131.622 6.10352e-05Z" fill="#3E8D95"/>
<path d="M131.622 7.19153H121.376C120.443 7.19153 119.685 8.00278 119.685 9.00125C119.685 9.99972 120.443 10.8363 121.376 10.8363H131.622C132.568 10.8363 133.337 10.0132 133.337 9.00125C133.337 7.98929 132.568 7.19153 131.622 7.19153Z" fill="#3E8D95"/>
<path d="M148.614 14.9973L144.348 9.61364C144.973 9.21729 145.546 8.7383 146.059 8.19016C146.814 7.38396 147.416 6.42597 147.849 5.34318C148.303 4.2199 148.534 3.03928 148.534 1.83674C148.534 0.824777 147.764 0.00171712 146.819 0.00171712C145.873 0.00171712 145.104 0.824777 145.104 1.83674C145.104 3.28721 144.586 4.62637 143.644 5.61135C142.712 6.63174 141.461 7.19338 140.119 7.19338H137.761V1.83505C137.761 0.823091 136.992 3.05176e-05 136.046 3.05176e-05C135.1 3.05176e-05 134.354 0.823091 134.354 1.83505V16.1695C134.354 17.1983 135.097 18.0045 136.046 18.0045C136.995 18.0045 137.761 17.1814 137.761 16.1695V10.8364H140.849L146.005 17.34C146.316 17.7549 146.8 18.0028 147.299 18.0028C147.703 18.0028 148.083 17.8544 148.4 17.571C149.107 16.9251 149.205 15.7697 148.614 14.9956" fill="#3E8D95"/>
<path d="M23.3582 14.3159C27.2108 13.874 27.5103 10.1382 27.5103 9.00141V1.83505C27.5103 0.823091 28.2795 3.05176e-05 29.2238 3.05176e-05C30.168 3.05176e-05 30.9388 0.823091 30.9388 1.83505V9.00141C30.9388 10.2023 30.756 11.3458 30.3997 12.3915C30.0482 13.4962 29.5075 14.4829 28.7918 15.3245C27.6112 16.6856 26.0033 17.5676 24.1385 17.8729C24.1117 17.8763 23.8012 17.9201 23.3614 17.9252C23.3519 17.9252 23.3425 17.9252 23.333 17.9252C23.3235 17.9252 23.3141 17.9252 23.3046 17.9252C22.8648 17.9201 22.5543 17.8763 22.5275 17.8729C20.6627 17.5676 19.0548 16.6856 17.8726 15.3245C17.1569 14.4829 16.6162 13.4962 16.2647 12.3915C15.9069 11.3458 15.7256 10.204 15.7256 9.00141V1.83505C15.7224 0.823091 16.4917 3.05176e-05 17.4375 3.05176e-05C18.3833 3.05176e-05 19.1525 0.823091 19.1525 1.83505V9.00141C19.1525 10.1382 19.4521 13.874 23.3046 14.3159C23.3046 14.3159 23.3314 14.3193 23.3582 14.3159Z" fill="#3E8D95"/>
<path d="M98.5332 16.225C93.8878 16.225 90.1235 12.1957 90.1235 7.22697C90.1235 4.90453 90.9463 2.78784 92.2957 1.19232C89.6143 2.69677 87.7842 5.7006 87.7842 9.16488C87.7842 14.1353 91.55 18.1629 96.1939 18.1629C98.6688 18.1629 100.893 17.0194 102.431 15.1995C101.267 15.8539 99.9409 16.225 98.5332 16.225Z" fill="#5CC883"/>
<path d="M96.4739 15.3244C97.1833 14.778 99.0906 13.6176 100.615 9.96443C100.637 9.91045 100.65 9.85142 100.665 9.79239C100.678 9.75191 100.687 9.71144 100.697 9.67096C100.702 9.65409 100.705 9.63723 100.708 9.61867C100.717 9.57651 100.728 9.53097 100.738 9.48712C100.744 9.46013 100.749 9.43483 100.754 9.40785C100.766 9.33701 100.779 9.26617 100.788 9.19365C100.793 9.15149 100.799 9.11101 100.804 9.07053C100.807 9.06041 100.809 9.04523 100.809 9.03342C100.814 8.97945 100.818 8.92548 100.823 8.86982C100.825 8.85127 100.826 8.8344 100.826 8.81754C100.832 8.7096 100.837 8.60165 100.837 8.49371C100.837 8.44649 100.837 8.39758 100.832 8.34698C100.832 8.29807 100.828 8.24915 100.826 8.20024C100.823 8.1682 100.821 8.13447 100.818 8.10411C100.815 8.05351 100.81 8.0046 100.804 7.954V7.95063C100.803 7.93713 100.801 7.92364 100.799 7.91183C100.791 7.8528 100.785 7.79715 100.776 7.7398C100.776 7.73474 100.774 7.72968 100.773 7.72462C100.763 7.66053 100.75 7.59813 100.738 7.53572C100.738 7.53235 100.738 7.53066 100.736 7.52729C100.724 7.46826 100.71 7.40754 100.694 7.34851C100.687 7.31478 100.678 7.28105 100.669 7.24731C100.659 7.2119 100.65 7.17985 100.639 7.14443C100.624 7.09721 100.61 7.0483 100.593 6.99938C100.571 6.93023 100.544 6.86277 100.519 6.79362C100.495 6.73459 100.471 6.67556 100.446 6.61653C100.426 6.57099 100.404 6.52376 100.382 6.47654C100.36 6.42931 100.336 6.38209 100.311 6.33655C100.285 6.28933 100.26 6.2421 100.233 6.19488C100.232 6.1915 100.229 6.18813 100.227 6.18476C100.199 6.13585 100.169 6.08525 100.139 6.03465C100.118 6.0026 100.098 5.97056 100.077 5.93851C100.043 5.88454 100.006 5.83057 99.9671 5.7766C99.9544 5.75805 99.9403 5.7395 99.9276 5.72263C99.8252 5.58433 99.7164 5.45277 99.5998 5.33134C99.5761 5.30604 99.5525 5.28074 99.5273 5.25544C99.5068 5.23352 99.4863 5.21159 99.4626 5.19135C99.3712 5.10196 99.275 5.01426 99.1757 4.93499C99.1552 4.91812 99.1348 4.90294 99.1143 4.88608C99.0938 4.8709 99.0733 4.85572 99.0528 4.84054C99.0433 4.83211 99.0354 4.82536 99.0244 4.81861C99.015 4.81187 99.0086 4.80512 98.9992 4.80006C98.955 4.76801 98.9109 4.73766 98.8668 4.7073C98.8274 4.68031 98.7864 4.65501 98.7454 4.62971C98.7139 4.60947 98.6808 4.58923 98.6492 4.57068C98.5988 4.54032 98.5484 4.51334 98.4979 4.48635C98.4569 4.46443 98.4159 4.44419 98.3734 4.42226C98.3734 4.42226 98.3734 4.42226 98.3718 4.42226C98.3655 4.41889 98.3592 4.41551 98.3513 4.41214C98.3056 4.39022 98.2599 4.36998 98.2158 4.34974C98.2063 4.34468 98.1968 4.3413 98.1874 4.33793C98.1322 4.31432 98.0755 4.29239 98.0171 4.27047C97.9888 4.25866 97.9572 4.24854 97.9289 4.23842C97.8989 4.22662 97.8674 4.21818 97.8374 4.20806C97.7933 4.19288 97.7507 4.17939 97.705 4.16758C97.6877 4.16252 97.6719 4.15915 97.6546 4.15241C97.6215 4.14397 97.5884 4.13723 97.5568 4.12711C97.5269 4.12036 97.4969 4.11361 97.467 4.10687C97.415 4.09506 97.363 4.08494 97.3094 4.07651C97.1738 4.05121 97.0366 4.03603 96.9011 4.02591C96.8964 4.02591 96.8932 4.02591 96.8885 4.02591C96.8412 4.02254 96.7939 4.02085 96.7466 4.01916C96.6993 4.01748 96.652 4.01579 96.6047 4.01748C96.5653 4.01748 96.5243 4.01916 96.4865 4.02085C96.4471 4.02085 96.4077 4.02591 96.3683 4.02591C96.3588 4.02591 96.3494 4.02591 96.3399 4.02928C96.332 4.05121 96.3194 4.07145 96.3005 4.08663C96.2453 4.13385 96.1634 4.12373 96.1192 4.0647C96.0751 4.00567 96.0845 3.91797 96.1397 3.87074C96.1949 3.82352 96.2753 3.83195 96.3194 3.89098C96.5149 3.8758 96.7104 3.8758 96.9058 3.88761C97.1675 3.90785 97.4276 3.9517 97.6829 4.01748C97.8816 4.06976 98.0755 4.13891 98.2662 4.22156C98.3182 4.24348 98.3718 4.26709 98.4223 4.29239C98.6555 4.4054 98.881 4.54201 99.0985 4.70055C99.3066 4.85572 99.5052 5.02944 99.6896 5.22677C99.8094 5.35495 99.9229 5.48988 100.03 5.63493C100.044 5.65348 100.057 5.67203 100.071 5.69058C100.109 5.74456 100.145 5.79684 100.18 5.85081C100.328 6.07513 100.454 6.30957 100.561 6.55075C100.669 6.79699 100.754 7.0483 100.818 7.30466C100.87 7.5138 100.91 7.72462 100.933 7.93545C100.94 7.98605 100.944 8.03833 100.949 8.08893C100.97 8.32842 100.973 8.56961 100.959 8.80911C100.959 8.81923 100.959 8.82597 100.962 8.83609C100.962 8.83946 100.965 8.84452 100.966 8.8479C100.968 8.85127 100.97 8.85464 100.973 8.85802C100.984 8.8732 101.001 8.88332 101.022 8.88332C101.056 8.885 101.088 8.85633 101.091 8.81754C101.091 8.81417 101.091 8.81248 101.091 8.81079C101.097 8.7214 101.099 8.63201 101.099 8.54431C101.099 8.52238 101.099 8.50046 101.099 8.47685C101.099 8.40769 101.099 8.34023 101.093 8.27277C101.093 8.27108 101.093 8.26771 101.093 8.26602C101.089 8.20024 101.085 8.13615 101.078 8.07206C101.078 8.07206 101.078 8.067 101.078 8.06532C101.075 8.01472 101.07 7.96581 101.064 7.91689C101.063 7.90677 101.061 7.89666 101.059 7.88654C101.052 7.82244 101.042 7.75835 101.033 7.69426C101.033 7.68414 101.03 7.67402 101.028 7.6639C101.017 7.59813 101.004 7.53066 100.992 7.46489C100.976 7.39742 100.962 7.32996 100.943 7.26249C100.935 7.22708 100.927 7.19334 100.918 7.1613C100.91 7.12925 100.899 7.09721 100.889 7.06348C100.831 6.86614 100.76 6.67218 100.676 6.48497C100.648 6.41919 100.618 6.35342 100.587 6.28933C100.564 6.2421 100.541 6.19656 100.517 6.14934C100.509 6.13753 100.503 6.12404 100.497 6.11223C100.471 6.06332 100.442 6.01272 100.412 5.96381C100.404 5.94863 100.396 5.93683 100.39 5.92333C100.372 5.89635 100.355 5.86768 100.338 5.84238C100.322 5.81539 100.304 5.79009 100.287 5.76311C100.251 5.70914 100.215 5.65685 100.175 5.60288C100.163 5.58264 100.148 5.56409 100.134 5.54554C100.12 5.52698 100.107 5.50843 100.092 5.48988C100.077 5.47133 100.063 5.45109 100.047 5.43422C100.019 5.39712 99.9907 5.3617 99.9623 5.32797C99.9324 5.29255 99.9024 5.25713 99.8709 5.2234C99.8394 5.18798 99.8094 5.15425 99.7779 5.12051L99.7747 5.11714C99.7448 5.08509 99.7148 5.05305 99.6833 5.02269C99.6502 4.98896 99.6171 4.9586 99.5856 4.92655C99.5556 4.89957 99.5288 4.87596 99.5005 4.85066C99.4721 4.82536 99.4437 4.80006 99.4138 4.77645C99.3334 4.70561 99.2498 4.64152 99.1663 4.57912C98.944 4.41551 98.7091 4.27553 98.468 4.15915C98.4159 4.13385 98.3655 4.11024 98.3135 4.08831C98.1606 4.02254 98.0045 3.96519 97.8469 3.91797C97.8012 3.90279 97.7539 3.89098 97.7082 3.87749C97.6609 3.86568 97.6104 3.85388 97.5616 3.84207C97.4717 3.82183 97.3803 3.80328 97.2889 3.78979C97.229 3.77967 97.1691 3.77292 97.1092 3.76617C97.0792 3.7628 97.0493 3.75943 97.0193 3.75605C97.013 3.7628 97.0067 3.76955 97.0004 3.77461C96.9452 3.82183 96.8648 3.81171 96.8191 3.75268C96.775 3.69365 96.7844 3.60595 96.8396 3.55872C96.8948 3.5115 96.9767 3.52162 97.0209 3.58065C97.0288 3.59245 97.0366 3.60426 97.0398 3.61607C97.2747 3.63799 97.5048 3.68016 97.735 3.73919C97.9478 3.79485 98.1574 3.86737 98.3623 3.95676C98.4144 3.97869 98.4664 4.0023 98.5184 4.0276C98.7659 4.14735 99.0055 4.29071 99.2341 4.45768C99.4563 4.62128 99.6676 4.80681 99.863 5.01594C99.9923 5.15425 100.117 5.30098 100.232 5.45783C100.246 5.47807 100.262 5.49662 100.274 5.51686C100.312 5.56915 100.349 5.62312 100.383 5.67709C100.533 5.9031 100.664 6.13922 100.773 6.38209C100.774 6.3939 100.779 6.40402 100.787 6.41413C100.787 6.41413 100.788 6.41582 100.79 6.41751C100.814 6.44618 100.853 6.45124 100.881 6.42763C100.902 6.41076 100.911 6.3804 100.905 6.3551C100.905 6.3551 100.905 6.35342 100.905 6.35173C100.903 6.3433 100.899 6.33486 100.894 6.32643C100.875 6.28089 100.856 6.23873 100.834 6.19488C100.804 6.13247 100.774 6.07176 100.743 6.01272C100.728 5.98405 100.713 5.95707 100.697 5.93008C100.67 5.87948 100.639 5.82888 100.609 5.77829C100.571 5.71588 100.531 5.65348 100.492 5.59276C100.457 5.53879 100.421 5.48482 100.383 5.43253C100.369 5.41229 100.353 5.39206 100.339 5.37182C100.309 5.33134 100.278 5.29086 100.248 5.25207C100.178 5.16436 100.107 5.08003 100.035 4.99739C99.9844 5.01763 99.9229 5.00245 99.8882 4.95354C99.8441 4.89451 99.8536 4.80849 99.9087 4.76127C99.9639 4.71404 100.044 4.72416 100.09 4.78319C100.112 4.81355 100.122 4.85066 100.117 4.88776C100.232 5.01257 100.339 5.14413 100.443 5.2858C100.459 5.30604 100.475 5.32796 100.489 5.3482C100.527 5.40049 100.563 5.45277 100.599 5.50843C100.765 5.75805 100.91 6.02116 101.03 6.2927C101.151 6.56762 101.249 6.84928 101.321 7.13769C101.383 7.37718 101.428 7.62005 101.457 7.86461C101.463 7.91521 101.468 7.96749 101.472 8.01978C101.499 8.31493 101.502 8.61177 101.48 8.90862C101.463 9.18016 101.424 9.44833 101.365 9.71312C101.359 9.74011 101.37 9.76878 101.389 9.78396C101.397 9.79071 101.406 9.79577 101.416 9.79745C101.435 9.80251 101.457 9.79745 101.472 9.78396C101.485 9.77384 101.493 9.75866 101.495 9.74348C101.506 9.68614 101.517 9.63048 101.529 9.57313C101.542 9.51242 101.551 9.4517 101.559 9.39098C101.561 9.38255 101.562 9.37412 101.562 9.36568C101.573 9.29147 101.583 9.21726 101.591 9.14305C101.599 9.06715 101.605 8.99294 101.611 8.91705C101.616 8.84115 101.621 8.76525 101.622 8.68767C101.624 8.61009 101.625 8.53588 101.625 8.45829C101.625 8.38577 101.622 8.31325 101.619 8.24072C101.619 8.23735 101.619 8.23398 101.619 8.2306C101.614 8.15471 101.608 8.08049 101.603 8.00291C101.603 7.99616 101.603 7.98942 101.602 7.98267C101.597 7.93713 101.592 7.89328 101.588 7.84943C101.584 7.82413 101.583 7.80052 101.578 7.77691C101.57 7.72631 101.565 7.67402 101.558 7.62511C101.529 7.44971 101.493 7.27261 101.449 7.10058C101.449 7.09889 101.449 7.09721 101.449 7.09552C101.43 7.02468 101.411 6.95722 101.389 6.88807C101.361 6.79025 101.329 6.69411 101.294 6.59966C101.275 6.54738 101.256 6.49847 101.236 6.44618C101.208 6.37534 101.178 6.30451 101.148 6.23536C101.148 6.23536 101.148 6.23479 101.148 6.23367C101.123 6.17464 101.096 6.11561 101.066 6.05826C101.044 6.01272 101.022 5.96887 100.998 5.92502C100.971 5.87442 100.944 5.82383 100.916 5.77491C100.888 5.72432 100.859 5.6754 100.828 5.62649C100.791 5.56409 100.752 5.50337 100.714 5.44434C100.711 5.43928 100.708 5.43591 100.705 5.43085C100.669 5.37688 100.632 5.32459 100.594 5.27231C100.58 5.25038 100.564 5.22846 100.547 5.20822C100.514 5.16436 100.483 5.1222 100.448 5.07835C100.355 4.9586 100.257 4.8456 100.155 4.73934C100.148 4.73091 100.14 4.72416 100.134 4.71573C100.106 4.68706 100.079 4.65839 100.051 4.62971C100.027 4.6061 100.003 4.58249 99.9797 4.56056C99.9529 4.53358 99.9245 4.50659 99.8961 4.48129C99.7527 4.34636 99.6045 4.22493 99.45 4.11193C99.3822 4.06302 99.3129 4.0141 99.2404 3.96857C99.2136 3.95001 99.1868 3.93315 99.1584 3.91628C99.1363 3.9011 99.1111 3.88592 99.0875 3.87243C99.0481 3.84882 99.0071 3.82352 98.9629 3.80159C98.933 3.78473 98.903 3.76786 98.8699 3.75099C98.8037 3.71558 98.7375 3.68184 98.6697 3.6498C98.6177 3.6245 98.5657 3.60089 98.5137 3.57896C98.5026 3.5739 98.4916 3.56884 98.4806 3.56378C98.4711 3.56041 98.4632 3.55535 98.4538 3.55366C98.4096 3.5368 98.3655 3.51656 98.3182 3.49969C98.2914 3.48789 98.2615 3.47777 98.2331 3.46765C98.1874 3.45247 98.1417 3.4356 98.0975 3.41874C98.0061 3.39006 97.9131 3.36308 97.8201 3.33778C97.7949 3.33103 97.7728 3.32597 97.7492 3.31923C97.6845 3.30405 97.6199 3.29055 97.5568 3.27706C97.4969 3.26525 97.437 3.25345 97.3771 3.24502C97.3031 3.23321 97.2274 3.22309 97.1533 3.21466C97.0776 3.20622 97.002 3.19948 96.9279 3.19442C96.7797 3.1843 96.6284 3.18092 96.4818 3.18598C96.4093 3.18767 96.3383 3.19104 96.2658 3.19779C96.2296 3.20116 96.1933 3.20454 96.1571 3.20791C96.1492 3.22478 96.1381 3.23827 96.1239 3.25008C96.0688 3.2973 95.9884 3.28718 95.9427 3.22815C95.8985 3.16912 95.908 3.08142 95.9632 3.03419C96.0183 2.98697 96.1003 2.99709 96.1444 3.05612C96.1476 3.05949 96.1507 3.06286 96.1523 3.06792C96.4124 3.04094 96.6725 3.03588 96.9326 3.05274C97.2431 3.07298 97.5474 3.12189 97.8469 3.19948C98.0896 3.26357 98.3292 3.34452 98.5625 3.44572C98.6146 3.46765 98.6666 3.49126 98.717 3.51656C98.9945 3.64811 99.2624 3.80665 99.5162 3.99387C99.759 4.17096 99.9907 4.37166 100.205 4.59767C100.205 4.59767 100.208 4.60104 100.21 4.60273C100.233 4.62971 100.271 4.63309 100.3 4.60947C100.326 4.58586 100.333 4.54538 100.314 4.51334V4.51165C100.314 4.51165 100.314 4.50828 100.312 4.50828C100.308 4.50153 100.304 4.49816 100.298 4.49479C100.298 4.49479 100.297 4.49479 100.295 4.49479C100.267 4.46443 100.237 4.43575 100.207 4.4054C100.18 4.37841 100.155 4.35142 100.125 4.32613C99.9544 4.16084 99.7732 4.01242 99.584 3.8758C99.5367 3.84038 99.4894 3.80834 99.4421 3.77461C99.4043 3.74931 99.3665 3.7257 99.3286 3.7004C99.2877 3.6751 99.2482 3.6498 99.2057 3.62619C99.1631 3.5992 99.119 3.5739 99.0764 3.55029C99.0386 3.52836 99.0008 3.50812 98.9614 3.4862C98.9283 3.46933 98.8967 3.45415 98.8652 3.43729C98.8557 3.43223 98.8463 3.42717 98.8384 3.42379H98.8368C98.7817 3.47271 98.7013 3.46259 98.6555 3.40356C98.6114 3.34452 98.6209 3.25682 98.676 3.2096C98.7328 3.16237 98.8132 3.17249 98.8573 3.23152C98.8715 3.25007 98.8794 3.27031 98.8825 3.29224C99.1505 3.42379 99.409 3.57728 99.6581 3.75774C99.9198 3.94833 100.166 4.16253 100.397 4.4054C100.56 4.57237 100.711 4.75452 100.855 4.94679C100.872 4.97041 100.889 4.99233 100.905 5.01594C100.943 5.06823 100.981 5.1222 101.015 5.17448C101.198 5.44603 101.354 5.72938 101.485 6.02116C101.485 6.03296 101.49 6.04477 101.498 6.05489C101.521 6.08525 101.564 6.09199 101.592 6.0667C101.617 6.04477 101.625 6.00766 101.61 5.97731C101.58 5.90984 101.55 5.84575 101.517 5.78166C101.488 5.72263 101.458 5.66529 101.427 5.60625C101.414 5.57927 101.4 5.55397 101.384 5.52867C101.37 5.50337 101.357 5.47807 101.342 5.45446C101.31 5.39712 101.277 5.34146 101.242 5.2858C101.201 5.22002 101.16 5.15425 101.116 5.09015C101.082 5.03787 101.044 4.9839 101.006 4.93161C100.99 4.908 100.971 4.88439 100.954 4.86078C100.918 4.81187 100.88 4.76295 100.842 4.71404C100.804 4.66682 100.765 4.61959 100.725 4.57237C100.7 4.5437 100.676 4.51334 100.65 4.48467C100.628 4.45937 100.605 4.43238 100.582 4.40708C100.553 4.37672 100.525 4.34636 100.497 4.31601C100.492 4.31095 100.489 4.30757 100.484 4.30251C100.246 4.05458 99.9939 3.83533 99.7259 3.64137C99.718 3.63462 99.7101 3.62956 99.7022 3.6245C99.6613 3.59583 99.6218 3.56884 99.5809 3.54017C99.5509 3.51993 99.5194 3.498 99.4879 3.47945C99.4548 3.45753 99.4232 3.43729 99.3901 3.41536C99.3539 3.39175 99.316 3.37151 99.2798 3.34958C99.2167 3.31248 99.1521 3.27706 99.0875 3.24333C99.0323 3.21297 98.9755 3.1843 98.9204 3.15731C98.9015 3.14719 98.8841 3.13876 98.8652 3.13033C98.8148 3.10503 98.7627 3.0831 98.7091 3.06118C98.4554 2.94986 98.1937 2.86047 97.9289 2.79132C97.8374 2.76939 97.746 2.74747 97.653 2.72723C97.5821 2.71374 97.5111 2.70193 97.4402 2.69012C97.3535 2.67663 97.2652 2.66483 97.1769 2.65471C97.1391 2.64965 97.0997 2.64796 97.0619 2.64459C97.0225 2.64121 96.9846 2.63784 96.9452 2.63615C96.8554 2.62941 96.7655 2.62772 96.6757 2.62603C96.6694 2.62603 96.6631 2.62603 96.6568 2.62603C96.6363 2.62603 96.6173 2.62603 96.5969 2.62603C96.589 2.63953 96.5795 2.65302 96.5669 2.66314C96.5117 2.71036 96.4298 2.70024 96.3856 2.63953C96.3415 2.5805 96.3509 2.49448 96.4061 2.44725C96.4613 2.40003 96.5433 2.41015 96.5874 2.46918C96.5921 2.47424 96.5953 2.48099 96.5984 2.48605C96.7151 2.48605 96.8333 2.48773 96.9515 2.49448C97.2904 2.51472 97.6262 2.56869 97.9572 2.65302C98.2299 2.72386 98.4995 2.81662 98.7612 2.93131C98.8132 2.95323 98.8652 2.97685 98.9172 3.00214C99.223 3.14551 99.5178 3.31923 99.7984 3.52162C100.071 3.71895 100.333 3.94495 100.574 4.19963C100.746 4.37841 100.907 4.57068 101.058 4.77307C101.075 4.79669 101.093 4.82199 101.11 4.8456C101.148 4.89788 101.186 4.95185 101.22 5.00414C101.414 5.29423 101.584 5.59782 101.723 5.91322C101.868 6.23198 101.983 6.56087 102.07 6.89482C102.146 7.18154 102.199 7.47332 102.234 7.76679C102.24 7.81739 102.245 7.86798 102.25 7.92027C102.28 8.24072 102.286 8.56455 102.267 8.88669C102.267 8.89512 102.267 8.90356 102.27 8.9103C102.275 8.92885 102.286 8.94403 102.302 8.95247C102.306 8.95584 102.311 8.95753 102.316 8.95921C102.319 8.95921 102.322 8.95921 102.325 8.9609C102.33 8.9609 102.333 8.9609 102.336 8.9609C102.339 8.9609 102.343 8.9609 102.346 8.9609C102.347 8.9609 102.35 8.9609 102.354 8.95921C102.362 8.95753 102.368 8.95247 102.374 8.94741C102.38 8.94235 102.384 8.93729 102.387 8.93223C102.388 8.92885 102.39 8.92717 102.391 8.92379C102.391 8.92042 102.395 8.91873 102.395 8.91536C102.395 8.9103 102.398 8.90693 102.398 8.90187C102.398 8.90018 102.398 8.8985 102.398 8.89681C102.402 8.81585 102.404 8.73321 102.406 8.65057C102.406 8.57467 102.409 8.50214 102.406 8.42793C102.406 8.40264 102.406 8.37734 102.404 8.35372C102.404 8.29301 102.399 8.2306 102.396 8.1682C102.391 8.07881 102.385 7.99111 102.377 7.9034C102.373 7.8528 102.366 7.80221 102.36 7.75161C102.357 7.72462 102.354 7.69932 102.349 7.67234C102.343 7.61499 102.335 7.56102 102.327 7.50536C102.322 7.46995 102.317 7.43453 102.309 7.40248C102.291 7.2996 102.272 7.19672 102.248 7.09383C102.232 7.02131 102.215 6.9471 102.198 6.87626C102.196 6.86952 102.193 6.86277 102.191 6.85434C102.168 6.76495 102.142 6.67724 102.116 6.58785C102.101 6.54063 102.076 6.46642 102.06 6.4192C102.056 6.4057 102.051 6.3939 102.046 6.38209C102.013 6.28427 101.977 6.18982 101.939 6.09537C101.925 6.05658 101.909 6.01947 101.893 5.98068C101.874 5.93514 101.856 5.89298 101.835 5.84912C101.799 5.76648 101.759 5.68552 101.718 5.60457C101.692 5.55228 101.663 5.5 101.636 5.44771C101.608 5.39374 101.578 5.33977 101.547 5.2858C101.536 5.26725 101.523 5.24532 101.513 5.22677C101.482 5.17448 101.45 5.12389 101.419 5.0716C101.387 5.02269 101.354 4.97041 101.321 4.92149C101.285 4.86752 101.249 4.81524 101.211 4.76295C101.193 4.73766 101.175 4.71236 101.157 4.68874C101.121 4.63983 101.083 4.59092 101.047 4.5437C100.995 4.47792 100.943 4.41383 100.888 4.35142C100.856 4.31263 100.823 4.27384 100.788 4.23674C100.747 4.1912 100.706 4.14566 100.664 4.10349C100.664 4.10181 100.661 4.10012 100.659 4.09843C100.412 3.8387 100.145 3.60932 99.8646 3.40693C99.8614 3.40524 99.8583 3.40187 99.8551 3.40018C99.822 3.37657 99.7905 3.35296 99.7574 3.33103C99.6124 3.22984 99.4626 3.13876 99.3097 3.05274C99.2703 3.0325 99.2325 3.01058 99.1947 2.99034C99.1174 2.94986 99.0402 2.91107 98.9614 2.87396C98.9314 2.85878 98.9015 2.84529 98.8699 2.8318C98.8494 2.82337 98.8274 2.81325 98.8069 2.80481C98.7722 2.78963 98.7391 2.77614 98.7028 2.76096C98.6366 2.73398 98.572 2.70868 98.5058 2.68506C98.49 2.68 98.4727 2.67157 98.4554 2.6682C98.3844 2.6429 98.3135 2.6176 98.241 2.59567C98.1543 2.56869 98.0676 2.54508 97.9809 2.52146C97.798 2.47424 97.6136 2.43882 97.426 2.41015C97.3551 2.40003 97.2826 2.38991 97.21 2.38316C97.1675 2.3781 97.1233 2.37473 97.0824 2.36967C97.0382 2.3663 96.9941 2.36124 96.9515 2.36124C96.9074 2.35786 96.8648 2.35618 96.8207 2.35449C96.7781 2.3528 96.734 2.3528 96.6899 2.35112C96.6457 2.35112 96.6032 2.35112 96.559 2.35112C96.4897 2.35112 96.4187 2.35449 96.3478 2.35786C96.291 2.36124 96.2359 2.36461 96.1775 2.36967C96.1602 2.36967 96.1429 2.37136 96.1255 2.37473C96.105 2.37473 96.0861 2.3781 96.0672 2.37979C96.0593 2.40003 96.0467 2.4169 96.0294 2.43039C95.9742 2.47761 95.8922 2.46749 95.8481 2.40846C95.804 2.34943 95.8134 2.26173 95.8686 2.2145C95.9238 2.16728 96.0042 2.1774 96.0483 2.23643H96.0499C96.3525 2.20776 96.6552 2.20101 96.9563 2.21956C97.3094 2.2398 97.6625 2.29546 98.0077 2.38316C98.2961 2.45569 98.5799 2.5552 98.8557 2.67494C98.9078 2.69687 98.9582 2.72048 99.0086 2.7441C99.3286 2.8942 99.6376 3.07298 99.9308 3.28549C100.218 3.49295 100.492 3.72738 100.746 3.99049C100.925 4.17939 101.097 4.38178 101.26 4.59935C101.279 4.62465 101.296 4.64995 101.315 4.67525C101.345 4.7191 101.375 4.76127 101.405 4.80512C101.405 4.80512 101.409 4.81693 101.413 4.8203C101.416 4.82536 101.419 4.82704 101.422 4.8321C101.446 4.85234 101.482 4.85234 101.506 4.8321C101.529 4.81187 101.537 4.77645 101.524 4.74778C101.523 4.74103 101.52 4.73597 101.515 4.73091C101.512 4.72754 101.509 4.72416 101.506 4.72079C101.49 4.6938 101.471 4.67019 101.454 4.64489C101.441 4.62634 101.427 4.60779 101.414 4.58923C101.395 4.56394 101.378 4.53695 101.357 4.51165C101.324 4.4678 101.293 4.42563 101.258 4.38347C101.234 4.34974 101.208 4.31769 101.181 4.28565C101.154 4.25191 101.129 4.22156 101.1 4.18951C101.08 4.1659 101.059 4.14229 101.039 4.11867C101.018 4.09506 101 4.07145 100.977 4.04952C100.927 3.99387 100.877 3.93989 100.826 3.88592C100.758 3.81509 100.687 3.74425 100.617 3.67678C100.568 3.63125 100.519 3.58739 100.47 3.54354C100.418 3.49969 100.369 3.45584 100.319 3.41536C100.285 3.38838 100.254 3.36139 100.219 3.33609C100.185 3.31079 100.15 3.28381 100.117 3.25682C100.076 3.22478 100.036 3.19442 99.9939 3.16575C99.9466 3.13201 99.8993 3.09828 99.852 3.06624C99.8268 3.04768 99.8015 3.0325 99.7747 3.01564C99.7322 2.98865 99.6912 2.96167 99.6486 2.93468C99.5714 2.88746 99.4942 2.84023 99.4138 2.79638C99.3807 2.77783 99.346 2.75927 99.3113 2.74072C99.2703 2.7188 99.2278 2.69687 99.1868 2.67663C99.1316 2.72217 99.0512 2.71205 99.0071 2.65302C98.9629 2.59399 98.9724 2.50797 99.0276 2.46075C99.0843 2.41352 99.1647 2.42364 99.2088 2.48267C99.223 2.50122 99.2325 2.52484 99.2356 2.54845C99.521 2.69012 99.7984 2.85878 100.063 3.04768C100.363 3.26188 100.648 3.50812 100.914 3.78304C101.105 3.98206 101.286 4.19626 101.457 4.42563C101.476 4.45262 101.495 4.47792 101.515 4.5049C101.553 4.55719 101.589 4.60947 101.625 4.66176C101.84 4.97884 102.024 5.3111 102.18 5.65517C102.339 6.0026 102.466 6.36185 102.562 6.72784C102.645 7.0483 102.708 7.37212 102.745 7.69764C102.748 7.72462 102.751 7.75161 102.754 7.77859C102.757 7.80895 102.778 7.83425 102.806 7.83931C102.808 7.83931 102.812 7.83931 102.815 7.83931C102.819 7.83931 102.823 7.83931 102.828 7.83931C102.864 7.83425 102.89 7.80052 102.885 7.76173C102.885 7.75667 102.885 7.74992 102.883 7.74318C102.88 7.72125 102.879 7.69932 102.875 7.6774C102.866 7.58969 102.853 7.50199 102.839 7.41429C102.834 7.38393 102.83 7.35357 102.823 7.3249C102.808 7.22876 102.792 7.13431 102.77 7.04155C102.759 6.98758 102.748 6.93529 102.735 6.88132C102.719 6.81555 102.704 6.74977 102.685 6.68399C102.661 6.59123 102.634 6.49847 102.606 6.40739C102.574 6.30451 102.54 6.19825 102.502 6.09537C102.443 5.93683 102.38 5.77829 102.311 5.62481C102.306 5.61131 102.3 5.59951 102.295 5.5877C102.291 5.57252 102.281 5.55734 102.275 5.54385C102.262 5.51518 102.248 5.48651 102.234 5.45615C102.22 5.42579 102.205 5.39543 102.191 5.36676C102.177 5.33808 102.161 5.30941 102.147 5.27905C102.133 5.24869 102.117 5.21665 102.1 5.18798C102.079 5.14581 102.056 5.10533 102.032 5.06317C102.01 5.02438 101.988 4.98559 101.966 4.94848C101.937 4.89957 101.908 4.85066 101.876 4.80175C101.856 4.76633 101.833 4.7326 101.811 4.69886C101.785 4.6567 101.759 4.61622 101.729 4.57574C101.693 4.52177 101.657 4.46949 101.619 4.4172C101.6 4.39022 101.58 4.36323 101.561 4.33624C101.502 4.25697 101.441 4.17939 101.381 4.10349C101.343 4.05627 101.305 4.01073 101.266 3.96519C101.247 3.94158 101.228 3.91966 101.208 3.89942C101.189 3.87749 101.168 3.85388 101.149 3.83364C101.102 3.77967 101.053 3.72907 101.004 3.67678C101.001 3.67172 100.998 3.66835 100.993 3.66498C100.968 3.63968 100.944 3.61438 100.919 3.59077C100.888 3.55872 100.855 3.52668 100.823 3.49463C100.798 3.46933 100.769 3.44572 100.744 3.42042C100.665 3.3479 100.585 3.27706 100.503 3.2096C100.457 3.1708 100.41 3.13201 100.363 3.09491C100.325 3.06455 100.287 3.03756 100.249 3.00889C100.211 2.98022 100.174 2.95155 100.136 2.92456C100.099 2.89758 100.063 2.87228 100.027 2.84698C99.9277 2.77951 99.8268 2.71542 99.7243 2.65302C99.6613 2.61423 99.5966 2.57712 99.5304 2.5417C99.4894 2.51809 99.4484 2.49448 99.4043 2.47424C99.3633 2.45231 99.3208 2.43039 99.2782 2.41015C99.264 2.4034 99.2498 2.39497 99.2356 2.38991C99.2167 2.37979 99.1947 2.36967 99.1742 2.36124C99.1679 2.35618 99.1584 2.35112 99.1505 2.34943C99.1111 2.33088 99.0717 2.31233 99.0307 2.29377C99.0181 2.28871 99.0071 2.28365 98.996 2.27859C98.9566 2.26173 98.9172 2.24486 98.8778 2.22968C98.8085 2.19932 98.7391 2.17402 98.6682 2.14873C98.6209 2.13017 98.572 2.11331 98.5231 2.09813C98.4065 2.05765 98.2883 2.02223 98.17 1.99019C98.1653 1.99525 98.1606 1.99862 98.1558 2.00368C98.0991 2.0509 98.0187 2.04078 97.9746 1.98175C97.9304 1.92272 97.9399 1.83671 97.9951 1.78779C98.0502 1.74057 98.1306 1.75069 98.1748 1.80972C98.1842 1.82321 98.1921 1.83839 98.1968 1.85357C98.4853 1.93115 98.7675 2.02898 99.0433 2.14873C99.0953 2.17065 99.1458 2.19426 99.1978 2.21788C99.5462 2.37979 99.8819 2.57712 100.204 2.8065C100.516 3.02913 100.812 3.28381 101.089 3.57222C101.291 3.77967 101.482 4.00567 101.662 4.24686C101.682 4.27384 101.703 4.30251 101.722 4.3295C101.759 4.38178 101.796 4.43407 101.832 4.48804C102.057 4.81693 102.248 5.16268 102.41 5.52024C102.576 5.88117 102.707 6.25222 102.808 6.63002C102.808 6.63002 102.808 6.63339 102.808 6.63508C102.808 6.63677 102.808 6.63845 102.808 6.63845C102.808 6.63845 102.812 6.65026 102.817 6.65532C102.841 6.68568 102.882 6.69074 102.91 6.66712C102.931 6.65026 102.938 6.62159 102.932 6.59629C102.868 6.35342 102.79 6.11055 102.7 5.87611C102.683 5.82889 102.664 5.78166 102.645 5.73444C102.626 5.68552 102.607 5.63999 102.585 5.59276C102.566 5.54554 102.546 5.5 102.524 5.45277C102.484 5.3617 102.44 5.27062 102.395 5.18123C102.35 5.09015 102.303 5.00245 102.254 4.91643C102.229 4.8709 102.204 4.82873 102.179 4.78488C102.163 4.75621 102.147 4.73091 102.131 4.70392C102.112 4.67188 102.092 4.63983 102.071 4.60779C102.027 4.53695 101.983 4.4678 101.936 4.39865C101.914 4.36492 101.892 4.33119 101.868 4.30083C101.854 4.28059 101.84 4.26203 101.826 4.2418C101.805 4.21312 101.785 4.18445 101.764 4.15747C101.688 4.05458 101.61 3.95676 101.529 3.85894C101.502 3.82521 101.476 3.79147 101.446 3.75943C101.405 3.71052 101.364 3.66498 101.321 3.61775C101.274 3.56547 101.227 3.51487 101.179 3.46596C101.069 3.35127 100.955 3.24333 100.839 3.13707C100.798 3.09828 100.755 3.06286 100.713 3.02744C100.646 2.9701 100.58 2.91613 100.512 2.86216C100.476 2.83348 100.44 2.8065 100.404 2.77951C100.361 2.74747 100.319 2.71542 100.276 2.68675C99.9497 2.45231 99.6061 2.25161 99.2498 2.08801C99.1994 2.0644 99.1474 2.04078 99.0953 2.01886C99.0323 1.99187 98.9677 1.96489 98.903 1.93959C98.8542 1.91935 98.8037 1.9008 98.7549 1.88224C98.7249 1.87044 98.6965 1.862 98.6666 1.85188C98.6303 1.83839 98.5941 1.82659 98.5594 1.81647C98.4207 1.77093 98.2788 1.73045 98.1354 1.69334C98.0408 1.66805 97.9446 1.64612 97.8469 1.62588C97.8437 1.62588 97.8406 1.62419 97.8374 1.62419C97.746 1.60733 97.6562 1.59046 97.5663 1.57697C97.5521 1.57528 97.5395 1.5736 97.5253 1.57022C97.4433 1.5601 97.363 1.54998 97.281 1.53986C97.2715 1.53986 97.2605 1.53818 97.2526 1.53649C97.1959 1.53143 97.1407 1.52637 97.0855 1.52131C97.0792 1.52974 97.0729 1.53649 97.065 1.54324C97.0099 1.59046 96.9295 1.58034 96.8853 1.51962C96.8412 1.46059 96.8506 1.37289 96.9058 1.32567C96.961 1.27844 97.043 1.28856 97.0871 1.34928C97.095 1.3594 97.1013 1.3712 97.106 1.38301C97.4623 1.41 97.8169 1.46734 98.1653 1.55673C98.4995 1.63937 98.8274 1.75069 99.1458 1.89068C99.1978 1.9126 99.2498 1.93621 99.3003 1.95983C99.6518 2.12343 99.9907 2.31907 100.315 2.54845C100.315 2.54845 100.326 2.55688 100.333 2.56026C100.333 2.56026 100.334 2.56026 100.334 2.56194C100.337 2.56532 100.341 2.567 100.344 2.56869C100.349 2.57206 100.353 2.57375 100.36 2.57544C100.36 2.57544 100.361 2.57544 100.363 2.57544C100.378 2.57544 100.394 2.57038 100.408 2.56026C100.438 2.53496 100.443 2.48942 100.419 2.45906C100.418 2.45569 100.415 2.454 100.413 2.45231C100.413 2.45231 100.404 2.44557 100.401 2.44219C100.399 2.44051 100.396 2.43882 100.394 2.43713C100.386 2.43207 100.378 2.42701 100.372 2.42195C100.347 2.40509 100.32 2.38654 100.295 2.36967C100.287 2.36292 100.279 2.35786 100.271 2.3528C100.235 2.32751 100.196 2.30221 100.158 2.27691C100.092 2.23474 100.027 2.19258 99.9608 2.15379C99.8945 2.11331 99.8268 2.0762 99.759 2.0391C99.7133 2.0138 99.6691 1.99019 99.6234 1.96657C99.5777 1.94296 99.5336 1.91935 99.4879 1.89742C99.4421 1.8755 99.3964 1.85357 99.3507 1.83165C99.3034 1.80803 99.2561 1.78779 99.2104 1.76924C99.2057 1.76755 99.201 1.76587 99.1962 1.76249C99.1474 1.74057 99.0969 1.71864 99.0465 1.70009C98.8605 1.62419 98.6697 1.55673 98.4758 1.49939C98.4317 1.48758 98.386 1.47409 98.3419 1.46228C98.293 1.4471 98.2441 1.43529 98.1937 1.42349C98.0928 1.39819 97.9903 1.37458 97.8879 1.35434C97.8185 1.33916 97.7492 1.32735 97.6798 1.31555C97.6435 1.3088 97.6041 1.30205 97.5647 1.29699C97.5048 1.28687 97.4433 1.28013 97.3803 1.27338C97.2479 1.25651 97.1155 1.24471 96.9815 1.23796C96.9247 1.23459 96.8648 1.23122 96.8049 1.22953C96.7624 1.22953 96.7182 1.22953 96.6741 1.22784C96.5953 1.22784 96.5149 1.22784 96.4361 1.22953C96.414 1.22953 96.3919 1.23122 96.3699 1.2329C96.2106 1.23965 96.0499 1.24977 95.8907 1.26832C95.8828 1.28519 95.8717 1.29868 95.8575 1.31217C95.8024 1.3594 95.722 1.34928 95.6763 1.28856C95.6321 1.22953 95.6416 1.14183 95.6968 1.09629C95.7535 1.04906 95.8339 1.05918 95.878 1.11821C95.8812 1.12159 95.8844 1.12496 95.8844 1.13002C96.2516 1.08785 96.6189 1.07774 96.9831 1.09966C97.3976 1.12327 97.8122 1.18568 98.2173 1.28856C98.5657 1.37626 98.9093 1.49264 99.2435 1.63769C99.2955 1.65961 99.346 1.68322 99.398 1.70684C99.7747 1.88056 100.139 2.09138 100.484 2.33931C100.814 2.57375 101.126 2.84023 101.419 3.13876C101.419 3.14045 101.422 3.14382 101.424 3.14551C101.43 3.15394 101.436 3.159 101.444 3.16406C101.468 3.17755 101.496 3.17586 101.518 3.15731C101.545 3.1337 101.553 3.09153 101.532 3.06118C101.532 3.06118 101.521 3.04768 101.515 3.04262C101.216 2.73566 100.894 2.46243 100.557 2.22294C100.547 2.21619 100.538 2.20776 100.528 2.2027C100.483 2.17065 100.435 2.13861 100.39 2.10825C100.349 2.08126 100.308 2.05259 100.267 2.02729C100.062 1.89742 99.8536 1.77767 99.6392 1.67142C99.6092 1.65455 99.5777 1.63937 99.5446 1.62419C99.5131 1.60901 99.4816 1.59215 99.45 1.57866C99.4358 1.5736 99.4201 1.56685 99.4075 1.5601C99.3696 1.54324 99.3334 1.52806 99.2955 1.51119C99.2656 1.4977 99.2356 1.48589 99.2057 1.4724C99.1253 1.43867 99.0417 1.40494 98.9598 1.37458C98.9015 1.35265 98.8431 1.33241 98.7848 1.31217C98.7265 1.29193 98.6666 1.27169 98.6067 1.25483C98.5499 1.23796 98.4932 1.21941 98.4364 1.20254C98.3734 1.18736 98.3119 1.1705 98.2489 1.15195C98.1448 1.12665 98.0408 1.10303 97.9367 1.08111C97.8327 1.06087 97.7287 1.04232 97.623 1.02545C97.4623 1.00184 97.2999 0.983286 97.1375 0.969793C97.1312 0.976539 97.1265 0.983286 97.1202 0.988346C97.065 1.03557 96.983 1.02545 96.9389 0.96642C96.8948 0.907389 96.9042 0.819686 96.961 0.772461C97.0162 0.725236 97.0981 0.735356 97.1423 0.794387C97.1501 0.804506 97.1565 0.817999 97.1612 0.829805C97.5363 0.860164 97.9115 0.920882 98.2772 1.01364C98.6414 1.10472 98.9992 1.22616 99.346 1.37626C99.398 1.39819 99.45 1.4218 99.5005 1.44541C99.8898 1.62588 100.27 1.84514 100.628 2.1015C100.979 2.35112 101.312 2.63447 101.624 2.95661C101.856 3.19442 102.076 3.45415 102.281 3.73076C102.303 3.76111 102.327 3.79147 102.349 3.82352C102.379 3.86568 102.409 3.90785 102.439 3.95001C102.439 3.95001 102.445 3.96351 102.448 3.97025C102.45 3.97194 102.453 3.97531 102.455 3.977L102.456 3.97869C102.466 3.98712 102.477 3.99387 102.486 3.99555C102.491 3.99555 102.494 3.99555 102.497 3.99555C102.5 3.99555 102.505 3.99555 102.508 3.99555C102.511 3.99555 102.516 3.99555 102.519 3.99387C102.527 3.99218 102.533 3.98712 102.54 3.98206C102.565 3.96182 102.573 3.92471 102.559 3.89604C102.557 3.89098 102.554 3.88592 102.551 3.88086C102.549 3.87918 102.548 3.8758 102.546 3.8758C102.514 3.82689 102.483 3.78304 102.451 3.7375C102.429 3.70546 102.406 3.67341 102.382 3.64305C102.172 3.3597 101.947 3.09659 101.709 2.85204C101.392 2.52484 101.052 2.23474 100.694 1.98344C100.328 1.72202 99.9434 1.4977 99.5462 1.31555C99.4957 1.29193 99.4437 1.27001 99.3917 1.2464C99.0654 1.10472 98.7296 0.988346 98.3891 0.897269C98.3844 0.902329 98.3797 0.907389 98.3734 0.912449C98.3182 0.959673 98.2362 0.949554 98.1921 0.890523C98.148 0.831492 98.1574 0.743789 98.2142 0.696564C98.2693 0.649339 98.3497 0.659459 98.3955 0.71849C98.4049 0.730296 98.4112 0.742102 98.4159 0.755595C98.7643 0.846671 99.1095 0.96642 99.4437 1.11147C99.4957 1.13339 99.5462 1.15701 99.5982 1.18062C100.002 1.36783 100.394 1.59383 100.766 1.85863C101.13 2.11668 101.476 2.41352 101.799 2.74578C102.042 2.9954 102.272 3.26357 102.486 3.55366C102.51 3.58571 102.533 3.61775 102.555 3.6498C102.593 3.7004 102.629 3.75268 102.666 3.80665C102.927 4.1912 103.156 4.59092 103.345 5.00582C103.539 5.42747 103.695 5.8643 103.815 6.30788C103.922 6.7076 104.001 7.11239 104.047 7.52054C104.053 7.57114 104.058 7.62174 104.062 7.67234C104.111 8.13109 104.119 8.59491 104.091 9.05535C104.062 9.5141 103.946 10.9696 103.578 11.8838C101.868 16.1441 97.9604 15.6044 96.4644 15.343" fill="#5CC883"/>
<path d="M26.9995 31.1618C26.8481 31.1618 26.7725 31.0809 26.7725 30.919V25.483C26.7725 25.3211 26.8481 25.2402 26.9995 25.2402C27.1508 25.2402 27.2233 25.3211 27.2233 25.483V30.6811H29.8353C29.9866 30.6811 30.0623 30.7604 30.0623 30.9206C30.0623 31.0809 29.9866 31.1635 29.8353 31.1635H27.001L26.9995 31.1618Z" fill="#3E8D95"/>
<path d="M30.5767 26.5389C30.4884 26.5389 30.4254 26.5052 30.3907 26.436C30.3544 26.3669 30.356 26.2876 30.3923 26.1999L30.7958 25.2672L31.182 25.446L30.7785 26.3736C30.7548 26.4293 30.7296 26.4698 30.6996 26.4984C30.6697 26.5254 30.6287 26.5389 30.5767 26.5389ZM30.7958 25.5961C30.6303 25.5961 30.5467 25.505 30.5467 25.3246V25.1491C30.5467 24.9737 30.6303 24.8877 30.7958 24.8877H30.955C31.1174 24.8877 31.1993 24.9754 31.1993 25.1491V25.3246C31.1993 25.505 31.1174 25.5961 30.955 25.5961H30.7958Z" fill="#3E8D95"/>
<path d="M34.6057 31.1613C34.1596 31.1613 33.8317 31.05 33.6236 30.8274C33.4156 30.6048 33.3115 30.2556 33.3115 29.7766C33.3115 29.2976 33.4156 28.9485 33.6252 28.7242C33.8349 28.5016 34.1612 28.3886 34.6041 28.3886H36.5588C36.5525 27.9838 36.4673 27.7021 36.3034 27.5402C36.1395 27.38 35.8589 27.299 35.4632 27.299H34.9651C34.601 27.299 34.3346 27.3412 34.1659 27.4238C33.9972 27.5065 33.8932 27.6481 33.8522 27.8472C33.8317 27.9231 33.8049 27.9804 33.7734 28.0141C33.7403 28.0496 33.6883 28.0664 33.6173 28.0664C33.5464 28.0664 33.4849 28.0445 33.4439 28.0006C33.403 27.9568 33.3872 27.8961 33.3982 27.8185C33.4361 27.4694 33.5842 27.2147 33.8427 27.0561C34.1013 26.8976 34.4764 26.8167 34.9651 26.8167H35.4632C35.9992 26.8167 36.3901 26.9499 36.6376 27.2147C36.8851 27.4795 37.0096 27.8994 37.0096 28.4712V30.9168C37.0096 31.0787 36.9355 31.1596 36.7858 31.1596C36.636 31.1596 36.5572 31.0787 36.5572 30.9168V30.4614C36.2829 30.9269 35.7911 31.1596 35.0833 31.1596H34.6025L34.6057 31.1613ZM34.6057 30.679H35.0865C35.3639 30.679 35.6082 30.6469 35.8195 30.5795C36.0291 30.5137 36.1994 30.4074 36.3286 30.2607C36.4579 30.114 36.5351 29.9183 36.5603 29.6721V28.8777H34.6057C34.2873 28.8777 34.0682 28.9418 33.9468 29.0699C33.8254 29.1981 33.7639 29.4343 33.7639 29.7783C33.7639 30.1224 33.8254 30.3534 33.9468 30.4833C34.0682 30.6132 34.2889 30.679 34.6057 30.679Z" fill="#3E8D95"/>
<path d="M40.2929 32.9997C39.9556 32.9997 39.697 32.9255 39.5189 32.7771C39.3408 32.6287 39.2367 32.3942 39.2052 32.0772C39.1973 31.9979 39.2131 31.9355 39.2525 31.8883C39.2919 31.8427 39.3487 31.8191 39.4196 31.8191C39.4905 31.8191 39.5457 31.8393 39.5835 31.8781C39.6198 31.9186 39.645 31.9776 39.656 32.0569C39.6765 32.234 39.7349 32.3554 39.8326 32.4195C39.9303 32.4836 40.0832 32.5157 40.2929 32.5157H41.8897C42.1419 32.5157 42.3122 32.4668 42.4036 32.3689C42.4935 32.2711 42.5392 32.0873 42.5392 31.8174V30.5036C42.4068 30.7211 42.2207 30.8847 41.9811 30.996C41.74 31.1057 41.4357 31.1613 41.0669 31.1613H40.7406C40.2046 31.1613 39.8121 31.0281 39.563 30.7633C39.314 30.4985 39.1895 30.0802 39.1895 29.5101V28.4712C39.1895 27.8927 39.314 27.4711 39.5615 27.2096C39.809 26.9482 40.2015 26.8167 40.7406 26.8167H41.4452C41.7258 26.8167 41.9528 26.8571 42.1277 26.9364C42.3027 27.0157 42.4399 27.1405 42.5407 27.3091V27.0561C42.5407 26.8976 42.6164 26.8167 42.7677 26.8167C42.9191 26.8167 42.9916 26.8959 42.9916 27.0561V31.8174C42.9916 32.2222 42.9033 32.519 42.7252 32.7113C42.547 32.9036 42.2696 32.998 41.8913 32.998H40.2945L40.2929 32.9997ZM40.739 30.679H41.0653C41.5114 30.679 41.8692 30.6048 42.1372 30.4546C42.4052 30.3045 42.5392 30.0768 42.5392 29.7699V28.2351C42.5392 27.8893 42.4493 27.6465 42.268 27.5082C42.0883 27.3699 41.8125 27.3007 41.4436 27.3007H40.739C40.3291 27.3007 40.0438 27.3867 39.8815 27.5554C39.7191 27.7257 39.6387 28.031 39.6387 28.4729V29.5118C39.6387 29.9436 39.7191 30.2472 39.8815 30.4192C40.0438 30.5929 40.3291 30.679 40.739 30.679Z" fill="#3E8D95"/>
<path d="M45.5102 31.162C45.3589 31.162 45.2832 31.0811 45.2832 30.9192V27.0585C45.2832 26.9 45.3589 26.819 45.5102 26.819C45.6615 26.819 45.734 26.8983 45.734 27.0585V27.7669C45.8822 27.4599 46.0982 27.2255 46.3803 27.0636C46.6625 26.9017 46.9967 26.8207 47.3829 26.8207C47.5342 26.8207 47.6099 26.9 47.6099 27.0602C47.6099 27.2204 47.5342 27.3031 47.3829 27.3031C46.8737 27.3031 46.4781 27.4262 46.1975 27.6725C45.9169 27.9187 45.7624 28.2712 45.734 28.7266V30.9192C45.734 31.0811 45.6599 31.162 45.5102 31.162Z" fill="#3E8D95"/>
<path d="M49.4145 25.9838C49.2175 25.9838 49.1182 25.8741 49.1182 25.6583V25.4508C49.1182 25.24 49.2175 25.1337 49.4145 25.1337H49.6084C49.8007 25.1337 49.8969 25.24 49.8969 25.4508V25.6583C49.8969 25.8758 49.8007 25.9838 49.6084 25.9838H49.4145ZM49.5138 31.1633C49.3625 31.1633 49.2868 31.0824 49.2868 30.9204V27.0598C49.2868 26.9013 49.3625 26.8203 49.5138 26.8203C49.6651 26.8203 49.7377 26.8996 49.7377 27.0598V30.9204C49.7377 31.0824 49.6636 31.1633 49.5138 31.1633Z" fill="#3E8D95"/>
<path d="M53.5413 31.162C53.0054 31.162 52.6129 31.0287 52.3638 30.7622C52.1148 30.4958 51.9902 30.0758 51.9902 29.5024V28.4634C51.9902 27.89 52.1148 27.4717 52.3622 27.2069C52.6097 26.9421 53.0022 26.8122 53.5413 26.819H54.246C54.6669 26.819 54.9884 26.8949 55.2107 27.0467C55.433 27.1985 55.5654 27.4363 55.6079 27.7618C55.6158 27.8444 55.6 27.9068 55.5591 27.9507C55.5181 27.9928 55.4597 28.0148 55.3857 28.0148C55.3163 28.0148 55.2659 27.9962 55.2312 27.9574C55.1965 27.9186 55.1697 27.863 55.1492 27.7888C55.1208 27.6117 55.0373 27.4852 54.9001 27.4127C54.763 27.3384 54.5455 27.303 54.2475 27.303H53.5429C53.1331 27.2963 52.8478 27.3789 52.6854 27.5493C52.523 27.7196 52.4426 28.0249 52.4426 28.4668V29.5057C52.4426 29.9442 52.523 30.2495 52.6854 30.4232C52.8478 30.597 53.1331 30.683 53.5429 30.683H54.2475C54.5455 30.683 54.763 30.6459 54.9001 30.5733C55.0373 30.4991 55.1208 30.3726 55.1492 30.1922C55.1697 30.118 55.1965 30.0623 55.2312 30.0252C55.2659 29.9864 55.3179 29.9679 55.3857 29.9679C55.4597 29.9679 55.5181 29.9898 55.5591 30.0336C55.6 30.0775 55.6174 30.1416 55.6079 30.2242C55.5654 30.5464 55.433 30.7842 55.2107 30.936C54.9884 31.0894 54.6669 31.1653 54.246 31.1653H53.5413V31.162Z" fill="#3E8D95"/>
<path d="M61.1867 26.819C61.338 26.819 61.4137 26.8983 61.4137 27.0585V30.9192C61.4137 31.0811 61.338 31.162 61.1867 31.162C61.0353 31.162 60.9628 31.0811 60.9628 30.9192V30.4823C60.6901 30.936 60.1983 31.162 59.4858 31.162H59.2446C58.7087 31.162 58.3177 31.0288 58.0703 30.7623C57.8228 30.4958 57.6982 30.0759 57.6982 29.5024V27.0585C57.6982 26.9 57.7723 26.819 57.9221 26.819C58.0718 26.819 58.1491 26.8983 58.1491 27.0585V29.5024C58.1491 29.9409 58.2295 30.2462 58.3918 30.4199C58.5542 30.5936 58.8379 30.6797 59.2446 30.6797H59.4858C59.9303 30.6797 60.2787 30.6038 60.5341 30.4503C60.7894 30.2968 60.9329 30.064 60.9628 29.752V27.0585C60.9628 26.9 61.0369 26.819 61.1867 26.819Z" fill="#3E8D95"/>
<path d="M64.9668 31.1617C64.5601 31.1617 64.2622 31.0605 64.0714 30.8581C63.8807 30.6557 63.7861 30.3386 63.7861 29.9068V25.0309C63.7861 24.869 63.8618 24.788 64.0131 24.788C64.1645 24.788 64.237 24.869 64.237 25.0309V29.9068C64.237 30.2037 64.289 30.4077 64.3914 30.5157C64.4939 30.6236 64.6846 30.6793 64.9621 30.6793C65.1166 30.6793 65.1938 30.7586 65.1938 30.9188C65.197 31.0807 65.1213 31.1617 64.9668 31.1617Z" fill="#3E8D95"/>
<path d="M68.6261 31.1614C68.0996 31.1614 67.7134 31.0316 67.4706 30.7701C67.2279 30.5087 67.1049 30.0989 67.1049 29.5389V27.3008H66.5942C66.4429 27.3008 66.3672 27.2198 66.3672 27.0579C66.3672 26.896 66.4429 26.8184 66.5942 26.8184H67.1049V25.8301C67.1049 25.6682 67.1806 25.5872 67.3319 25.5872C67.4832 25.5872 67.5557 25.6682 67.5557 25.8301V26.8184H68.634C68.7821 26.8184 68.8578 26.8977 68.8578 27.0579C68.8578 27.2182 68.7837 27.3008 68.634 27.3008H67.5557V29.5389C67.5557 29.9673 67.633 30.2658 67.7906 30.4311C67.9467 30.5964 68.2257 30.6791 68.6261 30.6791C68.7096 30.6791 68.768 30.6993 68.8042 30.7381C68.8405 30.7786 68.8578 30.8376 68.8578 30.9169C68.8578 31.0788 68.7806 31.1597 68.6261 31.1597" fill="#3E8D95"/>
<path d="M74.2238 26.819C74.3751 26.819 74.4508 26.8983 74.4508 27.0585V30.9192C74.4508 31.0811 74.3751 31.162 74.2238 31.162C74.0725 31.162 73.9999 31.0811 73.9999 30.9192V30.4823C73.7272 30.936 73.2354 31.162 72.5229 31.162H72.2817C71.7458 31.162 71.3548 31.0288 71.1074 30.7623C70.8599 30.4958 70.7354 30.0759 70.7354 29.5024V27.0585C70.7354 26.9 70.8094 26.819 70.9592 26.819C71.1089 26.819 71.1862 26.8983 71.1862 27.0585V29.5024C71.1862 29.9409 71.2666 30.2462 71.4289 30.4199C71.5913 30.5936 71.875 30.6797 72.2817 30.6797H72.5229C72.9674 30.6797 73.3158 30.6038 73.5712 30.4503C73.8265 30.2968 73.97 30.064 73.9999 29.752V27.0585C73.9999 26.9 74.074 26.819 74.2238 26.819Z" fill="#3E8D95"/>
<path d="M77.0502 31.162C76.8989 31.162 76.8232 31.0811 76.8232 30.9192V27.0585C76.8232 26.9 76.8989 26.819 77.0502 26.819C77.2016 26.819 77.2741 26.8983 77.2741 27.0585V27.7669C77.4222 27.4599 77.6382 27.2255 77.9204 27.0636C78.2025 26.9017 78.5367 26.8207 78.9229 26.8207C79.0743 26.8207 79.1515 26.9 79.1515 27.0602C79.1515 27.2204 79.0758 27.3031 78.9229 27.3031C78.4138 27.3031 78.0181 27.4262 77.7375 27.6725C77.4569 27.9187 77.3024 28.2712 77.2741 28.7266V30.9192C77.2741 31.0811 77.2 31.162 77.0502 31.162Z" fill="#3E8D95"/>
<path d="M80.9873 29.1765V29.5121C80.9873 29.9439 81.0677 30.2458 81.2301 30.4195C81.3925 30.5932 81.6778 30.6792 82.0876 30.6792H82.7922C83.1532 30.6792 83.4165 30.6286 83.5804 30.5291C83.7443 30.4296 83.8421 30.2576 83.8705 30.0113C83.8846 29.9354 83.9099 29.8764 83.9461 29.8376C83.9824 29.7971 84.0376 29.7786 84.1116 29.7786C84.1857 29.7786 84.2425 29.8005 84.2819 29.8443C84.3197 29.8882 84.3355 29.9506 84.3276 30.0299C84.2898 30.4161 84.1463 30.7011 83.8941 30.885C83.6419 31.0688 83.2762 31.1599 82.7938 31.1599H82.0892C81.5532 31.1599 81.1607 31.0267 80.9117 30.7619C80.6626 30.4971 80.5381 30.0788 80.5381 29.5104V28.4715C80.5381 27.893 80.6626 27.4713 80.9117 27.2048C81.1607 26.94 81.5532 26.8102 82.0892 26.8169H82.7938C83.3298 26.8169 83.7207 26.9501 83.9682 27.2149C84.2157 27.4797 84.3402 27.8997 84.3402 28.4715V28.9302C84.3402 29.0921 84.2661 29.1731 84.1164 29.1731H80.9889L80.9873 29.1765ZM82.0876 27.301C81.6778 27.2942 81.3925 27.3785 81.2301 27.5523C81.0677 27.726 80.9873 28.0329 80.9873 28.4731V28.6941H83.8862V28.4731C83.8862 28.0346 83.8058 27.7293 83.645 27.559C83.4843 27.387 83.1989 27.301 82.7907 27.301H82.086H82.0876Z" fill="#3E8D95"/>
<path d="M90.9486 31.1617C90.4126 31.1617 90.0201 31.0284 89.7711 30.7619C89.522 30.4954 89.3975 30.0755 89.3975 29.502V28.4732C89.3975 27.8998 89.522 27.4815 89.7711 27.2167C90.0201 26.9519 90.4126 26.8187 90.9486 26.8187H92.7488V25.0309C92.7488 24.869 92.8244 24.788 92.9757 24.788C93.1271 24.788 93.1996 24.869 93.1996 25.0309V30.9171C93.1996 31.079 93.1255 31.16 92.9757 31.16C92.826 31.16 92.7488 31.079 92.7488 30.9171V30.5258C92.6258 30.7349 92.4445 30.8918 92.2081 30.9997C91.97 31.1077 91.6595 31.16 91.2765 31.16H90.9501L90.9486 31.1617ZM90.9486 30.6793H91.2749C91.721 30.6793 92.0788 30.6034 92.3468 30.4516C92.6148 30.2998 92.7488 30.0721 92.7488 29.7685V27.301H90.9486C90.5387 27.301 90.2534 27.387 90.0911 27.5608C89.9287 27.7345 89.8483 28.0381 89.8483 28.4732V29.502C89.8483 29.9406 89.9287 30.2458 90.0911 30.4195C90.2534 30.5933 90.5387 30.6793 90.9486 30.6793Z" fill="#3E8D95"/>
<path d="M98.9025 26.819C99.0538 26.819 99.1295 26.8983 99.1295 27.0585V30.9192C99.1295 31.0811 99.0538 31.162 98.9025 31.162C98.7512 31.162 98.6787 31.0811 98.6787 30.9192V30.4823C98.406 30.936 97.9141 31.162 97.2016 31.162H96.9604C96.4245 31.162 96.0336 31.0288 95.7861 30.7623C95.5386 30.4958 95.4141 30.0759 95.4141 29.5024V27.0585C95.4141 26.9 95.4882 26.819 95.6379 26.819C95.7877 26.819 95.8649 26.8983 95.8649 27.0585V29.5024C95.8649 29.9409 95.9453 30.2462 96.1077 30.4199C96.27 30.5936 96.5538 30.6797 96.9604 30.6797H97.2016C97.6446 30.6797 97.9945 30.6038 98.2499 30.4503C98.5053 30.2968 98.6487 30.064 98.6787 29.752V27.0585C98.6787 26.9 98.7527 26.819 98.9025 26.819Z" fill="#3E8D95"/>
<path d="M104.722 31.1618C104.571 31.1618 104.495 31.0809 104.495 30.9189V27.3012H104.134C103.983 27.3012 103.907 27.2202 103.907 27.0583C103.907 26.8964 103.983 26.8188 104.134 26.8188H104.495V26.4191C104.495 25.8524 104.618 25.4392 104.862 25.1778C105.107 24.918 105.493 24.7865 106.02 24.7865C106.166 24.7865 106.239 24.8657 106.239 25.026C106.239 25.1862 106.166 25.2688 106.02 25.2688C105.619 25.2688 105.34 25.3532 105.182 25.5218C105.025 25.6905 104.946 25.989 104.946 26.4174V26.8171H106.012C106.163 26.8171 106.239 26.8964 106.239 27.0566C106.239 27.2169 106.163 27.2995 106.012 27.2995H104.946V30.9173C104.946 31.0792 104.872 31.1601 104.722 31.1601" fill="#3E8D95"/>
<path d="M111.418 26.819C111.569 26.819 111.645 26.8983 111.645 27.0585V30.9192C111.645 31.0811 111.569 31.162 111.418 31.162C111.267 31.162 111.194 31.0811 111.194 30.9192V30.4823C110.922 30.936 110.43 31.162 109.717 31.162H109.476C108.94 31.162 108.549 31.0288 108.302 30.7623C108.054 30.4958 107.93 30.0759 107.93 29.5024V27.0585C107.93 26.9 108.004 26.819 108.154 26.819C108.303 26.819 108.381 26.8983 108.381 27.0585V29.5024C108.381 29.9409 108.461 30.2462 108.623 30.4199C108.786 30.5936 109.069 30.6797 109.476 30.6797H109.717C110.162 30.6797 110.51 30.6038 110.766 30.4503C111.021 30.2968 111.164 30.064 111.194 29.752V27.0585C111.194 26.9 111.268 26.819 111.418 26.819Z" fill="#3E8D95"/>
<path d="M115.675 31.1614C115.148 31.1614 114.762 31.0316 114.519 30.7701C114.277 30.5104 114.154 30.0989 114.154 29.5389V27.3008H113.643C113.492 27.3008 113.416 27.2198 113.416 27.0579C113.416 26.896 113.492 26.8184 113.643 26.8184H114.154V25.8301C114.154 25.6682 114.229 25.5872 114.381 25.5872C114.532 25.5872 114.605 25.6682 114.605 25.8301V26.8184H115.683C115.831 26.8184 115.907 26.8977 115.907 27.0579C115.907 27.2182 115.833 27.3008 115.683 27.3008H114.605V29.5389C114.605 29.9673 114.682 30.2658 114.839 30.4311C114.996 30.5964 115.275 30.6791 115.675 30.6791C115.758 30.6791 115.817 30.6993 115.853 30.7381C115.889 30.7786 115.907 30.8376 115.907 30.9169C115.907 31.0788 115.829 31.1597 115.675 31.1597" fill="#3E8D95"/>
<path d="M121.271 26.819C121.422 26.819 121.498 26.8983 121.498 27.0585V30.9192C121.498 31.0811 121.422 31.162 121.271 31.162C121.119 31.162 121.047 31.0811 121.047 30.9192V30.4823C120.774 30.936 120.282 31.162 119.57 31.162H119.329C118.793 31.162 118.402 31.0288 118.154 30.7623C117.907 30.4958 117.782 30.0759 117.782 29.5024V27.0585C117.782 26.9 117.856 26.819 118.006 26.819C118.156 26.819 118.233 26.8983 118.233 27.0585V29.5024C118.233 29.9409 118.313 30.2462 118.476 30.4199C118.638 30.5936 118.922 30.6797 119.329 30.6797H119.57C120.014 30.6797 120.363 30.6038 120.618 30.4503C120.873 30.2968 121.017 30.064 121.047 29.752V27.0585C121.047 26.9 121.121 26.819 121.271 26.819Z" fill="#3E8D95"/>
<path d="M124.097 31.162C123.946 31.162 123.87 31.0811 123.87 30.9192V27.0585C123.87 26.9 123.946 26.819 124.097 26.819C124.248 26.819 124.321 26.8983 124.321 27.0585V27.7669C124.469 27.4599 124.685 27.2255 124.967 27.0636C125.249 26.9017 125.584 26.8207 125.97 26.8207C126.121 26.8207 126.198 26.9 126.198 27.0602C126.198 27.2204 126.123 27.3031 125.97 27.3031C125.461 27.3031 125.065 27.4262 124.784 27.6725C124.504 27.9187 124.349 28.2712 124.321 28.7266V30.9192C124.321 31.0811 124.247 31.162 124.097 31.162Z" fill="#3E8D95"/>
</g>
<defs>
<clipPath id="clip0_863_3792">
<rect width="149" height="33" fill="white"/>
</clipPath>
</defs>
</svg>
