<svg width="22" height="23" viewBox="0 0 22 23" fill="none" xmlns="http://www.w3.org/2000/svg">
<g clip-path="url(#clip0_261_4878)">
<path d="M17.7218 13.9447C17.0288 13.9453 16.3462 14.1145 15.7331 14.4377C15.12 14.761 14.5948 15.2285 14.2028 15.8001L8.23617 13.106C8.65995 12.0826 8.6616 10.9332 8.24075 9.90865L14.1991 7.20082C14.7801 8.04118 15.6431 8.64545 16.6315 8.90403C17.62 9.1626 18.6683 9.05835 19.5864 8.61019C20.5046 8.16203 21.2317 7.39964 21.6359 6.46131C22.04 5.52298 22.0945 4.47087 21.7894 3.49581C21.4843 2.52075 20.8399 1.68734 19.9729 1.14674C19.106 0.606146 18.074 0.394174 17.0642 0.549277C16.0543 0.704381 15.1335 1.21629 14.4688 1.99214C13.8041 2.76799 13.4394 3.75639 13.441 4.77807C13.4449 5.01988 13.4694 5.26093 13.5143 5.49857L7.18017 8.3769C6.57181 7.80693 5.81022 7.42708 4.98894 7.28401C4.16767 7.14095 3.32249 7.24089 2.55724 7.57157C1.79199 7.90225 1.14 8.44926 0.681364 9.1454C0.222729 9.84154 -0.0225721 10.6565 -0.0244037 11.4901C-0.0262354 12.3238 0.215483 13.1398 0.671054 13.8379C1.12663 14.5361 1.77621 15.086 2.54 15.42C3.30379 15.754 4.14852 15.8577 4.97041 15.7182C5.79231 15.5788 6.55556 15.2023 7.16642 14.635L13.5171 17.5023C13.473 17.7397 13.4488 17.9804 13.4447 18.2219C13.4445 19.0681 13.6953 19.8954 14.1653 20.599C14.6353 21.3027 15.3034 21.8512 16.0852 22.1751C16.8669 22.499 17.7272 22.5838 18.5571 22.4187C19.3871 22.2537 20.1495 21.8462 20.7478 21.2479C21.3462 20.6495 21.7536 19.8872 21.9187 19.0572C22.0837 18.2273 21.9989 17.367 21.675 16.5852C21.3511 15.8035 20.8026 15.1353 20.099 14.6653C19.3953 14.1953 18.568 13.9446 17.7218 13.9447ZM17.7218 2.33332C18.2054 2.33313 18.6782 2.47636 19.0803 2.74489C19.4825 3.01341 19.796 3.39516 19.9811 3.84187C20.1663 4.28857 20.2149 4.78016 20.1206 5.25445C20.0264 5.72875 19.7936 6.16444 19.4518 6.50644C19.1099 6.84844 18.6743 7.08137 18.2 7.17577C17.7258 7.27018 17.2342 7.22182 16.7874 7.03681C16.3406 6.8518 15.9588 6.53845 15.6901 6.13639C15.4214 5.73433 15.278 5.26163 15.278 4.77807C15.2785 4.12999 15.5361 3.50857 15.9943 3.05023C16.4524 2.59188 17.0738 2.33404 17.7218 2.33332ZM4.278 13.9447C3.79444 13.9449 3.32168 13.8017 2.91952 13.5332C2.51736 13.2646 2.20387 12.8829 2.01869 12.4362C1.83352 11.9895 1.78497 11.4979 1.8792 11.0236C1.97343 10.5493 2.20619 10.1136 2.54806 9.77161C2.88993 9.42961 3.32554 9.19668 3.7998 9.10227C4.27406 9.00787 4.76567 9.05623 5.21244 9.24124C5.65921 9.42625 6.04108 9.7396 6.30976 10.1417C6.57843 10.5437 6.72184 11.0164 6.72184 11.5C6.72111 12.148 6.46343 12.7693 6.0053 13.2276C5.54718 13.6859 4.92601 13.9438 4.278 13.9447ZM17.7218 20.6667C17.2383 20.6667 16.7656 20.5233 16.3636 20.2546C15.9616 19.986 15.6482 19.6042 15.4632 19.1575C15.2781 18.7107 15.2297 18.2192 15.3241 17.745C15.4184 17.2707 15.6512 16.8351 15.9931 16.4932C16.335 16.1513 16.7707 15.9185 17.2449 15.8241C17.7191 15.7298 18.2107 15.7782 18.6574 15.9632C19.1041 16.1483 19.4859 16.4616 19.7546 16.8637C20.0232 17.2657 20.1666 17.7384 20.1666 18.2219C20.1661 18.8701 19.9084 19.4917 19.45 19.9501C18.9916 20.4084 18.3701 20.6662 17.7218 20.6667Z" fill="#3E8D95"/>
</g>
<defs>
<clipPath id="clip0_261_4878">
<rect width="22" height="22" fill="white" transform="translate(0 0.5)"/>
</clipPath>
</defs>
</svg>
