<svg width="14" height="15" viewBox="0 0 14 15" fill="none" xmlns="http://www.w3.org/2000/svg">
<g clip-path="url(#clip0_131_7040)">
<path d="M13.4168 6.91769C13.2621 6.91769 13.1138 6.85623 13.0044 6.74684C12.895 6.63744 12.8335 6.48907 12.8335 6.33436C12.8323 5.09706 12.3402 3.91079 11.4653 3.03589C10.5904 2.16099 9.40414 1.66893 8.16684 1.66769C8.01213 1.66769 7.86376 1.60623 7.75436 1.49684C7.64496 1.38744 7.58351 1.23907 7.58351 1.08436C7.58351 0.92965 7.64496 0.781277 7.75436 0.671881C7.86376 0.562485 8.01213 0.501026 8.16684 0.501026C9.71341 0.502725 11.1962 1.11785 12.2898 2.21145C13.3833 3.30504 13.9985 4.78778 14.0002 6.33436C14.0002 6.48907 13.9387 6.63744 13.8293 6.74684C13.7199 6.85623 13.5715 6.91769 13.4168 6.91769ZM11.6668 6.33436C11.6668 5.4061 11.2981 4.51586 10.6417 3.85949C9.98534 3.20311 9.0951 2.83436 8.16684 2.83436C8.01213 2.83436 7.86376 2.89582 7.75436 3.00521C7.64496 3.11461 7.58351 3.26298 7.58351 3.41769C7.58351 3.5724 7.64496 3.72078 7.75436 3.83017C7.86376 3.93957 8.01213 4.00103 8.16684 4.00103C8.78568 4.00103 9.37917 4.24686 9.81675 4.68444C10.2543 5.12203 10.5002 5.71552 10.5002 6.33436C10.5002 6.48907 10.5616 6.63744 10.671 6.74684C10.7804 6.85623 10.9288 6.91769 11.0835 6.91769C11.2382 6.91769 11.3866 6.85623 11.496 6.74684C11.6054 6.63744 11.6668 6.48907 11.6668 6.33436ZM12.9403 13.43L13.4711 12.8181C13.809 12.4792 13.9987 12.0201 13.9987 11.5415C13.9987 11.0629 13.809 10.6038 13.4711 10.2649C13.453 10.2468 12.0495 9.16703 12.0495 9.16703C11.7127 8.84639 11.2652 8.66784 10.8002 8.6685C10.3351 8.66915 9.8882 8.84894 9.55226 9.17053L8.44042 10.1074C7.53286 9.73175 6.70844 9.18055 6.0145 8.48541C5.32057 7.79028 4.7708 6.9649 4.39676 6.05669L5.33009 4.94836C5.65192 4.61246 5.83193 4.16545 5.83269 3.70026C5.83345 3.23507 5.65491 2.78748 5.33417 2.45053C5.33417 2.45053 4.25326 1.04878 4.23517 1.03069C3.90235 0.695713 3.4511 0.505123 2.97892 0.500102C2.50674 0.495081 2.05154 0.676033 1.71167 1.00386L1.04084 1.58719C-2.92233 6.18503 5.61184 14.6533 10.3613 14.501C10.8409 14.5038 11.3162 14.4105 11.7592 14.2265C12.2021 14.0426 12.6037 13.7717 12.9403 13.43Z" fill="#3E8D95"/>
</g>
<defs>
<clipPath id="clip0_131_7040">
<rect width="14" height="14" fill="white" transform="translate(0 0.5)"/>
</clipPath>
</defs>
</svg>
