<svg width="42" height="44" viewBox="0 0 42 44" fill="none" xmlns="http://www.w3.org/2000/svg">
<path d="M0 0H38C40.2091 0 42 1.79086 42 4V40C42 42.2091 40.2091 44 38 44H0V0Z" fill="#3E8D95"/>
<path d="M30.6533 28.7824L26.9755 25.1034C29.7274 21.4263 28.9771 16.2148 25.2996 13.4632C21.6222 10.7116 16.4102 11.4618 13.6584 15.1389C10.9065 18.8161 11.6569 24.0276 15.3343 26.7792C18.2883 28.9896 22.3456 28.9896 25.2996 26.7792L28.9789 30.4582C29.4413 30.9205 30.1909 30.9205 30.6532 30.4582C31.1156 29.9959 31.1156 29.2463 30.6532 28.784L30.6533 28.7824ZM20.3476 26.0691C17.0793 26.0691 14.4298 23.4199 14.4298 20.1519C14.4298 16.8838 17.0793 14.2346 20.3476 14.2346C23.6159 14.2346 26.2654 16.8838 26.2654 20.1519C26.2619 23.4184 23.6145 26.0657 20.3476 26.0691Z" fill="white"/>
</svg>
