<svg width="17" height="16" viewBox="0 0 17 16" fill="none" xmlns="http://www.w3.org/2000/svg">
<path d="M16.208 14.2968L13.111 11.1987C15.4283 8.10223 14.7965 3.71356 11.6997 1.39641C8.60291 -0.920736 4.21387 -0.288926 1.89653 2.80759C-0.420813 5.90411 0.21105 10.2928 3.30783 12.6099C5.79542 14.4713 9.21207 14.4713 11.6997 12.6099L14.798 15.708C15.1874 16.0973 15.8187 16.0973 16.208 15.708C16.5973 15.3187 16.5973 14.6875 16.208 14.2982L16.208 14.2968ZM7.52958 12.012C4.77731 12.012 2.54618 9.78103 2.54618 7.02899C2.54618 4.27695 4.77731 2.04601 7.52958 2.04601C10.2818 2.04601 12.513 4.27695 12.513 7.02899C12.51 9.77978 10.2806 12.009 7.52958 12.012Z" fill="#90E975"/>
</svg>
