<svg width="20" height="19" viewBox="0 0 20 19" fill="none" xmlns="http://www.w3.org/2000/svg">
<path d="M19.1533 16.9775L15.4755 13.2985C18.2274 9.6214 17.4771 4.40985 13.7996 1.65824C10.1222 -1.09337 4.91022 -0.343099 2.15838 3.33402C-0.593466 7.01113 0.156872 12.2227 3.8343 14.9743C6.78831 17.1846 10.8456 17.1846 13.7996 14.9743L17.4789 18.6533C17.9413 19.1156 18.6909 19.1156 19.1532 18.6533C19.6156 18.1909 19.6156 17.4414 19.1532 16.9791L19.1533 16.9775ZM8.84762 14.2642C5.5793 14.2642 2.92984 11.615 2.92984 8.34692C2.92984 5.07888 5.5793 2.42963 8.84762 2.42963C12.1159 2.42963 14.7654 5.07888 14.7654 8.34692C14.7619 11.6135 12.1145 14.2607 8.84762 14.2642Z" fill="white"/>
</svg>
