<svg width="14" height="15" viewBox="0 0 14 15" fill="none" xmlns="http://www.w3.org/2000/svg">
<g clip-path="url(#clip0_131_7032)">
<path d="M5.25 14.4987H0.583333C0.428624 14.4987 0.280251 14.4372 0.170854 14.3278C0.0614582 14.2184 0 14.0701 0 13.9154C0 13.7607 0.0614582 13.6123 0.170854 13.5029C0.280251 13.3935 0.428624 13.332 0.583333 13.332H5.25C5.40471 13.332 5.55308 13.3935 5.66248 13.5029C5.77188 13.6123 5.83333 13.7607 5.83333 13.9154C5.83333 14.0701 5.77188 14.2184 5.66248 14.3278C5.55308 14.4372 5.40471 14.4987 5.25 14.4987Z" fill="#3E8D95"/>
<path d="M4.08333 12.1667H0.583333C0.428624 12.1667 0.280251 12.1052 0.170854 11.9958C0.0614582 11.8864 0 11.738 0 11.5833C0 11.4286 0.0614582 11.2803 0.170854 11.1709C0.280251 11.0615 0.428624 11 0.583333 11H4.08333C4.23804 11 4.38642 11.0615 4.49581 11.1709C4.60521 11.2803 4.66667 11.4286 4.66667 11.5833C4.66667 11.738 4.60521 11.8864 4.49581 11.9958C4.38642 12.1052 4.23804 12.1667 4.08333 12.1667Z" fill="#3E8D95"/>
<path d="M2.91667 9.83464H0.583333C0.428624 9.83464 0.280251 9.77318 0.170854 9.66378C0.0614582 9.55438 0 9.40601 0 9.2513C0 9.09659 0.0614582 8.94822 0.170854 8.83882C0.280251 8.72943 0.428624 8.66797 0.583333 8.66797H2.91667C3.07138 8.66797 3.21975 8.72943 3.32915 8.83882C3.43854 8.94822 3.5 9.09659 3.5 9.2513C3.5 9.40601 3.43854 9.55438 3.32915 9.66378C3.21975 9.77318 3.07138 9.83464 2.91667 9.83464Z" fill="#3E8D95"/>
<path d="M7.58349 14.4738C7.42878 14.4806 7.27767 14.4258 7.16341 14.3213C7.04914 14.2167 6.98108 14.0711 6.9742 13.9164C6.96731 13.7617 7.02217 13.6106 7.12669 13.4963C7.23122 13.382 7.37686 13.314 7.53157 13.3071C8.6355 13.2061 9.6878 12.7926 10.5652 12.1151C11.4426 11.4376 12.1088 10.5241 12.4858 9.4816C12.8627 8.43911 12.9348 7.3108 12.6936 6.22881C12.4524 5.14682 11.9079 4.15596 11.1239 3.37228C10.3398 2.5886 9.34874 2.04455 8.26664 1.80385C7.18454 1.56316 6.05626 1.63578 5.01395 2.01321C3.97163 2.39064 3.05844 3.05726 2.38133 3.93498C1.70423 4.8127 1.29124 5.86519 1.19074 6.96917C1.17681 7.12326 1.10225 7.26551 0.983442 7.36462C0.864638 7.46374 0.711327 7.5116 0.557236 7.49767C0.403145 7.48375 0.260897 7.40918 0.161784 7.29038C0.0626709 7.17157 0.0148121 7.01826 0.028736 6.86417C0.191421 5.06943 1.04001 3.40658 2.39784 2.22175C3.75568 1.03692 5.51816 0.42141 7.31839 0.503338C9.11862 0.585266 10.8179 1.35832 12.0625 2.66159C13.3071 3.96485 14.0012 5.69791 14.0002 7.50001C14.0091 9.24904 13.3593 10.9373 12.1801 12.2291C11.0009 13.5208 9.37859 14.3214 7.63599 14.4714C7.61849 14.4732 7.6004 14.4738 7.58349 14.4738Z" fill="#3E8D95"/>
<path d="M7.00033 4C6.84562 4 6.69724 4.06146 6.58785 4.17085C6.47845 4.28025 6.41699 4.42862 6.41699 4.58333V7.5C6.41703 7.6547 6.47851 7.80305 6.58791 7.91242L8.33791 9.66242C8.44793 9.76868 8.59528 9.82747 8.74823 9.82614C8.90117 9.82481 9.04748 9.76347 9.15564 9.65531C9.26379 9.54716 9.32514 9.40085 9.32647 9.2479C9.3278 9.09495 9.269 8.9476 9.16274 8.83758L7.58366 7.2585V4.58333C7.58366 4.42862 7.5222 4.28025 7.4128 4.17085C7.30341 4.06146 7.15504 4 7.00033 4Z" fill="#3E8D95"/>
</g>
<defs>
<clipPath id="clip0_131_7032">
<rect width="14" height="14" fill="white" transform="translate(0 0.5)"/>
</clipPath>
</defs>
</svg>
