<svg width="22" height="37" viewBox="0 0 22 37" fill="none" xmlns="http://www.w3.org/2000/svg">
<path d="M2.14111 36.0337C3.98103 34.7089 8.92837 31.8959 12.8822 23.0397C12.9394 22.9089 12.9721 22.7658 13.013 22.6227C13.0457 22.5245 13.0703 22.4264 13.0948 22.3283C13.107 22.2874 13.1152 22.2465 13.1234 22.2015C13.1479 22.0993 13.1766 21.9889 13.2011 21.8826C13.2174 21.8172 13.2297 21.7559 13.242 21.6904C13.2747 21.5187 13.3074 21.347 13.3319 21.1712C13.3442 21.069 13.3605 20.9708 13.3728 20.8727C13.381 20.8482 13.3851 20.8114 13.3851 20.7827C13.3974 20.6519 13.4096 20.5211 13.4219 20.3861C13.426 20.3412 13.4301 20.3003 13.4301 20.2594C13.4464 19.9977 13.4587 19.736 13.4587 19.4744C13.4587 19.3599 13.4587 19.2413 13.4464 19.1186C13.4464 19.0001 13.4341 18.8815 13.4301 18.7629C13.4219 18.6852 13.4178 18.6035 13.4096 18.5299C13.4014 18.4072 13.3892 18.2886 13.3728 18.166V18.1578C13.3687 18.1251 13.3646 18.0924 13.3606 18.0638C13.3401 17.9206 13.3238 17.7857 13.2992 17.6467C13.2992 17.6344 13.2951 17.6222 13.291 17.6099C13.2665 17.4545 13.2338 17.3032 13.2011 17.152C13.2011 17.1438 13.2011 17.1397 13.197 17.1315C13.1643 16.9884 13.1275 16.8412 13.0866 16.6981C13.0702 16.6163 13.0457 16.5346 13.0212 16.4528C12.9967 16.3669 12.9721 16.2892 12.9435 16.2034C12.9067 16.0889 12.8699 15.9703 12.8249 15.8518C12.7677 15.6841 12.6982 15.5206 12.6328 15.3529C12.5714 15.2098 12.5101 15.0667 12.4447 14.9236C12.3915 14.8132 12.3343 14.6987 12.277 14.5842C12.2198 14.4698 12.1585 14.3553 12.093 14.2449C12.0276 14.1304 11.9622 14.0159 11.8927 13.9014C11.8886 13.8933 11.8804 13.8851 11.8764 13.8769C11.8028 13.7583 11.7251 13.6357 11.6474 13.513C11.5942 13.4353 11.5411 13.3576 11.4879 13.2799C11.398 13.1491 11.3039 13.0183 11.2017 12.8874C11.169 12.8425 11.1322 12.7975 11.0995 12.7566C10.8337 12.4213 10.5516 12.1024 10.249 11.808C10.1877 11.7467 10.1264 11.6853 10.061 11.624C10.0078 11.5709 9.95464 11.5177 9.89331 11.4686C9.65616 11.2519 9.40675 11.0393 9.14916 10.8472C9.096 10.8063 9.04287 10.7695 8.98972 10.7286C8.93656 10.6918 8.8834 10.655 8.83025 10.6182C8.80572 10.5977 8.78528 10.5814 8.75666 10.565C8.73212 10.5487 8.71575 10.5323 8.69122 10.5201C8.57674 10.4424 8.46227 10.3688 8.34778 10.2952C8.24557 10.2298 8.13925 10.1684 8.03294 10.1071C7.95117 10.058 7.86531 10.009 7.78354 9.964C7.6527 9.8904 7.52185 9.82498 7.39101 9.75956C7.2847 9.70641 7.17841 9.65734 7.06801 9.60419C7.06801 9.60419 7.06801 9.60419 7.06392 9.60419C7.04756 9.59601 7.03121 9.58783 7.01076 9.57966C6.89219 9.5265 6.77362 9.47744 6.65914 9.42838C6.63461 9.41611 6.61008 9.40793 6.58555 9.39975C6.44244 9.34251 6.29524 9.28936 6.14396 9.23621C6.07036 9.20759 5.98859 9.18305 5.91499 9.15852C5.8373 9.1299 5.75552 9.10945 5.67784 9.08491C5.56335 9.04811 5.45297 9.01541 5.3344 8.98679C5.28942 8.97452 5.24853 8.96635 5.20356 8.94999C5.11769 8.92955 5.03183 8.91319 4.95006 8.88866C4.87237 8.87231 4.79468 8.85595 4.717 8.8396C4.58207 8.81098 4.44714 8.78644 4.30813 8.76599C3.95649 8.70466 3.60077 8.66787 3.24914 8.64334C3.23687 8.64334 3.22871 8.64334 3.21644 8.64334C3.09378 8.63516 2.97111 8.63107 2.84845 8.62698C2.72579 8.62289 2.60312 8.61881 2.48045 8.6229C2.37824 8.6229 2.27193 8.62698 2.1738 8.63107C2.07158 8.63107 1.96936 8.64334 1.86715 8.64334C1.84261 8.64334 1.81808 8.64333 1.79355 8.65151C1.77311 8.70466 1.7404 8.75374 1.69133 8.79054C1.54823 8.90502 1.33563 8.88049 1.22115 8.73738C1.10666 8.59428 1.1312 8.38165 1.2743 8.26717C1.41741 8.15268 1.62591 8.17314 1.7404 8.31624C2.2474 8.27945 2.75441 8.27944 3.26141 8.30806C3.94014 8.35712 4.61478 8.46344 5.27715 8.6229C5.79233 8.74965 6.29525 8.91728 6.78998 9.11763C6.92491 9.17078 7.06392 9.22802 7.19476 9.28935C7.79989 9.56329 8.38457 9.89449 8.94881 10.2788C9.48852 10.655 10.0037 11.0761 10.4821 11.5545C10.7928 11.8652 11.0872 12.1923 11.3653 12.544C11.4021 12.589 11.4347 12.6339 11.4715 12.6789C11.5697 12.8097 11.6637 12.9365 11.7537 13.0673C12.138 13.6111 12.4651 14.1795 12.7432 14.7642C13.0212 15.3611 13.242 15.9703 13.4096 16.5918C13.5445 17.0988 13.6468 17.6099 13.7081 18.121C13.7244 18.2436 13.7367 18.3704 13.749 18.4931C13.8021 19.0737 13.8103 19.6584 13.7735 20.239C13.7735 20.2635 13.7735 20.2798 13.7817 20.3044C13.7817 20.3125 13.7899 20.3248 13.794 20.333C13.7981 20.3412 13.8021 20.3493 13.8103 20.3575C13.8389 20.3943 13.8839 20.4188 13.9371 20.4188C14.027 20.4229 14.1088 20.3534 14.117 20.2594C14.117 20.2512 14.117 20.2471 14.117 20.243C14.1333 20.0263 14.1374 19.8096 14.1374 19.597C14.1374 19.5439 14.1374 19.4907 14.1374 19.4335C14.1374 19.2658 14.1374 19.1023 14.1211 18.9387C14.1211 18.9346 14.1211 18.9265 14.1211 18.9224C14.1129 18.7629 14.1006 18.6075 14.0842 18.4522C14.0842 18.4522 14.0842 18.4399 14.0842 18.4358C14.0761 18.3132 14.0638 18.1946 14.0475 18.076C14.0434 18.0515 14.0393 18.027 14.0352 18.0024C14.0147 17.8471 13.9902 17.6917 13.9657 17.5363C13.9657 17.5118 13.9575 17.4872 13.9534 17.4627C13.9248 17.3032 13.8921 17.1397 13.8594 16.9802C13.8185 16.8167 13.7817 16.6531 13.7326 16.4896C13.7122 16.4037 13.6917 16.322 13.6672 16.2443C13.6468 16.1666 13.6181 16.0889 13.5936 16.0071C13.4423 15.5287 13.2583 15.0585 13.0416 14.6047C12.968 14.4452 12.8903 14.2858 12.8086 14.1304C12.7513 14.0159 12.69 13.9055 12.6287 13.791C12.6082 13.7624 12.5919 13.7297 12.5755 13.7011C12.5101 13.5825 12.4324 13.4598 12.3547 13.3413C12.3343 13.3045 12.3138 13.2759 12.2975 13.2431C12.2525 13.1777 12.2075 13.1082 12.1625 13.0469C12.1217 12.9815 12.0767 12.9201 12.0317 12.8547C11.9377 12.7239 11.8436 12.5971 11.7414 12.4663C11.7087 12.4172 11.6719 12.3723 11.6351 12.3273C11.5983 12.2823 11.5656 12.2373 11.5247 12.1923C11.4879 12.1474 11.4511 12.0983 11.4102 12.0574C11.3366 11.9675 11.263 11.8816 11.1894 11.7998C11.1118 11.714 11.0341 11.6281 10.9523 11.5463C10.8705 11.4605 10.7928 11.3787 10.7111 11.2969L10.7029 11.2887C10.6252 11.2111 10.5475 11.1334 10.4657 11.0598C10.3799 10.978 10.294 10.9044 10.2122 10.8267C10.1346 10.7613 10.065 10.7041 9.99143 10.6427C9.91784 10.5814 9.84424 10.5201 9.76656 10.4628C9.55803 10.2911 9.34133 10.1357 9.12463 9.98444C8.54812 9.58783 7.9389 9.24847 7.31332 8.96635C7.1784 8.90502 7.04757 8.84777 6.91264 8.79462C6.51603 8.63516 6.11124 8.49615 5.70237 8.38167C5.5838 8.34487 5.46113 8.31624 5.34256 8.28353C5.2199 8.25491 5.08906 8.22629 4.96231 8.19767C4.72925 8.1486 4.49212 8.10363 4.25497 8.07092C4.0996 8.04639 3.94422 8.03003 3.78885 8.01367C3.71116 8.00549 3.63348 7.99732 3.55579 7.98914C3.53943 8.00549 3.52308 8.02186 3.50673 8.03412C3.36362 8.14861 3.15511 8.12407 3.03654 7.98097C2.92205 7.83786 2.94656 7.62525 3.08967 7.51077C3.23277 7.39628 3.4454 7.42082 3.55988 7.56392C3.58033 7.59254 3.60077 7.62116 3.60894 7.64978C4.21816 7.70293 4.81513 7.80514 5.41208 7.94825C5.96406 8.08318 6.50785 8.259 7.03939 8.4757C7.17432 8.52885 7.30924 8.5861 7.44417 8.64743C8.0861 8.93773 8.70757 9.28526 9.30044 9.69005C9.87695 10.0867 10.4249 10.5364 10.9319 11.0434C11.2671 11.3787 11.5901 11.7344 11.8886 12.1147C11.9254 12.1637 11.9663 12.2087 11.999 12.2578C12.0971 12.3845 12.1912 12.5154 12.2811 12.6462C12.6696 13.1941 13.0089 13.7665 13.291 14.3553C13.2951 14.3839 13.3074 14.4084 13.3278 14.433C13.3278 14.433 13.3319 14.437 13.336 14.4411C13.3974 14.5106 13.4996 14.5229 13.5732 14.4657C13.6263 14.4248 13.6509 14.3512 13.6345 14.2899C13.6345 14.2899 13.6345 14.2858 13.6345 14.2817C13.6304 14.2612 13.6181 14.2408 13.6059 14.2204C13.5568 14.11 13.5077 14.0077 13.4505 13.9014C13.3728 13.7502 13.2951 13.603 13.2133 13.4598C13.1765 13.3903 13.1357 13.3249 13.0948 13.2595C13.0253 13.1368 12.9435 13.0142 12.8658 12.8915C12.7677 12.7402 12.6655 12.589 12.5633 12.4418C12.4733 12.3109 12.3793 12.1801 12.2811 12.0533C12.2443 12.0043 12.2034 11.9552 12.1666 11.9061C12.0889 11.808 12.0072 11.7099 11.9295 11.6158C11.7496 11.4032 11.5656 11.1988 11.3775 10.9984C11.2467 11.0475 11.0872 11.0107 10.9973 10.8921C10.8828 10.749 10.9073 10.5405 11.0504 10.426C11.1935 10.3115 11.4021 10.3361 11.5206 10.4792C11.5779 10.5528 11.6024 10.6427 11.5901 10.7327C11.8886 11.0352 12.1666 11.3542 12.4365 11.6976C12.4774 11.7467 12.5183 11.7998 12.5551 11.8489C12.6532 11.9756 12.7472 12.1024 12.8413 12.2373C13.2706 12.8425 13.6468 13.4803 13.9575 14.1386C14.2723 14.805 14.5258 15.4879 14.7139 16.187C14.8734 16.7676 14.992 17.3564 15.0655 17.9493C15.0819 18.0719 15.0942 18.1987 15.1064 18.3254C15.1759 19.0409 15.1841 19.7606 15.1269 20.4802C15.0819 21.1385 14.9797 21.7886 14.8284 22.4305C14.812 22.4959 14.8407 22.5654 14.8897 22.6022C14.9102 22.6186 14.9347 22.6308 14.9592 22.6349C15.0083 22.6472 15.0655 22.6349 15.1064 22.6022C15.1391 22.5777 15.1596 22.5409 15.1637 22.5041C15.1923 22.3651 15.2209 22.2302 15.2536 22.0911C15.2863 21.9439 15.3109 21.7967 15.3313 21.6496C15.3354 21.6291 15.3395 21.6087 15.3395 21.5882C15.3681 21.4083 15.3926 21.2284 15.4131 21.0485C15.4335 20.8645 15.4499 20.6846 15.4662 20.5006C15.4785 20.3166 15.4908 20.1326 15.4949 19.9446C15.4989 19.7565 15.503 19.5766 15.503 19.3885C15.503 19.2127 15.4949 19.0369 15.4867 18.861C15.4867 18.8529 15.4867 18.8447 15.4867 18.8365C15.4744 18.6525 15.4581 18.4726 15.4458 18.2845C15.4458 18.2682 15.4458 18.2518 15.4417 18.2355C15.4294 18.1251 15.4172 18.0188 15.4049 17.9125C15.3967 17.8511 15.3927 17.7939 15.3804 17.7366C15.3599 17.614 15.3477 17.4872 15.3272 17.3687C15.2536 16.9434 15.1596 16.5141 15.0451 16.0971C15.0451 16.093 15.0451 16.0889 15.0451 16.0848C14.996 15.9131 14.947 15.7495 14.8897 15.5819C14.8161 15.3447 14.7344 15.1117 14.6444 14.8827C14.5953 14.756 14.5463 14.6374 14.4931 14.5107C14.4195 14.3389 14.3418 14.1672 14.2642 13.9996C14.2642 13.9996 14.2642 13.9982 14.2642 13.9955C14.1987 13.8524 14.1292 13.7093 14.0516 13.5702C13.9943 13.4598 13.937 13.3535 13.8757 13.2472C13.8062 13.1246 13.7367 13.0019 13.6631 12.8833C13.5895 12.7607 13.5159 12.6421 13.4342 12.5235C13.3401 12.3722 13.2379 12.2251 13.1398 12.082C13.1316 12.0697 13.1234 12.0615 13.1152 12.0492C13.0212 11.9184 12.9271 11.7917 12.829 11.6649C12.7922 11.6118 12.7513 11.5586 12.7063 11.5095C12.6205 11.4032 12.5387 11.301 12.4488 11.1947C12.2075 10.9044 11.954 10.6305 11.6883 10.3729C11.6719 10.3524 11.6515 10.3361 11.6351 10.3156C11.5615 10.2461 11.492 10.1766 11.4184 10.1071C11.3571 10.0499 11.2957 9.99262 11.2344 9.93947C11.1649 9.87405 11.0913 9.80863 11.0177 9.7473C10.6456 9.4202 10.2613 9.12581 9.86061 8.85187C9.6848 8.73329 9.50489 8.61472 9.31681 8.50432C9.2473 8.45935 9.17778 8.41846 9.10419 8.37757C9.04694 8.34077 8.98152 8.30397 8.92019 8.27126C8.81797 8.21402 8.71167 8.1527 8.59719 8.09954C8.5195 8.05866 8.44181 8.01776 8.35594 7.97687C8.18422 7.89101 8.01251 7.80923 7.83669 7.73155C7.70177 7.67022 7.56684 7.61298 7.43191 7.55983C7.40329 7.54756 7.37466 7.5353 7.34604 7.52303C7.32151 7.51485 7.30107 7.50259 7.27654 7.4985C7.16206 7.45761 7.04755 7.40855 6.92489 7.36766C6.85538 7.33904 6.77771 7.3145 6.70411 7.28997C6.58554 7.25317 6.46697 7.21228 6.35249 7.17139C6.11534 7.10189 5.8741 7.03647 5.63287 6.97514C5.56745 6.95879 5.5102 6.94652 5.44887 6.93016C5.28123 6.89336 5.11361 6.86065 4.95006 6.82794C4.79469 6.79932 4.63931 6.7707 4.48394 6.75026C4.29177 6.72164 4.09552 6.69711 3.90335 6.67666C3.70709 6.65622 3.51083 6.63987 3.31866 6.6276C2.93432 6.60307 2.5418 6.59488 2.16155 6.60715C1.97347 6.61124 1.78947 6.61942 1.60139 6.63577C1.50735 6.64395 1.41331 6.65213 1.31927 6.6603C1.29883 6.70119 1.2702 6.7339 1.2334 6.76252C1.09029 6.87701 0.881784 6.85247 0.763211 6.70937C0.648727 6.56626 0.673236 6.35365 0.816341 6.23917C0.959447 6.12468 1.17207 6.14922 1.28655 6.29232C1.29473 6.3005 1.3029 6.30868 1.30699 6.32095C1.98163 6.25553 2.65628 6.24326 3.33091 6.28415C4.13639 6.33321 4.92551 6.45178 5.70237 6.63987C6.33203 6.79524 6.95353 6.99149 7.55866 7.23682C7.69359 7.28997 7.82851 7.34722 7.95935 7.40855C8.67896 7.72747 9.37405 8.1118 10.0323 8.56565C10.662 8.99497 11.263 9.48153 11.8191 10.0294C11.8191 10.0294 11.8273 10.0376 11.8314 10.0417C11.8927 10.1071 11.9908 10.1153 12.0644 10.058C12.1339 10.0008 12.1503 9.90267 12.1012 9.82498V9.82089C12.1012 9.82089 12.1012 9.81272 12.0971 9.81272C12.0849 9.79636 12.0767 9.78818 12.0603 9.78C12.0603 9.78 12.0563 9.78 12.0522 9.78C11.9786 9.7064 11.9009 9.6369 11.8232 9.5633C11.7537 9.49788 11.6883 9.43246 11.6106 9.37113C11.169 8.97043 10.6988 8.61063 10.2081 8.27945C10.0855 8.19358 9.96281 8.1159 9.84015 8.03412C9.74202 7.97279 9.6439 7.91555 9.54578 7.85422C9.43947 7.79289 9.33724 7.73155 9.22684 7.67431C9.11645 7.60889 9.00196 7.54756 8.89157 7.49031C8.79344 7.43716 8.69531 7.38809 8.5931 7.33494C8.50723 7.29405 8.42546 7.25726 8.34369 7.21638C8.31916 7.20411 8.29463 7.19184 8.27419 7.18366H8.2701C8.12699 7.30223 7.91846 7.2777 7.79988 7.1346C7.6854 6.99149 7.70993 6.77888 7.85304 6.6644C8.00023 6.54991 8.20877 6.57445 8.32325 6.71755C8.36005 6.76253 8.38048 6.81159 8.38866 6.86474C9.08374 7.18366 9.75429 7.55574 10.4003 7.99323C11.079 8.45526 11.7169 8.97452 12.3179 9.5633C12.7391 9.96808 13.1316 10.4097 13.5037 10.8758C13.5486 10.933 13.5936 10.9862 13.6345 11.0434C13.7326 11.1702 13.8308 11.301 13.9207 11.4278C14.395 12.086 14.7998 12.7729 15.1391 13.4803C15.1391 13.5089 15.1514 13.5375 15.1719 13.5621C15.2332 13.6357 15.3436 13.652 15.4172 13.5907C15.4826 13.5375 15.503 13.4476 15.4621 13.374C15.3845 13.2104 15.3068 13.0551 15.2209 12.8997C15.1473 12.7566 15.0696 12.6176 14.9879 12.4745C14.9552 12.409 14.9183 12.3477 14.8775 12.2864C14.8407 12.2251 14.808 12.1637 14.7671 12.1065C14.6853 11.9675 14.5994 11.8325 14.5095 11.6976C14.4032 11.5382 14.2969 11.3787 14.1824 11.2233C14.0924 11.0966 13.9943 10.9657 13.8962 10.839C13.8553 10.7817 13.8062 10.7245 13.7612 10.6673C13.6672 10.5487 13.5691 10.4301 13.4709 10.3115C13.3728 10.197 13.2706 10.0826 13.1684 9.96808C13.103 9.89857 13.0416 9.82498 12.9721 9.75547C12.9149 9.69414 12.8576 9.62872 12.7963 9.56739C12.7227 9.49379 12.6491 9.42019 12.5755 9.3466C12.5632 9.33433 12.5551 9.32616 12.5428 9.31389C11.9254 8.71285 11.2712 8.18131 10.5761 7.71111C10.5557 7.69475 10.5352 7.68249 10.5148 7.67022C10.4085 7.60071 10.3063 7.53529 10.2 7.46578C10.1223 7.41672 10.0405 7.36357 9.95874 7.3186C9.87288 7.26544 9.7911 7.21638 9.70524 7.16322C9.6112 7.10598 9.51307 7.05691 9.41903 7.00376C9.25548 6.9138 9.08783 6.82795 8.92019 6.74618C8.77708 6.67258 8.62989 6.60307 8.48679 6.53765C8.43772 6.51312 8.39276 6.49267 8.34369 6.47223C8.21285 6.4109 8.07793 6.35774 7.93891 6.30459C7.28063 6.03473 6.60189 5.81803 5.91499 5.65039C5.67784 5.59724 5.4407 5.54408 5.19946 5.49502C5.01547 5.46231 4.83149 5.43369 4.6475 5.40506C4.42262 5.37235 4.19363 5.34374 3.96466 5.3192C3.86653 5.30694 3.76432 5.30285 3.66619 5.29467C3.56397 5.2865 3.46585 5.27832 3.36363 5.27423C3.13057 5.25788 2.89751 5.25379 2.66445 5.2497C2.6481 5.2497 2.63174 5.2497 2.61539 5.2497C2.56224 5.2497 2.51317 5.2497 2.46002 5.2497C2.43957 5.28241 2.41504 5.31512 2.38233 5.33966C2.23922 5.45414 2.02662 5.4296 1.91214 5.28241C1.79766 5.1393 1.82217 4.93078 1.96527 4.8163C2.10838 4.70182 2.321 4.72634 2.43548 4.86944C2.44775 4.88171 2.45593 4.89807 2.46411 4.91033C2.76667 4.91033 3.07332 4.91443 3.37998 4.93078C4.25905 4.97985 5.12995 5.11069 5.98858 5.31512C6.69593 5.48685 7.39509 5.71173 8.07382 5.98976C8.20875 6.04291 8.3437 6.10015 8.47863 6.16148C9.27184 6.50902 10.0364 6.93017 10.7642 7.42081C11.4716 7.89919 12.1503 8.44708 12.7759 9.06447C13.2215 9.49788 13.6386 9.96399 14.0311 10.4546C14.0761 10.5119 14.121 10.5732 14.166 10.6305C14.2642 10.7572 14.3623 10.888 14.4522 11.0148C14.9552 11.718 15.3967 12.454 15.7565 13.2186C16.1327 13.9914 16.4312 14.7887 16.6561 15.5983C16.8523 16.2933 16.9913 17.0007 17.0813 17.7121C17.0976 17.8348 17.1099 17.9574 17.1222 18.0842C17.1998 18.861 17.2162 19.6461 17.1672 20.427C17.1672 20.4475 17.1671 20.4679 17.1753 20.4843C17.1876 20.5292 17.2162 20.566 17.2571 20.5865C17.2694 20.5947 17.2816 20.5988 17.2939 20.6028C17.3021 20.6028 17.3103 20.6028 17.3184 20.6069C17.3307 20.6069 17.3389 20.6069 17.3471 20.6069C17.3552 20.6069 17.3634 20.6069 17.3716 20.6069C17.3757 20.6069 17.3839 20.6069 17.392 20.6028C17.4125 20.5988 17.4288 20.5865 17.4452 20.5742C17.4615 20.562 17.4697 20.5497 17.4779 20.5374C17.482 20.5292 17.4861 20.5252 17.4902 20.517C17.4902 20.5088 17.4983 20.5047 17.4983 20.4965C17.4983 20.4843 17.5065 20.4761 17.5065 20.4638C17.5065 20.4597 17.5065 20.4557 17.5065 20.4516C17.5188 20.2553 17.5229 20.055 17.527 19.8546C17.527 19.6706 17.5351 19.4948 17.527 19.3149C17.527 19.2536 17.527 19.1922 17.5229 19.135C17.5229 18.9878 17.5106 18.8365 17.5024 18.6852C17.4901 18.4685 17.4738 18.2559 17.4533 18.0433C17.4411 17.9206 17.4247 17.798 17.4084 17.6753C17.4002 17.6099 17.392 17.5486 17.3798 17.4831C17.3634 17.3441 17.343 17.2133 17.3225 17.0784C17.3103 16.9925 17.298 16.9066 17.2775 16.8289C17.2285 16.5795 17.1794 16.3301 17.1181 16.0807C17.0772 15.9049 17.0322 15.725 16.9873 15.5533C16.9832 15.5369 16.975 15.5206 16.9709 15.5001C16.9096 15.2834 16.8441 15.0708 16.7746 14.8541C16.7378 14.7396 16.6724 14.5597 16.6315 14.4452C16.6193 14.4125 16.607 14.3839 16.5947 14.3553C16.5089 14.1181 16.4148 13.8892 16.3167 13.6602C16.2799 13.5662 16.239 13.4762 16.1981 13.3822C16.1491 13.2718 16.1 13.1695 16.0468 13.0632C15.9528 12.8629 15.8506 12.6666 15.7443 12.4704C15.6748 12.3436 15.6012 12.2169 15.5317 12.0901C15.4581 11.9593 15.3804 11.8285 15.2986 11.6976C15.27 11.6526 15.2373 11.5995 15.2127 11.5545C15.131 11.4278 15.0492 11.3051 14.9674 11.1783C14.8856 11.0598 14.7998 10.933 14.7139 10.8144C14.6199 10.6836 14.5258 10.5569 14.4277 10.4301C14.3827 10.3688 14.3337 10.3074 14.2887 10.2502C14.1946 10.1316 14.0965 10.0131 14.0025 9.89858C13.8675 9.73912 13.7326 9.58374 13.5895 9.43246C13.5078 9.33842 13.4219 9.24438 13.3319 9.15443C13.2256 9.04403 13.1193 8.93363 13.0089 8.83141C13.0089 8.82733 13.0007 8.82324 12.9967 8.81915C12.3547 8.18949 11.6637 7.63342 10.9359 7.14277C10.9277 7.13868 10.9196 7.13051 10.9114 7.12642C10.8255 7.06918 10.7438 7.01194 10.6579 6.95879C10.2817 6.71346 9.89332 6.49267 9.49671 6.28415C9.3945 6.23508 9.29635 6.18193 9.19822 6.13287C8.99787 6.03474 8.79753 5.9407 8.5931 5.85075C8.51541 5.81395 8.43772 5.78124 8.35594 5.74853C8.30279 5.72808 8.24556 5.70355 8.19241 5.68311C8.10246 5.64631 8.01658 5.61359 7.92254 5.5768C7.75081 5.51138 7.58318 5.45004 7.41145 5.3928C7.37056 5.38053 7.32558 5.3601 7.28061 5.35192C7.09662 5.29059 6.91263 5.22925 6.72455 5.1761C6.49967 5.11068 6.2748 5.05343 6.04992 4.99619C5.57563 4.88171 5.09724 4.79586 4.61069 4.72635C4.42669 4.70182 4.23861 4.67728 4.05053 4.66093C3.94014 4.64866 3.82565 4.64048 3.71935 4.62821C3.60486 4.62003 3.49037 4.60777 3.37998 4.60777C3.26549 4.59959 3.15509 4.5955 3.04061 4.59141C2.93021 4.58732 2.81574 4.58733 2.70126 4.58324C2.58678 4.58324 2.47637 4.58324 2.36189 4.58324C2.18199 4.58324 1.99798 4.59142 1.81399 4.5996C1.6668 4.60778 1.52371 4.61594 1.37243 4.62821C1.32745 4.62821 1.28247 4.6323 1.23749 4.64048C1.18434 4.64048 1.13528 4.64865 1.08621 4.65274C1.06577 4.70181 1.03306 4.7427 0.988086 4.77541C0.84498 4.88989 0.632357 4.86536 0.517873 4.72225C0.403389 4.57915 0.427923 4.36654 0.571028 4.25205C0.714133 4.13757 0.922664 4.1621 1.03715 4.30521H1.04124C1.82628 4.2357 2.61131 4.21934 3.39226 4.26432C4.30813 4.31338 5.224 4.44831 6.11943 4.66093C6.86766 4.83674 7.60363 5.07797 8.31916 5.36827C8.45409 5.42142 8.58491 5.47866 8.71575 5.53591C9.54576 5.8998 10.3472 6.33322 11.1077 6.84839C11.8518 7.35131 12.5632 7.91964 13.2215 8.55748C13.6876 9.01541 14.1333 9.50605 14.5545 10.0335C14.6035 10.0948 14.6485 10.1562 14.6976 10.2175C14.7752 10.3238 14.8529 10.426 14.9306 10.5323C14.9306 10.5323 14.9429 10.5609 14.9511 10.5691C14.9592 10.5814 14.9674 10.5855 14.9756 10.5977C15.0369 10.6468 15.131 10.6468 15.1923 10.5977C15.2536 10.5487 15.2741 10.4628 15.2414 10.3933C15.2373 10.377 15.2291 10.3647 15.2168 10.3524C15.2087 10.3442 15.2005 10.3361 15.1923 10.3279C15.1514 10.2625 15.1023 10.2052 15.0574 10.1439C15.0247 10.0989 14.9879 10.0539 14.9551 10.009C14.9061 9.94764 14.8611 9.88222 14.808 9.82089C14.7221 9.71458 14.6403 9.61236 14.5504 9.51014C14.489 9.42837 14.4195 9.35069 14.35 9.273C14.2805 9.19123 14.2151 9.11763 14.1415 9.03994C14.0883 8.9827 14.0352 8.92545 13.982 8.86821C13.9289 8.81097 13.8798 8.75374 13.8226 8.70058C13.6917 8.56566 13.5609 8.43482 13.4301 8.30398C13.2542 8.13225 13.0702 7.96052 12.8863 7.79697C12.7595 7.68657 12.6328 7.58028 12.506 7.47397C12.3711 7.36766 12.2443 7.26135 12.1135 7.16322C12.0276 7.0978 11.9458 7.03238 11.8559 6.97105C11.7659 6.90972 11.676 6.8443 11.5901 6.77888C11.4838 6.7012 11.3816 6.62759 11.2712 6.55809C11.1485 6.47631 11.0259 6.39454 10.9032 6.31685C10.8378 6.27188 10.7724 6.23508 10.7029 6.1942C10.5925 6.12878 10.4862 6.06335 10.3758 5.99793C10.1754 5.88345 9.97508 5.76896 9.76656 5.66266C9.68069 5.61768 9.59076 5.57271 9.50081 5.52773C9.3945 5.47458 9.28409 5.42142 9.17778 5.37236C9.03468 5.48276 8.82614 5.45823 8.71166 5.31512C8.59718 5.17202 8.62171 4.96349 8.76482 4.849C8.91201 4.73452 9.12054 4.75905 9.23503 4.90216C9.27183 4.94714 9.29635 5.00437 9.30453 5.06161C10.0446 5.40507 10.7642 5.81395 11.4511 6.27188C12.228 6.79115 12.968 7.3881 13.659 8.05456C14.1538 8.53703 14.624 9.0563 15.0655 9.61236C15.1146 9.67778 15.1637 9.73911 15.2168 9.80453C15.315 9.93128 15.409 10.058 15.503 10.1848C16.0591 10.9535 16.5375 11.7589 16.9423 12.593C17.3552 13.4353 17.6823 14.3062 17.9317 15.1935C18.1484 15.9703 18.312 16.7554 18.406 17.5445C18.4142 17.6099 18.4224 17.6753 18.4306 17.7407C18.4387 17.8143 18.4919 17.8757 18.5655 17.8879C18.5696 17.8879 18.5818 17.8879 18.59 17.8879C18.5982 17.8879 18.6105 17.8879 18.6227 17.8879C18.7168 17.8757 18.7822 17.7939 18.7699 17.6998C18.7699 17.6876 18.7699 17.6712 18.7658 17.6549C18.7577 17.6017 18.7536 17.5486 18.7454 17.4954C18.7209 17.2828 18.6882 17.0702 18.6514 16.8576C18.6391 16.784 18.6268 16.7104 18.6105 16.6409C18.5696 16.4078 18.5287 16.1788 18.4715 15.954C18.4428 15.8231 18.4142 15.6964 18.3815 15.5655C18.3406 15.4061 18.2997 15.2466 18.2507 15.0872C18.1893 14.8623 18.1198 14.6374 18.0462 14.4166C17.9644 14.1672 17.8745 13.9096 17.7764 13.6602C17.6251 13.2759 17.4615 12.8915 17.2816 12.5194C17.2694 12.4867 17.253 12.4581 17.2408 12.4295C17.2285 12.3927 17.204 12.3559 17.1876 12.3232C17.1549 12.2537 17.1181 12.1842 17.0813 12.1106C17.0445 12.037 17.0077 11.9634 16.9709 11.8939C16.9341 11.8244 16.8932 11.7548 16.8564 11.6813C16.8196 11.6077 16.7787 11.53 16.7338 11.4605C16.6806 11.3583 16.6192 11.2601 16.5579 11.1579C16.5007 11.0639 16.4434 10.9698 16.3862 10.8799C16.3126 10.7613 16.2349 10.6427 16.1531 10.5242C16.1 10.4383 16.0428 10.3565 15.9855 10.2747C15.916 10.1725 15.8506 10.0744 15.7729 9.97626C15.6789 9.84542 15.5848 9.71867 15.4867 9.59192C15.4376 9.5265 15.3845 9.46108 15.3354 9.39566C15.1841 9.20349 15.0247 9.01541 14.8693 8.83141C14.7712 8.71693 14.673 8.60654 14.5708 8.49615C14.5217 8.43891 14.4727 8.38575 14.4195 8.33668C14.3705 8.28353 14.3173 8.22629 14.2682 8.17723C14.1456 8.04639 14.0188 7.92372 13.8921 7.79697C13.8839 7.7847 13.8757 7.77653 13.8635 7.76836C13.798 7.70703 13.7367 7.64569 13.6713 7.58845C13.5895 7.51077 13.5036 7.43308 13.4219 7.35539C13.3565 7.29406 13.2829 7.23682 13.2174 7.17549C13.013 6.99967 12.8045 6.82795 12.5919 6.6644C12.4733 6.57036 12.3506 6.47632 12.228 6.38637C12.1298 6.31277 12.0317 6.24735 11.9336 6.17784C11.8354 6.10833 11.7373 6.03882 11.6392 5.9734C11.5452 5.90798 11.4511 5.84666 11.3571 5.78532C11.0995 5.62178 10.8378 5.46641 10.572 5.31512C10.4085 5.22108 10.2408 5.13113 10.0691 5.04527C9.96281 4.98803 9.85651 4.93077 9.74203 4.88171C9.63572 4.82856 9.52533 4.77541 9.41493 4.72635C9.37813 4.70999 9.34133 4.68954 9.30453 4.67727C9.25547 4.65274 9.19824 4.62821 9.14509 4.60777C9.12873 4.59551 9.10419 4.58324 9.08375 4.57915C8.98153 4.53417 8.87931 4.4892 8.773 4.44422C8.74029 4.43196 8.71168 4.41969 8.68306 4.40743C8.58084 4.36654 8.47863 4.32565 8.37641 4.28885C8.1965 4.21525 8.01659 4.15392 7.8326 4.09259C7.70994 4.04761 7.5832 4.00673 7.45645 3.96993C7.15388 3.8718 6.8472 3.78593 6.54055 3.70825C6.52828 3.72051 6.51603 3.7287 6.50377 3.74096C6.35657 3.85545 6.14804 3.83091 6.03355 3.68781C5.91907 3.5447 5.9436 3.33618 6.08671 3.21761C6.22981 3.10312 6.43834 3.12766 6.55283 3.27076C6.57736 3.30347 6.59781 3.34026 6.61008 3.37706C7.35831 3.56514 8.09019 3.80229 8.80572 4.09259C8.94065 4.14574 9.07148 4.20299 9.2064 4.26023C10.11 4.65274 10.9809 5.13112 11.815 5.68719C12.6246 6.2269 13.3933 6.8443 14.1129 7.54347C14.6362 8.04638 15.131 8.59427 15.5971 9.17896C15.6502 9.24438 15.7034 9.31388 15.7525 9.3793C15.8506 9.50605 15.9446 9.6328 16.0387 9.76364C16.6234 10.5609 17.1181 11.3991 17.5392 12.2659C17.9685 13.1409 18.3079 14.0404 18.5696 14.9563C18.5696 14.9563 18.5696 14.9645 18.5696 14.9686C18.5696 14.9727 18.5696 14.9768 18.5696 14.9768C18.5696 14.9768 18.5819 15.0054 18.5941 15.0176C18.6554 15.0912 18.7617 15.1035 18.8353 15.0463C18.8885 15.0054 18.9089 14.9359 18.8926 14.8745C18.7249 14.2858 18.5246 13.697 18.2916 13.1287C18.2466 13.0142 18.1975 12.8997 18.1484 12.7852C18.0994 12.6666 18.0503 12.5562 17.9931 12.4418C17.944 12.3273 17.8909 12.2169 17.8336 12.1024C17.7314 11.8816 17.6169 11.6608 17.4983 11.4441C17.3839 11.2233 17.2612 11.0107 17.1344 10.8022C17.069 10.6918 17.0036 10.5896 16.9382 10.4833C16.8973 10.4138 16.8564 10.3524 16.8155 10.287C16.7664 10.2093 16.7133 10.1316 16.6601 10.054C16.5457 9.88222 16.4312 9.71458 16.3085 9.54694C16.2513 9.46517 16.194 9.3834 16.1327 9.3098C16.0959 9.26074 16.0591 9.21576 16.0223 9.16669C15.9691 9.09718 15.916 9.02768 15.8629 8.96226C15.6666 8.71284 15.4621 8.4757 15.2536 8.23856C15.1841 8.15678 15.1146 8.07501 15.0369 7.99732C14.9306 7.87875 14.8243 7.76834 14.7139 7.65386C14.5913 7.52711 14.4686 7.40445 14.3459 7.28588C14.0597 7.00785 13.7653 6.74617 13.4628 6.48858C13.3565 6.39454 13.2461 6.30867 13.1357 6.22281C12.9639 6.08379 12.7922 5.95296 12.6164 5.82212C12.5224 5.75261 12.4283 5.6872 12.3343 5.62178C12.2239 5.54409 12.1135 5.4664 12.0031 5.39689C11.1567 4.82856 10.2654 4.34201 9.34134 3.9454C9.2105 3.88816 9.07558 3.83091 8.94065 3.77776C8.7771 3.71234 8.60945 3.64692 8.44182 3.58559C8.31507 3.53653 8.18423 3.49155 8.05748 3.44658C7.97979 3.41796 7.90619 3.39751 7.82851 3.37298C7.73447 3.34027 7.64043 3.31164 7.55048 3.28711C7.19067 3.17671 6.82268 3.07859 6.45061 2.98864C6.20529 2.92731 5.95587 2.87415 5.70237 2.82508C5.69419 2.82508 5.68601 2.821 5.67784 2.821C5.44069 2.78012 5.20765 2.73923 4.97459 2.70652C4.93779 2.70243 4.90508 2.69834 4.86828 2.69016C4.65566 2.66563 4.44714 2.6411 4.23453 2.61657C4.21 2.61657 4.18138 2.61247 4.16094 2.60838C4.01374 2.59612 3.87064 2.58385 3.72753 2.57158C3.71118 2.59203 3.69482 2.60838 3.67438 2.62474C3.53127 2.73922 3.32274 2.7147 3.20826 2.5675C3.09377 2.4244 3.11831 2.21178 3.26141 2.09729C3.40452 1.98281 3.61712 2.00735 3.7316 2.15454C3.75204 2.17907 3.7684 2.20769 3.78066 2.23631C4.70471 2.30173 5.62469 2.44075 6.5283 2.65746C7.39511 2.8578 8.24555 3.12765 9.07147 3.46702C9.2064 3.52017 9.34134 3.57741 9.47218 3.63465C10.384 4.03126 11.263 4.50555 12.1053 5.06161C12.1053 5.06161 12.1339 5.08206 12.1503 5.09024C12.1503 5.09024 12.1544 5.09024 12.1544 5.09433C12.1626 5.10251 12.1707 5.1066 12.1789 5.11069C12.1912 5.11887 12.2034 5.12295 12.2198 5.12703C12.2198 5.12703 12.2239 5.12703 12.228 5.12703C12.2689 5.12703 12.3097 5.11477 12.3465 5.09024C12.4242 5.02891 12.4365 4.91851 12.3752 4.84491C12.3711 4.83673 12.3629 4.83265 12.3588 4.82857C12.3588 4.82857 12.3343 4.81221 12.3261 4.80403C12.322 4.79995 12.3138 4.79585 12.3098 4.79176C12.2893 4.77949 12.2689 4.76723 12.2525 4.75496C12.1871 4.71407 12.1176 4.6691 12.0522 4.62821C12.0317 4.61186 12.0113 4.59959 11.9908 4.58732C11.8968 4.52599 11.7946 4.46467 11.6964 4.40334C11.5247 4.30112 11.3571 4.19889 11.1854 4.10485C11.0136 4.00672 10.8378 3.91678 10.662 3.82682C10.5434 3.76549 10.4289 3.70825 10.3104 3.65101C10.1918 3.59377 10.0773 3.53653 9.95874 3.48337C9.84017 3.43022 9.7216 3.37706 9.60302 3.32391C9.48036 3.26667 9.35769 3.2176 9.23912 3.17263C9.22686 3.16854 9.21458 3.16445 9.20231 3.15627C9.07556 3.10311 8.94472 3.04996 8.81388 3.00499C8.33141 2.821 7.83668 2.65745 7.33376 2.51843C7.21928 2.48981 7.10072 2.4571 6.98623 2.42848C6.85948 2.39168 6.73273 2.36306 6.60189 2.33444C6.34021 2.27311 6.07445 2.21587 5.80868 2.1668C5.62877 2.13001 5.44887 2.10138 5.26896 2.07276C5.17492 2.0564 5.07271 2.04006 4.9705 2.02779C4.81512 2.00326 4.65567 1.9869 4.49212 1.97054C4.14867 1.92965 3.80521 1.90104 3.45766 1.88468C3.31047 1.8765 3.1551 1.86833 2.99973 1.86424C2.88933 1.86424 2.77484 1.86424 2.66036 1.86015C2.45592 1.86015 2.24739 1.86015 2.04296 1.86424C1.98572 1.86424 1.92848 1.86833 1.87124 1.87242C1.45828 1.88877 1.04124 1.9133 0.628276 1.95828C0.607833 1.99916 0.579202 2.03188 0.542404 2.06459C0.399299 2.17907 0.190789 2.15453 0.0722161 2.00734C-0.0422681 1.86423 -0.0177588 1.65163 0.125346 1.54123C0.27254 1.42675 0.481075 1.45128 0.595559 1.59439C0.603737 1.60256 0.611905 1.61073 0.611905 1.623C1.56458 1.52078 2.51726 1.49625 3.46176 1.5494C4.53709 1.60665 5.61243 1.75793 6.66323 2.00734C7.56684 2.21995 8.45816 2.50208 9.32497 2.85371C9.4599 2.90686 9.59075 2.9641 9.72568 3.02135C10.7029 3.44248 11.6474 3.95357 12.5428 4.55462C13.3974 5.12295 14.2069 5.76896 14.9674 6.49267C14.9674 6.49675 14.9756 6.50493 14.9797 6.50902C14.996 6.52947 15.0124 6.54174 15.0328 6.55401C15.0942 6.58672 15.1678 6.58262 15.225 6.53765C15.2945 6.48041 15.315 6.37818 15.2618 6.30459C15.2618 6.30459 15.2332 6.27188 15.2168 6.25962C14.44 5.51547 13.6059 4.85309 12.7309 4.27249C12.7063 4.25614 12.6818 4.2357 12.6573 4.22343C12.5387 4.14574 12.416 4.06806 12.2975 3.99446C12.1912 3.92904 12.0849 3.85953 11.9786 3.7982C11.447 3.48337 10.9073 3.19308 10.3512 2.93549C10.2736 2.8946 10.1918 2.8578 10.1059 2.821C10.0242 2.7842 9.94239 2.74331 9.86061 2.7106C9.82382 2.69833 9.78292 2.68198 9.75021 2.66563C9.65208 2.62474 9.55803 2.58794 9.4599 2.54705C9.38222 2.51434 9.30453 2.48573 9.22684 2.45302C9.01832 2.37125 8.80162 2.28946 8.589 2.21587C8.43772 2.16271 8.28644 2.11365 8.13516 2.06459C7.98388 2.01552 7.82851 1.96646 7.67313 1.92557C7.52594 1.88468 7.37874 1.83971 7.23155 1.79882C7.068 1.76202 6.90854 1.72113 6.74499 1.67615C6.47513 1.61482 6.20528 1.55759 5.93543 1.50443C5.66557 1.45537 5.39572 1.41039 5.12178 1.3695C4.70473 1.31226 4.28358 1.26729 3.86244 1.23458C3.84609 1.25093 3.83383 1.26728 3.81747 1.27955C3.67437 1.39403 3.46174 1.36951 3.34726 1.2264C3.23278 1.0833 3.25731 0.870675 3.40451 0.756191C3.54761 0.641707 3.76024 0.666241 3.87472 0.809347C3.89517 0.833879 3.91152 0.866585 3.92378 0.895206C4.8969 0.968803 5.87002 1.11601 6.81861 1.34089C7.7631 1.56168 8.69123 1.85606 9.59074 2.21996C9.72567 2.27311 9.86059 2.33036 9.99143 2.3876C11.0013 2.82509 11.9867 3.35662 12.9149 3.9781C13.8267 4.58324 14.6894 5.27014 15.499 6.05109C16.1 6.6276 16.6724 7.25726 17.2039 7.92781C17.2612 8.00141 17.3225 8.075 17.3798 8.15269C17.4574 8.2549 17.5351 8.35712 17.6128 8.45934C17.6128 8.45934 17.6292 8.49206 17.6373 8.50841C17.6414 8.5125 17.6496 8.52067 17.6537 8.52476L17.6578 8.52885C17.6823 8.5493 17.7109 8.56565 17.7355 8.56974C17.7477 8.56974 17.7559 8.56974 17.7641 8.56974C17.7723 8.56974 17.7845 8.56974 17.7927 8.56974C17.8009 8.56974 17.8132 8.56974 17.8213 8.56565C17.8418 8.56156 17.8581 8.54929 17.8745 8.53703C17.9399 8.48796 17.9604 8.39802 17.9236 8.32851C17.9195 8.31624 17.9113 8.30398 17.9031 8.29171C17.899 8.28762 17.8949 8.27945 17.8908 8.27945C17.8091 8.16087 17.7273 8.05456 17.6455 7.94417C17.5883 7.86648 17.527 7.7888 17.4656 7.7152C16.9218 7.0283 16.3371 6.39045 15.7197 5.79759C14.8979 5.00438 14.0147 4.30112 13.0866 3.6919C12.138 3.05815 11.1404 2.51434 10.11 2.07276C9.97918 2.01552 9.84424 1.96236 9.70931 1.90512C8.86294 1.56167 7.99205 1.27956 7.10889 1.05877C7.09662 1.07103 7.08437 1.0833 7.06801 1.09556C6.92491 1.21005 6.71228 1.18551 6.5978 1.04241C6.48331 0.899301 6.50785 0.686691 6.65505 0.572206C6.79815 0.457722 7.00669 0.482256 7.12526 0.625362C7.14979 0.653983 7.16612 0.682604 7.17839 0.715314C8.082 0.936105 8.97744 1.2264 9.84424 1.57803C9.97917 1.63118 10.11 1.68842 10.2449 1.74567C11.2916 2.19951 12.3097 2.7474 13.2747 3.38933C14.2192 4.0149 15.1146 4.73452 15.9528 5.54C16.5825 6.14513 17.1794 6.79524 17.7355 7.4985C17.7968 7.57619 17.8581 7.65386 17.9154 7.73155C18.0135 7.85421 18.1076 7.98097 18.2016 8.11181C18.8803 9.04404 19.4732 10.0131 19.9638 11.0189C20.4667 12.0411 20.8715 13.1 21.1823 14.1754C21.4603 15.1444 21.6647 16.1257 21.7833 17.1152C21.7997 17.2378 21.8119 17.3605 21.8242 17.4831C21.9509 18.5953 21.9714 19.7197 21.8978 20.8359C21.8242 21.948 21.5216 25.4766 20.569 27.6927C16.1327 38.0208 5.99677 36.7124 2.11658 36.0787" fill="#90E975"/>
</svg>
