<svg width="307" height="57" viewBox="0 0 307 57" fill="none" xmlns="http://www.w3.org/2000/svg">
<path d="M88.7981 -320.4C87.312 -292.003 75.7958 -221.53 132.938 -113.309C133.791 -111.721 134.965 -110.277 136.073 -108.753C136.796 -107.663 137.584 -106.652 138.372 -105.642C138.684 -105.2 139.028 -104.799 139.414 -104.366C140.243 -103.323 141.122 -102.176 141.992 -101.102C142.517 -100.428 143.034 -99.8263 143.593 -99.1925C145.054 -97.5238 146.515 -95.8551 148.083 -94.2343C149.011 -93.3115 149.865 -92.3809 150.751 -91.4902C150.932 -91.2176 151.269 -90.8884 151.556 -90.6636C152.771 -89.5161 153.986 -88.3686 155.242 -87.1889C155.661 -86.7957 156.038 -86.4345 156.449 -86.1133C158.945 -83.8981 161.474 -81.7228 164.101 -79.6675C165.25 -78.7683 166.441 -77.8372 167.771 -76.9937C168.961 -76.0624 170.25 -75.251 171.474 -74.3596C172.319 -73.8294 173.173 -73.2271 173.978 -72.729C175.275 -71.8455 176.564 -71.0344 177.927 -70.2309L178.009 -70.1666C178.371 -69.9496 178.732 -69.7327 179.052 -69.5478C180.653 -68.6238 182.139 -67.724 183.732 -66.872C183.855 -66.7757 184.011 -66.7194 184.167 -66.663C185.924 -65.6826 187.706 -64.8141 189.488 -63.9458C189.57 -63.8816 189.611 -63.8495 189.726 -63.8253C191.426 -63.0212 193.199 -62.225 194.965 -61.5008C195.917 -61.0185 196.935 -60.616 197.953 -60.2136C199.013 -59.7791 199.99 -59.4088 201.082 -59.0143C202.527 -58.4749 204.013 -57.9034 205.565 -57.4119C207.708 -56.655 209.909 -56.0503 212.118 -55.3733C214.047 -54.8491 215.977 -54.325 217.94 -53.8407C219.475 -53.4934 221.085 -53.1538 222.694 -52.8144C224.304 -52.475 225.946 -52.1756 227.58 -51.9482C229.255 -51.6888 230.93 -51.4293 232.638 -51.2098C232.753 -51.1856 232.901 -51.2011 233.016 -51.1769C234.798 -50.9652 236.654 -50.7616 238.51 -50.5578C239.717 -50.4674 240.924 -50.3771 242.131 -50.2867C244.168 -50.1386 246.237 -50.0307 248.372 -50.0026C249.087 -49.9692 249.834 -49.9758 250.507 -49.9745C256.009 -49.94 261.479 -50.194 266.866 -50.8405C267.975 -50.9585 269.083 -51.0764 270.225 -51.2345C271.185 -51.3368 272.146 -51.4392 273.132 -51.6535C277.213 -52.2705 281.352 -53.0396 285.352 -54.0491C286.19 -54.2478 286.986 -54.4783 287.824 -54.6769C288.62 -54.9077 289.417 -55.1384 290.214 -55.3692C290.616 -55.4485 290.945 -55.52 291.339 -55.6714C291.7 -55.7829 291.996 -55.8144 292.316 -55.958C294.016 -56.4673 295.675 -57.0087 297.334 -57.5502C298.812 -58.0359 300.283 -58.5937 301.753 -59.1516C302.903 -59.5659 304.085 -60.0201 305.194 -60.4665C306.984 -61.1679 308.693 -61.9336 310.401 -62.6993C311.789 -63.3213 313.136 -63.9754 314.557 -64.6375C314.557 -64.6375 314.557 -64.6375 314.59 -64.6775C314.803 -64.7732 315.017 -64.8689 315.263 -65.0046C316.75 -65.7466 318.195 -66.5207 319.608 -67.2548C319.928 -67.3984 320.207 -67.574 320.487 -67.7497C322.211 -68.6995 323.928 -69.7214 325.677 -70.7833C326.556 -71.2782 327.46 -71.8852 328.298 -72.4122C329.209 -72.947 330.072 -73.5861 330.942 -74.1531C332.232 -74.9836 333.447 -75.8061 334.688 -76.7408C335.172 -77.0843 335.583 -77.4199 336.109 -77.7312C337.004 -78.4103 337.858 -79.1215 338.762 -79.7285C339.55 -80.3597 340.339 -80.9909 341.127 -81.6221C342.499 -82.7168 343.83 -83.8434 345.152 -85.0423C348.594 -87.9991 351.822 -91.1887 354.894 -94.4345C354.993 -94.5544 355.058 -94.6342 355.157 -94.7542C356.225 -95.8894 357.252 -97.0569 358.279 -98.2242C359.305 -99.3916 360.332 -100.559 361.277 -101.791C362.098 -102.79 362.912 -103.862 363.659 -104.854C364.481 -105.853 365.179 -106.949 366.001 -107.949C366.198 -108.189 366.395 -108.428 366.51 -108.732C366.141 -109.35 365.911 -110.055 365.936 -110.824C365.936 -113.123 367.891 -115.009 370.248 -115.004C372.605 -115 374.542 -113.09 374.542 -110.791C374.541 -108.493 372.66 -106.615 370.303 -106.619C366.598 -101.372 362.524 -96.4141 358.162 -91.6811C352.215 -85.4293 345.725 -79.6673 338.801 -74.4425C333.388 -70.4003 327.664 -66.799 321.676 -63.5347C320.058 -62.6327 318.366 -61.7229 316.699 -60.9252C309.086 -57.1594 301.062 -54.0432 292.668 -51.5443C284.554 -49.2211 276.186 -47.491 267.538 -46.5704C261.921 -45.9724 256.271 -45.6626 250.506 -45.7056C249.759 -45.699 249.045 -45.7326 248.297 -45.726C246.195 -45.7941 244.167 -45.87 242.13 -46.018C233.582 -46.5308 225.247 -47.7959 217.142 -49.6693C208.914 -51.6391 201.023 -54.265 193.436 -57.507C187.261 -60.1698 181.309 -63.1845 175.684 -66.599C174.321 -67.4025 172.95 -68.2781 171.62 -69.1216C165.364 -73.162 159.428 -77.6744 153.894 -82.5944C153.648 -82.7871 153.484 -82.9154 153.172 -83.0281C153.09 -83.0923 152.901 -83.1086 152.786 -83.1329C152.671 -83.1571 152.556 -83.1814 152.408 -83.1657C151.808 -83.1748 151.201 -82.9277 150.774 -82.4079C150.01 -81.5604 150.05 -80.2149 150.929 -79.3963C151.011 -79.3321 151.052 -79.2999 151.093 -79.2678C153.137 -77.4058 155.28 -75.6639 157.415 -73.994C157.948 -73.5765 158.482 -73.1591 159.057 -72.7095C160.74 -71.3928 162.382 -70.1081 164.155 -68.9835C164.196 -68.9513 164.278 -68.8872 164.319 -68.8551C165.986 -67.6826 167.645 -66.5822 169.336 -65.5218C169.336 -65.5218 169.459 -65.4256 169.5 -65.3935C170.798 -64.51 172.087 -63.6985 173.408 -62.9271C173.688 -62.7744 173.967 -62.6219 174.246 -62.4692C175.97 -61.4488 177.727 -60.4682 179.484 -59.4878C179.731 -59.2951 180.043 -59.1825 180.322 -59.0298C182.153 -58.0573 184.058 -57.0925 185.922 -56.1599C187.892 -55.2752 189.83 -54.3504 191.866 -53.5457C192.893 -53.0712 193.878 -52.6287 194.855 -52.2584C195.8 -51.8482 196.81 -51.5182 197.828 -51.1158C203.847 -48.8378 210.046 -46.9438 216.344 -45.4982C218.537 -44.9654 220.762 -44.4728 222.979 -44.0521C224.589 -43.7127 226.19 -43.4453 227.832 -43.1458C228.284 -43.121 228.744 -43.024 229.163 -42.9591C230.879 -42.6675 232.735 -42.4637 234.549 -42.2921C235.083 -42.203 235.535 -42.1782 235.995 -42.0812C237.013 -42.0072 238.072 -41.9011 239.05 -41.8592C240.035 -41.7452 241.012 -41.703 242.03 -41.6291C244.1 -41.521 246.128 -41.4452 248.263 -41.4171C249.019 -41.3516 249.766 -41.3583 250.513 -41.3649C251.26 -41.3715 251.975 -41.3381 252.755 -41.3847C253.502 -41.3912 254.291 -41.3656 255.03 -41.4443C256.524 -41.4575 257.978 -41.5027 259.39 -41.5801C260.877 -41.6654 262.363 -41.7507 263.841 -41.9081C265.361 -42.0334 266.806 -42.1508 268.284 -42.3082L268.432 -42.3238C269.836 -42.4733 271.241 -42.6229 272.637 -42.8445C274.148 -43.0419 275.577 -43.3034 277.014 -43.4929C278.295 -43.7387 279.428 -43.969 280.636 -44.207C281.843 -44.445 283.05 -44.6829 284.249 -44.993C287.649 -45.6833 290.951 -46.5821 294.211 -47.5129C302.826 -50.0354 311.129 -53.3274 318.989 -57.2288C320.689 -58.0666 322.316 -58.8963 323.934 -59.7982C328.722 -62.4241 333.371 -65.2907 337.806 -68.3897C339.128 -69.2602 340.402 -70.2348 341.683 -71.1374C342.956 -72.1121 344.295 -73.1667 345.601 -74.1814C347.966 -76.075 350.324 -78.0407 352.558 -80.1028C354.053 -81.4294 355.466 -82.8203 356.879 -84.2112C357.585 -84.9066 358.292 -85.6021 358.998 -86.2976C358.965 -86.5859 358.932 -86.8744 358.941 -87.1306C358.941 -89.4292 360.863 -91.2755 363.253 -91.311C365.61 -91.3065 367.548 -89.3969 367.547 -87.0984C367.546 -84.7998 365.591 -82.9133 363.234 -82.9178C362.783 -82.9426 362.331 -82.9675 361.978 -83.1124C356.548 -77.5724 350.725 -72.5376 344.49 -67.8242C338.7 -63.4863 332.564 -59.5496 326.117 -56.0539C324.499 -55.152 322.84 -54.2822 321.14 -53.4445C313.066 -49.4473 304.582 -46.0997 295.754 -43.4815C287.139 -40.959 278.22 -39.1337 269.055 -38.1579C262.994 -37.5127 256.827 -37.1481 250.611 -37.216C249.822 -37.2415 249.042 -37.1949 248.287 -37.2604C246.225 -37.2963 244.156 -37.4044 242.119 -37.5524C233.497 -38.0574 225.023 -39.2348 216.844 -41.1004C216.524 -41.2852 216.179 -41.3579 215.768 -41.3506C215.768 -41.3506 215.694 -41.3426 215.62 -41.3348C214.43 -41.281 213.485 -40.3779 213.468 -39.2086C213.452 -38.3677 213.993 -37.5497 214.741 -37.2279C214.741 -37.2279 214.782 -37.1959 214.823 -37.1637C215.061 -37.0432 215.365 -37.0026 215.668 -36.962C217.171 -36.5747 218.592 -36.2516 220.119 -35.9764C222.262 -35.5479 224.365 -35.1515 226.458 -34.8272C227.452 -34.6411 228.437 -34.527 229.423 -34.413C231.213 -34.1293 233.102 -33.9655 234.957 -33.7618C237.265 -33.5332 239.605 -33.3445 241.905 -33.1879C243.941 -33.0399 246.011 -32.9318 248.072 -32.8959C248.86 -32.8704 249.681 -32.885 250.47 -32.8595C252.079 -32.8484 253.722 -32.8771 255.29 -32.8981C258.871 -32.9874 262.402 -33.1812 265.925 -33.4468C266.484 -35.1116 268.135 -36.3818 270.048 -36.3301C272.405 -36.3257 274.301 -34.448 274.301 -32.1494C274.3 -29.8508 272.378 -28.0042 269.988 -27.9687C268.789 -27.987 267.689 -28.4538 266.884 -29.2802C261.448 -28.7379 256.012 -28.5239 250.395 -28.5826C249.573 -28.5682 248.711 -28.5859 247.923 -28.6114C245.862 -28.6474 243.833 -28.7233 241.723 -28.8635C232.197 -29.4181 222.77 -30.7495 213.664 -32.8812C204.442 -35.0371 195.549 -37.9211 187.018 -41.5734C179.907 -44.5742 173.043 -48.0392 166.499 -51.976C165.136 -52.7795 163.765 -53.6551 162.394 -54.5307C154.651 -59.4709 147.361 -65.0431 140.596 -71.2549C134.348 -76.865 128.642 -82.9706 123.413 -89.4918C122.888 -90.1656 121.96 -90.4316 121.196 -90.2408C120.867 -90.1694 120.547 -90.0258 120.309 -89.818C119.792 -89.4346 119.455 -88.7786 119.455 -88.1219C119.438 -87.6093 119.643 -87.1203 119.98 -86.7913C121.146 -85.4195 122.27 -84.0801 123.403 -82.6683C124.618 -81.1923 125.899 -79.7963 127.212 -78.4403C127.385 -78.2397 127.557 -78.0391 127.762 -77.8785C129.338 -76.1857 130.948 -74.5328 132.59 -72.9199C134.273 -71.2748 135.947 -69.7019 137.663 -68.0968C139.412 -66.5317 141.161 -64.9667 143.016 -63.4495C144.872 -61.9322 146.645 -60.4791 148.533 -59.0019C150.298 -57.621 152.13 -56.3202 153.96 -55.0192C154.043 -54.955 154.125 -54.8908 154.207 -54.8266C156.153 -53.5014 158.09 -52.2482 160.077 -50.8909C160.241 -50.7625 160.406 -50.6341 160.603 -50.5456C161.81 -49.7985 162.975 -49.0834 164.141 -48.3684C164.823 -47.9666 165.43 -47.5569 166.104 -47.2273C167.499 -46.4638 168.871 -45.5882 170.225 -44.8568C175.086 -42.2367 180.152 -39.7844 185.26 -37.6283C185.301 -37.5962 185.342 -37.5641 185.383 -37.532C187.501 -36.6629 189.538 -35.8582 191.681 -35.1013C194.653 -33.9583 197.65 -32.9277 200.672 -32.0089C202.339 -31.4932 203.924 -31.0416 205.623 -30.5659C207.939 -29.9368 210.288 -29.3477 212.595 -28.7907C212.595 -28.7907 212.609 -28.7799 212.636 -28.7585C214.599 -28.2743 216.594 -27.8298 218.614 -27.4976C220.182 -27.1903 221.71 -26.9153 223.27 -26.6801C225.06 -26.3964 226.85 -26.1125 228.632 -25.9009C230.455 -25.6571 232.237 -25.4455 234.085 -25.3138C236.359 -25.0452 238.659 -24.8888 240.884 -24.7245C241.073 -24.7081 241.221 -24.7237 241.41 -24.7074C243.479 -24.5993 245.507 -24.5235 247.569 -24.4876C248.398 -24.43 249.26 -24.4122 250.114 -24.4667C251.872 -24.4713 253.555 -24.4681 255.345 -24.5128C260.199 -24.5917 264.986 -24.9189 269.708 -25.4946C270.045 -25.494 270.374 -25.5654 270.71 -25.5648C272 -25.7385 273.256 -25.8722 274.545 -26.0459C275.613 -26.1961 276.681 -26.3463 277.707 -26.5286C278.922 -26.6945 280.171 -26.9004 281.378 -27.1384C287.652 -28.2077 293.697 -29.6537 299.667 -31.4204C302.271 -32.2083 304.907 -33.0363 307.527 -34.0084C308.537 -34.3349 309.506 -34.6935 310.508 -35.0921C311.338 -35.3628 312.233 -35.7135 313.054 -36.0563C314.451 -36.6063 315.92 -37.1641 317.374 -37.8661C318.409 -38.3047 319.444 -38.7432 320.545 -39.2617C322.787 -40.2666 324.988 -41.3034 327.181 -42.4125C328.881 -43.2502 330.54 -44.1201 332.158 -45.022C332.511 -45.2055 332.864 -45.3892 333.217 -45.5727C333.497 -45.7484 333.784 -45.8519 334.022 -46.0597C335.353 -46.8581 336.766 -47.5924 338.162 -48.4707C339.008 -48.9256 339.878 -49.4925 340.716 -50.0195C342.038 -50.89 343.402 -51.7282 344.732 -52.5266C347.336 -54.2997 349.932 -56.1449 352.486 -58.0222C353.176 -58.5334 353.759 -58.9969 354.416 -59.4681C356.133 -60.8184 357.809 -62.2007 359.451 -63.543C360.987 -64.8376 362.523 -66.1322 363.977 -67.4909C365.809 -69.1453 367.633 -70.8718 369.382 -72.5904C371.165 -74.349 372.906 -76.1397 374.574 -77.9225C377.909 -81.4882 381.145 -85.2623 384.078 -89.077C385.549 -90.9483 386.945 -92.8117 388.292 -94.7794C388.966 -95.7632 389.64 -96.7471 390.313 -97.7309C390.067 -98.2519 389.969 -98.7888 389.977 -99.3735C389.978 -101.672 391.9 -103.518 394.29 -103.554C396.646 -103.549 398.584 -101.64 398.583 -99.3412C398.583 -97.0426 396.628 -95.1561 394.271 -95.1606C394.123 -95.1448 393.975 -95.1292 393.819 -95.1855C389.054 -88.0746 383.756 -81.3811 377.923 -75.1051C370.958 -67.6139 363.425 -60.8286 355.294 -54.7092C348.674 -49.7722 341.708 -45.2361 334.382 -41.2455C332.764 -40.3436 331.105 -39.4739 329.438 -38.6762C320.453 -34.1441 311.008 -30.3657 301.161 -27.4932C291.79 -24.7078 282.075 -22.652 272.105 -21.5176C272.105 -21.5176 271.957 -21.502 271.883 -21.4941C270.734 -21.4082 269.863 -20.5128 269.846 -19.3435C269.862 -18.2142 270.716 -17.2835 271.89 -17.1531L271.931 -17.121C271.931 -17.121 272.014 -17.0568 272.046 -17.0968C272.309 -17.0883 272.457 -17.1041 272.671 -17.1998C272.671 -17.1998 272.703 -17.2396 272.736 -17.2796C274.067 -17.4212 275.389 -17.635 276.752 -17.8166C277.968 -17.9824 279.15 -18.1084 280.39 -18.3864C287.962 -19.5573 295.353 -21.3293 302.621 -23.526C304.469 -24.0511 306.235 -24.6405 308.042 -25.1977C309.446 -25.6756 310.81 -26.1854 312.214 -26.6633C313.684 -27.2211 315.121 -27.7391 316.583 -28.369C318.127 -28.9347 319.663 -29.5725 321.125 -30.2025C322.447 -30.7446 323.729 -31.3187 325.084 -31.9008C326.184 -32.4193 327.211 -32.9299 328.278 -33.4084C328.599 -33.552 328.919 -33.6954 329.166 -33.8311L329.198 -33.8711C329.158 -36.2018 331.08 -38.0484 333.47 -38.0839C335.827 -38.0794 337.764 -36.1696 337.764 -33.871C337.73 -31.5324 335.808 -29.6859 333.451 -29.6904C332.704 -29.6838 332.047 -29.8693 331.448 -30.2068C322.66 -25.9147 313.535 -22.28 303.951 -19.3989C293.857 -16.3907 283.518 -14.2319 272.776 -12.9788C265.328 -12.0399 257.74 -11.6697 250.07 -11.6923C249.134 -11.7021 248.238 -11.6798 247.335 -11.7295C245.274 -11.7655 243.172 -11.8335 241.176 -11.9494C230.755 -12.4818 220.606 -13.9187 210.777 -16.1558C210.489 -16.3806 210.103 -16.4854 209.693 -16.4782C208.461 -16.4565 207.409 -15.5056 207.434 -14.3042C207.442 -13.247 208.181 -12.3406 209.248 -12.1624C211.514 -11.6375 213.699 -11.1767 215.949 -10.796C217.977 -10.3917 219.997 -10.0595 222.091 -9.73517C223.011 -9.5412 223.922 -9.41943 224.866 -9.33756C225.778 -9.21569 226.656 -9.05367 227.56 -9.00391C229.613 -8.71168 231.657 -8.49158 233.735 -8.31143C236.19 -8.09853 238.646 -7.88584 241.126 -7.78501C243.121 -7.66911 245.223 -7.60084 247.285 -7.56489C248.188 -7.51512 249.157 -7.54545 250.093 -7.53565C252.039 -7.52395 254.019 -7.55223 255.998 -7.58052C257.936 -7.64091 259.907 -7.74126 261.878 -7.84163C263.101 -7.93541 264.333 -7.95707 265.589 -8.09083C266.665 -8.16889 267.782 -8.21482 268.891 -8.33285C270.221 -8.47449 271.551 -8.61625 272.882 -8.75789C273.104 -8.7815 273.251 -8.7971 273.473 -8.8207C284.469 -10.1373 295.063 -12.3597 305.37 -15.4636C305.699 -15.5351 305.986 -15.6387 306.274 -15.7423C307.826 -16.2359 309.304 -16.7217 310.856 -17.2153C311.973 -17.5896 313.164 -17.9717 314.273 -18.4181C315.497 -18.8403 316.646 -19.2545 317.87 -19.6767C319.2 -20.1467 320.482 -20.7209 321.771 -21.223C323.989 -22.1158 326.198 -23.0809 328.366 -24.0779C330.255 -24.8993 332.136 -25.7927 333.943 -26.6782C334.584 -26.9653 335.15 -27.2445 335.75 -27.5637C337.417 -28.3614 339.035 -29.2633 340.686 -30.2052C348.686 -34.5229 356.316 -39.458 363.519 -44.8584C365.959 -46.7599 368.398 -48.6614 370.83 -50.635C372.637 -52.1773 374.403 -53.7516 376.169 -55.326C378.304 -57.2682 380.432 -59.2826 382.518 -61.3289C383.43 -62.1922 384.293 -63.1596 385.163 -64.0549C386.067 -64.9903 386.938 -65.8856 387.8 -66.8531C389.837 -69.0036 391.751 -71.2506 393.665 -73.4975C393.797 -73.6574 393.928 -73.8173 394.06 -73.9773C394.487 -74.497 394.881 -74.9768 395.308 -75.4966C395.144 -75.9534 395.013 -76.4503 395.03 -76.9628C395.03 -79.2614 396.985 -81.1476 399.383 -81.111C401.74 -81.1065 403.636 -79.2291 403.636 -76.9305C403.635 -74.632 401.68 -72.7454 399.323 -72.7498C399.102 -72.7262 398.872 -72.7747 398.683 -72.7911C396.251 -69.8324 393.746 -66.8659 391.117 -63.9957C383.56 -55.7848 375.247 -48.2961 366.294 -41.5055C358.885 -35.9373 351.009 -30.8666 342.763 -26.4133C341.145 -25.5113 339.485 -24.6412 337.785 -23.8035C327.921 -18.7766 317.548 -14.6078 306.773 -11.3445C296.286 -8.18486 285.33 -5.85105 274.104 -4.58291C266.171 -3.62889 258.14 -3.21159 250.059 -3.22693C249.123 -3.23672 248.146 -3.27863 247.21 -3.28841C245.148 -3.32436 243.046 -3.39228 241.051 -3.5082C229.948 -4.11392 219.01 -5.57635 208.442 -8.06317C197.66 -10.4543 187.257 -13.7977 177.321 -17.9573C168.765 -21.4974 160.546 -25.6938 152.681 -30.402C151.318 -31.2055 149.988 -32.049 148.616 -32.9246C140.192 -38.2666 132.179 -44.2724 124.733 -50.8859C124.527 -51.0465 124.322 -51.2072 124.092 -51.2556C123.542 -51.489 122.943 -51.498 122.409 -51.2588C122.228 -51.2031 122.088 -51.1152 121.949 -51.0273C121.883 -50.9474 121.817 -50.8674 121.711 -50.8196C121.612 -50.6996 121.546 -50.6196 121.481 -50.5397C121.415 -50.4597 121.349 -50.3798 121.283 -50.2998C121.251 -50.2598 121.185 -50.1799 121.16 -50.0678C121.037 -49.8358 121.029 -49.5794 121.02 -49.3232C121.012 -49.0669 121.07 -48.8908 121.127 -48.7145C121.176 -48.6103 121.184 -48.5381 121.234 -48.4339C121.316 -48.3697 121.291 -48.2574 121.373 -48.1932C121.496 -48.0969 121.513 -47.9529 121.636 -47.8565C121.677 -47.8244 121.718 -47.7923 121.759 -47.7602C123.631 -46.0988 125.609 -44.4851 127.588 -42.8715C129.435 -41.4264 131.135 -39.9655 133.007 -38.6324C133.623 -38.1507 134.238 -37.669 134.846 -37.2594C136.324 -36.1033 137.942 -35.0353 139.526 -33.927C141.8 -32.3449 144.067 -30.8349 146.365 -29.3649C147.696 -28.5214 149.058 -27.7179 150.421 -26.9144C151.144 -26.4805 151.825 -26.0788 152.581 -25.6849C154.108 -24.753 155.586 -23.9251 157.105 -23.0653C158.065 -22.5108 159.026 -21.9565 159.971 -21.5463C162.869 -20.0671 165.767 -18.5878 168.764 -17.2286C170.858 -16.2475 173.026 -15.2743 175.111 -14.3654C175.308 -14.2769 175.538 -14.2285 175.777 -14.108C178.445 -13.0057 181.105 -11.9754 183.84 -10.9531C185.285 -10.4138 187.617 -9.64037 189.095 -9.141C189.522 -9.00404 189.908 -8.89929 190.294 -8.79444C193.365 -7.77147 196.419 -6.89262 199.507 -6.05383C200.747 -5.67506 201.978 -5.36832 203.251 -5.02953C204.754 -4.64224 206.175 -4.3194 207.669 -4.00422C210.436 -3.35024 213.228 -2.80837 216.053 -2.30644C217.884 -1.99062 219.748 -1.71453 221.579 -1.3987C223.484 -1.09075 225.422 -0.822828 227.393 -0.594838C228.075 -0.521457 228.871 -0.423906 229.52 -0.31055C231.45 -0.114677 233.338 0.049137 235.268 0.24501C237.116 0.37666 239.079 0.532627 240.959 0.62429C243.028 0.732341 245.057 0.808228 247.118 0.844176C248.095 0.886079 249.105 0.887898 250.042 0.897684C251.988 0.90939 253.967 0.881011 255.872 0.860602C258.557 0.793613 261.202 0.694772 263.871 0.483593C265.472 0.422564 267.106 0.321507 268.732 0.148393C270.695 -0.0240815 272.658 -0.196676 274.571 -0.473365C274.612 -0.441249 274.719 -0.488986 274.793 -0.496844C286.274 -1.82857 297.41 -4.21828 308.185 -7.4815C308.292 -7.52935 308.439 -7.54515 308.546 -7.593C309.811 -7.98304 311.043 -8.33306 312.267 -8.75522C317.753 -10.5068 323.091 -12.5709 328.372 -14.8114C329.686 -15.4256 331.008 -15.9678 332.29 -16.5421C334.885 -17.7305 337.439 -18.9509 339.985 -20.2435C340.979 -20.7142 341.932 -21.217 342.917 -21.7597C343.55 -22.1189 344.256 -22.4859 344.888 -22.8451C345.981 -23.4357 346.999 -24.0185 348.125 -24.6491C350.161 -25.8145 352.125 -26.972 354.079 -28.2017C354.531 -28.5052 355.098 -28.7845 355.541 -29.1601C357.636 -30.4776 359.73 -31.795 361.775 -33.2167C364.239 -34.9019 366.621 -36.6512 369.003 -38.4007C373.964 -42.1395 378.671 -46.1432 383.279 -50.3552C385.004 -51.9617 386.762 -53.6082 388.437 -55.3189C389.448 -56.3021 390.45 -57.3573 391.427 -58.3006C392.43 -59.3558 393.473 -60.3791 394.36 -61.4586C395.362 -62.5139 396.291 -63.5614 397.252 -64.6488C398.18 -65.6962 399.1 -66.8156 400.061 -67.903C400.981 -69.0225 401.868 -70.1021 402.788 -71.2216C404.234 -72.9808 405.631 -74.8444 407.027 -76.7078C408.128 -78.2114 409.196 -79.6748 410.289 -81.2505C410.65 -81.6903 410.97 -82.1623 411.25 -82.6663C411.677 -83.1861 411.989 -83.7301 412.342 -84.242C412.014 -84.8273 411.866 -85.4683 411.899 -86.165C411.9 -88.4636 413.855 -90.3501 416.212 -90.3456C418.569 -90.3411 420.506 -88.4313 420.506 -86.1327C420.505 -83.8342 418.583 -81.9877 416.226 -81.9922L416.193 -81.9521C410.582 -73.7296 404.437 -65.9244 397.71 -58.641C389.857 -50.0703 381.142 -42.174 371.811 -35.0878C364.032 -29.1519 355.696 -23.8496 347.031 -19.1328C345.413 -18.2308 343.787 -17.4011 342.16 -16.5713C331.836 -11.3129 321.044 -6.88036 309.76 -3.48996C298.731 -0.16314 287.307 2.32996 275.613 3.75739C267.269 4.71865 258.761 5.22316 250.081 5.19868C249.071 5.19677 248.094 5.15473 247.084 5.1528C245.392 5.07752 243.742 5.03441 242.05 4.95911C242.05 4.95911 241.664 4.85422 241.516 4.86995C241.328 4.85359 241.221 4.9014 241.032 4.88502C240.046 5.0994 239.291 6.01911 239.29 7.00422C239.29 7.98933 239.988 8.8636 240.949 9.08968C241.146 9.17815 241.335 9.19456 241.556 9.17096C241.704 9.15522 241.852 9.13948 242 9.12375C242.985 9.23774 243.954 9.20742 244.931 9.24932C245.646 9.2827 246.393 9.27617 247.108 9.30956C248.118 9.31148 249.136 9.38553 250.179 9.34747C251.936 9.34279 253.62 9.346 255.369 9.26923C256.683 9.31177 258.021 9.24222 259.36 9.17268C260.739 9.13526 262.004 9.07357 263.376 8.96404C264.377 8.89387 265.379 8.82367 266.381 8.75349C267.383 8.68331 268.352 8.65298 269.346 8.51069C271.752 8.29101 274.117 8.03938 276.482 7.78758C279.619 7.41712 282.822 6.96667 285.943 6.45201C288.07 6.07962 290.156 5.67508 292.242 5.27059C294.393 4.78613 296.479 4.38157 298.516 3.87286C299.863 3.54705 301.177 3.2612 302.516 2.8633C303.854 2.4654 305.234 2.09975 306.581 1.77394C308.215 1.34455 309.776 0.922952 311.361 0.389355C313.168 -0.167845 314.974 -0.724911 316.74 -1.31422C317.717 -1.60069 318.612 -1.95138 319.581 -2.30995C321.125 -2.87566 322.637 -3.40154 324.181 -3.96725C326.94 -5.0272 329.7 -6.0871 332.443 -7.29125C333.585 -7.77763 334.759 -8.30389 335.933 -8.83025C337.321 -9.45232 338.742 -10.1145 340.089 -10.7687C340.131 -13.0351 342.053 -14.8817 344.41 -14.8772C346.767 -14.8727 348.663 -12.995 348.663 -10.6964C348.629 -8.35783 346.707 -6.51132 344.35 -6.5158C343.603 -6.50921 342.831 -6.71892 342.191 -7.08856C332.795 -2.54928 322.906 1.2762 312.788 4.39651C301.332 7.91473 289.391 10.4631 277.146 11.9856C268.326 13.034 259.334 13.5536 250.202 13.5042C249.151 13.4702 248.141 13.4683 247.057 13.4742C244.996 13.4383 242.968 13.3624 240.939 13.2865C228.753 12.6867 216.821 11.038 205.194 8.44504C193.419 5.86782 182.046 2.2264 171.133 -2.30338C161.592 -6.28593 152.396 -10.8526 143.717 -16.131C142.995 -16.5648 142.272 -16.9987 141.55 -17.4326C140.745 -17.9307 139.702 -17.8926 138.988 -17.2692C138.955 -17.2293 138.856 -17.1093 138.79 -17.0294C138.725 -16.9494 138.626 -16.8294 138.527 -16.7094C137.895 -15.6935 138.19 -14.4115 139.233 -13.7928C139.356 -13.6965 139.52 -13.5681 139.717 -13.4796C140.317 -13.1421 140.883 -12.7645 141.483 -12.427C143.815 -10.997 146.212 -9.64685 148.642 -8.33677C149.48 -7.87867 150.317 -7.42073 151.147 -7.03471C153.815 -5.60406 156.443 -4.20539 159.16 -2.99888C160.704 -2.2511 162.207 -1.53556 163.783 -0.827764C165.713 0.0248409 167.642 0.877375 169.638 1.65004C172.388 2.81656 175.205 3.90316 178.013 4.91763C181.174 6.07692 184.483 7.2206 187.776 8.21997C192.851 9.75932 198.024 11.1786 203.205 12.3417C203.632 12.4786 204.051 12.5436 204.437 12.6485C204.905 12.8175 205.472 12.8667 205.932 12.9637C206.892 13.1897 207.886 13.3758 208.921 13.594C209.955 13.8122 210.99 14.0303 211.983 14.2164C212.977 14.4025 214.003 14.5488 215.038 14.767C216.073 14.9852 217.181 15.1955 218.241 15.3016C219.694 15.5847 221.172 15.7556 222.692 15.9587C224.096 16.1375 225.5 16.3164 226.863 16.4632C228.645 16.6748 230.46 16.8464 232.307 16.978C233.597 17.1327 234.878 17.2153 236.159 17.2979C237.744 17.421 239.255 17.5519 240.864 17.5629C242.933 17.671 244.962 17.7469 247.023 17.7828C248.074 17.8169 249.158 17.811 250.209 17.845C253.355 17.875 256.524 17.7931 259.62 17.7189C261.558 17.6585 263.455 17.5658 265.385 17.4333C266.354 17.4031 267.282 17.3408 268.202 17.2064C269.13 17.1441 270.132 17.0739 271.019 16.9795C273.318 16.8076 275.568 16.5317 277.859 16.2878C278.048 16.3042 278.196 16.2883 278.377 16.2326C279.518 16.0746 280.627 15.9565 281.728 15.7663C283.165 15.5769 284.635 15.3475 286.072 15.158C287.213 15 288.38 14.7299 289.521 14.5719C292.929 13.9536 296.329 13.2634 299.68 12.4689C301.577 12.048 303.507 11.5871 305.396 11.0941C306.923 10.7126 308.369 10.2667 309.855 9.85308C311.342 9.43943 312.828 9.0259 314.274 8.58014C315.686 8.17436 317.058 7.73643 318.429 7.29854C322.141 6.0642 325.804 4.7257 329.459 3.31504C331.717 2.45436 333.968 1.52142 336.21 0.51655C337.639 -0.0734022 339.068 -0.663227 340.481 -1.39737C341.869 -2.01944 343.29 -2.68152 344.669 -3.37568C345.129 -3.60707 345.631 -3.80634 346.049 -4.06985C346.69 -4.35695 347.396 -4.72389 348.029 -5.08309C348.283 -5.14668 348.604 -5.29031 348.809 -5.45811C350.082 -6.10442 351.355 -6.75081 352.661 -7.43711C353.047 -7.66063 353.4 -7.84406 353.753 -8.02759C354.985 -8.70602 356.217 -9.38442 357.408 -10.095C359.593 -11.2761 361.654 -12.5537 363.749 -13.8712C365.186 -14.7174 366.615 -15.6357 368.003 -16.5862C371.42 -18.7741 374.747 -21.0986 377.991 -23.4871C377.967 -23.7034 377.983 -23.8875 377.958 -24.1038C377.992 -26.4423 379.914 -28.2889 382.271 -28.2844C384.628 -28.2799 386.524 -26.4022 386.565 -24.0715C386.564 -21.7729 384.642 -19.9265 382.285 -19.9309C381.759 -19.948 381.226 -20.0369 380.758 -20.206C372.856 -14.3665 364.593 -9.0722 355.928 -4.35533C354.31 -3.45339 352.684 -2.62364 351.025 -1.7538C339.822 3.99941 328.021 8.75841 315.734 12.5474C303.809 16.2249 291.433 18.8924 278.63 20.4378C269.375 21.6056 259.898 22.1402 250.282 22.106C249.198 22.1119 248.073 22.0858 247.022 22.0518C244.961 22.0158 242.932 21.9399 240.863 21.8319C228.159 21.2872 215.768 19.5416 203.68 16.8516C191.445 14.1774 179.687 10.4311 168.388 5.79646C168.388 5.79646 168.306 5.73224 168.265 5.70012C168.224 5.66801 168.183 5.63593 168.183 5.63593C168.183 5.63593 167.797 5.53105 167.575 5.55466C166.344 5.57634 165.366 6.51939 165.349 7.68867C165.333 8.52957 165.866 9.27552 166.614 9.5973C173.872 12.5824 181.393 15.2477 188.972 17.4326C190.483 17.8919 192.027 18.3112 193.571 18.7306C195.156 19.1821 196.658 19.5694 198.268 19.9088C199.812 20.3282 201.347 20.6757 202.957 21.0152C205.995 21.7497 209.132 22.3643 212.26 22.9068C215.397 23.5215 218.517 23.9919 221.63 24.3902C223.264 24.6176 224.816 24.7808 226.409 24.976C227.435 25.1221 228.38 25.2039 229.365 25.3179C230.54 25.4482 231.747 25.5385 232.954 25.6289C235.598 25.8582 238.201 26.0555 240.87 26.1727C242.151 26.2552 243.432 26.3377 244.664 26.316C245.452 26.3415 246.2 26.3349 246.988 26.3604C248.113 26.3866 249.238 26.4129 250.322 26.407C254.403 26.4467 258.427 26.31 262.484 26.1335C263.864 26.096 265.243 26.0587 266.647 25.9092C268.692 25.801 270.655 25.6287 272.692 25.4483C274.95 25.2444 277.167 25.0082 279.344 24.7401C284.435 24.125 289.428 23.3016 294.446 22.3661C296.244 22.0652 297.994 21.6599 299.743 21.2548C302.519 20.6674 305.213 20.0158 307.939 19.3242C309.393 18.9506 310.805 18.5447 312.218 18.139C313.885 17.6696 315.552 17.2003 317.137 16.6667C329.645 12.8542 341.694 7.95943 353.102 2.03842C354.728 1.20857 356.387 0.338833 358.005 -0.563113C359.976 -1.64859 361.98 -2.77418 363.943 -3.93176C365.454 -4.78585 366.958 -5.71206 368.428 -6.59826C369.339 -7.13314 370.136 -7.69227 371.007 -8.25925C372.091 -8.92194 373.134 -9.61664 374.103 -10.3036C378.103 -12.955 382.046 -15.7827 385.939 -18.7146C388.526 -20.6319 391.065 -22.6533 393.594 -24.7469C393.66 -24.8268 393.767 -24.8748 393.833 -24.9547C396.149 -26.9526 398.432 -28.9103 400.634 -30.9324C400.97 -31.2601 401.274 -31.5479 401.652 -31.8435C403.607 -33.7299 405.529 -35.5763 407.484 -37.4627C407.681 -37.7026 407.953 -37.9503 408.158 -38.1181C409.464 -39.4611 410.737 -40.7642 412.01 -42.0672C411.937 -42.3877 411.904 -42.6762 411.904 -43.0045C411.905 -45.3031 413.827 -47.1496 416.225 -47.1131C418.581 -47.1086 420.519 -45.1987 420.518 -42.9001C420.518 -40.6015 418.563 -38.7153 416.165 -38.7519C415.754 -38.7447 415.336 -38.8095 414.95 -38.9143C406.867 -30.3921 398.077 -22.4879 388.64 -15.3537C379.662 -8.45103 370.118 -2.25422 360.074 3.1568C358.456 4.05874 356.796 4.92873 355.17 5.75857C343.861 11.5596 332.034 16.4307 319.682 20.2996C319.682 20.2996 319.247 20.4189 319.033 20.5146C319.033 20.5146 319 20.5546 318.959 20.5224C318.811 20.5382 318.705 20.586 318.598 20.6338C318.417 20.6896 318.278 20.7774 318.105 20.9052C318.105 20.9052 318.072 20.9452 318.039 20.9852C317.711 21.3851 317.506 21.8811 317.456 22.4337C317.448 23.675 318.457 24.6621 319.689 24.6404C319.804 24.6647 319.911 24.6168 319.985 24.609C319.985 24.609 320.346 24.4974 320.494 24.4817C320.568 24.4738 320.675 24.4262 320.748 24.4183C321.036 24.3147 321.323 24.2111 321.578 24.1475C322.514 23.8289 323.524 23.5025 324.461 23.1839C324.789 23.1124 325.077 23.0088 325.364 22.9052C326.736 22.4673 328.173 21.9495 329.577 21.4717C331.983 20.5953 334.357 19.7588 336.681 18.8182C339.047 17.9097 341.363 16.8968 343.679 15.884C345.247 15.2063 346.742 14.5364 348.27 13.8265C349.797 13.1166 351.292 12.4467 352.779 11.7047C354.265 10.9627 355.752 10.2207 357.238 9.47873C358.799 8.72885 360.277 7.91467 361.682 7.10842C361.821 7.02059 361.961 6.93268 362.142 6.87696C363.694 6.05498 365.279 5.19295 366.782 4.26676C372.507 0.993945 378.125 -2.55936 383.563 -6.38534C384.77 -7.28006 386.051 -8.18254 387.259 -9.07726C388.647 -10.0277 389.953 -11.0424 391.291 -12.0971C394.01 -14.1742 396.721 -16.3235 399.349 -18.537C401.164 -20.0072 402.898 -21.5416 404.631 -23.0761C405.551 -23.8672 406.536 -24.7383 407.481 -25.6415C408.976 -26.9682 410.422 -28.3989 411.9 -29.8698C415.071 -32.9072 418.119 -36.0411 421.076 -39.3111C422.341 -40.6863 423.671 -42.1414 424.961 -43.6286C425.848 -44.7081 426.768 -45.8277 427.73 -46.9151C429.373 -48.9142 431.048 -50.9534 432.65 -52.9846C433.11 -53.5444 433.529 -54.1362 433.948 -54.728C437.103 -58.8947 440.208 -63.1655 443.075 -67.557C442.829 -68.078 442.731 -68.615 442.698 -69.2317C442.699 -71.5303 444.621 -73.3765 447.051 -73.3799C449.408 -73.3754 451.346 -71.4659 451.304 -69.1994C451.271 -66.8609 449.349 -65.0144 446.992 -65.0188C446.844 -65.0031 446.696 -64.9874 446.573 -65.0837C439.943 -54.9649 432.533 -45.4562 424.409 -36.6377C415.192 -26.5719 405.032 -17.2446 394.083 -8.92806C384.686 -1.76184 374.69 4.73827 364.194 10.4528C362.576 11.3547 360.95 12.1847 359.29 13.0546C347.209 19.3027 334.487 24.5245 321.256 28.5599C308.683 32.4524 295.691 35.295 282.313 37.0476C282.272 37.0155 282.124 37.0311 282.05 37.0389C281.713 37.0383 281.459 37.1018 281.171 37.2054C280.35 37.5482 279.8 38.3002 279.791 39.2132C279.807 40.3425 280.669 41.3451 281.835 41.4034C281.835 41.4034 282.394 41.3805 282.648 41.3169C296.363 39.5649 309.716 36.6109 322.578 32.6148C322.939 32.5034 323.341 32.4241 323.662 32.2805C325.394 31.7312 327.16 31.1418 328.852 30.5604C330.363 30.0346 331.915 29.5412 333.385 28.9834C340.818 26.2584 348.07 23.2606 355.125 19.8461C356.16 19.4076 357.187 18.8971 358.246 18.3465C359.273 17.8358 360.34 17.3575 361.326 16.8147C361.745 16.5512 362.238 16.2797 362.665 16.0883C363.864 15.4499 364.989 14.8193 366.188 14.1808C367.141 13.6781 368.053 13.1431 369.005 12.6403C371.502 11.2435 374.065 9.76676 376.512 8.26572C378.262 7.20385 379.97 6.10991 381.679 5.01591C383.387 3.92193 385.128 2.78793 386.787 1.58973C388.381 0.471495 390.015 -0.614702 391.609 -1.73294C393.293 -3.04321 394.985 -4.28134 396.751 -5.52739C399.535 -7.68454 402.278 -9.87377 404.981 -12.0951C407.642 -14.3486 410.262 -16.6341 412.875 -18.9918C416.801 -22.6204 420.637 -26.3855 424.35 -30.2468C424.317 -30.5352 424.251 -30.7835 424.26 -31.0397C424.26 -33.3383 426.215 -35.2249 428.572 -35.2204C430.929 -35.216 432.867 -33.306 432.833 -30.9674C432.832 -28.6689 430.877 -26.7824 428.52 -26.7869C428.11 -26.7796 427.65 -26.8766 427.264 -26.9814C418.705 -18.0436 409.406 -9.68392 399.525 -2.17423C389.718 5.32759 379.303 12.0913 368.421 18.0294C366.803 18.9313 365.144 19.801 363.518 20.6309C351.009 27.0704 337.753 32.5315 324.055 36.7263C310.651 40.8895 296.821 43.9307 282.475 45.7135C271.856 47.0629 260.934 47.7149 249.93 47.6459C248.731 47.6276 247.499 47.6493 246.259 47.5989C244.609 47.5557 242.958 47.5126 241.308 47.4694C241.308 47.4694 240.848 47.3723 240.618 47.3238C240.544 47.3317 240.396 47.3477 240.322 47.3555L240.248 47.3632C239.846 47.4425 239.452 47.5939 239.213 47.8017C239.115 47.9216 239.049 48.0016 238.983 48.0816C238.918 48.1616 238.819 48.2816 238.753 48.3615C238.688 48.4415 238.589 48.5615 238.564 48.6736C238.441 48.9056 238.433 49.1619 238.425 49.4182C238.391 50.4433 239.13 51.3496 240.124 51.5357C240.28 51.5921 240.469 51.6085 240.657 51.6248C240.731 51.617 240.846 51.6411 240.879 51.6011C242.727 51.7328 244.451 51.7682 246.217 51.8356C247.457 51.886 248.73 51.8964 249.962 51.8747C261.228 51.9522 272.331 51.2444 283.245 49.8635C297.814 48.0571 311.972 44.9444 325.548 40.6534C339.534 36.3551 353.012 30.8707 365.726 24.2634C367.352 23.4335 368.97 22.5314 370.629 21.6616C380.879 16.0828 390.711 9.78232 400.025 2.88024C400 2.66395 399.976 2.44777 399.984 2.1915C399.985 -0.107077 401.94 -1.99357 404.296 -1.98909C406.653 -1.98462 408.591 -0.0747652 408.557 2.26379C408.557 4.56237 406.634 6.40888 404.245 6.44439C403.76 6.45949 403.342 6.39439 402.915 6.25743C393.436 13.3594 383.325 19.8356 372.829 25.5502C371.211 26.4521 369.584 27.2819 367.925 28.1517C354.957 34.8226 341.274 40.4752 327.074 44.8692C313.203 49.1917 298.782 52.2958 283.959 54.1658C272.823 55.5702 261.498 56.3015 249.969 56.2155C248.696 56.2051 247.423 56.1947 246.183 56.1443C244.163 56.1405 242.134 56.0645 240.065 55.9565C225.251 55.2716 210.757 53.4582 196.716 50.3561C182.411 47.2454 168.526 42.8862 155.232 37.4789C143.269 32.5867 131.773 26.8786 120.886 20.2666C119.523 19.4631 118.193 18.6195 116.863 17.7761C104.679 10.2806 93.2252 1.64907 82.6097 -7.83767C72.0353 -17.2923 39.0399 -47.9653 24.4464 -74.6869C-43.5964 -199.188 50.9974 -288.028 88.5436 -320.994" fill="#7AC5EC"/>
</svg>
