<svg width="122" height="180" viewBox="0 0 122 180" fill="none" xmlns="http://www.w3.org/2000/svg">
<path d="M353.034 69.2019C335.964 55.0063 297.259 14.8799 202.866 0.0685059C201.474 -0.139089 200.022 -0.0792763 198.551 -0.0979148C197.532 -0.15552 196.531 -0.134718 195.531 -0.113861C195.109 -0.124783 194.697 -0.0965088 194.246 -0.057523C193.206 -0.0259876 192.079 -0.0123438 191 0.0298699C190.333 0.0437761 189.715 0.0863451 189.058 0.139485C187.331 0.274056 185.605 0.408512 183.858 0.632244C182.848 0.781483 181.867 0.880908 180.895 1.01947C180.64 1.00507 180.277 1.06181 180.002 1.13656C178.717 1.36053 177.431 1.58465 176.107 1.8193C175.665 1.89752 175.263 1.96499 174.87 2.07176C172.318 2.59819 169.776 3.16383 167.263 3.84719C166.164 4.14616 165.025 4.45592 163.876 4.89395C162.737 5.20359 161.627 5.63085 160.498 5.97972C159.772 6.26106 158.996 6.51381 158.308 6.78447C157.15 7.18326 156.04 7.6107 154.901 8.08795L154.822 8.10933C154.518 8.23398 154.213 8.3585 153.948 8.47247C152.622 9.04235 151.365 9.55175 150.088 10.1502C149.97 10.1822 149.862 10.2536 149.754 10.3248C148.319 10.966 146.944 11.6748 145.568 12.3837C145.49 12.4051 145.451 12.4158 145.382 12.4764C144.085 13.1639 142.758 13.9015 141.48 14.6676C140.734 15.0381 140.006 15.4869 139.279 15.9359C138.512 16.3955 137.824 16.8338 137.067 17.3326C136.055 17.9847 135.003 18.6474 133.97 19.3886C132.496 20.3756 131.089 21.4698 129.634 22.5353C128.405 23.4976 127.175 24.4598 125.955 25.4613C125.021 26.2596 124.057 27.1078 123.092 27.956C122.128 28.8043 121.174 29.6918 120.268 30.6078C119.323 31.5345 118.378 32.4612 117.443 33.4271C117.374 33.4877 117.315 33.5875 117.246 33.648C116.281 34.6639 115.287 35.7296 114.292 36.7954C113.672 37.5083 113.051 38.2213 112.431 38.9342C111.387 40.139 110.353 41.3831 109.338 42.7056C108.983 43.1369 108.638 43.6075 108.323 44.0281C105.731 47.4539 103.334 50.9939 101.222 54.666C100.778 55.4146 100.334 56.1631 99.8996 56.951C99.5148 57.5999 99.1299 58.2488 98.8036 58.9655C97.2828 61.8069 95.8303 64.7554 94.5934 67.729C94.3264 68.3458 94.0985 68.9517 93.8314 69.5686C93.6036 70.1747 93.3757 70.7809 93.1479 71.387C93.0096 71.6758 92.9009 71.9146 92.8115 72.232C92.7124 72.5101 92.5939 72.7099 92.5341 72.9773C92.0585 74.2787 91.6222 75.5693 91.1859 76.8601C90.7992 78.0117 90.4613 79.1921 90.1235 80.3723C89.8455 81.2851 89.5773 82.2371 89.3386 83.1392C88.9409 84.5869 88.6218 86.0133 88.3027 87.4396C88.0434 88.5985 87.8234 89.7466 87.5738 90.9447C87.5738 90.9447 87.5738 90.9447 87.5834 90.984C87.5436 91.1623 87.5037 91.3406 87.4735 91.5581C87.2432 92.8347 87.0521 94.1005 86.8514 95.3272C86.7916 95.5946 86.771 95.8513 86.7504 96.1081C86.5388 97.6308 86.3762 99.182 86.2232 100.772C86.1222 101.553 86.0798 102.402 86.0181 103.172C85.9268 103.993 85.9236 104.831 85.8716 105.64C85.7887 106.835 85.7354 107.979 85.7407 109.192C85.7292 109.656 85.7473 110.069 85.6965 110.544C85.703 111.421 85.7489 112.287 85.7065 113.136C85.733 113.924 85.7595 114.713 85.786 115.501C85.8299 116.87 85.9131 118.229 86.0452 119.616C86.287 123.15 86.7742 126.66 87.3695 130.098C87.3984 130.216 87.4177 130.294 87.4467 130.412C87.658 131.61 87.9086 132.798 88.1591 133.986C88.4097 135.173 88.6603 136.361 88.9894 137.527C89.231 138.508 89.5214 139.518 89.7925 140.449C90.034 141.429 90.3933 142.378 90.6349 143.359C90.6928 143.595 90.7507 143.83 90.8872 144.044C91.446 144.101 91.9946 144.287 92.4639 144.662C93.9015 145.736 94.1682 147.84 93.0644 149.312C91.9606 150.785 89.8607 151.104 88.4231 150.03C86.9855 148.956 86.6892 146.902 87.7931 145.43C86.2417 140.661 85.0437 135.796 84.1206 130.856C82.988 124.215 82.415 117.464 82.3813 110.692C82.3813 105.417 82.8029 100.154 83.558 94.8832C83.7496 93.4497 83.9708 91.9663 84.2507 90.5506C85.4517 84.0287 87.2509 77.5535 89.6087 71.1356C91.946 64.9744 94.7731 58.9312 98.237 53.0916C100.487 49.2984 102.933 45.6192 105.653 42.0331C105.998 41.5625 106.352 41.1314 106.697 40.6609C107.722 39.3776 108.717 38.1442 109.761 36.9394C114.075 31.8313 118.761 27.2083 123.719 23.0135C128.795 18.7867 134.124 15.0771 139.696 11.8456C144.246 9.22686 148.913 6.91143 153.677 4.98824C154.816 4.51099 156.004 4.06237 157.153 3.62435C162.603 1.59811 168.199 -0.00723862 173.862 -1.17034C174.098 -1.23441 174.255 -1.27716 174.471 -1.41969C174.549 -1.44105 174.648 -1.55167 174.717 -1.61226C174.786 -1.67285 174.855 -1.73336 174.914 -1.83318C175.2 -2.20391 175.329 -2.69952 175.203 -3.20956C175.03 -4.08338 174.169 -4.68657 173.247 -4.51945C173.168 -4.49809 173.129 -4.48741 173.09 -4.47673C170.97 -4.06776 168.879 -3.54106 166.837 -2.98582C166.327 -2.84702 165.817 -2.70822 165.267 -2.55873C163.657 -2.12096 162.086 -1.69391 160.554 -1.10988C160.515 -1.0992 160.436 -1.07787 160.397 -1.06719C158.885 -0.572302 157.422 -0.048726 155.968 0.513952C155.968 0.513952 155.851 0.545958 155.811 0.556636C154.653 0.95543 153.543 1.38265 152.443 1.84923C152.217 1.95252 151.991 2.05593 151.765 2.15923C150.321 2.76114 148.887 3.40223 147.453 4.04339C147.217 4.10745 147.001 4.25008 146.775 4.35338C145.311 5.04443 143.818 5.78532 142.364 6.51562C140.89 7.33505 139.406 8.11525 137.951 9.01315C137.175 9.43356 136.438 9.84316 135.75 10.2814C135.052 10.6805 134.374 11.1582 133.646 11.6071C129.41 14.308 125.329 17.3014 121.482 20.566C120.125 21.6886 118.777 22.8505 117.478 24.0409C116.514 24.8891 115.598 25.7659 114.644 26.6534C114.417 26.9243 114.142 27.1667 113.906 27.3984C112.921 28.3358 111.927 29.4014 110.972 30.4565C110.667 30.7488 110.44 31.0197 110.165 31.2621C109.643 31.8645 109.081 32.4777 108.599 33.0694C108.067 33.6326 107.584 34.2241 107.062 34.8265C106.028 36.0706 105.033 37.304 104.018 38.6265C103.624 39.0685 103.279 39.5391 102.934 40.0097C102.589 40.4802 102.234 40.9116 101.899 41.4214C101.554 41.892 101.17 42.3731 100.874 42.8722C100.184 43.8133 99.5331 44.7436 98.9216 45.6634C98.2806 46.6331 97.6396 47.6028 97.0475 48.601C96.4161 49.6099 95.8143 50.569 95.2222 51.5672L95.163 51.6669C94.6005 52.6152 94.038 53.5636 93.5244 54.5404C92.942 55.5779 92.438 56.594 91.8852 57.5815C91.4405 58.4978 91.0551 59.3144 90.64 60.1808C90.2249 61.0471 89.8097 61.9134 89.4436 62.8084C88.2871 65.2577 87.3069 67.7429 86.3661 70.2173C83.9194 76.785 82.0998 83.517 80.8686 90.2565C80.5984 91.7113 80.3577 93.1162 80.1661 94.5497C79.5718 98.7718 79.1933 103.019 79.0599 107.241C78.9867 108.475 79.0016 109.727 78.9676 110.95C78.9826 112.202 79.0169 113.532 79.0415 114.823C79.121 117.188 79.2494 119.58 79.4956 121.941C79.6271 123.496 79.8371 125.03 80.0471 126.564C80.1521 127.33 80.2572 128.097 80.3622 128.864C80.5579 128.978 80.7537 129.092 80.9101 129.217C82.3477 130.292 82.6048 132.356 81.5106 133.868C80.4068 135.34 78.3071 135.66 76.8695 134.586C75.4319 133.512 75.1651 131.407 76.2689 129.935C76.4955 129.664 76.722 129.393 76.9776 129.24C76.0485 123.256 75.6196 117.26 75.5834 111.159C75.575 105.51 75.9786 99.8326 76.8038 94.1663C76.9955 92.7328 77.2264 91.2887 77.4966 89.8338C78.7678 82.916 80.637 76.045 83.1235 69.2991C85.5702 62.7315 88.5949 56.2994 92.2659 50.1105C94.6936 46.0178 97.3466 41.9895 100.293 38.1325C100.677 37.6512 101.013 37.1413 101.407 36.6993C102.392 35.4267 103.426 34.1827 104.47 32.9779C108.814 27.8199 113.51 23.0688 118.498 18.8241C118.763 18.7101 118.969 18.5282 119.157 18.268C119.157 18.268 119.186 18.218 119.216 18.1681C119.738 17.3981 119.615 16.3854 118.891 15.8287C118.373 15.4254 117.608 15.3821 117.058 15.6992C117.058 15.6992 117.018 15.7099 116.979 15.7205C116.793 15.8132 116.625 15.9843 116.458 16.1554C115.514 16.9145 114.648 17.6522 113.762 18.4791C112.493 19.6196 111.263 20.7495 110.082 21.9079C109.501 22.4425 108.969 23.0056 108.438 23.5688C107.424 24.5561 106.439 25.6611 105.445 26.7268C104.224 28.0635 103.013 29.4394 101.84 30.8046C100.796 32.0094 99.7621 33.2535 98.7767 34.5261C98.3924 35.0073 98.0179 35.5279 97.6337 36.0091C96.8749 37.0108 96.1255 38.0516 95.406 39.0426C93.7892 41.3241 92.2607 43.6236 90.7811 45.9516C91.5614 47.0789 91.5847 48.7051 90.6586 49.8779C89.5547 51.3501 87.4942 51.6593 86.0566 50.5851C84.619 49.5108 84.3618 47.4458 85.456 45.9343C86.0275 45.1929 86.8335 44.7226 87.7264 44.6054C89.9269 40.9512 92.3326 37.4505 94.9934 33.9641C95.368 33.4437 95.7818 32.9126 96.1661 32.4314C97.1515 31.1588 98.1466 29.9253 99.2202 28.6706C104.017 22.9708 109.254 17.6957 114.842 12.9949C120.498 8.2335 126.457 4.01772 132.727 0.387127C137.926 -2.65919 143.3 -5.33445 148.82 -7.58889C149.959 -8.06616 151.148 -8.51474 152.336 -8.96344C159.043 -11.499 165.935 -13.4566 172.981 -14.7866C179.409 -16.0741 185.894 -16.7911 192.416 -17.0158C193.083 -17.0297 193.683 -17.486 193.921 -18.0529C194.029 -18.2917 194.089 -18.5591 194.071 -18.8052C194.072 -19.308 193.819 -19.8252 193.409 -20.1321C193.096 -20.3819 192.694 -20.482 192.331 -20.4251C190.928 -20.3367 189.565 -20.2589 188.153 -20.2098C186.662 -20.1393 185.19 -19.9903 183.728 -19.802C183.522 -19.7879 183.316 -19.7738 183.12 -19.7204C181.325 -19.5252 179.539 -19.2908 177.763 -19.0172C175.947 -18.7328 174.181 -18.42 172.375 -18.0964C170.58 -17.7337 168.784 -17.3709 166.968 -16.919C165.152 -16.4671 163.414 -16.0365 161.608 -15.5454C159.92 -15.0862 158.25 -14.5485 156.581 -14.0109C156.503 -13.9895 156.424 -13.9682 156.346 -13.9468C154.608 -13.3486 152.919 -12.722 151.141 -12.1131C150.984 -12.0704 150.827 -12.0277 150.68 -11.9457C149.649 -11.5397 148.657 -11.1446 147.665 -10.7492C147.095 -10.5106 146.555 -10.3219 146.034 -10.0547C144.904 -9.53821 143.716 -9.08949 142.626 -8.58368C138.716 -6.76702 134.815 -4.74352 131.081 -2.55588C131.041 -2.5452 131.002 -2.53453 130.963 -2.52385C129.429 -1.60458 127.975 -0.706656 126.5 0.280385C124.396 1.60589 122.352 2.99932 120.365 4.46039C119.264 5.26219 118.241 6.04262 117.149 6.88366C115.674 8.03833 114.208 9.2322 112.782 10.4154C112.782 10.4154 112.769 10.419 112.743 10.4261C111.523 11.4276 110.313 12.4681 109.161 13.5765C108.236 14.4141 107.351 15.2412 106.475 16.1073C105.461 17.0946 104.447 18.0817 103.482 19.0976C102.478 20.1241 101.513 21.14 100.568 22.2343C99.3373 23.5317 98.1653 24.8971 97.0228 26.2124C96.9243 26.3229 96.8651 26.4227 96.7666 26.5332C95.7322 27.7773 94.7373 29.0107 93.7519 30.2833C93.3284 30.7752 92.9145 31.3063 92.5496 31.866C91.7315 32.9675 90.943 34.0192 90.1346 35.1599C87.9167 38.2328 85.8849 41.3806 84.039 44.6034C83.8814 44.8138 83.7725 45.0527 83.6149 45.263C83.1212 46.1507 82.6179 46.9991 82.1242 47.8868C81.7194 48.6248 81.3147 49.3628 80.9492 50.0901C80.4851 50.9279 80.0308 51.8051 79.6157 52.6715C77.3535 57.0959 75.4344 61.5525 73.7503 66.1128C73.027 68.1094 72.3133 70.1454 71.6976 72.2385C71.4299 73.0229 71.2015 73.7967 70.9827 74.6097C70.7645 75.2551 70.5657 75.979 70.3965 76.6529C70.0883 77.7832 69.7505 78.9633 69.5105 80.2007C69.3014 81.0529 69.0923 81.9052 68.9025 82.8359C68.4837 84.7079 68.104 86.5691 67.7734 88.4591C67.5032 89.9139 67.2723 91.3581 67.0807 92.7916C67.0305 93.0983 66.9804 93.405 66.9302 93.7117C66.9096 93.9684 66.8401 94.1966 66.8588 94.4426C66.7367 95.6479 66.536 96.8748 66.4331 98.1586C66.3225 98.9003 66.2704 99.7097 66.2087 100.48C66.1355 101.714 66.023 102.958 65.9008 104.164C65.7936 106.621 65.7354 109.106 65.7164 111.581C65.7139 112.252 65.7313 112.833 65.7192 113.464C65.7619 115.169 65.8438 116.863 65.9161 118.518C66.0084 120.083 66.1006 121.649 66.2714 123.193C66.4506 125.112 66.6787 127.059 66.9365 128.957C67.2039 130.893 67.5105 132.819 67.8468 134.695C68.5193 138.447 69.3682 142.235 70.3845 145.852C70.8681 147.646 71.3814 149.39 71.9829 151.152C72.2836 152.033 72.5844 152.914 72.8851 153.795C73.3261 153.884 73.7078 154.074 74.0697 154.352C75.5073 155.426 75.7643 157.491 74.6701 159.002C73.5663 160.475 71.4666 160.795 70.029 159.721C68.5914 158.646 68.3246 156.542 69.4284 155.07C69.4876 154.97 69.5469 154.87 69.655 154.799C67.4327 148.496 65.7209 142.055 64.5195 135.474C63.0875 127.617 62.3616 119.736 62.3323 111.79C62.3367 105.342 62.7529 98.8661 63.6791 92.4189C63.8707 90.9854 64.1017 89.5412 64.3816 88.1256C65.7441 80.3876 67.7927 72.7142 70.5959 65.2124C73.2311 58.0493 76.4837 51.0114 80.4315 44.2448C80.4315 44.2448 80.4908 44.1451 80.5204 44.0952C81.0037 43.3359 80.8503 42.3729 80.1267 41.8162C79.4127 41.2987 78.4317 41.3979 77.8016 42.0716L77.7623 42.0823C77.7623 42.0823 77.6838 42.1037 77.6935 42.1429C77.5654 42.3033 77.5061 42.4032 77.4662 42.5815C77.4662 42.5815 77.4759 42.6206 77.4855 42.6598C76.9526 43.5582 76.4686 44.4852 75.9454 45.4228C75.4814 46.2606 75.0077 47.0593 74.6023 47.9649C71.7975 53.2485 69.4531 58.6999 67.4319 64.2728C66.8971 65.6741 66.4409 67.054 65.9454 68.4446C65.5882 69.5464 65.2703 70.6373 64.9132 71.7391C64.5754 72.9194 64.2279 74.0605 63.939 75.2693C63.5716 76.4994 63.2531 77.7582 62.9642 78.9669C62.6856 80.0474 62.4462 81.117 62.1773 82.2367C61.9875 83.1673 61.8274 84.048 61.6279 84.9395C61.5681 85.2069 61.5082 85.4743 61.4779 85.6918L61.4876 85.7311C62.9645 86.7946 63.2216 88.8597 62.1275 90.3712C61.0236 91.8434 58.9238 92.1632 57.4862 91.089C56.039 89.9756 55.7819 87.9105 56.8857 86.4383C57.2307 85.9677 57.6535 85.6435 58.1447 85.4262C59.5651 77.9237 61.554 70.5178 64.2291 63.1764C67.0625 55.4571 70.5423 47.9806 74.7765 40.6757C77.6688 35.5776 80.9821 30.6579 84.5793 25.8704C85.0228 25.2894 85.427 24.7189 85.8801 24.1771C86.8655 22.9045 87.8901 21.6212 88.8949 20.427C94.0961 14.1569 99.7364 8.47903 105.728 3.37543C106.003 3.30069 106.248 3.10818 106.436 2.84795C106.998 2.06724 106.894 0.965308 106.131 0.419274C105.466 -0.0696546 104.554 -0.0308612 103.944 0.553668C102.557 1.7262 101.248 2.87725 99.9587 4.10691C98.7582 5.18682 97.6067 6.29532 96.4256 7.4537C95.8746 7.93842 95.3726 8.45175 94.8802 9.00425C94.3782 9.51751 93.8664 9.99138 93.4133 10.5332C92.2715 11.6809 91.1786 12.8572 90.0953 14.0727C88.8151 15.5092 87.5349 16.9459 86.3133 18.4502C85.3086 19.6443 84.2838 20.9274 83.2984 22.2C82.8453 22.7418 82.4116 23.3621 81.9681 23.9432C81.0516 25.1552 80.1447 26.4066 79.2378 27.6578C78.3702 28.8984 77.5123 30.1782 76.6543 31.458C76.1414 32.2672 75.5795 33.0479 75.0762 33.8964C74.6225 34.6058 74.1295 35.3259 73.6854 36.0745C73.1525 36.9729 72.6196 37.8715 72.0867 38.7699C71.9979 38.9196 71.9387 39.0192 71.8499 39.169C67.5365 46.6628 63.9775 54.3283 61.1042 62.2259C60.9955 62.4648 60.926 62.6931 60.8565 62.9213C60.4402 64.1229 60.0534 65.2746 59.6371 66.4762C59.3494 67.3498 59.0322 68.2731 58.7935 69.1752C58.4859 70.1379 58.2079 71.0507 57.9003 72.0134C57.5728 73.0653 57.3334 74.1351 57.0452 75.1763C56.5677 76.9805 56.1394 78.8134 55.7501 80.6356C55.3815 82.2009 55.0617 83.7948 54.7716 85.3389C54.6519 85.8737 54.5618 86.3586 54.4814 86.8828C54.2015 88.2984 54.0099 89.7319 53.8279 91.2047C52.7917 98.226 52.3143 105.305 52.3274 112.334C52.3772 114.748 52.4271 117.162 52.5259 119.605C52.6465 121.456 52.8064 123.296 52.9662 125.137C53.1834 127.38 53.4497 129.652 53.7551 131.913C53.8691 132.887 54.0714 133.878 54.2247 134.841C54.3877 135.843 54.5411 136.806 54.7433 137.798C55.1369 140.077 55.6484 142.324 56.1598 144.571C56.1984 144.728 56.2371 144.885 56.2757 145.042C56.4013 145.552 56.5172 146.022 56.6428 146.533C57.0053 146.643 57.3774 146.793 57.6903 147.043C59.1279 148.117 59.3945 150.221 58.2514 151.704C57.1476 153.177 55.0872 153.486 53.6496 152.412C52.212 151.337 51.9451 149.233 53.0489 147.761C53.1377 147.611 53.2755 147.49 53.374 147.379C52.6591 144.476 51.9738 141.523 51.4063 138.538C49.8004 129.974 48.9992 121.276 48.9337 112.503C48.9116 105.267 49.4192 97.9711 50.4856 90.7323C50.6773 89.2988 50.9081 87.8544 51.1783 86.3995C52.6417 77.8806 54.8797 69.4443 57.872 61.1794C60.7948 53.1427 64.4528 45.1993 68.9039 37.5842C72.0131 32.176 75.5041 26.9569 79.2886 21.9091C79.7321 21.3281 80.2149 20.7363 80.6583 20.1552C81.6437 18.8826 82.6683 17.5993 83.673 16.4052C89.2385 9.74291 95.2632 3.58372 101.756 -1.86553C108.288 -7.49305 115.24 -12.4393 122.484 -16.7113C128.695 -20.4096 135.16 -23.5907 141.78 -26.3117C142.919 -26.789 144.068 -27.2269 145.256 -27.6756C152.533 -30.4498 160.034 -32.657 167.65 -34.2256C167.846 -34.2789 168.042 -34.3321 168.18 -34.4533C168.583 -34.6885 168.869 -35.0593 168.969 -35.505C169.018 -35.644 169.028 -35.7725 169.039 -35.9009C169.019 -35.9794 169 -36.0578 169.02 -36.147C168.991 -36.2647 168.972 -36.3432 168.952 -36.4216C168.933 -36.5001 168.914 -36.5786 168.894 -36.657C168.885 -36.6963 168.865 -36.7747 168.807 -36.8425C168.719 -37.028 168.563 -37.1529 168.406 -37.2778C168.25 -37.4027 168.113 -37.4489 167.976 -37.4954C167.888 -37.5133 167.839 -37.5419 167.75 -37.5598C167.672 -37.5385 167.613 -37.6063 167.535 -37.585C167.417 -37.5529 167.319 -37.6099 167.201 -37.5779C167.162 -37.5672 167.123 -37.5565 167.084 -37.5458C165.17 -37.151 163.236 -36.6672 161.302 -36.1833C159.535 -35.7028 157.827 -35.3221 156.119 -34.7738C155.53 -34.6137 154.941 -34.4535 154.401 -34.2648C152.987 -33.8804 151.564 -33.3674 150.13 -32.8939C148.078 -32.2103 146.075 -31.4981 144.081 -30.7467C142.932 -30.3087 141.793 -29.8315 140.653 -29.3542C140.044 -29.1049 139.475 -28.8663 138.875 -28.5777C137.579 -28.0578 136.371 -27.5201 135.123 -26.9716C134.328 -26.6297 133.532 -26.2875 132.834 -25.8885C130.555 -24.7664 128.276 -23.6444 126.025 -22.4046C124.433 -21.5531 122.812 -20.6517 121.269 -19.7717C121.122 -19.6897 120.984 -19.5684 120.797 -19.4758C118.861 -18.3214 116.974 -17.1385 115.057 -15.9056C114.044 -15.2536 112.471 -14.1561 111.468 -13.4648C111.183 -13.2617 110.937 -13.0691 110.691 -12.8767C108.617 -11.4335 106.64 -9.9332 104.673 -8.39366C103.857 -7.79498 103.09 -7.16782 102.283 -6.52991C101.339 -5.77082 100.473 -5.03286 99.5778 -4.24521C97.876 -2.81964 96.2328 -1.32633 94.5992 0.206253C93.5461 1.20422 92.5026 2.2413 91.4496 3.23927C90.367 4.28715 89.294 5.37428 88.2307 6.50064C87.8664 6.89273 87.4333 7.34549 87.0593 7.69835C86.0352 8.81402 85.0505 9.9189 84.0265 11.0346C83.081 12.1289 82.0665 13.2838 81.1307 14.4173C80.0963 15.6614 79.1013 16.8948 78.1159 18.1674C77.6332 18.7592 77.1601 19.3902 76.7166 19.9713C75.8001 21.1833 74.8933 22.4346 74.016 23.6359C72.8035 25.3471 71.63 27.0473 70.5153 28.8156C69.8054 29.8458 69.1052 30.9153 68.4539 32.0134C67.6449 33.3217 66.8358 34.6303 66.115 35.9565C66.0758 35.9672 66.0558 36.0562 66.0262 36.1061C61.4959 43.9101 57.7884 51.9929 54.796 60.2578C54.7761 60.3469 54.717 60.4467 54.697 60.5358C54.3502 61.5092 53.9936 62.4434 53.6861 63.4061C52.2189 67.6562 51.0163 71.9598 49.9508 76.3101C49.7211 77.419 49.4425 78.4996 49.2032 79.5693C48.7342 81.748 48.3044 83.916 47.9236 86.1126C47.7538 86.9541 47.6232 87.785 47.5023 88.6551C47.4316 89.2185 47.3312 89.8317 47.2604 90.3952C47.1196 91.3544 47.0083 92.2639 46.8771 93.2623C46.6546 95.081 46.4617 96.8497 46.3177 98.647C46.2965 99.0714 46.2065 99.5564 46.2343 100.009C46.08 101.935 45.9257 103.861 45.8596 105.804C45.7627 108.133 45.7443 110.44 45.7259 112.747C45.7471 117.597 46.0529 122.412 46.5351 127.262C46.7342 129.092 46.943 130.961 47.2303 132.808C47.3734 133.899 47.5653 135.019 47.6987 136.071C47.8906 137.191 48.0434 138.322 48.3043 139.381C48.4962 140.501 48.7178 141.571 48.949 142.68C49.1706 143.75 49.4411 144.849 49.6724 145.958C49.9429 147.057 50.2037 148.116 50.4742 149.215C50.8993 150.941 51.4126 152.685 51.9259 154.429C52.3522 155.82 52.7688 157.172 53.244 158.592C53.3503 159.023 53.4958 159.444 53.6807 159.854C53.8062 160.364 54.0007 160.814 54.1559 161.274C54.6754 161.342 55.1454 161.549 55.5658 161.895C57.0034 162.969 57.2702 165.074 56.1664 166.546C55.0625 168.018 52.9627 168.338 51.5251 167.264C50.0875 166.189 49.8304 164.124 50.9343 162.652L50.9246 162.613C48.4022 155.262 46.3902 147.771 44.9769 140.16C43.284 131.244 42.4158 122.103 42.3419 112.956C42.2624 105.317 42.8401 97.6251 43.9373 90.0011C44.129 88.5676 44.3696 87.1628 44.6102 85.7578C46.1437 76.8431 48.4125 68.0213 51.5632 59.3785C54.6346 50.9247 58.4117 42.6139 62.9818 34.6316C66.2784 28.9631 69.9372 23.4054 74.0075 17.9869C74.4806 17.3559 74.9634 16.7643 75.4365 16.1333C76.2738 15.1103 77.0719 14.0979 77.9093 13.0748C77.9093 13.0748 78.1551 12.8825 78.2144 12.7826C78.3128 12.6721 78.3328 12.583 78.4313 12.4725C78.7576 11.7559 78.5353 10.8534 77.9192 10.393C77.3031 9.93261 76.4302 9.9607 75.84 10.4561C75.6926 10.538 75.5941 10.6485 75.5052 10.7983C75.446 10.8981 75.3868 10.9979 75.3276 11.0977C74.796 11.6609 74.3623 12.2812 73.8795 12.873C73.5249 13.3043 73.1798 13.7748 72.8252 14.2062C72.3521 14.8371 71.8302 15.4395 71.3667 16.1097C70.5487 17.2112 69.7602 18.2628 68.9911 19.3929C68.3507 20.1949 67.7689 21.0647 67.1871 21.9346C66.566 22.8151 66.0137 23.6351 65.4416 24.5442C65.0174 25.2037 64.5932 25.8633 64.1691 26.5228C63.745 27.1823 63.3113 27.8026 62.9361 28.4907C61.9494 30.0985 61.002 31.6955 60.0546 33.2927C58.8209 35.4282 57.6063 37.6422 56.4704 39.8349C55.7097 41.3394 54.9884 42.8332 54.2669 44.3271C53.5648 45.8994 52.8433 47.3933 52.2101 48.9051C51.7847 49.8998 51.3497 50.8553 50.9732 51.8786C50.5967 52.9019 50.181 53.9358 49.7556 54.9305C49.2607 56.1535 48.7954 57.3266 48.3887 58.5674C47.8932 59.958 47.3977 61.3484 46.9415 62.7283C46.6641 63.4735 46.4653 64.1973 46.2369 64.971C45.8695 66.2012 45.4924 67.3923 45.125 68.6224C44.4989 70.8438 43.8728 73.0652 43.3446 75.3437C43.1155 76.2851 42.8962 77.2655 42.6768 78.2461C42.4175 79.405 42.1679 80.6033 41.9479 81.7515C43.3462 82.8364 43.6034 84.9014 42.4996 86.3736C41.3957 87.8459 39.3351 88.155 37.8975 87.0808C36.4503 85.9674 36.1932 83.9023 37.297 82.4301C37.642 81.9595 38.1337 81.5747 38.6641 81.3467C40.2138 73.3486 42.4403 65.3757 45.2151 57.5886C48.3663 48.7781 52.3506 40.1179 57.1183 31.747C60.5828 25.7398 64.4586 19.8719 68.7555 14.1825C69.2678 13.5408 69.7409 12.9099 70.2436 12.229C71.229 10.9564 72.224 9.72301 73.219 8.48964C79.2873 1.14651 85.8925 -5.54713 92.9465 -11.6095C100.06 -17.7716 107.65 -23.1847 115.582 -27.895C122.531 -32.0031 129.683 -35.6224 137.04 -38.5856C137.648 -38.8349 138.257 -39.0842 138.866 -39.3335C139.554 -39.6041 140.017 -40.2744 139.961 -41.0127C139.952 -41.0519 139.923 -41.1696 139.903 -41.248C139.884 -41.3265 139.855 -41.4443 139.826 -41.562C139.486 -42.4323 138.546 -42.8464 137.672 -42.4832C137.554 -42.4511 137.397 -42.4084 137.25 -42.3264C136.758 -42.1092 136.258 -41.9312 135.766 -41.7139C133.783 -40.9233 131.818 -40.0542 129.863 -39.1459C129.185 -38.836 128.508 -38.526 127.879 -38.1875C125.737 -37.1866 123.635 -36.1964 121.61 -35.0599C120.421 -34.4436 119.272 -33.8378 118.093 -33.1823C116.658 -32.3735 115.223 -31.5647 113.808 -30.6775C111.793 -29.5018 109.797 -28.2475 107.851 -26.9647C105.649 -25.5287 103.387 -23.993 101.224 -22.4001C97.8905 -19.9447 94.586 -17.3717 91.4378 -14.6737C91.1527 -14.4706 90.9164 -14.239 90.6705 -14.0466C90.3461 -13.8328 90.0507 -13.5013 89.7752 -13.2589C89.1849 -12.7635 88.6044 -12.2289 87.9845 -11.6836C87.3647 -11.1383 86.7449 -10.5929 86.1643 -10.0583C85.5837 -9.52367 85.0127 -8.94992 84.3928 -8.40463C83.773 -7.85933 83.1236 -7.2642 82.5623 -6.65111C81.7063 -5.87413 80.9088 -5.02914 80.072 -4.1737C79.3041 -3.37884 78.5363 -2.58407 77.8076 -1.7999C76.8428 -0.784037 75.8877 0.271068 74.9422 1.36538C74.2432 2.09965 73.593 2.86238 72.9429 3.6252C72.1255 4.5591 71.3378 5.44316 70.5789 6.44486C69.5446 7.6889 68.5495 8.92233 67.5641 10.1949C67.0518 10.8366 66.5491 11.5174 66.0368 12.1591C64.5487 14.1126 63.1191 16.1337 61.7193 18.105C60.8517 19.3456 60.0235 20.5756 59.2048 21.8448C58.771 22.4651 58.3764 23.0747 58.0308 23.7128C57.6362 24.3224 57.2122 24.9819 56.8569 25.5809C55.8902 27.0995 55.0116 28.6361 54.0938 30.1833C53.9953 30.2938 53.9362 30.3936 53.8867 30.5327C53.4522 31.3206 53.0082 32.0694 52.613 32.8466C52.0602 33.8341 51.517 34.8609 50.9641 35.8484C50.5297 36.6363 50.1538 37.492 49.7194 38.2799C48.514 40.7007 47.3575 43.15 46.2892 45.6172C45.6662 47.0006 45.053 48.4232 44.4789 49.8351C44.004 50.9689 43.6076 52.0815 43.1719 53.2046C42.7363 54.3277 42.3006 55.4508 41.9042 56.5632C41.4981 57.6364 41.1313 58.6989 40.7645 59.7615C39.8025 62.6603 38.9287 65.5769 38.1038 68.5222C37.5871 70.3371 37.1194 72.1807 36.7005 74.0528C36.402 75.2223 36.1033 76.3919 35.9026 77.6185C35.6433 78.7774 35.3938 79.9755 35.1835 81.1629C35.1133 81.5587 35.0039 81.9653 34.973 82.3504C34.8534 82.8853 34.753 83.4984 34.6823 84.0619C34.6031 84.2508 34.5433 84.5184 34.5523 84.7252C34.3619 85.8235 34.1716 86.9218 33.9908 88.0593C33.9503 88.4052 33.9001 88.7118 33.85 89.0184C33.6988 90.1061 33.5476 91.1937 33.4358 92.2706C33.1541 94.1891 32.9901 96.0756 32.8359 98.0013C32.6938 99.2957 32.6006 100.619 32.5467 101.931C32.3192 105.091 32.2192 108.258 32.1977 111.403C32.3445 111.489 32.452 111.585 32.5988 111.67C34.0461 112.784 34.3032 114.849 33.1993 116.321C32.0955 117.793 30.035 118.103 28.5581 117.039C27.1205 115.965 26.8634 113.9 27.9672 112.428C28.2234 112.107 28.5284 111.814 28.8528 111.601C28.8911 103.93 29.4393 96.2877 30.5365 88.6637C30.7282 87.2302 30.9688 85.8253 31.1997 84.3811C32.8343 74.6854 35.3706 65.0794 38.74 55.6236C42.0104 46.4459 46.1234 37.4577 51.1376 28.7268C54.7308 22.3916 58.8236 16.2135 63.3373 10.214C63.84 9.53311 64.3819 8.84155 64.8942 8.19991C65.8796 6.9273 66.8747 5.69388 67.909 4.44982C74.1845 -3.24268 81.0652 -10.1788 88.3947 -16.4835C95.7833 -22.888 103.62 -28.4935 111.797 -33.3962C111.797 -33.3962 111.876 -33.4175 111.915 -33.4282C111.954 -33.4389 111.994 -33.4495 111.994 -33.4495C111.994 -33.4495 112.24 -33.642 112.328 -33.7917C112.89 -34.5724 112.757 -35.6244 112.033 -36.1811C111.515 -36.5844 110.799 -36.5991 110.249 -36.282C104.991 -33.1358 99.8096 -29.676 94.9022 -25.9555C93.909 -25.2249 92.9255 -24.455 91.942 -23.6853C90.9192 -22.9048 89.975 -22.1457 89.0108 -21.2975C88.0272 -20.5277 87.0925 -19.7295 86.1283 -18.8813C84.2494 -17.3239 82.3996 -15.6487 80.5987 -13.945C78.7488 -12.2699 76.9967 -10.5376 75.2936 -8.77683C74.388 -7.8608 73.5609 -6.96621 72.6945 -6.06085C72.1236 -5.48699 71.6312 -4.93429 71.0996 -4.37112C70.4694 -3.69745 69.8491 -2.98454 69.2286 -2.27163C67.8499 -0.724646 66.5104 0.81164 65.1903 2.42642C64.5402 3.18925 63.8902 3.95202 63.3283 4.73272C62.944 5.21394 62.5991 5.68459 62.2148 6.16582C61.6729 6.85737 61.1309 7.54874 60.6282 8.22962C58.6967 10.7642 56.9024 13.3453 55.1176 15.9655C54.4965 16.846 53.8754 17.7264 53.3129 18.6747C52.4253 20.0045 51.6162 21.3128 50.7776 22.671C49.8502 24.1791 48.962 25.6765 48.1131 27.1631C46.1193 30.6355 44.3019 34.1436 42.543 37.7196C41.891 38.9852 41.3272 40.269 40.7635 41.5525C39.8342 43.5633 38.9834 45.5527 38.1423 47.5814C37.697 48.6653 37.291 49.7385 36.8849 50.8117C36.3997 52.0739 35.9144 53.3361 35.5077 54.5769C32.0495 64.1824 29.4829 74.006 27.8574 83.9085C27.6168 85.3134 27.3859 86.7575 27.1942 88.1911C26.9524 89.9312 26.7203 91.7108 26.5274 93.4795C26.3557 94.8239 26.2329 96.1968 26.1005 97.5305C26.0092 98.3507 25.9867 99.1103 25.9347 99.9198C25.8428 100.908 25.79 101.885 25.767 102.812C25.5569 106.553 25.4841 110.34 25.4994 114.145C25.49 116.659 25.5688 119.191 25.6966 121.752C25.7159 121.831 25.696 121.92 25.7154 121.998C25.883 124.38 26.041 126.723 26.2776 129.045C26.3252 129.409 26.3632 129.734 26.3716 130.108C26.6384 132.212 26.8955 134.277 27.1623 136.381C27.2203 136.617 27.2486 136.902 27.2576 137.109C27.4876 138.553 27.7079 139.959 27.9283 141.364C28.1632 141.467 28.359 141.582 28.5643 141.735C30.0019 142.809 30.2591 144.874 29.116 146.357C28.0122 147.829 25.9123 148.149 24.4747 147.075C23.0371 146.001 22.7704 143.897 23.9135 142.414C24.1008 142.154 24.337 141.922 24.5828 141.729C23.0277 132.692 22.1892 123.501 22.1352 114.265C22.0112 105.424 22.5932 96.5587 23.9009 87.7473C24.0925 86.3138 24.3234 84.8694 24.564 83.4645C26.2184 73.6797 28.6962 64.0059 32.0463 54.4716C32.0463 54.4716 32.1751 54.1436 32.215 53.9653C32.215 53.9653 32.2053 53.9261 32.2446 53.9154C32.3038 53.8156 32.3238 53.7264 32.3437 53.6373C32.3933 53.4982 32.4035 53.37 32.4041 53.2023C32.4041 53.2023 32.3944 53.163 32.3848 53.1238C32.2882 52.7315 32.0738 52.3712 31.7512 52.0822C30.9787 51.4969 29.8895 51.6675 29.3276 52.4482C29.2587 52.5088 29.2388 52.5978 29.2092 52.6477C29.2092 52.6477 29.1102 52.9259 29.051 53.0257C29.0213 53.0756 29.0013 53.1647 28.9717 53.2146C28.9022 53.4428 28.8327 53.6711 28.7535 53.8601C28.5155 54.5946 28.2478 55.379 28.0097 56.1135C27.9009 56.3524 27.8314 56.5807 27.7619 56.8089C27.3951 57.8714 27.0477 59.0123 26.6906 60.114C26.1146 62.0288 25.529 63.9043 25.0317 65.7977C24.495 67.7018 24.0466 69.6238 23.5982 71.5458C23.2894 72.8437 23.0102 74.0917 22.7406 75.3789C22.471 76.6662 22.1918 77.9141 21.9615 79.1907C21.7312 80.4673 21.5008 81.7439 21.2705 83.0205C21.0106 84.3469 20.8293 85.6521 20.6775 86.9074C20.6672 87.0357 20.6569 87.1642 20.6074 87.3033C20.3964 88.6583 20.1951 90.0527 20.0724 91.4256C19.4454 96.5356 19.0437 101.71 18.8969 106.899C18.8925 108.072 18.8585 109.295 18.8542 110.468C18.8003 111.781 18.825 113.072 18.8592 114.402C18.8886 117.073 18.9668 119.773 19.1235 122.451C19.1952 124.273 19.3454 126.074 19.4956 127.875C19.5607 128.821 19.6452 129.844 19.769 130.857C19.9005 132.412 20.1201 133.985 20.3495 135.597C20.7683 138.999 21.3051 142.37 21.9692 145.747C22.2384 147.181 22.5271 148.693 22.8549 150.195C23.1157 151.254 23.3862 152.353 23.6175 153.462C24.1005 155.423 24.5933 157.424 25.1156 159.375C25.2508 159.925 25.4253 160.463 25.5998 161.002C26.7326 164.922 27.9536 168.859 29.3613 172.704C29.8023 172.794 30.1841 172.983 30.5852 173.251C32.0228 174.325 32.2798 176.39 31.1463 177.912C30.0425 179.384 27.9428 179.704 26.5445 178.619C25.0972 177.506 24.8401 175.441 25.9439 173.969C26.0031 173.869 26.0623 173.769 26.1801 173.737C22.9474 164.863 20.4608 155.785 18.7396 146.583C16.7485 136.115 15.6605 125.402 15.5729 114.668C15.4797 105.442 16.0831 96.1522 17.4119 86.9164C17.6036 85.4829 17.8441 84.0778 18.075 82.6336C19.8105 72.157 22.4871 61.7593 26.1436 51.5976C29.5825 41.9136 33.8737 32.4583 39.0269 23.271C39.0662 23.2603 39.1255 23.1606 39.1551 23.1107C39.3128 22.9004 39.392 22.7114 39.4615 22.4832C39.6307 21.8092 39.4175 21.1136 38.8503 20.6818C38.1363 20.1643 37.1064 20.2352 36.5252 20.9374C36.5252 20.9374 36.2787 21.2974 36.1995 21.4864C30.8886 30.8841 26.4982 40.6176 22.9898 50.5297C22.8907 50.8078 22.7524 51.0966 22.6925 51.364C22.2266 52.7047 21.7704 54.0846 21.3438 55.4145C20.9667 56.6055 20.5503 57.8069 20.2125 58.9872C18.4449 64.9097 16.9323 70.8468 15.7724 76.8552C15.5633 77.7074 15.4031 78.5881 15.2525 79.5081C15.0924 80.3889 14.8928 81.2802 14.7719 82.1503C14.7411 82.5355 14.6807 82.9706 14.6009 83.3272C14.4401 84.3755 14.3089 85.3741 14.1481 86.4225C14.0175 87.2533 13.9263 88.0735 13.7957 88.9044C13.5031 91.1189 13.2297 93.4118 13.0253 95.6441C12.8723 97.2346 12.7585 98.8143 12.6448 100.394C12.531 101.974 12.427 103.593 12.4014 105.191C12.3566 106.71 12.2725 108.24 12.2276 109.759C12.2606 111.424 12.2447 113.061 12.1992 114.748C12.2478 117.498 12.3357 120.236 12.4629 122.965C12.6293 125.682 12.8349 128.389 13.0895 131.124C13.5252 135.276 14.0884 139.434 14.7694 143.561C14.9651 143.675 15.1511 143.75 15.3075 143.875C16.7451 144.949 17.012 147.053 15.9082 148.526C14.8044 149.998 12.7044 150.318 11.2572 149.204C9.81957 148.13 9.5528 146.026 10.6566 144.553C10.8439 144.293 11.1194 144.051 11.3653 143.858C9.77275 134.329 8.88713 124.607 8.80545 114.917C8.69417 105.278 9.32834 95.6029 10.6976 86.0212C10.8893 84.5877 11.1203 83.1435 11.3608 81.7386C13.1761 70.9054 15.9524 60.062 19.7279 49.533C23.3849 39.2036 27.9433 29.1315 33.5303 19.3238C37.6467 12.051 42.3412 4.914 47.525 -1.93747C48.0966 -2.67893 48.6584 -3.45958 49.2692 -4.21173C50.0673 -5.22411 50.8654 -6.2365 51.6635 -7.24887C51.6635 -7.24887 51.9391 -7.49126 52.0769 -7.61243C52.1065 -7.66234 52.1656 -7.76229 52.1952 -7.8122L52.2249 -7.86193C52.3632 -8.15072 52.4527 -8.46808 52.434 -8.71416C52.405 -8.83186 52.3857 -8.91035 52.3664 -8.98882C52.347 -9.06729 52.318 -9.18502 52.2987 -9.26348C52.2794 -9.34195 52.2504 -9.45967 52.1918 -9.52746C52.1042 -9.71295 51.9477 -9.83785 51.7913 -9.96276C51.1655 -10.4624 50.2534 -10.4236 49.6729 -9.88901C49.5647 -9.81775 49.4662 -9.7073 49.3678 -9.5968C49.3382 -9.54689 49.2693 -9.48619 49.279 -9.44696C48.3335 -8.35263 47.5057 -7.29043 46.6387 -6.21748C46.0279 -5.46534 45.4268 -4.67395 44.8649 -3.89326C39.553 3.11862 34.809 10.3948 30.5741 17.8673C24.8983 27.8247 20.2312 38.1357 16.5735 48.6326C12.7286 59.3898 9.86326 70.3828 8.05703 81.4228C7.81645 82.8278 7.62482 84.2615 7.3939 85.7057C6.09533 94.7239 5.4438 103.817 5.41017 112.868C5.55695 112.954 5.70369 113.04 5.86013 113.165C7.29773 114.239 7.5645 116.343 6.46068 117.815C5.35686 119.288 3.25704 119.607 1.80979 118.494C0.372193 117.42 0.115079 115.355 1.20924 113.843C1.42614 113.533 1.66242 113.301 1.94757 113.098C1.9329 103.851 2.605 94.5009 3.9338 85.2651C4.12546 83.8316 4.36607 82.4267 4.59699 80.9825C6.48238 69.7535 9.33844 58.5534 13.2233 47.6179C16.9994 36.9213 21.7946 26.45 27.5496 16.3036C31.8733 8.6814 36.7062 1.25564 42.1462 -5.91666C42.7473 -6.70804 43.3484 -7.4994 43.9592 -8.25154C44.9053 -9.51346 45.9005 -10.7469 46.9348 -11.991C54.2839 -20.9382 62.1891 -29.1576 70.6894 -36.4923C79.3177 -43.9874 88.5313 -50.6369 98.1242 -56.4268C106.773 -61.6253 115.714 -66.1497 124.937 -69.8714C126.076 -70.3487 127.225 -70.7866 128.374 -71.2246C138.755 -75.3451 149.505 -78.4776 160.399 -80.6863C171.253 -82.8844 205.855 -89.1958 229.388 -85.8415C339.058 -70.2444 350.442 30.4322 353.524 69.3198" fill="white" fill-opacity="0.09"/>
</svg>
