<svg width="17" height="21" viewBox="0 0 17 21" fill="none" xmlns="http://www.w3.org/2000/svg">
<path d="M8.4998 0.515625C6.27597 0.518272 4.14399 1.40292 2.57158 2.97548C0.999164 4.54805 0.114731 6.68012 0.112305 8.90396C0.112305 13.299 6.9173 19.1781 7.69564 19.8348L8.50147 20.5156L9.3073 19.8348C10.084 19.1781 16.8906 13.299 16.8906 8.90396C16.8882 6.67955 16.0033 4.54697 14.4302 2.97431C12.8571 1.40165 10.7242 0.51739 8.4998 0.515625ZM8.4998 17.2181C5.94564 14.8915 2.61064 11.1115 2.61064 8.90396C2.61064 7.34205 3.2311 5.84412 4.33554 4.73969C5.43997 3.63526 6.9379 3.01479 8.4998 3.01479C10.0617 3.01479 11.5596 3.63526 12.6641 4.73969C13.7685 5.84412 14.389 7.34205 14.389 8.90396C14.389 11.1073 11.0531 14.889 8.4998 17.2181Z" fill="white"/>
<path d="M8.49945 11.3309C9.87878 11.3309 10.997 10.2128 10.997 8.83344C10.997 7.45411 9.87878 6.33594 8.49945 6.33594C7.12012 6.33594 6.00195 7.45411 6.00195 8.83344C6.00195 10.2128 7.12012 11.3309 8.49945 11.3309Z" fill="white"/>
</svg>
